<?xml version="1.0" standalone="no"?>
<!DOCTYPE svg PUBLIC "-//W3C//DTD SVG 20010904//EN"
 "http://www.w3.org/TR/2001/REC-SVG-20010904/DTD/svg10.dtd">
<svg version="1.0" xmlns="http://www.w3.org/2000/svg"
 width="256.000000pt" height="256.000000pt" viewBox="0 0 256.000000 256.000000"
 preserveAspectRatio="xMidYMid meet">
<metadata>
Created by potrace 1.11, written by Peter Selinger 2001-2013
</metadata>
<g transform="translate(0.000000,256.000000) scale(0.100000,-0.100000)"
fill="#000000" stroke="none">
<path d="M772 2513 c-11 -15 -32 -53 -48 -83 l-29 -55 0 -232 c0 -184 -3 -229
-12 -221 -7 6 -13 7 -13 3 0 -11 89 -134 130 -180 20 -22 50 -73 66 -113 34
-85 79 -144 126 -162 53 -21 108 -61 108 -80 0 -9 -17 -54 -37 -101 -20 -46
-36 -93 -36 -104 1 -11 -1 -14 -4 -7 -3 6 -11 12 -18 12 -7 0 -16 6 -18 13 -4
9 -6 9 -6 0 -1 -7 -7 -13 -15 -13 -8 0 -21 -8 -28 -18 -7 -10 -31 -29 -53 -42
-64 -39 -75 -52 -75 -87 0 -36 15 -43 36 -16 11 15 12 13 2 -14 -7 -18 -18
-33 -25 -33 -16 0 -17 -22 -2 -37 9 -9 8 -20 0 -45 -8 -22 -8 -34 -1 -36 5 -2
10 -9 10 -16 0 -8 13 -13 31 -14 17 0 33 -3 36 -5 2 -3 -5 -31 -17 -63 -25
-71 -27 -126 -5 -118 8 4 15 1 15 -5 0 -14 37 -15 45 -1 3 6 -1 10 -10 10 -17
0 -30 24 -21 39 11 16 30 3 50 -34 11 -19 25 -35 33 -35 8 0 12 4 8 9 -3 5 -1
12 5 16 5 3 10 -1 10 -10 0 -13 6 -16 24 -11 17 4 26 1 30 -11 9 -22 0 -28
-19 -13 -12 10 -19 10 -27 2 -9 -9 -8 -12 3 -12 11 0 14 -10 12 -40 -1 -28 2
-40 12 -40 10 0 12 7 5 30 -7 23 -5 30 5 30 8 0 16 -4 19 -9 3 -5 15 -7 27 -4
14 4 17 8 8 13 -7 5 -9 15 -4 26 7 18 7 18 14 0 6 -17 8 -17 14 -4 3 9 4 27 1
40 -2 12 -2 17 2 11 9 -20 44 -16 44 5 1 16 1 16 11 -1 5 -9 7 -22 4 -27 -3
-6 -2 -10 4 -10 5 0 9 -9 8 -20 -1 -11 -5 -20 -9 -20 -16 0 26 -56 43 -57 14
-1 17 4 14 28 -4 31 8 37 31 15 11 -11 11 -16 1 -20 -14 -7 74 1 116 10 22 5
27 3 27 -12 0 -14 3 -16 9 -6 4 7 18 14 29 15 14 1 22 8 22 19 0 10 7 18 16
18 8 0 13 -4 10 -9 -6 -9 14 -28 51 -48 20 -11 24 -10 35 10 7 12 11 26 10 31
-2 5 5 3 14 -5 16 -13 17 -11 11 19 -4 18 -2 32 3 32 6 0 10 5 10 11 0 5 -4 8
-9 4 -5 -3 -12 -1 -16 5 -3 5 -2 10 3 10 16 0 22 42 7 56 -7 8 -27 14 -43 14
-45 0 -56 21 -36 67 9 21 16 44 15 51 -1 7 5 15 13 18 20 8 28 31 16 52 -5 9
-11 29 -15 44 -3 17 -12 28 -22 28 -9 0 -14 3 -10 6 3 3 -3 15 -14 27 -26 28
-26 51 1 37 32 -17 65 -2 89 41 16 28 21 48 16 68 -6 27 -3 30 27 36 18 3 47
11 65 16 l32 10 -14 39 c-7 21 -11 41 -8 44 4 3 1 6 -6 6 -6 0 -16 11 -21 25
-8 21 -6 30 9 46 16 17 19 18 24 5 4 -9 11 -16 17 -16 6 0 8 5 4 11 -3 6 -1
15 6 19 8 5 -12 22 -60 50 l-72 42 35 31 c38 36 60 75 88 155 23 67 24 102 4
102 -27 0 -149 -50 -209 -86 -55 -33 -60 -34 -82 -19 -13 8 -24 23 -24 33 0
24 126 140 240 222 127 91 159 127 181 203 10 36 -10 90 -40 107 -16 8 -21 20
-21 48 0 39 -33 188 -44 199 -14 14 -16 -8 -6 -73 5 -38 10 -86 10 -106 0 -36
-2 -38 -32 -38 l-33 0 33 -26 c28 -23 32 -31 32 -76 0 -44 -4 -54 -34 -84 -19
-19 -39 -34 -45 -34 -21 0 -40 47 -51 130 -8 58 -27 126 -62 215 -28 71 -53
125 -55 119 -2 -7 6 -65 17 -130 34 -195 40 -236 40 -310 0 -60 -3 -73 -22
-91 -43 -40 -60 -34 -95 35 -18 35 -43 72 -57 83 -14 11 -46 49 -72 84 -26 36
-50 63 -52 60 -3 -2 28 -74 68 -160 78 -167 93 -236 59 -270 -15 -15 -19 -12
-46 37 -30 51 -129 155 -139 145 -7 -7 13 -44 48 -89 30 -38 71 -129 82 -184
l7 -31 -65 -6 c-37 -3 -78 -2 -95 4 -16 6 -61 45 -99 87 -38 42 -84 85 -101
95 -33 19 -43 9 -14 -14 32 -27 73 -92 73 -117 0 -23 -3 -24 -37 -19 -145 20
-263 118 -263 217 0 99 160 245 401 366 77 40 137 84 113 84 -25 0 -247 -81
-312 -114 -40 -20 -77 -34 -82 -31 -16 10 -11 53 19 168 15 59 25 107 21 107
-19 0 -100 -226 -100 -279 0 -14 -11 -46 -25 -69 -14 -24 -22 -49 -18 -55 3
-5 2 -7 -4 -4 -12 8 -38 -37 -29 -51 4 -7 -4 -8 -21 -3 -26 7 -28 12 -31 62
-2 43 0 50 9 36 6 -10 8 -28 6 -39 -3 -12 -2 -17 3 -12 4 5 10 65 13 134 4
107 9 138 36 214 17 49 29 91 27 93 -2 2 -13 -8 -24 -24z m8 -438 c-7 -9 -15
-13 -17 -11 -7 7 7 26 19 26 6 0 6 -6 -2 -15z m-58 -97 c-7 -7 -12 -8 -12 -2
0 14 12 26 19 19 2 -3 -1 -11 -7 -17z m198 -1017 c-13 -25 -30 -27 -30 -5 0
19 33 48 38 34 2 -5 -2 -18 -8 -29z m130 -315 c0 -11 -19 -15 -25 -6 -3 5 1
10 9 10 9 0 16 -2 16 -4z"/>
<path d="M626 2131 c-4 -7 -5 -15 -2 -18 9 -9 19 4 14 18 -4 11 -6 11 -12 0z"/>
<path d="M661 2020 c0 -8 4 -22 9 -30 12 -18 12 -2 0 25 -6 13 -9 15 -9 5z"/>
<path d="M1795 1368 c9 -39 18 -57 31 -62 20 -8 17 8 -6 29 -11 10 -17 21 -15
26 3 4 1 10 -4 13 -5 4 -8 0 -6 -6z"/>
<path d="M883 613 c-7 -2 -13 -9 -13 -14 0 -4 7 -6 15 -3 9 4 15 0 15 -9 0 -9
-8 -17 -17 -20 -10 -2 -2 -4 18 -3 l37 0 -21 28 c-11 15 -21 28 -21 27 -1 0
-7 -3 -13 -6z"/>
<path d="M980 600 c0 -5 5 -10 11 -10 5 0 7 5 4 10 -3 6 -8 10 -11 10 -2 0 -4
-4 -4 -10z"/>
<path d="M1140 580 c0 -5 5 -10 10 -10 6 0 10 5 10 10 0 6 -4 10 -10 10 -5 0
-10 -4 -10 -10z"/>
<path d="M915 540 c3 -5 8 -10 11 -10 2 0 4 5 4 10 0 6 -5 10 -11 10 -5 0 -7
-4 -4 -10z"/>
<path d="M950 530 c0 -13 20 -13 40 0 12 8 9 10 -12 10 -16 0 -28 -4 -28 -10z"/>
<path d="M890 517 c0 -10 -4 -15 -10 -12 -7 4 -7 -2 -1 -18 6 -14 7 -28 3 -33
-4 -4 -1 -4 6 0 7 4 9 12 6 18 -5 7 -1 9 9 5 20 -8 21 0 2 33 -11 20 -14 21
-15 7z"/>
<path d="M900 395 c0 -17 9 -19 28 -6 11 7 10 10 -3 15 -23 9 -25 8 -25 -9z"/>
</g>
</svg>
