<svg xmlns="http://www.w3.org/2000/svg" viewBox="0 0 856 600"><defs/><filter id="prefix__a"><feGaussianBlur stdDeviation="12"/></filter><rect width="100%" height="100%" fill="#403321"/><g filter="url(#prefix__a)"><g transform="translate(1.7 1.7) scale(3.34375)"><circle cx="124" cy="74" r="177" fill="#fff" fill-opacity=".5"/><circle r="1" fill="#fff" fill-opacity=".5" transform="matrix(154.2216 -203.07806 64.25336 48.7953 56 53)"/><circle r="1" fill="#fff" fill-opacity=".5" transform="matrix(35.9115 7.56774 -52.06126 247.04836 227.1 132.8)"/><circle r="1" fill="#300" fill-opacity=".5" transform="rotate(-113.3 117 -16.3) scale(44.76182 33.95114)"/><ellipse cx="144" cy="19" fill="#fff" fill-opacity=".5" rx="255" ry="25"/><ellipse cx="165" cy="154" fill="#f7fdf7" fill-opacity=".5" rx="255" ry="31"/><circle r="1" fill="#67685c" fill-opacity=".5" transform="matrix(67.49404 9.83028 -2.39651 16.4543 90.4 153.5)"/><circle r="1" fill="#fff" fill-opacity=".5" transform="matrix(101.60784 -16.45688 10.14272 62.62306 48.6 64)"/><circle r="1" fill="#623500" fill-opacity=".5" transform="rotate(178.4 80.4 51.3) scale(53.06717 22.90454)"/><circle r="1" fill="#fff" fill-opacity=".5" transform="rotate(-91 174.5 -55.7) scale(101.41866 22.45321)"/><path fill-opacity=".5" d="M144.5 153l-5.2 13.6-18.2-4.4 6.8-34.8z"/><circle r="1" fill="#fff" fill-opacity=".5" transform="matrix(14.66783 21.6643 -78.90842 53.42502 195.3 167.3)"/><path fill="#010600" fill-opacity=".5" d="M135.7 121.3l71.7.8 6.1-9.1-39.1-15.7z"/><path fill="#ff9d14" fill-opacity=".5" d="M211 66l-23 28-3-62z"/><path fill="#fff" fill-opacity=".5" d="M4 152l148 27-168 15z"/><circle r="1" fill="#2c2e00" fill-opacity=".5" transform="matrix(17.02532 22.15972 -10.28756 7.90394 167.2 66.1)"/><path fill-opacity=".5" d="M90.8 162.6l51 9.9-.6 3-51-10z"/><path fill="#fffffb" fill-opacity=".5" d="M0 0h150v81H0z"/><path fill-opacity=".5" d="M159.8 159.3l-2.3-3.2 26.7-19.4 2.3 3.2z"/><circle r="1" fill="#fff" fill-opacity=".5" transform="rotate(-170.6 22.6 74.3) scale(106.07606 2.82649)"/><circle r="1" fill="#e9f8ed" fill-opacity=".5" transform="matrix(57.20464 54.77125 -17.54377 18.3232 230.2 46.8)"/><circle r="1" fill="#fff" fill-opacity=".5" transform="matrix(55.66978 4.1901 -.45042 5.98429 166 131.9)"/><path fill="#fff" fill-opacity=".5" d="M107 114h16v38h-16zm36.3 53.2l13.3-10.8-29.9 8.3 7.6 5.8z"/><path fill="#bf8844" fill-opacity=".5" d="M95 92l33 34 35-53z"/><path fill-opacity=".5" d="M17.9 152.6l118.5 18.8-.3 2-118.5-18.8z"/><circle r="1" fill="#f7fcfe" fill-opacity=".5" transform="rotate(-175.7 35.7 56.7) scale(32.42963 26.53851)"/><path fill="#7b7c75" fill-opacity=".5" d="M35.3 129.3l29.3 26.6-34.4-8.1-13.4-19.6z"/><path fill="#2d2200" fill-opacity=".5" d="M173 41h12v23h-12z"/><circle r="1" fill="#fff" fill-opacity=".5" transform="rotate(162.4 76.8 99.5) scale(35.48993 17.20507)"/><ellipse cx="244" cy="27" fill="#c6d6d4" fill-opacity=".5" rx="30" ry="33"/><path fill="#252700" fill-opacity=".5" d="M138.1 175.7l-1.8-2.5 31.6-22.9 1.8 2.5z"/><path fill="#aba9a2" fill-opacity=".5" d="M95.7 94.8l39 10-57.1 26.5 42.6 39.1z"/><ellipse cx="178" cy="89" fill="#ffb03b" fill-opacity=".5" rx="29" ry="2"/><circle cx="130" cy="155" r="10" fill="#070809" fill-opacity=".5"/><path fill="#ffe872" fill-opacity=".5" d="M154.1 79.5L94.4 91.7l50.9-15.9.6-44.4z"/><path fill="#975e18" fill-opacity=".5" d="M211.6 82.8l-.5-14.9-14.3-21.7-9 62.6z"/><ellipse cx="146" cy="29" fill="#dce8d9" fill-opacity=".5" rx="46" ry="16"/><path fill="#fff" fill-opacity=".5" d="M43.5 155.4l-59.5-5 92.5-59.7-92.5 21.9z"/><circle r="1" fill="#fff" fill-opacity=".5" transform="rotate(98.3 -41 113.3) scale(6.5915 49.43912)"/><path fill="#fffffc" fill-opacity=".5" d="M134 125h106v15H134z"/><path fill="#94571a" fill-opacity=".5" d="M129 84h22v39h-22z"/><path fill="#01101c" fill-opacity=".5" d="M155 75h32v12h-32z"/><path fill="#fffffa" fill-opacity=".5" d="M212 59h44v120h-44z"/><path fill="#362200" fill-opacity=".5" d="M201 126.3l9.4-12.8 2.8-10.7L140.9 92z"/><path fill="#fbffff" fill-opacity=".5" d="M131 118.9l-30.1 24 12.2-.4-8-23.8z"/><path fill="#fff" fill-opacity=".5" d="M138 169l14-18 9 1z"/><path fill="#ffc154" fill-opacity=".5" d="M186 47h5v36h-5z"/><path fill="#b1c7c9" fill-opacity=".5" d="M165.4 28.1l-29.3-3.7 39-11.9 59.6-.3z"/><path fill="#827968" fill-opacity=".5" d="M170 139l-21 14-12-7z"/><ellipse cx="20" cy="24" fill="#fff" fill-opacity=".5" rx="100" ry="32"/><path fill="#fdfdf6" fill-opacity=".5" d="M269 11L150 32l57 8z"/><path fill="#e6990d" fill-opacity=".5" d="M175.9 38.5h1.7L152.4 46l43.5-4z"/><circle r="1" fill="#fff" fill-opacity=".5" transform="rotate(59.6 -49.7 253) scale(23.5734 92.60683)"/><circle r="1" fill="#dde9e5" fill-opacity=".5" transform="rotate(177.6 32.8 38.4) scale(82.45177 11.69528)"/><path fill="#fff" fill-opacity=".5" d="M7.8 202L-37 127.5-7.8 110 37 184.5zM140 169l-86.2-12 .3-2 86.1 12z"/><ellipse cx="186" cy="116" fill="#000100" fill-opacity=".5" rx="21" ry="7"/><path fill="#ffffc1" fill-opacity=".5" d="M214.8 109.9l10.4 9.3-8 9-10.4-9.4z"/><circle r="1" fill="#ffff9b" fill-opacity=".5" transform="matrix(-.70197 -2.67925 19.8228 -5.1936 130 81)"/><path fill="#6d7172" fill-opacity=".5" d="M107 129l-3-13-10 20z"/><path fill="#474949" fill-opacity=".5" d="M126 131h9v18h-9z"/><ellipse cx="58" cy="149" fill="#83837c" fill-opacity=".5" rx="26" ry="4"/><path fill="#fcffff" fill-opacity=".5" d="M12 128l92-6-67-46z"/><path fill="#fff" fill-opacity=".5" d="M-8 194l144-17-152-29z"/><path fill="#c5c6c2" fill-opacity=".5" d="M39 127h61v16H39z"/><path fill="none" stroke="#313303" stroke-opacity=".5" stroke-width=".5" d="M140.4 175.5q-28.3-3.7-94.8-17.8"/><path fill="#7f6e54" fill-opacity=".5" d="M159 118l-27-11-6 18z"/><ellipse cx="148" cy="54" fill="#fb8906" fill-opacity=".5" rx="2" ry="11"/><path fill="#3e3115" fill-opacity=".5" d="M180.3 41.4l5.6 26.4-32.2 6.8-5.6-26.4z"/><path fill="#d7dfe5" fill-opacity=".5" d="M256 93.1l-1.1 22-43-2.2 1.2-22z"/><path fill="#ae7225" fill-opacity=".5" d="M172 87h40v7h-40z"/><path fill="#2c2e13" fill-opacity=".5" d="M27.4 156.8L16.7 152l7.2 1.9 61.6 9.3z"/><path fill="#fff" fill-opacity=".5" d="M177.6 127.5l-52.8 1.9 53.3 10.5-21.9 16.3z"/><path fill="#ffe" fill-opacity=".5" d="M258.5 60.1l-48.8 4.5-27.3-41.9 88.6 87.1z"/><path fill="#73726a" fill-opacity=".5" d="M55.2 148.4l58.2 9.2-.6 4-58.2-9.2z"/><path fill="#fdfff5" fill-opacity=".5" d="M62.8 47.9L148.5 78l-1.1-24.6-58.1-21.2z"/><path fill="#fff" fill-opacity=".5" d="M151 156.8l-14.8 12-1.2-1.6 14.8-12z"/><path fill="#ffb943" fill-opacity=".5" d="M150 77h4v11h-4z"/><circle r="1" fill="#a9a347" fill-opacity=".5" transform="rotate(89.3 30 156.2) scale(1.97487 24.03653)"/><path fill="#4d4b36" fill-opacity=".5" d="M153 63h28v16h-28z"/><path fill="#fffffe" fill-opacity=".5" d="M39 155l-55-19 19-19z"/><path fill="#6f706b" fill-opacity=".5" d="M45 147l-19-6-10-13z"/><path fill="#864b11" fill-opacity=".5" d="M149.4 78.3l-13.3 4.3 6.8 24.6 11.4 5z"/><path fill="#c88844" fill-opacity=".5" d="M120 86h13v32h-13z"/><path fill="#8f5b17" fill-opacity=".5" d="M201 68h11v46h-11z"/><path fill="#b1b3b1" fill-opacity=".5" d="M98.6 95.6l-4.2-5.3h26l-14.7 20.8z"/><circle r="1" fill="#ffc739" fill-opacity=".5" transform="matrix(.22773 1.17383 -21.2002 4.11298 169.8 42.2)"/><path fill="#090a0a" fill-opacity=".5" d="M130 156l12 5-1-17z"/><path fill="#c0d2d3" fill-opacity=".5" d="M145.9 51.3l-19-1.7 1.2-12.9 19 1.7z"/><path fill="#fffffb" fill-opacity=".5" d="M150.3 137.9l81.5-5-79.7-9.2-33.8 3.2z"/><circle cx="182" cy="139" r="3" fill="#403f0f" fill-opacity=".5"/><path fill="#fff" fill-opacity=".5" d="M108.5 163.5l.4-2 28.6 5-.4 2z"/><circle r="1" fill="#c7d5d8" fill-opacity=".5" transform="matrix(26.0962 -8.99394 2.49898 7.25087 228.3 41.8)"/><path fill="#71808d" fill-opacity=".5" d="M125 119l-14-31 2 24z"/><path fill="#fff" fill-opacity=".5" d="M109.2 119.3l15-.6.6 16-15 .6z"/><circle r="1" fill="#fff" fill-opacity=".5" transform="matrix(.20469 -43.82414 52.21494 .24388 217.3 178)"/><path fill="#cdccc1" fill-opacity=".5" d="M127.6 145.4l-19.1 6L96 135.1l27.4-1.9z"/><path fill="#fff" fill-opacity=".5" d="M0 11h145v15H0z"/><circle r="1" fill="#ff9b2f" fill-opacity=".5" transform="matrix(-.99943 .03387 -.62273 -18.3751 150.8 74.2)"/></g></g></svg>