<svg xmlns="http://www.w3.org/2000/svg" viewBox="0 0 600 900"><defs/><filter id="a"><feGaussianBlur stdDeviation="12"/></filter><rect width="100%" height="100%" fill="#60493d"/><g filter="url(#a)"><g fill-opacity=".5" transform="translate(1.8 1.8) scale(3.51563)"><circle r="1" fill="#ffe39a" transform="rotate(-164.9 47.8 96.7) scale(102.58437 43.74082)"/><circle r="1" fill="#ffffc8" transform="matrix(-16.23139 3.23504 -2.39231 -12.00314 146.5 78.5)"/><circle r="1" fill="#ffd1ae" transform="matrix(-59.42 -14.74332 5.48143 -22.09183 83.6 206.9)"/><path fill="#874a0a" d="M-16 107L101-16l68 232z"/><circle r="1" fill="#ffdeb2" transform="matrix(-44.58424 5.6323 -.47227 -3.73843 63.2 152)"/><circle r="1" fill="#311300" transform="matrix(16.01423 -77.05626 15.43095 3.20694 24.6 51.6)"/><ellipse cx="143" cy="25" fill="#481d00" rx="33" ry="44"/><path fill="#1d0400" d="M4.9 138.3l22.5-3.5-18.3 56.8 27.1-6.2z"/><circle r="1" fill="#b68a3f" transform="matrix(44.29392 -42.00201 26.47128 27.91573 142.7 255)"/><circle r="1" fill="#291103" transform="matrix(-.92928 -3.17789 24.30708 -7.10789 64.5 173.1)"/><ellipse cx="62" cy="250" fill="#6d4c12" rx="72" ry="13"/><path fill="#c98f58" d="M32 172L19 88l21 21z"/><path fill="#3f1800" d="M143 86h23v45h-23z"/><ellipse cx="93" cy="31" fill="#9a6327" rx="48" ry="20"/><circle r="1" fill="#c4844f" transform="rotate(111 7.2 5) scale(22.79734 16.89853)"/><path fill="#d3c5a9" d="M133.5 148.4l22.3-20 4.7 5.2-22.3 20z"/><path fill="#a97345" d="M99.7 170.2l-49 21.6 80-13.1 2.2-85.7z"/><circle r="1" fill="#411d00" transform="matrix(-81.94005 43.93587 -4.14358 -7.72774 48.3 14)"/><circle r="1" fill="#ffd8be" transform="matrix(1.2833 4.62741 -53.17785 14.74752 45.1 186)"/><ellipse cx="79" cy="79" fill="#532c0b" rx="51" ry="21"/><path fill="#fec79f" d="M129.6 71.3l32.8-3.5 2 19-32.8 3.4z"/><path fill="#ffffdc" d="M10 125l-4 9 16-2z"/><path d="M14 86L1 126h22zm116 43h7v35h-7z"/><path fill="#472903" d="M138 174l31 32-2-86z"/><path fill="#290200" d="M49 158l10-2-3 22z"/><ellipse cy="111" fill="#eda55f" rx="3" ry="69"/><path fill="#b58652" d="M1 198h40v43H1z"/><path fill="#2b1600" d="M227 67.4l-34.2 25.8-81.9-108.6 34.3-25.8z"/><path d="M3 155l2-23 23 16z"/><path fill="#efc19f" d="M73.9 154.9l-36 6.4 5.2 67.5L27.8 147z"/><path fill="#9b652c" d="M124.8 106.9L185 74.2l-39.7 12 4.4 64.5z"/><path fill="#fff8dc" d="M63 156h4v26h-4z"/><ellipse cx="91" cy="217" fill="#dfba94" rx="62" ry="20"/><path fill="#eeac75" d="M159 158l1 8-20-9z"/><path fill="#4e260c" d="M43 196l-32 6 16 2z"/><path fill="#4f2b07" d="M46 30L-7 19l45 114z"/><path fill="#0b0200" d="M78 153h6v16h-6z"/><path fill="#e8f7f7" d="M138 141h7v14h-7z"/><path fill="#31250b" d="M6.4 231.2l2.8 13.4L153.9 271-15 255.2z"/><ellipse cx="9" cy="188" fill="#0a0000" rx="7" ry="3"/><path fill="#130800" d="M5 29h6v91H5z"/><path fill="#daa169" d="M164 62l1 23-17-19z"/><path fill="#090000" d="M145 141h8v14h-8z"/><path fill="#9f6932" d="M-16 78l36 4 12 18z"/><path fill="#fffff2" d="M130 75h15v10h-15z"/><path fill="#f6c093" d="M87 151h3v38h-3z"/><circle r="1" fill="#c39862" transform="rotate(-78.5 197.8 57) scale(8.86035 23.52085)"/><path fill="#f7d0b1" d="M37.4 193.4L-17 213.2l-2.3-6.6L35 186.8z"/><path fill="#c99a6a" d="M97 176l51 20 11 46z"/><ellipse cy="194" fill="#ffedda" rx="2" ry="25"/><circle cx="124" cy="46" r="27" fill="#6a4014"/><path fill="#341e00" d="M163.1 151.1l4.4-52.7-37-13.6 20.4 15.6z"/><path fill="#bc8450" d="M129 85h10v43h-10z"/><path fill="#1a0a00" d="M125 72h3v64h-3z"/><path fill="#ecd0b1" d="M37.8 223.6l70.3-5.7-40.2 4.6 49.5-38.6z"/><path fill="#bf8350" d="M14 187l-28-31 34-2z"/><path fill="#a56e3b" d="M55 17h37v20H55z"/><path fill="#a36834" d="M24.9 104l30.7 4.2-2.5 17.9-30.7-4.3z"/><path fill="#50300b" d="M148 14H2l85-30z"/><circle cx="45" cy="178" r="4" fill="#150500"/><path fill="#e9bd97" d="M37.1 153.2l3.6 46.8-10.9-42-5-32.7z"/><path fill="#a46a2b" d="M167 94h3v79h-3z"/><path fill="#b68a59" d="M88.2 220.9l-17.1-3.7-32.3 19.2-.5 9.6z"/><path fill="#130600" d="M2.9 155.3l19.6-21.1 6.6 17.3-7.8 1.9z"/><path fill="#3e260d" d="M165.2 164.9l-34.5-3.2 54.3 53.8-10.1-25.6z"/><path d="M131 133h5v21h-5z"/><path fill="#996a3d" d="M91.5 151.4l10.1-21.5 23 22.8 60.1 13.5z"/><path fill="#f5d8bb" d="M130 172h-1l-1-48h1z"/><path fill="#352001" d="M0 190l31-5-5-7z"/><path fill="#dfae88" d="M33.3 151l-26.5 6.1 24.1 7.6 49.9-17.8z"/><path fill="#d19975" d="M36.5 3.5h-15v-7h15z"/><path fill="#e7a158" d="M2 46h3v20H2z"/><path fill="#dfa676" d="M14 14l9 6-29-1z"/><path fill="#3c250c" d="M3 205h5v9H3z"/><circle r="1" fill="#cca47b" transform="matrix(-1.43544 -6.38387 24.13329 -5.42648 31.6 209)"/><circle r="1" fill="#100904" transform="matrix(-8.69818 -23.16208 2.49712 -.93776 17 116)"/><path fill="#a06e3f" d="M73 183.2L5.3 207.8l-.3-1 67.7-24.6z"/><path fill="#6d4514" d="M28 179.6l-14 1.7-2-16.9 14-1.7z"/><path fill="#6a3d14" d="M34 19h18v88H34z"/><circle r="1" fill="#846133" transform="matrix(-42.11998 42.41507 -1.15805 -1.15 132.1 215)"/><path fill="#a86f38" d="M-53.9 108.8l.1-1 133.7 9.4-.1 1z"/><path fill="#7b5d2e" d="M7.6 251.8l44.3-17.2L-16 248l46.4-27.9z"/><path fill="#020000" d="M4 96h16v30H4z"/><path fill="#ce9f72" d="M153.4 210.5l-73-37.6 45.9-16.9-58.2 33.2z"/><circle r="1" fill="#422508" transform="matrix(-.8454 -2.6822 72.60196 -22.88314 151 63)"/><path fill="#f8d8bc" d="M40.7 174.7L18.9 201l24-12.3-10.7-15.8z"/><path fill="#9f833f" d="M153.3 239.9l-47 4 53.9 15 24.8-67.8z"/><path fill="#3f270c" d="M92 167l19-6-19-3z"/><ellipse cx="113" cy="113" fill="#804f23" rx="13" ry="35"/><path fill="#6d461b" d="M3 172h6v20H3z"/><path fill="#e3c2a0" d="M69.3 220.5l-13.6-15.2 49.9-18.7 40 36.5z"/><path fill="#7a4d21" d="M133 66L71 7l54 4z"/><circle r="1" fill="#7e5422" transform="matrix(-.24285 -4.13578 30.00244 -1.7617 167.3 88.3)"/><path fill="#321b05" d="M10.9 19.4L4.3 59.8l-.2 16L31 70.3z"/><path fill="#b07c48" d="M94.7 35.7l15.6 11-47.1-29.9 12.3-3.9z"/><path fill="#e7b994" d="M43.9 151.5l52-6.8-31 12.9-27.4-.9z"/><circle r="1" fill="#cdab7d" transform="matrix(37.71156 -28.15982 .8455 1.13228 95.3 233.6)"/><path fill="#a87a4d" d="M29.7 163.1l5.6 17.2-51.3-1.5 39.3 1.6z"/><path fill="#f2e0c4" d="M21.5 244l-.5-1 67.5-39 .5 1z"/></g></g></svg>