<svg xmlns="http://www.w3.org/2000/svg" viewBox="0 0 600 600"><defs/><filter id="prefix__a"><feGaussianBlur stdDeviation="12"/></filter><rect width="100%" height="100%" fill="#624a35"/><g filter="url(#prefix__a)"><g transform="translate(1.2 1.2) scale(2.34375)"><circle r="1" fill="#fea049" fill-opacity=".5" transform="rotate(-162.7 62 33.2) scale(83.5861 75.01807)"/><ellipse cx="101" cy="141" fill="#fff" fill-opacity=".5" rx="20" ry="30"/><circle r="1" fill="#170000" fill-opacity=".5" transform="matrix(7.71462 102.60114 -36.03906 2.70979 138.6 254.8)"/><circle cx="219" cy="130" r="89" fill="#994714" fill-opacity=".5"/><circle r="1" fill="#e08629" fill-opacity=".5" transform="matrix(-20.49759 -2.21384 12.79827 -118.49685 0 160.8)"/><circle r="1" fill="#2f0600" fill-opacity=".5" transform="matrix(2.39531 31.43084 -141.50919 10.78426 64.7 255)"/><ellipse cx="40" cy="137" fill="#441000" fill-opacity=".5" rx="20" ry="48"/><circle r="1" fill="#813307" fill-opacity=".5" transform="matrix(173.76489 21.5019 -4.53605 36.65752 120.6 0)"/><circle r="1" fill="#bf7730" fill-opacity=".5" transform="matrix(11.71812 20.21482 -42.5221 24.6492 67.2 192.2)"/><path fill="#d4ffea" fill-opacity=".5" d="M60 118h15v37H60z"/><path fill="#fff" fill-opacity=".5" d="M185.5 192.3l.9 9-23.9 2.4-.9-9z"/><circle r="1" fill="#d38236" fill-opacity=".5" transform="rotate(106.3 26.5 67.5) scale(37.36717 84.46137)"/><path fill="#ffffc7" fill-opacity=".5" d="M98 140l34-25-60-1z"/><path fill-opacity=".5" d="M124.7 157.5h-4l.6-33h4z"/><circle r="1" fill="#4e200e" fill-opacity=".5" transform="matrix(-39.1463 -190.92813 20.8782 -4.2807 236.3 1.2)"/><path fill="#010000" fill-opacity=".5" d="M111 157h25v53h-25z"/><circle r="1" fill="#a67634" fill-opacity=".5" transform="rotate(125.7 51 181) scale(15.5076 51.16953)"/><path fill="#fbfcca" fill-opacity=".5" d="M78 157l42-46-1 47z"/><circle r="1" fill="#68331c" fill-opacity=".5" transform="rotate(-102.2 140.7 -17) scale(17.85901 57.63291)"/><path fill="#330500" fill-opacity=".5" d="M98 156l6 31-19-3z"/><circle r="1" fill="#b1692c" fill-opacity=".5" transform="matrix(-19.61148 6.6745 -12.24163 -35.96914 194 59)"/><circle r="1" fill="#99541e" fill-opacity=".5" transform="matrix(-32.65221 -22.52525 9.28758 -13.46311 49 90.9)"/><path fill="#070000" fill-opacity=".5" d="M44 114h10v55H44z"/><ellipse cx="92" cy="211" fill="#76300d" fill-opacity=".5" rx="26" ry="14"/><path fill="#b68c4e" fill-opacity=".5" d="M40.6 204.6L76 244.8l-14.6-60.4L37.2 198z"/><ellipse cx="108" cy="162" fill="#e1e6cc" fill-opacity=".5" rx="4" ry="21"/><circle r="1" fill="#d2994d" fill-opacity=".5" transform="rotate(-90.2 77.3 77.5) scale(51.2908 13.22349)"/><circle r="1" fill="#6b2b08" fill-opacity=".5" transform="matrix(-28.31391 12.02993 -13.7821 -32.43785 0 22.8)"/><path fill="#fff" fill-opacity=".5" d="M127 127h4v29h-4z"/><path fill="#4c250a" fill-opacity=".5" d="M80.1 124.6l-7.5-2.6 4.3 40.1 8.2 27.2z"/><path fill="#100" fill-opacity=".5" d="M214 257l-43-42-3 55z"/><path fill="#040200" fill-opacity=".5" d="M138.3 151.1l-31.7 46.3 25.6-14.8.6-61.7z"/><circle r="1" fill="#935623" fill-opacity=".5" transform="matrix(-61.41724 -44.14612 21.31637 -29.6559 255 191)"/><path fill="#190300" fill-opacity=".5" d="M19.6 267l4-37.7 34.8 3.6-4 37.8z"/><circle r="1" fill="#894f19" fill-opacity=".5" transform="matrix(14.56587 7.28014 -27.81034 55.64204 0 236.7)"/><circle r="1" fill="#ffd68c" fill-opacity=".5" transform="matrix(-1.28597 -1.86412 20.84135 -14.37749 102.9 85.6)"/><path fill="#f6dfa4" fill-opacity=".5" d="M119.8 113.3l-26.4 51.1-11.2 7.5.7-49.3z"/><path fill-opacity=".5" d="M121.9 124.7l11.2-4.3 1 2.9-11.2 4.3z"/><path fill="#975824" fill-opacity=".5" d="M37 5l-53 69L137-9z"/><path fill="#55280d" fill-opacity=".5" d="M171.2 218.6l-14.3-47.9L48.9 271l127-72.1z"/><path fill="#d8af6c" fill-opacity=".5" d="M62 145h3v69h-3z"/><path fill="#140000" fill-opacity=".5" d="M47 122h35v2H47z"/><path fill="#834616" fill-opacity=".5" d="M40 106h70v9H40z"/><path fill="#341102" fill-opacity=".5" d="M73 235l-9-50 45 86z"/><ellipse cx="171" cy="187" fill="#280a04" fill-opacity=".5" rx="15" ry="5"/><path fill-opacity=".5" d="M67.3 201.3L21 213.7l-.2-1L67 200.3z"/><path fill="#935321" fill-opacity=".5" d="M13 35h12v152H13z"/><circle r="1" fill="#552709" fill-opacity=".5" transform="rotate(-55.3 329.5 -109.6) scale(5.24981 60.91094)"/><path fill="#8e4f25" fill-opacity=".5" d="M271 74.4l-55.9 19.5-10.9-24.5 25.7-35.1z"/><ellipse cx="125" cy="171" fill-opacity=".5" rx="1" ry="51"/><circle r="1" fill="#431c0e" fill-opacity=".5" transform="matrix(-4.42958 18.98868 -86.37056 -20.14806 228.2 0)"/><path fill="#ffffdf" fill-opacity=".5" d="M163.9 198.1l11.3-6.7 12.7 5.6-21.2 4.7z"/><circle r="1" fill="#371a04" fill-opacity=".5" transform="matrix(44.25466 -9.40662 .20791 .97815 30 222.8)"/><path fill="#fffdce" fill-opacity=".5" d="M58 117h78v4H58z"/><path fill="#431d0e" fill-opacity=".5" d="M271 107.2l-34.7-2.7-32.9-10.2L271 79z"/><path fill="#f0f3d2" fill-opacity=".5" d="M109.1 176l-3.8 1.1-6.4-21 3.8-1.2z"/><path fill="#0e0000" fill-opacity=".5" d="M110 159h16v11h-16z"/><path fill="#f5ac5e" fill-opacity=".5" d="M172.7 36.5l3.2 5-64.6 42-3.2-5z"/><path fill="#b47133" fill-opacity=".5" d="M77.4 116.5l99.9-43.1 52 14.8-86 22.7z"/><path fill="#7f4d22" fill-opacity=".5" d="M48 189l-25-55 17-5z"/><path fill="#885d2f" fill-opacity=".5" d="M193.3 199.6l7.2-23.2 8 71.6-49-44.7z"/><path fill="#1b0300" fill-opacity=".5" d="M67 180l-22-1 2-14z"/><path fill="#290b00" fill-opacity=".5" d="M25 156h13v27H25z"/><path fill="#bc6c30" fill-opacity=".5" d="M85 189h22v17H85z"/><circle r="1" fill="#deb35e" fill-opacity=".5" transform="matrix(-24.42408 4.52674 -.43867 -2.36687 255 251.2)"/><circle r="1" fill="#dbc48f" fill-opacity=".5" transform="rotate(-14.9 1072.3 -744.5) scale(17.71007 1)"/><ellipse cx="144" cy="35" fill="#a25f2b" fill-opacity=".5" rx="38" ry="14"/><circle r="1" fill="#884925" fill-opacity=".5" transform="rotate(-117.3 133.5 15.5) scale(26.43146 49.34024)"/><path fill="#fdac60" fill-opacity=".5" d="M129.4 36.8l2 2.2-38.8 36.2-2-2.2z"/><path fill="#df9650" fill-opacity=".5" d="M177.7 76.3l-13.9-9.6-74.6 41.9 91.6-34.5z"/><path fill="#a97c3b" fill-opacity=".5" d="M14 193L1 271l-10-64z"/><ellipse cx="56" cy="144" fill="#82481f" fill-opacity=".5" rx="4" ry="42"/><path fill="#0c0000" fill-opacity=".5" d="M22.3 204.1l-.2-1 37.6-5.2.2 1z"/><path fill="#2e1100" fill-opacity=".5" d="M48.6 211.2L7.8 227.7l-.4-1 40.8-16.4z"/><path fill="#e1f8dc" fill-opacity=".5" d="M66.1 142.6l7.3-14.7-13.3-2.4 3.6 31.6z"/><path fill="#37180e" fill-opacity=".5" d="M-.2 21.2l-6.7-22 21-6.4 6.8 22z"/><path fill="#4b260c" fill-opacity=".5" d="M99.7 149.6l-2.4 46.9h-1l2.4-47z"/><path fill="#97753a" fill-opacity=".5" d="M59 148h15v37H59z"/><path fill="#7b502d" fill-opacity=".5" d="M84 264l-1-22-58 17z"/><path fill="#582a11" fill-opacity=".5" d="M138.6 4.6L78.2 74l-.8-.6L137.8 4z"/><path fill="#5f2c10" fill-opacity=".5" d="M25 179l-1 58-17-9z"/><path fill="#e3b167" fill-opacity=".5" d="M110 111h5v32h-5z"/><path fill="none" stroke="#000" stroke-opacity=".5" stroke-width=".5" d="M26.6 217.6q41.8-9.2 48.3-13.8"/><path fill="#ffd37a" fill-opacity=".5" d="M66.6 199.9l.2 1-41.4 7.2-.2-1z"/><circle cx="153" cy="241" r="33" fill="#331505" fill-opacity=".5"/><path fill="#fff7b8" fill-opacity=".5" d="M126 140h5v18h-5z"/><path fill-opacity=".5" d="M121 132h5v24h-5z"/><path fill="#190203" fill-opacity=".5" d="M120.8 10.5l-15.6.9 10.4-5.1 5.7.6z"/><path fill="#ffe494" fill-opacity=".5" d="M27.8 215.7l38-12.4.4 1-38 12.4z"/><path fill="#593216" fill-opacity=".5" d="M64.6 165.8l8-3.5 43.9 35L72.2 153z"/><path fill="#cc8742" fill-opacity=".5" d="M24 61l104-47-52 48z"/><path fill="#f8fee0" fill-opacity=".5" d="M86 154l10-20 20 6z"/><path fill="none" stroke="#48220d" stroke-opacity=".5" stroke-width=".5" d="M268 12.3Q178 59.6 109.4 93"/><path fill="#ffdb88" fill-opacity=".5" d="M65.1 192.3l-34 8.4-.2-1 34-8.4z"/><path fill="#905221" fill-opacity=".5" d="M11 57h24v51H11z"/><path fill="#653119" fill-opacity=".5" d="M224 95h25v45h-25z"/><path fill="#e8994f" fill-opacity=".5" d="M214.8 71.3l.3 1-105.9 36.4-.3-1z"/><path fill="#1e0300" fill-opacity=".5" d="M41 201.5l-.3-1 28.4-6 .2 1z"/><path fill="#fff" fill-opacity=".5" d="M112 151h9v7h-9z"/><path fill="#c07d3b" fill-opacity=".5" d="M82 197l-22-36 22 9z"/></g></g></svg>