<svg xmlns="http://www.w3.org/2000/svg" viewBox="0 0 1400 729"><defs/><filter id="a"><feGaussianBlur stdDeviation="12"/></filter><rect width="100%" height="100%" fill="#514027"/><g filter="url(#a)"><g fill-opacity=".5" transform="translate(2.7 2.7) scale(5.46875)"><circle cx="83" cy="66" r="158" fill="#737971"/><circle r="1" fill="#221700" transform="matrix(84.41766 11.58972 -5.38828 39.24736 138.9 132)"/><circle r="1" fill="#b3b6bd" transform="rotate(-37.9 159.2 -20.3) scale(42.78437 20.52299)"/><path fill="#d1bab3" d="M193 86l-22-59 90 55z"/><circle r="1" fill="#b69f91" transform="rotate(-79.7 138.8 -120.7) scale(8.25455 41.32818)"/><path fill="#aea799" d="M27 0h34v36H27z"/><ellipse cx="91" cy="72" fill="#151f0b" rx="9" ry="37"/><ellipse cx="207" cy="10" fill="#263112" rx="69" ry="11"/><circle r="1" fill="#aba4aa" transform="matrix(1.45035 -6.20171 44.77598 10.47144 157.7 24.6)"/><path fill="#020300" d="M2.6 148l-17.3-46.1 38.3 26.7 62.4.1z"/><circle r="1" fill="#141200" transform="matrix(-18.61828 -35.6135 14.73258 -7.702 247 122.2)"/><path fill="#2f2917" d="M130 43h58v16h-58z"/><path fill="#83898c" d="M8 6l-24 37 54 57z"/><path fill="#e1e1c5" d="M218.1 94.3l-4.2-3.1 14.9 31.9-4.5 23.6z"/><ellipse cx="129" cy="77" rx="11" ry="10"/><path fill="#c4b19c" d="M78 41l29-17-37-2z"/><path fill="#262005" d="M200 38h19v18h-19z"/><path fill="#3d3e26" d="M30.1 69.9L13.8 58.6 75 24.7 60.6 68.9z"/><path fill="#101600" d="M122 119h91v14h-91z"/><path fill="#a07d70" d="M146 92l55-23-24 38z"/><circle r="1" fill="#353432" transform="matrix(-72.9128 -17.23586 .93509 -3.9557 38 89.2)"/><path fill="#979298" d="M99.6 54.1l70.9 22-27.4 10.2 2.8-11.5z"/><path fill="#8c8387" d="M124.8 117.3l-24.5-62.1-6.1.6 38.1 50.6z"/><path fill="#cec5bf" d="M50 68h26v17H50z"/><path fill="#d8cfcf" d="M203 55l30 27-50-19z"/><path fill="#4d3f14" d="M192 89l29 35-72-2z"/><path fill="#a7866b" d="M209.1 106.8l-13.4-15.2-45.9-1.9 64.6-22.9z"/><path fill="#adb0b9" d="M127 19.4l-37.2-2.6 12-5.8 92.7 14z"/><path fill="#282815" d="M3.7 107l-25-38.6L-3.7 57l25 38.6z"/><ellipse cx="36" cy="109" fill="#9ba89d" rx="31" ry="10"/><path fill="#25351e" d="M24 13h66v4H24z"/><path fill="#353227" d="M128 50l4-40 38 65z"/><path fill="#adbec2" d="M8 7h58v4H8z"/><path fill="#958e8b" d="M245.1 67.2L150.3 37l108.4 52 6.2-49.5z"/><path fill="#171d0d" d="M121.4 97.8l-4.7 15.3-42-12.9L79.2 85z"/><ellipse cx="123" cy="5" fill="#434d2f" rx="61" ry="8"/><path fill="#5d4927" d="M227 125l26-41-29-3z"/><ellipse cx="33" cy="24" fill="#794017" rx="37" ry="3"/><path fill="#b0b5b4" d="M9.8 64.7l30 8.3 43 2.5-78.9-1.4z"/><path fill="#494835" d="M18 38h120v18H18z"/><path fill="#cde1ef" d="M46 0h15v7H46z"/><path fill="#dedfe4" d="M200 93.5l10 4.3-2 4.7-10-4.3z"/><path fill="#9dadc3" d="M112 58h30v4h-30z"/><path fill="#ae998e" d="M136 29.2l3.3-3.8 20.6 17.4-3.2 3.8z"/><path fill="#ab9e9b" d="M213.5 28.3l3.6-.1-70.6-12 124.5 38z"/><path fill="#833e17" d="M184.3 67.2l29.7 12-2.3 5.6-29.7-12z"/><circle cx="241" cy="56" r="11" fill="#282f1a"/><path fill="#2a2919" d="M163.5 63.6l-27.1-43.5 14 6.1-7.8 32.8z"/><path fill="#142011" d="M176.4 93.6l27 5-12.2 10.6-8.3-10.7z"/><path fill="#423a1b" d="M206 45.7l9.7.5L186 61.3l-2.8-1.5z"/><path fill="#caced2" d="M134.7 14l1.4 3.6-16.8 6.5-1.4-3.7z"/><path fill="#b2a8ad" d="M121 84.3v7l-20 .4v-7z"/><path fill="#675a3c" d="M211.1 27.7L271 17.6l-12.1 19.2-14.4 5.1z"/><path fill="#040c00" d="M227.5 125.4l32.2 3.8-6-44.6 14.5-.6z"/><circle r="1" fill="#473722" transform="matrix(-23.57735 -6.8945 .28067 -.9598 194.4 33.8)"/><path fill="#615231" d="M69.4 104.1l71.1 34.7-91.4-23.2 39.3-42.7z"/><path fill="#c9b9aa" d="M201.2 48.5l-5.1 1.4 6.5-9.6-37-6.9z"/><path fill="#4f2f25" d="M159.5 32.3l9.5 59.1 19.5-25.9-20.6 11.3z"/><path fill="#3a4f32" d="M4 7h37l20-23z"/><path fill="#70afb0" d="M38.8 109.1l19.8-18.4 1.3 13.3-20.1 25.9z"/><path fill="#f5d4b7" d="M129.8 37.4l-18-1.8.4-3 18 1.8z"/><ellipse cx="131" cy="76" fill="#26281a" rx="27" ry="4"/><path fill="#896326" d="M161.5 112h29v10h-29z"/><path fill="#fae9bc" d="M209 81l-15 1-8-6z"/><ellipse cx="138" cy="127" fill="#0c0d02" rx="17" ry="16"/><path fill="#e0e9d8" d="M220 89v14h-4V89z"/><circle r="1" fill="#a59f99" transform="matrix(-1.01073 2.48205 -11.73071 -4.77691 181.8 61.8)"/><path fill="#2f3f2a" d="M91.2 26.6L54.9 8.1l-2.8 11.5L82.4 3.9z"/><path fill="#d5c9b3" d="M181.5 93.5l-8.2-9.5 18.7 7-19.7 5.1z"/><path fill="#604d33" d="M190.3 82l23.4 14.7-48.9-16 65.6 10.6z"/><circle cx="33" cy="62" r="9" fill="#17280d"/><path fill="#a0b3bd" d="M244.2 70.8L239.6 84l-19.8-6.8 4.6-13.2z"/><path fill="#b6c1ca" d="M157.1 86.7l-17.2-10 27.8 11.2-10.6 1.9z"/><path fill="#223221" d="M13 12h10v20H13z"/><ellipse cx="67" cy="131" fill="#3c3508" rx="22" ry="20"/><path fill="#330d00" d="M173 37l12 6-6 3z"/><path fill="#454841" d="M118.3 38.1L88.2 83.4l16.8 3.5 11-20.2z"/><path fill="#a59997" d="M41 89L28 77l-17 6z"/><path fill="#e1c8ae" d="M41 33l-17-9 10 12z"/><path fill="#24281d" d="M-16 78.2l28-22.8-6.7 20-19 8.4z"/><path fill="#a6aeaf" d="M88.5 29.4l-26.2-1.6 23.9-7.3-4.8 9.6z"/><path fill="#5b451d" d="M151.3 91.6l-3.2 14.6-27.4-5.8 3.2-14.6z"/><path fill="#556a6a" d="M96.8 60.6L6.6 54.3 12.5 41l28.3 9.6z"/><path fill="#b9bdbd" d="M25 28h34v4H25z"/><path fill="#b0b1a7" d="M106.7 47.1l9.8.3 3.7 1.6-10.7-5.1z"/><path fill="#b2bab9" d="M7 19l8-11-23 14z"/><path fill="#bfb6b8" d="M246.8 40.9l14.8-2.6 1.6 8.8-14.8 2.6z"/><path fill="#4e4441" d="M26 76.8l.3-1L72 87.2l-.2 1z"/><path fill="#9b9ea8" d="M127.3 59.7l2.5-3.3 11.7 15.2 25.6 3.1z"/><circle r="1" fill="#171c04" transform="matrix(-12.94729 -8.57484 7.27477 -10.98428 4.7 129.3)"/><path fill="#554e41" d="M222.6 29.9l-23.2 19.3 45.8 19.9-23.6-5.1z"/><path fill="#d5cac2" d="M16.4 112.3l-11.7-2.9 28.8-8.2-21.6.4z"/><circle r="1" fill="#101a0b" transform="matrix(1.35256 5.46545 -10.02474 2.48087 91.3 67.7)"/><path fill="#99877d" d="M48.7 15.2l-6.9 20.6 26.6-24.2-5 3.5z"/><path fill="#7c5122" d="M67.4 33.1l-15.9 13 30.7-14.7L48.8 24z"/><path fill="#453c22" d="M114 29l-27 8-18 28z"/><path fill="#cfd5d3" d="M45.7 74.9l29.6-.7-18.1 1.3-13.3-9.9z"/><path fill="#5d5f57" d="M145-14l-1 24 37 7z"/><path fill="#d5d8c7" d="M222 109h4v23h-4z"/><path fill="#9e9295" d="M216 45l14 3 21-15z"/></g></g></svg>