<svg xmlns="http://www.w3.org/2000/svg" viewBox="0 0 1200 720"><defs/><filter id="a"><feGaussianBlur stdDeviation="12"/></filter><rect width="100%" height="100%" fill="#493932"/><g filter="url(#a)"><g fill-opacity=".5" transform="translate(2.3 2.3) scale(4.6875)"><circle r="1" fill="#fff" transform="rotate(-175 92 20.6) scale(198.57665 89.06941)"/><circle r="1" fill="#fcffff" transform="matrix(-14.1254 67.61451 -141.19551 -29.49728 187 49.2)"/><ellipse cx="127" cy="93" fill="#3f4340" rx="9" ry="68"/><circle r="1" transform="rotate(26 -299.7 190.3) scale(255 28.29883)"/><circle cx="196" r="73" fill="#e9fef9"/><circle r="1" fill="#2a1e11" transform="matrix(-4.09545 -16.42753 23.91043 -5.96097 242 138.6)"/><circle r="1" fill="#606259" transform="matrix(-3.52064 9.55534 -116.98433 -43.10257 73 109.1)"/><circle r="1" fill="#ffeeea" transform="matrix(39.85334 1.25244 -.81052 25.7912 192.6 107)"/><circle r="1" fill="#b0d0c6" transform="matrix(-41.818 -41.64286 28.8904 -29.01191 39.9 32)"/><circle r="1" fill="#838b85" transform="matrix(59.26922 -14.77748 3.57486 14.338 91.3 90)"/><ellipse cx="86" cy="122" fill="#585d52" rx="57" ry="8"/><ellipse cx="11" cy="143" fill="#000100" rx="104" ry="19"/><path fill="#c49d97" d="M259 112l-108 23 53 9z"/><path fill="#fbf8f6" d="M317.3 78.3l-130.7 52.8-7.9-19.4 130.7-52.8z"/><path fill="#3b3e3b" d="M119 39h18v12h-18z"/><circle r="1" fill="#ddf1eb" transform="rotate(-43.9 88.4 -115.3) scale(36.93616 17.36603)"/><path fill="#504438" d="M209 131h47v16h-47z"/><path fill="#b1a9a5" d="M82 93.1l94.9 15-3 18.8-94.8-15z"/><path fill="#0f1414" d="M111 122h30v8h-30z"/><circle r="1" fill="#8f9690" transform="matrix(-.29519 2.52444 -20.7033 -2.4209 54.5 123.7)"/><path fill="#fff" d="M125 39h2v69h-2z"/><circle r="1" fill="#99a19a" transform="matrix(42.36306 4.72211 -.20083 1.80173 117.2 131.8)"/><circle r="1" fill="#c5cecb" transform="matrix(.08378 15.55666 -75.31543 .4056 208 73.9)"/><ellipse cx="122" cy="94" fill="#141b14" rx="2" ry="25"/><circle r="1" fill="#78857e" transform="rotate(106.6 -15.9 54.8) scale(11.65238 52.04759)"/><path fill="#cbd7cf" d="M32 49h91v19H32z"/><path d="M-16 168l60-17-53-80z"/><circle r="1" fill="#a4b4ac" transform="matrix(47.12679 -63.22544 23.43894 17.47085 44.7 1)"/><path fill="#65514b" d="M151 129h28v5h-28z"/><circle r="1" fill="#e7f2ed" transform="matrix(5.5895 -14.92498 68.46965 25.64235 223.4 42.2)"/><path fill="#bdc9c2" d="M122.8 68.7L76.9 58.1 27.8 18.2l36.5 69.6z"/><circle r="1" fill="#040d07" transform="matrix(-1.90273 .1197 -.36718 -5.83622 121.3 42.2)"/><path fill="#554e52" d="M134.6 115.4l-6 .2-1.2-37 6-.2z"/><circle r="1" fill="#433725" transform="matrix(.3133 2.74644 -28.39655 3.23928 85 119)"/><path fill="#bdc5c0" d="M133 55l85 13-81 20z"/><circle r="1" fill="#a8aba7" transform="matrix(.45745 2.53765 -22.37135 4.0328 118.7 119.5)"/><path fill="#b3aba6" d="M178.8 138l.1-1 56.3 9-.1 1z"/><ellipse cx="107" cy="143" fill="#2d281c" rx="38" ry="10"/><path fill="#d2c0bd" d="M208 113h30v15h-30z"/><path fill="#8b938c" d="M79 128l16 3 3-11z"/><path fill="#b1b7b3" d="M121 108l-2-47-34 51z"/><path fill="#76766f" d="M25 100h83L69 83z"/><path d="M126 121h20v1h-20z"/><path fill="#614334" d="M154 158.7l3.7-22.7 58.2 9.3-3.6 22.7z"/><path fill="#382f24" d="M235 137.2l9-16.8 31 16.4-9 16.8z"/><path fill="#dcdddb" d="M249 82l-35.9-15.9-34.6 27.1 52.8 4.8z"/><path fill="#585d59" d="M127 16h2v16h-2z"/><path fill="#9ca9a4" d="M42.4 65.3l14 14.4-25.5 13.6L7 52.1z"/><path fill="#141d17" d="M22.8 128.1l-38.8-67 5.9 23.2 39.4 17.4z"/><path fill="#3a3e3a" d="M126 121.8l33.8 9.2h-24.6l-42.9-4.5z"/><path fill="#d1cbc6" d="M135 93h21v21h-21z"/><path fill="#edc8c5" d="M177.1 98.4l-12.3 29.8 20.7 3.3 2.1-3.1z"/><path fill="#dee9e4" d="M135.7-14.1l-18.2 42.2 4 36-33.3-18z"/><path fill="#232119" d="M43 108l8 12 20-3z"/><ellipse cx="139" fill="#cbd9d3" rx="16" ry="24"/><path fill="#b7beb9" d="M135 133h31v2h-31z"/><path fill="#d5e0dc" d="M188 67.4l-56.4-4.1 2.5-9.4 10.5-23.1z"/><path fill="#f1f2ef" d="M145.2 103.7l11.9-20.2 58.7 32.3-59.3-21.3z"/><ellipse cx="123" cy="52" fill="#1a251d" rx="1" ry="12"/><path fill="#b4b7b2" d="M135 64.3l48.1 22.1-33.8-1.6-13.5 18.5z"/><ellipse cx="122" cy="78" fill="#464a47" rx="3" ry="12"/><path fill="#322c1f" d="M62 138l37-6-51-8z"/><path fill="#716965" d="M35.8 89.4l-13.4 6.4L64.8 115 44.7 83.4z"/><ellipse cx="133" cy="48" fill="#363431" rx="3" ry="6"/><path fill="#c8d7d2" d="M57.5 72.8l13.8 9.1L114-16H85.1z"/><path fill="#596260" d="M22 119h15v5H22z"/><path fill="#989a9d" d="M123 67h6v22h-6z"/><path fill="#b7b0ae" d="M95 116L78 99l41 9z"/><circle r="1" fill="#1c2118" transform="rotate(93.6 7.7 113.4) scale(4.21701 1)"/><path fill="#b3aca4" d="M271 150V87l-23 23z"/><path fill="#eff3f2" d="M258.4 91.8L248 113.4l-22.4-15.3 18.5-11.7z"/><path fill="#a9acaa" d="M128.2 31.8l-4.5 10.4 12.1.3 8.7 5.9z"/><circle cx="231" cy="138" r="10" fill="#4b3f36"/><path fill="#726e69" d="M258.7 148.3l-53.5-7.6.1-1 53.5 7.6z"/><path fill="#797f79" d="M30.1 122.4l.4-3 83.4 10.2-.4 3z"/><ellipse cx="157" cy="26" fill="#deeae6" rx="29" ry="19"/><path fill="#959892" d="M62.5 103.6l33.9 11.1-38.6-29.2 42.7-4.9z"/><path fill="#6f6a60" d="M163.3 134.5l-11.3-6.7-15.2 31.7 20.8-41.4z"/><path fill="#d7e0dc" d="M121 48v16l-9-27z"/><path fill="#24241c" d="M87.1 132.7l30-.5-10.6 35.8-35.2-44.5z"/><path fill="#ccc4c0" d="M158 134h48v3h-48z"/><path fill="#fffffc" d="M124 105h2v9h-2z"/><path fill="#585253" d="M130 41h2v50h-2z"/><path fill="#e7d5ce" d="M142.6 122.4l42.9 2.2v1l-43-2.2z"/><path fill="#6e6b65" d="M147 120h15l-3 4z"/><path fill="#574845" d="M44.7 110.4L98 122.3l-71-21.9.2 10z"/><path fill="#f2cbc9" d="M205 130l10-15-28 15z"/><path fill="#e0ebe8" d="M99 44.2l-5-10.9 29-13.5 5 10.9z"/><path fill="#4e4031" d="M115.7 133.2l2.5 2.6 40.2 32.2 9.7-29.2z"/><path fill="#7c918b" d="M-16 69.5l1.8-8.3 35.3 5.1L-16 99.6z"/><path fill="#251e15" d="M208 148h48v5h-48z"/><path fill="#181c19" d="M113.3 123.1l.4 5-9 .8-.4-5z"/><path d="M120 75h2v8h-2z"/><path fill="#b5beb7" d="M95 61l25 18 1 18z"/><path fill="#32291d" d="M107 114h6v4h-6z"/><path fill="#f6f1ed" d="M236.5 104.6l-28.4-12.7-31.7 29.6 22.9 3.6z"/><path fill="#3a3a36" d="M131.4 130.6L135 119l7.7 2.3L139 133z"/><circle r="1" fill="#d1cfcd" transform="matrix(-1.31871 5.34992 -18.91563 -4.66255 213.8 89.6)"/><path fill="#080c06" d="M32.3 115.9L18.7 97.1l-34.7 18 28.3 2.4z"/><path fill="#a5b1ac" d="M33.8-16L44.5 86.6l25.7-.8L-16 7.4z"/></g></g></svg>