<svg xmlns="http://www.w3.org/2000/svg" viewBox="0 0 1378 900"><defs/><filter id="prefix__a"><feGaussianBlur stdDeviation="12"/></filter><rect width="100%" height="100%" fill="#444"/><g filter="url(#prefix__a)"><g transform="translate(2.7 2.7) scale(5.38281)"><circle cx="126" cy="90" r="165" fill-opacity=".5"/><circle cx="89" cy="82" r="196" fill-opacity=".5"/><circle cx="82" cy="112" r="211" fill-opacity=".5"/><path fill="#949494" fill-opacity=".5" d="M73 57h11v19H73z"/><ellipse cx="34" cy="16" fill="#616161" fill-opacity=".5" rx="116" ry="2"/><path fill="#898989" fill-opacity=".5" d="M132 20h7v23h-7z"/><path fill="#fff" fill-opacity=".5" d="M242 105h14v2h-14z"/><path fill="#3c3c3c" fill-opacity=".5" d="M33 15h22v31H33z"/><circle r="1" fill-opacity=".5" transform="rotate(-121.3 94.6 28.2) scale(61.34567 216.79697)"/><path fill="#727272" fill-opacity=".5" d="M11 48h134v2H11z"/><ellipse cx="81" cy="65" fill="#f2f2f2" fill-opacity=".5" rx="2" ry="6"/><ellipse cx="87" cy="153" fill-opacity=".5" rx="192" ry="79"/><path fill-opacity=".5" d="M262.6 111.6L224.4-16 108.7 43.8l27.1-21z"/><path fill="#b3b3b3" fill-opacity=".5" d="M144 16h1v33h-1z"/><path fill="#828282" fill-opacity=".5" d="M33 73h27v2H33z"/><path fill-opacity=".5" d="M76.1 29.2l2.7 107.1 2.3-81.9 11-70.4z"/><ellipse cx="105" cy="118" fill="#252525" fill-opacity=".5" rx="95" ry="2"/><path fill="#fff" fill-opacity=".5" d="M132 40h9v2h-9zm117 65l11.7-3 .2 1-11.6 3z"/><path fill-opacity=".5" d="M130.1 30l23.2 18.6-33.9-18L233-7.4z"/><circle r="1" fill="#ddd" fill-opacity=".5" transform="matrix(2.03158 .58005 -.69122 2.42091 135.2 33.1)"/><path fill-opacity=".5" d="M56 17h77v30H56z"/><path fill="#7d7d7d" fill-opacity=".5" d="M36 57h27v2H36z"/><path fill="#4c4c4c" fill-opacity=".5" d="M195.2 95.1L188.9 72l2.8 18 6.7 31z"/><path fill="#5d5d5d" fill-opacity=".5" d="M11.7 56.3L8.6 19.4 9 17l4.5 30.9z"/><path fill-opacity=".5" d="M-16 106l33 20L5-8z"/><path fill="#262626" fill-opacity=".5" d="M12.5 61.5l4-.5 7 57.5-4 .5z"/><ellipse cx="126" cy="66" fill="#939393" fill-opacity=".5" rx="1" ry="9"/><path fill-opacity=".5" d="M4.9 63.7L24.8 23 21.5-.2l17 27.8z"/><path fill="#646464" fill-opacity=".5" d="M102.7 73.5h-1l1.6-19h1z"/><path fill="#010101" fill-opacity=".5" d="M80.2-16L32.5 53.8l33 4.7L48 44.4z"/><ellipse cx="133" cy="6" fill-opacity=".5" rx="255" ry="9"/><path fill="#686868" fill-opacity=".5" d="M39 15h4v17h-4z"/><path fill="#9e9e9e" fill-opacity=".5" d="M133 58h1v16h-1z"/><ellipse cx="87" cy="60" fill="#666" fill-opacity=".5" rx="1" ry="13"/><path fill="#949494" fill-opacity=".5" d="M32.5 33.6l1-.1 2 14.9-1 .1z"/><path fill="#5b5b5b" fill-opacity=".5" d="M33 65h25v2H33z"/><path fill-opacity=".5" d="M112.3 38.8l-.6-8 22-1.6.6 8z"/><path fill="#080808" fill-opacity=".5" d="M92.9 71.6l-19.3-5.9 83.5 80.7-86.6-85.5z"/><path fill="#9d9d9d" fill-opacity=".5" d="M20 59h1v9h-1z"/><path fill="#6a6a6a" fill-opacity=".5" d="M111 59h2v13h-2z"/><path fill-opacity=".5" d="M112 20.7l-5.8-9.1L91.1-16l31.8 88.9z"/><path fill="#fff" fill-opacity=".5" d="M75.7 67.6l1 .4-2.4 4.4-1-.4z"/><path fill="#b7b7b7" fill-opacity=".5" d="M53 35h1v13h-1z"/><ellipse cx="90" cy="48" fill="#818181" fill-opacity=".5" rx="23" ry="1"/><circle cx="76" cy="61" r="2" fill="#c7c7c7" fill-opacity=".5"/><path fill-opacity=".5" d="M62 50h133v8H62z"/><path fill="#111" fill-opacity=".5" d="M33 72h91v2H33z"/><circle r="1" fill-opacity=".5" transform="matrix(2.1896 -.36675 6.81352 40.67857 22.2 103.3)"/><path fill-opacity=".5" d="M259 90l-16 60 21-24zM138.5 38.5L63.9 17.8l13.8 47-.3-18.6z"/><ellipse cx="144" cy="32" fill="#4b4b4b" fill-opacity=".5" rx="2" ry="18"/><path fill-opacity=".5" d="M145 16h111v56H145z"/><path fill-opacity=".5" d="M139.1 35.6L31.6 28l69.5 1 55.3 16.1z"/><circle r="1" fill="#f2f2f2" fill-opacity=".5" transform="matrix(-.67172 .7408 -1.4132 -1.28141 138.6 22.6)"/><path fill-opacity=".5" d="M55 84l23-21-9-1z"/><path fill="#717171" fill-opacity=".5" d="M86 15h49v2H86z"/><path fill="#484848" fill-opacity=".5" d="M18 106.3l-1 .1-5-58.7 1-.1z"/><path fill-opacity=".5" d="M104.9 21.1L81.8-15.6l34.3 39.1 23.5 45.4zM65.4 49l.2 7-55 1-.2-7z"/><path fill="#141414" fill-opacity=".5" d="M42 36L30 47l26-1z"/><path fill="#8b8b8b" fill-opacity=".5" d="M12 15h13v2H12z"/><path fill-opacity=".5" d="M77 51h3v13h-3z"/><path fill="#0a0a0a" fill-opacity=".5" d="M43 17h14v16H43z"/><ellipse cx="50" cy="17" fill-opacity=".5" rx="40" ry="1"/><path fill="#626262" fill-opacity=".5" d="M42.3 35.3l3.8-1.3 1.6 4.7-3.8 1.3z"/><circle r="1" fill-opacity=".5" transform="matrix(-45.0098 28.35322 -20.02378 -31.78708 220.3 149)"/><path fill="gray" fill-opacity=".5" d="M49 16.1v1L31 16v-1z"/><path fill="#6d6d6d" fill-opacity=".5" d="M13.4 48.8l-1 .1-3.8-23.7 1-.1z"/><path fill-opacity=".5" d="M37-6L27 35 8 42zm107.9 28.8l.9 2.9L95 41.2l-.9-2.9z"/><circle r="1" fill="#8b8b8b" fill-opacity=".5" transform="rotate(83.8 55.5 86.3) scale(1.12919 4.75517)"/><path fill-opacity=".5" d="M55.7 39.7l6.7 24.6.3-6 3.9-73.2z"/><path fill="#fff" fill-opacity=".5" d="M135.2 21l-1.5 2.6-.9-.5 1.5-2.7z"/><path fill-opacity=".5" d="M2-16L17 97l-33-4z"/><ellipse cx="102" cy="69" fill="#8c8c8c" fill-opacity=".5" rx="1" ry="6"/><path fill-opacity=".5" d="M76.8 18.6l74.6-22.1-15.1 27.6-9.7-40.1z"/><path fill="#5f5f5f" fill-opacity=".5" d="M124.7 57h1l1.6 18h-1z"/><path fill-opacity=".5" d="M103 57h8v59h-8zM20 75h63v42H20zM8.5 40.1l26.9 32L-3 19.6 6.5 7z"/><path fill="#343434" fill-opacity=".5" d="M70 76h5v5h-5z"/><circle cx="77" cy="16" r="2" fill="#707070" fill-opacity=".5"/><circle r="1" fill="#9d9d9d" fill-opacity=".5" transform="rotate(136.2 101 102) scale(1 2.7829)"/><path fill="none" stroke="#4a4a4a" stroke-opacity=".5" stroke-width=".5" d="M201 127.5q-5.5-24.2-11.8-54.4"/><ellipse cx="253" cy="102" fill="#d9d9d9" fill-opacity=".5" rx="1" ry="2"/><path fill="#c8c8c8" fill-opacity=".5" d="M74 60h4v3h-4z"/><path fill="#fff" fill-opacity=".5" d="M136.5 31l-1.6-1.2.6-.8 1.6 1.2z"/><path fill="#6c6c6c" fill-opacity=".5" d="M8 18h3v5H8z"/><path fill-opacity=".5" d="M98-14l17 45-16-21z"/><path fill="none" stroke="#020202" stroke-opacity=".5" stroke-width=".5" d="M91.4 159.3Q47.2-16 142.4-16"/><path fill-opacity=".5" d="M40 17h1v24h-1zm83 7h20v6h-20zM-.1 182l19-57.4-6.1-64.1L-.9-16z"/><ellipse cx="86" cy="61" fill="#343434" fill-opacity=".5" rx="1" ry="11"/><path fill-opacity=".5" d="M138 24h3v15h-3z"/><path fill="#7a7a7a" fill-opacity=".5" d="M55.5 15.6l-8.8 1.8-.2-1 8.8-1.8z"/><path fill-opacity=".5" d="M22 20l.5 2L8 26l-.5-2zm219.1-36L271 48.5l-18.7 56.4-58.7-12.2z"/><path fill="#3f3f3f" fill-opacity=".5" d="M18 108h2v12h-2z"/></g></g></svg>