<svg xmlns="http://www.w3.org/2000/svg" viewBox="0 0 1378 900"><defs/><filter id="a"><feGaussianBlur stdDeviation="12"/></filter><rect width="100%" height="100%" fill="#3c3c3c"/><g filter="url(#a)"><g fill-opacity=".5" transform="translate(2.7 2.7) scale(5.38281)"><circle cx="60" cy="90" r="230"/><path fill="#c7c7c7" d="M162.5 41.5h-65v-19h65z"/><circle r="1" transform="matrix(-6.8499 -71.139 252.5498 -24.31778 177.4 109.2)"/><circle r="1" transform="matrix(-37.84938 237.13208 -69.38951 -11.07547 212.6 41)"/><ellipse cx="28" cy="63" rx="53" ry="166"/><path fill="#fff" d="M9 48h56v2H9z"/><ellipse cx="158" cy="31" fill="#fff" rx="3" ry="10"/><path fill="#bebebe" d="M7 15h136v2H7z"/><path fill="#fff" d="M90 25h4v18h-4z"/><circle r="1" transform="matrix(-32.77348 -52.25942 174.96038 -109.72301 150.4 119)"/><ellipse cx="123" cy="7" rx="255" ry="8"/><path fill="#fff" d="M135 22h8v20h-8z"/><ellipse cx="92" cy="48" fill="#dfdfdf" rx="52" ry="1"/><path fill="#888" d="M73 58h11v19H73z"/><path fill="#efefef" d="M242 104h14v3h-14z"/><path d="M119.1 44.4l-2 .1-2.2-43h2z"/><path fill="#fff" d="M105 23h4v20h-4z"/><path fill="#bebebe" d="M9.7 16.8l2 28.6-.9 1.4-2.3-27.6z"/><path fill="#e8e8e8" d="M48 49h59v1H48z"/><path d="M72.7 10.1L140.8 25 271 11.1 84.4-16zM14 75h234v92H14z"/><path fill="#707070" d="M80.4 72.1v1L27.7 76v-1z"/><ellipse cx="102" cy="30" rx="2" ry="17"/><path fill="#fff" d="M128 23h3v20h-3z"/><path d="M8.8 25.8l35.7 24.8 40-38.2 6.8 10.2z"/><ellipse cx="110" cy="45" rx="2" ry="29"/><circle r="1" fill="#e0e0e0" transform="matrix(-3.20642 .11896 -.27816 -7.49754 159.1 34.5)"/><path d="M153 2h4v45h-4z"/><ellipse cx="125" cy="32" rx="2" ry="25"/><ellipse cx="171" cy="33" fill="#6d6d6d" rx="3" ry="11"/><path d="M134.5 22l-2 28h-1l2-28z"/><path fill="#fff" d="M82.6 72l-2.2-13.8 1-.2 2.2 13.8z"/><path d="M143 23h5v59h-5z"/><path fill="#a7a7a7" d="M83 23h3v18h-3z"/><ellipse cy="68" rx="11" ry="71"/><path fill="#a6a6a6" d="M133 15h12v3h-12z"/><path fill="#7f7f7f" d="M20 57h38v2H20z"/><path d="M93 67l149 115-258-78z"/><path fill="#838383" d="M121 73h21v2h-21z"/><path d="M94.1 41.1L81 99.4l-4.5-32.6L108 95.1zM76.9 23.6L50.4 7l33.1 40.5-4.7-21.9z"/><ellipse cx="128" cy="19" rx="117" ry="3"/><ellipse cx="115" cy="44" rx="102" ry="3"/><path fill="#dedede" d="M253 101h2v7h-2z"/><path fill="#fff" d="M157 23h5v19h-5z"/><path fill="#fcfcfc" d="M135 22h7v20h-7z"/><path fill="#ededed" d="M92 26l10-1-12-2z"/><path d="M104 22l8-15-23 22z"/><path d="M73 18h173v5H73z"/><ellipse cx="50" cy="66" fill="#232323" rx="34" ry="2"/><path fill="#6f6f6f" d="M115 57h28v2h-28z"/><ellipse cx="102" cy="69" fill="#8b8b8b" rx="1" ry="11"/><path fill="#e7e7e7" d="M112 23h3v9h-3z"/><path fill="#212121" d="M94.3 28.5l35.2 6.8-49.7-5.1 9.6 5.7z"/><circle cx="121" cy="37" r="2" fill="#fff"/><path fill="#080808" d="M132 29l1 11 3-10z"/><path d="M117 17h3v26h-3z"/><path fill="#414141" d="M149 135h10v9h-10z"/><path fill="#848484" d="M58 38h9v3h-9z"/><path fill="#dbdbdb" d="M243 105h12v2h-12z"/><ellipse cx="38" cy="16" fill="#cecece" rx="18" ry="1"/><path fill="#d5d5d5" d="M109 15.5l.1-1 13.9 2-.1 1z"/><path d="M271 38.2L172.4-16l-7.9 108.6-3.3-62.2z"/><circle cx="99" cy="40" r="2" fill="#fff"/><path fill="#363636" d="M65 118h11v10H65z"/><path fill="#f8f8f8" d="M10 45h2v3h-2z"/><path fill="#d2d2d2" d="M167.5 25h5v2h-5z"/><path d="M247-16L203 95l46 10z"/><circle r="1" fill="#0b0b0b" transform="rotate(91.1 -61.9 102.1) scale(23.27597 66.70113)"/><ellipse cx="62" cy="74" fill="#5f5f5f" rx="49" ry="1"/><path fill="#fff" d="M127 23h3v18h-3z"/><ellipse cx="118" cy="49" fill="#5b5b5b" rx="27" ry="1"/><path d="M77 51h3v33h-3z"/><path fill="#fff" d="M121.7 40.6l-3-4 1.6-1.2 3 4z"/><ellipse cx="85" cy="3" rx="255" ry="12"/><path d="M21.3 79L7.4 36.9-9.4-16l21.3 164.2zM12 20h41v27H12z"/><path fill="#505050" d="M25 67.9v-1l40-2.8v1z"/><path d="M122.3 54.9l-4 5.7-10.6-7.5 4-5.7z"/><circle cx="120" cy="33" r="2"/><path fill="#cfcfcf" d="M8 16h2v11H8z"/><circle cx="122" cy="24" r="2" fill="#fff"/><path d="M225.7 139.7l34-39.3 4.6 4-34 39.2z"/><path fill="#fefefe" d="M89 33h4v7h-4z"/><path d="M114 38l25 8h-17z"/><ellipse cx="60" cy="53" rx="240" ry="4"/><path d="M116 28h10v2h-10z"/><ellipse cx="86" cy="32" rx="18" ry="1"/><ellipse cx="98" cy="37" fill="#cdcdcd" rx="2" ry="5"/><path fill="#666" d="M86 60h2v14h-2z"/><path d="M138.6 77.4l-18.3 51L92.1 42l-6.3 51.9z"/><path fill="#707070" d="M148 23h4v19h-4z"/><path fill="#fff" d="M116 40.8l-3.7 1.4-.3-1 3.7-1.4z"/><path fill="#202020" d="M53 33l13 8-8-28z"/><circle cx="98" cy="26" r="2" fill="#fff"/><circle r="1" fill="#070707" transform="matrix(1.36717 1.38626 -4.3625 4.30243 131.7 44.7)"/><path fill="#fff" d="M138.2 34.3l.5 5-5 .4-.4-5z"/><path fill="#cdcdcd" d="M76.3 73l-3.8-1 1.2-5 3.8 1z"/><path fill="#aeaeae" d="M51 48h37v2H51z"/><path fill="#fcfcfc" d="M112 33h4v4h-4z"/></g></g></svg>