<svg xmlns="http://www.w3.org/2000/svg" viewBox="0 0 1378 900"><defs/><filter id="a"><feGaussianBlur stdDeviation="12"/></filter><rect width="100%" height="100%" fill="#444"/><g filter="url(#a)"><g fill-opacity=".5" transform="translate(2.7 2.7) scale(5.38281)"><circle cx="188" cy="40" r="230"/><circle cx="206" cy="53" r="242"/><path fill="#424242" d="M14 54h75v75H14z"/><ellipse cx="133" cy="56" fill="#b5b5b5" rx="57" ry="3"/><path fill="#7c7c7c" d="M134 85h25v28h-25z"/><ellipse cx="126" cy="13" rx="255" ry="41"/><path fill="#454545" d="M130.6 142.3l5.1-26.5 71.7 14-5.1 26.4z"/><circle r="1" transform="rotate(85 58.2 172.4) scale(160.76675 26.52755)"/><circle r="1" transform="rotate(-173.1 16.8 71) scale(116.02254 20.10721)"/><path d="M22 59h58v25H22z"/><circle r="1" fill="#7f7f7f" transform="matrix(-1.79485 .4276 -10.98723 -46.11956 190.5 82.2)"/><path fill="#616161" d="M33 85h45v27H33z"/><circle r="1" fill="#949494" transform="matrix(-.19826 .98015 -126.33204 -25.55357 79.4 130.6)"/><path d="M79 74h45v53H79z"/><path fill="#969696" d="M18 55h54v4H18z"/><path fill="#929292" d="M74 54h10v16H74z"/><circle r="1" transform="matrix(-13.4615 1.50995 -18.09931 -161.35902 0 79.2)"/><path fill="#fff" d="M267.5 101.4l.2 1-25.2 6.2-.2-1z"/><circle r="1" fill="#7c7c7c" transform="matrix(-1.458 .23766 -7.07122 -43.37998 197.1 116.2)"/><path fill="#767676" d="M22 108.9l-.1 13.3-7-22.7-3-67.4z"/><ellipse cx="176" cy="21" rx="255" ry="33"/><circle r="1" fill="#747474" transform="matrix(-.33926 1.57457 -154.3317 -33.25207 50.5 122.7)"/><path d="M20 63h14v50H20zm-35.7 14l68.8 82-21.4 18-68.8-82z"/><path fill="#b3b3b3" d="M158.3 52.8l18.1 4.7-37.8.1-.6.9z"/><path d="M98.5 137.7l138.4 27-3.4 17.6-138.4-27z"/><ellipse cx="240" cy="139" rx="38" ry="33"/><ellipse cx="226" cy="58" rx="38" ry="52"/><path fill="#070707" d="M160.4 129.2L92 118.3l104.2.3 2.1 33.3z"/><ellipse cx="160" cy="117" fill="#969696" rx="34" ry="1"/><ellipse cx="47" cy="74" fill="#a3a3a3" rx="18" ry="1"/><path fill="#f6f6f6" d="M24 97h5v3h-5z"/><ellipse cx="149" cy="79" fill="#a0a0a0" rx="24" ry="1"/><ellipse cx="50" cy="114" rx="30" ry="3"/><path fill="#272727" d="M135 57h48v19h-48z"/><path d="M17 59h53v13H17zM74 0h74v55H74z"/><ellipse cx="157" cy="56" fill="#f3f3f3" rx="8" ry="2"/><circle r="1" fill="#505050" transform="matrix(2.13317 .12005 -1.10844 19.69659 181.8 137.6)"/><path fill="#dadada" d="M80.3 54.2l1-.2 2.4 17.8-1 .2z"/><path fill="#a4a4a4" d="M29 117h58v1H29z"/><path d="M158.9 102.2l1.9-30 36.3 47.7-31.6-3.9zM79.3 61.6L35.9 79.2l40-14.8 9.1 48.9z"/><ellipse cx="55" cy="79" fill="#9e9e9e" rx="32" ry="1"/><circle r="1" transform="rotate(14.4 -524.4 97) scale(179.69168 16.71573)"/><circle r="1" transform="matrix(.00199 2.04198 -23.6251 .02301 70.2 120)"/><path fill="#7f7f7f" d="M73 55h2v55h-2z"/><path d="M146 82h1v60h-1z"/><path fill="#979797" d="M18.6 110.4L12 57.6l1.3-5.3 2.8 31.2z"/><ellipse cx="125" cy="112" fill="#727272" rx="1" ry="27"/><path fill="#e1e1e1" d="M77 92.5l1 19h-1l-1-19z"/><ellipse cx="183" cy="114" fill="#6a6a6a" rx="1" ry="36"/><path fill="#5f5f5f" d="M115 73h45v2h-45z"/><path d="M-16-8.6L24.8 182 11 54.5l231.4-2.9z"/><path d="M152 76h2v50h-2z"/><ellipse cx="157" cy="122" fill="#6a6a6a" rx="31" ry="1"/><path fill="#868686" d="M157 127h4v12h-4z"/><ellipse cx="156" cy="105" rx="1" ry="22"/><path d="M149 76h2v38h-2z"/><ellipse cx="47" cy="99" fill="#bababa" rx="1" ry="16"/><path fill="gray" d="M17 102h5v17h-5z"/><ellipse cx="105" cy="55" fill="#a3a3a3" rx="80" ry="1"/><ellipse cx="141" cy="97" fill="#ccc" rx="1" ry="15"/><path fill="#6b6b6b" d="M153.1 147l-48.2-10.1 102.4 16-10.8 3.3z"/><path d="M22 81h142v3H22z"/><path d="M128.3 112.9L93.4 57.5l-5.5 66.7 33.8 11.3z"/><path fill="#404040" d="M11 57h166v2H11z"/><path d="M47 114h-1l-1-32h1z"/><ellipse cx="44" cy="97" fill="#cacaca" rx="1" ry="14"/><path d="M183.5 94h7v54h-7z"/><path d="M209.4 160.1L-4.7 182 2.6 1.7l15.8 118.1z"/><ellipse cx="136" cy="99" rx="1" ry="17"/><path d="M55 81h2v36h-2z"/><path fill="#7f7f7f" d="M199 125h3v28h-3z"/><path fill="#cacaca" d="M57 84h1v30h-1z"/><ellipse cx="34" cy="96" fill="#cdcdcd" rx="1" ry="14"/><path fill="#bfbfbf" d="M37 85h1v30h-1z"/><path fill="#a1a1a1" d="M167 128h2v18h-2z"/><path d="M73 114.5h-1l-1-55h1z"/><path fill="#dadada" d="M151.3 84l.4 28h-1l-.4-28z"/><path d="M22.8 116.3l8.4-55 62.2 22.1-77-24.7z"/><ellipse cx="81" cy="76" rx="65" ry="2"/><path d="M142 62h2v60h-2zm129-22.2L120.9-16l56.7 62.4 58.3 71.3z"/><path fill="#bdbdbd" d="M253 101l-5 5h23z"/><ellipse cx="67" cy="96" fill="#cdcdcd" rx="1" ry="14"/><path fill="#fff" d="M152 55.4l13.9-1.7.1 1-13.9 1.6z"/><path d="M139 90h2v49h-2zm-87.5 25V63h1v52zM68 84h2v33h-2z"/><path fill="#b4b4b4" d="M102 55h1v19h-1z"/><ellipse cx="39" cy="95" rx="1" ry="21"/><path d="M35 73h2v35h-2zm-11 40h127v3H24z"/><path fill="#bdbdbd" d="M154 84h1v19h-1z"/><path d="M235.1 153.8l32.6-82.1L270 182l-159.5-14.9zM57.8 83h1l1.4 38h-1z"/><ellipse cx="62" cy="94" rx="1" ry="19"/><ellipse cx="54" cy="95" fill="#bbb" rx="1" ry="12"/><path fill="#5d5d5d" d="M182 54.7l1-.2 19 82.8-1 .2z"/></g></g></svg>