<svg xmlns="http://www.w3.org/2000/svg" viewBox="0 0 1378 900"><defs/><filter id="prefix__a"><feGaussianBlur stdDeviation="12"/></filter><rect width="100%" height="100%" fill="#444"/><g filter="url(#prefix__a)"><g transform="translate(2.7 2.7) scale(5.38281)"><circle r="1" fill-opacity=".5" transform="matrix(-101.88702 15.65463 -24.44293 -159.08502 178 90.4)"/><path fill="#fff" fill-opacity=".5" d="M49 40h24v112H49z"/><circle r="1" fill-opacity=".5" transform="matrix(-2.7997 -211.85436 33.24884 -.4394 14.3 77.2)"/><circle r="1" fill-opacity=".5" transform="matrix(103.12145 -4.58844 9.78743 219.9642 174.9 27.3)"/><ellipse cx="103" cy="18" fill-opacity=".5" rx="255" ry="20"/><ellipse cx="43" cy="161" fill-opacity=".5" rx="255" ry="11"/><circle r="1" fill-opacity=".5" transform="matrix(20.92752 -153.89232 21.92864 2.98203 12.3 85.2)"/><path fill="#eaeaea" fill-opacity=".5" d="M48 37h26v94H48z"/><path fill="#e3e3e3" fill-opacity=".5" d="M40 106h39v13H40z"/><circle cx="249" cy="52" r="102" fill-opacity=".5"/><path fill="#fff" fill-opacity=".5" d="M51.5 37.8l1.9 10.8-8.9 1.6-1.9-10.8z"/><ellipse cx="201" cy="146" fill="#8b8b8b" fill-opacity=".5" rx="3" ry="30"/><ellipse cx="70" cy="11" fill-opacity=".5" rx="203" ry="27"/><path fill="#020202" fill-opacity=".5" d="M74 178.6l1-60 49 .8-1 60z"/><ellipse cx="6" cy="117" fill-opacity=".5" rx="21" ry="166"/><ellipse cx="116" cy="94" fill="#b7b7b7" fill-opacity=".5" rx="1" ry="62"/><path fill="#bfbfbf" fill-opacity=".5" d="M67.7 114.8l9.2 34.9-30.5 1.1 4.2-48.7z"/><path fill="#a6a6a6" fill-opacity=".5" d="M27 120h3v47h-3z"/><path fill="#c5c5c5" fill-opacity=".5" d="M86.5 155.5v-1h51v1z"/><ellipse cx="59" cy="166" fill-opacity=".5" rx="31" ry="16"/><path fill="#a1a1a1" fill-opacity=".5" d="M128 150h71v2h-71z"/><path fill="#d8d8d8" fill-opacity=".5" d="M156 107h44v1h-44z"/><path fill="#4c4c4c" fill-opacity=".5" d="M97 68h5v87h-5z"/><path fill-opacity=".5" d="M43 42l-12 62 17 3z"/><path fill="#f4f4f4" fill-opacity=".5" d="M40 38h33v4H40z"/><circle r="1" fill="#f9f9f9" fill-opacity=".5" transform="matrix(-5.40892 -1.12013 .9728 -4.69748 46.4 112.8)"/><ellipse cx="170" cy="92" fill="#a3a3a3" fill-opacity=".5" rx="31" ry="1"/><path fill="#848484" fill-opacity=".5" d="M139 50h2v62h-2z"/><path fill="#707070" fill-opacity=".5" d="M132 139h74v2h-74z"/><ellipse cx="34" cy="75" fill="#999" fill-opacity=".5" rx="1" ry="35"/><ellipse cx="236" cy="95" fill-opacity=".5" rx="34" ry="137"/><path fill-opacity=".5" d="M130 151h71v16h-71z"/><path fill="#bfbfbf" fill-opacity=".5" d="M48 55h26v92H48z"/><ellipse cx="126" cy="84" fill="#858585" fill-opacity=".5" rx="1" ry="34"/><path fill="#eaeaea" fill-opacity=".5" d="M72 108h8v9h-8z"/><path fill-opacity=".5" d="M31 120h17v27H31z"/><path fill="#d0d0d0" fill-opacity=".5" d="M47 40h18v23H47z"/><path fill="#4a4a4a" fill-opacity=".5" d="M86 37h61v2H86z"/><path fill-opacity=".5" d="M75 123h20v26H75zM49 3h74v33H49zm25 91h13v13H74z"/><circle r="1" fill-opacity=".5" transform="matrix(7.17662 40.41996 -59.00119 10.47574 209.4 46.3)"/><path fill="#959595" fill-opacity=".5" d="M202.5 174.5h-1v-83h1z"/><path fill="#909090" fill-opacity=".5" d="M147 38h1v71h-1z"/><path fill="#8b8b8b" fill-opacity=".5" d="M6 17.3v-1l26 .4v1z"/><path fill="#646464" fill-opacity=".5" d="M175 118h26v3h-26z"/><path fill-opacity=".5" d="M75 0h22v104H75z"/><path fill="#7b7b7b" fill-opacity=".5" d="M101 48h1v75h-1z"/><path fill="#5e5e5e" fill-opacity=".5" d="M28.3 60.5l2.4 47h-1l-2.4-47z"/><ellipse cx="7" cy="115" fill-opacity=".5" rx="20" ry="96"/><path fill-opacity=".5" d="M75.3 151.1L44.7 155 2.1 182l147.5-.2z"/><ellipse cx="198" cy="113" fill-opacity=".5" rx="70" ry="5"/><ellipse cx="108" cy="96" fill-opacity=".5" rx="7" ry="58"/><ellipse cx="131" cy="51" fill="#9b9b9b" fill-opacity=".5" rx="16" ry="1"/><path fill="#3e3e3e" fill-opacity=".5" d="M160.6 131.2l.5-8.5-39 18.8 64.2-24.5z"/><path fill="#7f7f7f" fill-opacity=".5" d="M83 67.9L63.9 56.1l-17.1-6.3-9.5-.1z"/><ellipse cx="177" cy="88" fill="#404040" fill-opacity=".5" rx="19" ry="2"/><ellipse cx="54" cy="64" fill="#b2b2b2" fill-opacity=".5" rx="27" ry="1"/><path fill="#acacac" fill-opacity=".5" d="M126 109h28v1h-28z"/><ellipse cx="40" cy="129" fill="#9e9e9e" fill-opacity=".5" rx="10" ry="1"/><path fill="#fff" fill-opacity=".5" d="M109 34h3v3h-3z"/><ellipse cx="53" cy="150" fill="#828282" fill-opacity=".5" rx="34" ry="1"/><path fill-opacity=".5" d="M193 113l-52-1-17 22z"/><path fill="#a3a3a3" fill-opacity=".5" d="M78.2 118.4l-7.2 1.8L44.4 107h9.9z"/><path fill="#7f7f7f" fill-opacity=".5" d="M4 2.9v-1L26 1v1z"/><path fill="#e0e0e0" fill-opacity=".5" d="M44 39h29v10H44z"/><path fill="none" stroke="#7c7c7c" stroke-opacity=".5" stroke-width=".5" d="M177.8 151.4q1.1-13.4.4-31.6"/><path fill-opacity=".5" d="M123 141h76v8h-76z"/><ellipse cx="133" cy="76" fill="#a7a7a7" fill-opacity=".5" rx="7" ry="1"/><ellipse cx="60" cy="17" fill="#9d9d9d" fill-opacity=".5" rx="7" ry="1"/><path fill="#646464" fill-opacity=".5" d="M97 35h1v120h-1z"/><path fill-opacity=".5" d="M99 59h2v88h-2z"/><path fill="#9e9e9e" fill-opacity=".5" d="M124.3 81.7l.2 1-8.8 1.6-.2-1z"/><path fill="none" stroke="#6a6a6a" stroke-opacity=".5" stroke-width=".5" d="M77.5 92.8q-23.7-15.3-48.6-15"/><path fill="#878787" fill-opacity=".5" d="M44.1 88.9l32.6 21.4-5.6-8.7-8.2-3.1z"/><path fill="#bdbdbd" fill-opacity=".5" d="M86.5 79l-19-1v-1l19 1z"/><path fill-opacity=".5" d="M0 23h27v144H0z"/><path fill="#8b8b8b" fill-opacity=".5" d="M30 121h1v31h-1z"/><path fill="#1f1f1f" fill-opacity=".5" d="M25.5 25.4l6.5-7.8L23.6-.5l1.1 27.6z"/><path fill="#ababab" fill-opacity=".5" d="M118 95.7l-.4-1 6.5-2.4.3 1z"/><path fill="#c3c3c3" fill-opacity=".5" d="M48 140h27v11H48z"/><path fill="gray" fill-opacity=".5" d="M117 112h11v2h-11z"/><path fill-opacity=".5" d="M36 52h11v50H36zm-15.8 66.8l-.4-9 20-.6.4 9zM120 38h27v13h-27z"/><path fill="#8d8d8d" fill-opacity=".5" d="M133.7 112l-.4 14h-1l.4-14zM130 64h22v1h-22z"/><ellipse cx="126" cy="139" fill="#4e4e4e" fill-opacity=".5" rx="9" ry="2"/><ellipse cx="125" cy="81" fill="#515151" fill-opacity=".5" rx="1" ry="31"/><path fill="#b1b1b1" fill-opacity=".5" d="M120 125h9v1h-9z"/><path fill="#989898" fill-opacity=".5" d="M124.5 86.3l13 .4v1l-13-.4z"/><ellipse cx="43" cy="78" fill="#979797" fill-opacity=".5" rx="8" ry="1"/><ellipse cx="122" cy="70" fill="#c9c9c9" fill-opacity=".5" rx="4" ry="1"/><path fill="#a9a9a9" fill-opacity=".5" d="M74.5 128.7l13-.4v1l-13 .4z"/><path fill="#606060" fill-opacity=".5" d="M46 150h42v2H46z"/><path fill-opacity=".5" d="M149 38h57v48h-57z"/><path fill="#737373" fill-opacity=".5" d="M36 91h16v2H36z"/><ellipse cx="69" cy="51" fill="#ccc" fill-opacity=".5" rx="14" ry="1"/><path fill="#797979" fill-opacity=".5" d="M104 48h13v2h-13z"/><path fill="#eaeaea" fill-opacity=".5" d="M48 81l25 13-10 3z"/></g></g></svg>