<svg xmlns="http://www.w3.org/2000/svg" viewBox="0 0 1378 900"><defs/><filter id="a"><feGaussianBlur stdDeviation="12"/></filter><rect width="100%" height="100%" fill="#3b3b3b"/><g filter="url(#a)"><g fill-opacity=".5" transform="translate(2.7 2.7) scale(5.38281)"><circle cx="182" cy="78" r="205"/><circle cx="160" cy="87" r="197"/><circle r="1" transform="rotate(26 -11.9 336.6) scale(255 93.85519)"/><path fill="#eee" d="M84 121h20v6H84z"/><ellipse cx="13" cy="139" fill="#a3a3a3" rx="3" ry="23"/><path fill="#a4a4a4" d="M143.7 164.4l-4 .2-1.4-43 4-.2z"/><circle r="1" fill="#7f7f7f" transform="matrix(.18217 41.77947 -1.85343 .00808 63.4 153.6)"/><path fill="#c6c6c6" d="M83 51h55v1H83z"/><path fill="#a3a3a3" d="M63 107h63v2H63z"/><ellipse cx="43" cy="98" rx="18" ry="158"/><ellipse cx="205" cy="119" rx="62" ry="166"/><path fill="#7c7c7c" d="M64 125h78v2H64z"/><path fill="#eaeaea" d="M76 155h43v1H76z"/><path fill="#8f8f8f" d="M73 64h47v2H73z"/><ellipse cx="99" cy="92" fill="#c6c6c6" rx="30" ry="1"/><circle r="1" transform="matrix(7.75477 64.18568 -65.44847 7.90733 14.7 54.2)"/><ellipse cx="106" cy="78" fill="#bebebe" rx="26" ry="1"/><path d="M56.2 115.8l3.1-9.5 30.5 9.9-3.1 9.5z"/><path fill="#a3a3a3" d="M59 140h76v1H59z"/><path fill="#757575" d="M68.2 150.4l-7.3-1.7 20.9 2.9 2.9 5.9z"/><path fill="#131313" d="M123 64h28v57h-28z"/><ellipse cx="157" cy="120" fill="#4c4c4c" rx="22" ry="2"/><circle r="1" fill="#545454" transform="rotate(-90.9 76.8 54) scale(24.96945 1)"/><path fill="#626262" d="M61 139h78v2H61z"/><path d="M64 157h76v10H64z"/><ellipse cx="4" cy="135" rx="8" ry="107"/><ellipse cx="132" cy="15" rx="255" ry="35"/><path fill="#d9d9d9" d="M89 121h14v4H89z"/><path fill="#010101" d="M116.5 139.4l-11.3-15.3-28.1-.1.3 14.9z"/><path fill="#9b9b9b" d="M132 33l-1 7-1-4z"/><path d="M14 152h47v15H14z"/><ellipse cx="129" cy="150" fill="#989898" rx="9" ry="1"/><ellipse cx="90" cy="91" fill="#4a4a4a" rx="34" ry="1"/><path fill="#979797" d="M12 121h2v46h-2z"/><ellipse cx="62" cy="128" fill="#878787" rx="1" ry="38"/><path d="M22.1 127.7l39.1 41.6-.5-68.9 5.9 16.1z"/><path fill="#7b7b7b" d="M117.2 64.4l.3-1 11.3 4.2-.3 1z"/><path fill="#cfcfcf" d="M15.5 150l13-1v1l-13 1z"/><path fill="#656565" d="M15.8 142.5l-2.6-37h1l2.6 37z"/><ellipse cx="144" cy="64" fill="#a1a1a1" rx="5" ry="1"/><path fill="#838383" d="M114 154h15v2h-15z"/><path fill="#636363" d="M63 149h18v3H63z"/><path fill="#525252" d="M125 80l-56-1v-1l56 1z"/><path fill="#7b7b7b" d="M142.4 121.3L125 109.5l.6-.8 17.4 11.8z"/><path d="M142 163l113 19 4-198z"/><path fill="#797979" d="M128.1 69.2l.6-.8 11.2 8.4-.6.8z"/><ellipse cx="141" cy="144" fill="#acacac" rx="1" ry="22"/><path fill="#4d4d4d" d="M147.4 53.6l-40.9-2.2v-1l41 2.2z"/><ellipse cx="167" cy="65" fill="#6e6e6e" rx="13" ry="1"/><ellipse cx="81" cy="125" fill="#929292" rx="18" ry="1"/><path fill="#fff" d="M96 122h8v2h-8z"/><path d="M0 0h79v92H0z"/><ellipse cx="20" cy="92" fill="#adadad" rx="8" ry="1"/><path fill="#969696" d="M132 98h15v1h-15z"/><path d="M65 142h37v8H65zm64 10h11v15h-11z"/><ellipse cx="94" cy="107" fill="#8c8c8c" rx="30" ry="1"/><path fill="#575757" d="M18 135h2v19h-2z"/><path d="M82 150h45v5H82z"/><path fill="#646464" d="M138 148h-1l1-28h1z"/><path fill="#494949" d="M125 37h23v2h-23z"/><path d="M27 108h61v11H27z"/><path fill="#f6f6f6" d="M87 121h11v3H87z"/><path fill="#828282" d="M134 87h12v1h-12z"/><path fill="#7c7c7c" d="M63.7 120.6l-2.4 44.9h-1l2.4-45z"/><ellipse cx="113" cy="125" fill="#818181" rx="25" ry="1"/><path fill="#6e6e6e" d="M139.7 89l-.6.7-16.8-12.6.6-.8z"/><path d="M99.4 36.1l33.2 2.7-27.7 20.7 34.5 7.4zM64 151l2 31h97z"/><circle cx="221" cy="37" r="2" fill="#7d7d7d"/><path d="M124 68.2l23.4 13.5-3.5 6-23.3-13.4zm0 57.8h12v23h-12z"/><path fill="#ababab" d="M62 92h7v1h-7z"/><path d="M28 84h31v83H28zm99 9l30 5-30-16z"/><path fill="#585858" d="M134 109h16v1h-16z"/><path d="M142 119l-4-19-26-6z"/><path fill="#545454" d="M63 116h3v28h-3z"/><path d="M84.4 139.7l56.5-7.5-72.6-4.7-4.1 10.6zM0 166h235v1H0z"/><path fill="#363636" d="M123.6 90.4l-4.4 6.2 23.3 2.6-14.6-5.5z"/><path d="M79 109l10 16-37-13z"/><path fill="#747474" d="M24 106h3v3h-3z"/><path d="M14 152h45v7H14z"/><path fill="#c3c3c3" d="M77 151h2v4h-2z"/><path fill="#454545" d="M17.8 132l9.7-8.7.7.7-9.7 8.7z"/><path fill="#010101" d="M231.7 34.2l-91.8 33.3-37.4-28.3L141 76.1z"/><path d="M108 108h13v17h-13z"/><path fill="#6e6e6e" d="M124.6 105.3l-2.2 7.7-1-.3 2.2-7.7z"/><circle cx="81" cy="51" r="1" fill="#dfdfdf"/><path fill="#868686" d="M24 127h1v19h-1z"/><path fill="#6c6c6c" d="M139 76h8v2h-8z"/><path fill="#3a3a3a" d="M149 64h24v2h-24z"/><ellipse cx="163" cy="120" fill="#4e4e4e" rx="20" ry="1"/><path d="M64 94h63v11H64z"/><path fill="#020202" d="M185.8 115.7L142 145.2l8.9-35.4 31.3 29.1z"/><ellipse cy="145" rx="11" ry="69"/><path d="M70 0h99v34H70z"/><ellipse cx="101" cy="154" fill="#3e3e3e" rx="19" ry="1"/><ellipse cx="78" cy="152" fill="#919191" rx="2" ry="3"/></g></g></svg>