<svg xmlns="http://www.w3.org/2000/svg" viewBox="0 0 450 340"><defs/><filter id="a"><feGaussianBlur stdDeviation="12"/></filter><rect width="100%" height="100%" fill="#2f4154"/><g filter="url(#a)"><g fill-opacity=".5" transform="translate(.9 .9) scale(1.75781)"><circle cx="152" cy="119" r="234" fill="#fff"/><circle cx="135" cy="95" r="181" fill="#fff"/><ellipse cx="169" cy="103" fill="#8f0000" rx="22" ry="35"/><circle r="1" fill="#fff" transform="matrix(253.6721 9.91649 -2.01654 51.58466 115 19.3)"/><circle r="1" fill="#fff" transform="matrix(46.54037 -1.9193 5.23546 126.9526 237 121.4)"/><path fill="#426f9a" d="M67 62h41v78H67z"/><circle r="1" fill="#fff" transform="matrix(-44.10071 198.92547 -40.30657 -8.93575 28 80.2)"/><circle r="1" fill="#fff" transform="matrix(58.99908 13.8381 -6.54826 27.91865 203.9 182.1)"/><ellipse cx="124" cy="24" fill="#fff" rx="255" ry="45"/><path fill="#aa4f45" d="M148 80h43v58h-43z"/><path fill="#386896" d="M45.1 121.2l17.6.1 47.4-7.7-64.4 29.9z"/><circle r="1" fill="#45403c" transform="rotate(89.6 -50.3 136.6) scale(1 60.61099)"/><ellipse cx="243" cy="121" fill="#fff" rx="54" ry="192"/><path d="M221 90h2v43h-2z"/><path fill="#020000" d="M123 149h100v2H123z"/><ellipse cx="22" cy="177" fill="#fff" rx="23" ry="192"/><path d="M21 90h100v1H21z"/><path fill="#0c4984" d="M70 60h39v4H70z"/><ellipse cx="21" cy="110" fill="#343231" rx="2" ry="39"/><path fill="#68645f" d="M101.7 174.6l49.3 6.1-2.3-39.8-.2 32.6z"/><path fill="#16110d" d="M100 141h103v2H100z"/><path fill="#fefaf5" d="M109 77h40v59h-40z"/><circle r="1" fill="#fff" transform="matrix(-91.65382 .4799 -.02048 -3.91092 101.7 190.3)"/><path d="M73 74h43v2H73z"/><ellipse cx="84" cy="139" fill="#fdf5ed" rx="84" ry="3"/><path fill="#fff" d="M153 151h103v42H153z"/><circle r="1" fill="#5d5c5b" transform="matrix(-6.32666 45.59381 -.9905 -.13744 131.1 124.4)"/><ellipse cx="85" cy="158" rx="40" ry="1"/><circle r="1" fill="#100e0d" transform="matrix(-.01714 .99985 -14.14908 -.24253 34.4 149)"/><ellipse cx="46" cy="152" rx="1" ry="34"/><path fill="#519e0b" d="M154 71h34v8h-34z"/><circle r="1" fill="#f7ffff" transform="matrix(.01047 .99995 -152.91578 1.60139 88.9 81.6)"/><path d="M129.5 106v1l-57-1v-1z"/><path fill="#fff" d="M77 95h26v6H77z"/><ellipse cx="98" cy="136" rx="61" ry="1"/><ellipse cx="114" cy="185" rx="34" ry="1"/><ellipse cx="80" cy="142" fill="#5c5a57" rx="36" ry="2"/><path fill="#12100f" d="M242 73h2v22h-2z"/><ellipse cx="76" cy="112" fill="#fff" rx="27" ry="3"/><ellipse cx="122" cy="121" rx="67" ry="1"/><path fill="#2e2f30" d="M33 140v7l9-12z"/><ellipse cx="69" cy="15" fill="#fff" rx="96" ry="44"/><path fill="#9a9897" d="M149.1 44.1L132.9 74l-2-7.5L158.8 26z"/><circle r="1" fill="#544344" transform="matrix(-.19595 .98061 -18.76893 -3.7504 136.9 101.6)"/><path fill="#488064" d="M157 126h31v12h-31z"/><path fill="#fff" d="M68 88l1 38-32-22z"/><path fill="#fffcf7" d="M111.1 144.1l55.5-.4-52 11.3-75.7-10.9z"/><path fill="#292828" d="M137.4 101.4l-5.8-36.6 1-.2 5.8 36.6z"/><path fill="#6e6a66" d="M125 169.9l-29.9 14.8-17.8-5.7-7.4 7.9z"/><circle r="1" fill="#f6f1ec" transform="matrix(1.37834 8.32589 -31.90168 5.28129 81.8 173.3)"/><ellipse cx="90" cy="140" fill="#fff" rx="38" ry="2"/><path fill="#180000" d="M192 10h6v5h-6z"/><ellipse cx="3" cy="113" fill="#fff" rx="18" ry="105"/><path fill="#14070a" d="M149 81h2v56h-2z"/><path fill="#030303" d="M129 126h2v21h-2z"/><path fill="#939190" d="M220.1 88.8l25.7 1.1-14.6-9.6 7.1-1.8z"/><path d="M221 132h2v19h-2zM3 76.8l16 1.4v1L3 77.8z"/><path fill="#1a2d40" d="M74 85h31v4H74z"/><path fill="#fff" d="M95.9 77.4L110.4 88-4.7 69.6l54.8 17z"/><path fill="#1e3143" d="M76 101h27v7H76z"/><path fill="#7eb8ef" d="M49 115l43 13-39 6z"/><path fill="#fff" d="M150 152h106v41H150z"/><path fill="#486682" d="M69 70h47v5H69z"/><ellipse cx="168" cy="95" rx="22" ry="1"/><path fill="#fff" d="M224 90h32v103h-32z"/><path fill="#1e170f" d="M101.7 115l.5 6-21.9 2-.5-6z"/><ellipse cx="21" cy="112" rx="1" ry="36"/><path fill="#81807f" d="M216.7 151.9L195 134.8l8.7 19.1 11.7-12.8z"/><path fill="#5087bb" d="M69 59h8v25h-8z"/><path fill="#fff" d="M126.4 39.2l13.9 52.7 62.9-82.6-62.4 51.3z"/><path fill="#f0656a" d="M150 96h38v21h-38z"/><path fill="#5d5b5a" d="M28.1 86l5.7 7-4 3-5.6-7z"/><path d="M123.7 159.3l-.5-.9 15.1-7.7.5.9zM189 88h1v49h-1zm-52 32l2-6v5z"/><path fill="#5c5b5a" d="M127 65h10v5h-10z"/><path fill="#5e3132" d="M153 105h36v5h-36z"/><ellipse cx="94" cy="189" fill="#fff" rx="178" ry="3"/><path fill="#252322" d="M148.5 173h-1l2-24h1z"/><path fill="#202020" d="M111 174h29v2h-29z"/><path fill="#6c6864" d="M144.2 176.9l-9.9-15.2-4.2-21.4.9 24.9z"/><path fill="#fff" d="M22 109h24v29H22z"/><path fill="#16110d" d="M91 150h-5l7 9z"/><path fill="#fff" d="M191 36h30v102h-30z"/><path fill="#6e6c6b" d="M142 49.6l20.9-21.4 16.7-9.6-15.1 10.8z"/><path fill="#fff" d="M135 94l-26 37 16 8zM0 151h45v42H0z"/><circle cx="120" cy="100" r="2"/><path fill="#151414" d="M55.5 143.3l-21.3-5.7.3-1 21.3 5.8z"/><circle r="1" fill="#fff" transform="matrix(16.36576 10.42614 -12.28272 19.28 172.4 50.5)"/><path fill="#fff" d="M105.4-.6l12.4 92.4L129.5 64l54.1-64z"/><path fill="#0c1d2e" d="M72 90h44v2H72z"/><ellipse cx="131" cy="50" fill="#626261" rx="14" ry="1"/><path fill="#7d7976" d="M117.2 185.4l10-.2-17.2-10.1 6.9-18.2z"/><path fill="#2c2b29" d="M52 136h66v2H52z"/><path fill="#39421b" d="M152 73h6v7h-6z"/><path fill="#221d2a" d="M152 136h38v2h-38z"/><path fill="#010000" d="M108 143.9l-44-.8v-1l44 .8z"/><path fill="#3f3d3b" d="M62 60h55v1H62z"/></g></g></svg>