<svg xmlns="http://www.w3.org/2000/svg" viewBox="0 0 1351 900"><defs/><filter id="a"><feGaussianBlur stdDeviation="12"/></filter><rect width="100%" height="100%" fill="#5c4533"/><g filter="url(#a)"><g fill-opacity=".5" transform="translate(2.6 2.6) scale(5.27734)"><circle r="1" fill="#eacea5" transform="matrix(-67.06896 3.86362 -6.08373 -105.60795 115.5 81.4)"/><circle r="1" fill="#39220e" transform="matrix(27.45856 -35.52723 11.99279 9.26908 164.8 78.6)"/><circle r="1" transform="matrix(35.70543 38.6936 -19.32234 17.83014 15.8 149.3)"/><path fill="#fffffd" d="M224.5 144.2l-36.2-7.7 3.2-14.7 36.2 7.7z"/><circle r="1" fill="#fffbec" transform="matrix(38.90423 -3.19851 .64553 7.85175 104 55.7)"/><circle r="1" transform="matrix(29.58215 9.01033 -5.41271 17.77068 226.3 163.4)"/><circle r="1" fill="#987147" transform="rotate(160.3 14.4 49.2) scale(24.60182 57.20115)"/><ellipse cx="250" cy="51" fill="#a7855d" rx="24" ry="71"/><circle r="1" fill="#e2dac1" transform="matrix(3.34311 -12.27537 37.3178 10.16324 122.1 123.7)"/><path fill="#ceba9b" d="M127-16H41l150 128z"/><ellipse cx="214" fill="#fff" rx="7" ry="16"/><circle r="1" fill="#070a07" transform="matrix(21.86315 11.04387 -39.67874 78.55055 0 21.2)"/><path fill="#180000" d="M73 76L46 89l7-25z"/><circle r="1" fill="#965418" transform="matrix(8.23133 7.75099 -33.49044 35.56588 92 93.6)"/><circle cx="179" cy="101" r="9" fill="#fff"/><path fill="#4f3925" d="M160 117h31v53h-31z"/><path fill="#522102" d="M172.7 84.2l-4.2-47.8 52.8-4.6 4.2 47.8z"/><path fill="#a88054" d="M155 0h34v44h-34z"/><ellipse cx="219" cy="107" fill="#261200" rx="18" ry="22"/><path fill="#462b14" d="M125 80h45v18h-45z"/><circle r="1" fill="#b6b6ad" transform="rotate(135.2 35 106) scale(34.73498 20.75611)"/><path fill="#d8bf9b" d="M83.6 85.9l1.5 14.9-50.7 5.3L33 91.2z"/><path fill="#6f4e33" d="M49 45L38 13l85 29z"/><ellipse cx="212" cy="31" fill="#2b0a00" rx="15" ry="17"/><circle cx="213" cy="162" r="20"/><path fill="#54422b" d="M164.7 118.3l-83.2-14 92.6 2.3L126 87.3z"/><path fill="#fff" d="M114 101l9-7-11-5z"/><circle r="1" transform="matrix(33.55243 20.93441 -12.41637 19.90022 0 156.1)"/><ellipse cx="101" cy="52" fill="#fff" rx="17" ry="5"/><path fill="#d6b284" d="M41.4 86l20.8-50L83 80.7 36.2 52.2z"/><ellipse cx="193" cy="151" fill="#e0dbc4" rx="2" ry="38"/><path fill="#160800" d="M170 46h24v31h-24z"/><path fill="#542f14" d="M24.4 123.6L62.9 185l-17.8-45.7L89.7 112z"/><circle r="1" fill="#562a05" transform="matrix(6.77278 -4.83118 5.18593 7.27009 117.4 75.5)"/><circle r="1" fill="#4f392b" transform="matrix(-4.40305 7.10139 -26.2531 -16.27762 82 169)"/><path fill="#dcd2bb" d="M132 12.1L96.8-12.7l16.3 44.1 19.5-9.8z"/><path fill="#775b3b" d="M41.3 117.9l67.6 28.4 14.3-11.2-7.8-3.8z"/><circle r="1" fill="#ebeaca" transform="matrix(-4.46059 -.11606 .111 -4.26568 183.8 41.3)"/><circle r="1" fill="#856c4a" transform="rotate(-149.9 34.3 -9.2) scale(11.66904 79.261)"/><circle r="1" fill="#fce4ae" transform="matrix(5.0943 .981 -1.4462 7.50996 183.6 93.4)"/><path fill="#403e36" d="M13 32l-29 64 56-8z"/><circle r="1" fill="#513721" transform="matrix(7.25733 33.00824 -16.52422 3.63309 254.9 10)"/><path fill="#c6c0aa" d="M193.1 122.4l37.8 12 2.2 10.8-40.3-7.1z"/><path fill="#945630" d="M194.4 53.4l16 .2-.8 41-16-.2z"/><path fill="#a0551c" d="M84 68h15v40H84z"/><ellipse cx="54" cy="107" fill="#b1814c" rx="30" ry="12"/><path fill="#b19f7e" d="M191 120l-47-15 15-8z"/><circle r="1" fill="#b09d81" transform="matrix(-17.44642 10.53544 -14.08033 -23.31665 141 55.2)"/><circle r="1" fill="#86756c" transform="matrix(-3.21997 8.61221 -11.36332 -4.24857 165 166.7)"/><path fill="#9d9689" d="M158.6 172.4l-68.7-6.3-44.8-27.7 23.4-7.4z"/><path fill="#c7b7a0" d="M86 56L69 46l9 64z"/><circle r="1" fill="#ded3bb" transform="rotate(11.4 -527.4 681.2) scale(30.13885 6.47024)"/><path fill="#762200" d="M97 14h11v6H97z"/><path fill="#430000" d="M49 72h16v15H49z"/><path fill="#d39752" d="M113 63.8l-3 33.9-17-1.5 3-33.9z"/><circle r="1" fill="#090000" transform="matrix(12.86895 13.51469 -6.14815 5.8544 210 154.8)"/><circle r="1" fill="#2a210e" transform="rotate(61.1 9 267.5) scale(52.01027 4.74472)"/><path fill="#806240" d="M158 80.5l26.6-15.9-31.7 73.3 32.4-1.8z"/><path fill="#aca087" d="M20.4 34.1l74.3 20.8-63.4-7.6 2.5 3.3z"/><ellipse cx="188" cy="157" fill="#230e00" rx="3" ry="49"/><path fill="#593a1f" d="M155 31l46-11 15-36z"/><circle r="1" fill="#987c5b" transform="matrix(-7.305 2.14998 -20.4209 -69.38423 249.3 85.5)"/><path fill="#f2eaca" d="M112 85h10v18h-10z"/><path fill="#e6ead8" d="M211-16l-3 32 13-17z"/><path fill="#9d764e" d="M169.7 38.5l-40.9 14.3 12.5-1.3L171.2 65z"/><path fill="#40230a" d="M202 85h22v41h-22z"/><path fill="#7c5f44" d="M119 50l3-15-47 3z"/><path fill="#8f7f72" d="M18 91h24v24H18z"/><path fill="#e7ce99" d="M131.3 103.8l.8-3 12.6 3.4-.8 3z"/><path fill="#130f0f" d="M157.5 113.9l-7.9 6.1-3-3.9 7.8-6.1z"/><path fill="#68503d" d="M113.6 39.6L74.9 52.3l-31.5-46-1.6 39z"/><path fill="#fff" d="M88 49h26v10H88z"/><path fill="#c5b8a0" d="M149 64l-18 16-12-46z"/><path fill="#dacfb6" d="M66 77.8l18.1-16.4-28.7-12 12.8-4.8z"/><path fill="#c7b08b" d="M88 3.7l27.1 33.9-24.9-.7-21.6-24.7z"/><ellipse cx="147" cy="93" fill="#0b0207" rx="21" ry="2"/><path fill="#331503" d="M235.6-12.7l-10.9 42.1-41.8 8.9 38.7-21.6z"/><path fill="#714f2c" d="M64.7 94.7l79 15.1-25.8 1.6-35.4-10.7z"/><ellipse cx="233" cy="23" fill="#bb9b67" rx="4" ry="20"/><path fill="#221005" d="M190 49h4v68h-4z"/><circle r="1" fill="#3a1400" transform="rotate(-95.1 71.8 32.5) scale(7.19499 1.8875)"/><path fill="#2f2a23" d="M11.4 114.6L-3.5 116l-6-56.7 15-1.5z"/><circle r="1" fill="#8d7957" transform="matrix(-13.53622 -6.66065 1.50034 -3.0491 228.5 133.6)"/><circle r="1" fill="#8c6b44" transform="rotate(166.7 68 24.8) scale(29.81541 1.79179)"/><path fill="#381800" d="M169 138h10v12h-10z"/><path fill="#c0beaf" d="M169.8 132l1.4-20h1l-1.4 20z"/><path fill="#352311" d="M123 99l8-8v10z"/><path fill="#c6bba6" d="M150.4 128.7l8.2 20.4-25 10.2-8.2-20.4z"/><circle r="1" fill="#7e6846" transform="matrix(9.1575 -18.92186 2.34697 1.13585 222 4.8)"/><circle r="1" fill="#1a1a14" transform="matrix(-.27731 .96078 -42.37209 -12.23008 28.8 34.1)"/><path fill="#c8c0b1" d="M42 90h30v7H42z"/><circle cx="178" cy="100" r="6" fill="#fff"/><path fill="#987353" d="M185 16l-18 9-28-41z"/><ellipse cx="18" cy="72" fill="#6d5a4a" rx="6" ry="38"/><path fill="#a57746" d="M50.3 78.6l8.1-30.7-26.7 15.4 15.7 28.5z"/><path fill="#bebbaf" d="M181.3 136h1l.4 22h-1z"/><path fill="#170200" d="M49.7 84.2l-.4-14 9-.4.4 14z"/><path fill="#7b461f" d="M75.4 123.7l18.7-20.4-10.2-1.1L54 136.1z"/><path fill="#cfc2aa" d="M79.8 18.6l27.8 9.1-22.8-24 37.1 2.6z"/><path fill="#60350f" d="M193.5 70.4l-1 15-24-1.8 1-15z"/></g></g></svg>