<svg xmlns="http://www.w3.org/2000/svg" viewBox="0 0 1351 900"><defs/><filter id="a"><feGaussianBlur stdDeviation="12"/></filter><rect width="100%" height="100%" fill="#4e4736"/><g filter="url(#a)"><g fill-opacity=".5" transform="translate(2.6 2.6) scale(5.27734)"><circle r="1" fill="#f3d9b1" transform="matrix(191.49854 -67.43728 66.9245 190.04242 62.6 60.7)"/><circle r="1" fill="#230800" transform="matrix(43.98582 -56.29929 31.33967 24.48523 171.3 106.5)"/><ellipse cx="69" cy="9" fill="#f8edce" rx="186" ry="50"/><path d="M61.5 122.1l-31.9-6.4-45.6-10 85.7-10.2z"/><circle r="1" fill="#fbf7e3" transform="matrix(-11.47636 14.84164 -50.62203 -39.1437 71.6 161)"/><circle r="1" fill="#fff" transform="rotate(119 99.1 118) scale(28.2819 22.94734)"/><path fill="#210b00" d="M134 105L91 54l146 56z"/><path fill="#3d1600" d="M77 102l33-3 5-47z"/><ellipse cx="156" cy="122" fill="#ab9c70" rx="106" ry="9"/><circle r="1" fill="#f6faf9" transform="rotate(173.5 25.3 3.2) scale(59.14131 19.32618)"/><path fill="#542e00" d="M18 60h54v19H18z"/><path fill="#f3f1e0" d="M0 56h19v41H0z"/><circle r="1" fill="#7b490d" transform="rotate(174.8 96 34) scale(30.33169 31.93854)"/><path fill="#ffffef" d="M24 99h10v20H24z"/><circle r="1" fill="#e8dcbe" transform="matrix(-16.72808 2.81786 -2.42677 -14.40637 82.7 114.2)"/><path fill="#fcfffd" d="M-3.7 142.1L-16 117.3l38.4 2.3-6.5 9.3z"/><circle r="1" fill="#746958" transform="matrix(-17.56978 -27.79265 17.33338 -10.9577 229.3 140.7)"/><path fill="#ecd9ad" d="M106 96h26v19h-26z"/><path d="M232-5l-26-11 28 27z"/><circle r="1" fill="#bda571" transform="matrix(39.95421 -4.04499 1.45337 14.35562 199.3 35.4)"/><circle cx="51" cy="110" r="14" fill="#120000"/><circle r="1" fill="#33392e" transform="matrix(-38.76906 27.96113 -8.61844 -11.94976 148.4 158.7)"/><path fill="#a67833" d="M92 28h16v65H92z"/><path fill="#3a2708" d="M23.7 15.9L8.9 30.7l-5.3-1.8 16.6-15.8z"/><path d="M156.2 76.7l-.4 27-24-.4.4-27z"/><ellipse cx="161" cy="92" fill="#b08b4d" rx="6" ry="49"/><path fill="#130c00" d="M106.1 132.2l21 12.4 21.9-17.9-48.3 7.5z"/><circle r="1" fill="#504a3f" transform="rotate(-21.8 439.4 21.5) scale(9.51832 35.42915)"/><path fill="#0b0000" d="M3 101h19v15H3z"/><ellipse cx="139" cy="39" fill="#d4c3a6" rx="24" ry="38"/><path fill="#543109" d="M166 51h58v67h-58z"/><path d="M101 103.4l-29.9-7.5 23.6-2.7 13.7 1z"/><circle cx="244" cy="94" r="13" fill="#fff"/><path fill="#473e17" d="M19.7 96.3l4.8-20.9 9 12.7 84.2-1.5z"/><path fill="#ede9d2" d="M-3.2 177l-10-37.6L3.1 135l10 37.6z"/><path fill="#c8b589" d="M271 37.8L200.4 92l-13.8-6.7 54.2-4.2z"/><circle r="1" fill="#b3ae8a" transform="matrix(-15.17792 -6.6901 2.84957 -6.46487 148.6 124.6)"/><path fill="#a67527" d="M110 71h22v23h-22z"/><path fill="#674c24" d="M76 135l22-20 32 2z"/><path d="M104 58h12v15h-12z"/><path fill="#d2bf9d" d="M70.3 51.3l23-1.6 2.4 35-23 1.6z"/><path fill="#fff" d="M11.6 18.7L-4 37.7l-12-51.4 58.9 7z"/><ellipse cx="55" cy="80" fill="#dbd3bf" rx="22" ry="3"/><ellipse cx="52" cy="147" fill="#ccc1a6" rx="20" ry="28"/><circle r="1" fill="#fffffc" transform="rotate(140.9 119.2 49) scale(9.94259 5.78958)"/><ellipse cx="226" cy="32" fill="#b7a274" rx="92" ry="11"/><path fill="#bdb999" d="M105 132l28 17-71-13z"/><path fill="#b19f7e" d="M28.9 37.6L117.6 17l-6.4 42.1-61.4-18.4z"/><path fill="#aaa79f" d="M235.8 134.6l35.2-32.1-.5 14.1-48.7-17z"/><path fill="#010100" d="M169 55h7v53h-7z"/><path fill="#bab37f" d="M146 101h12v6h-12z"/><ellipse cx="1" cy="112" fill="#d6cdb6" rx="3" ry="85"/><path fill="#e4dbc7" d="M130 22l10 42-38-14z"/><path fill="#060000" d="M153 135l-28 8 13-16z"/><path fill="#080000" d="M25 59h28v3H25z"/><path fill="#beaa84" d="M105 93h28v23h-28z"/><path d="M135 76h12v33h-12z"/><path fill="#79796e" d="M118 172l24-10-69-21z"/><circle r="1" fill="#0d0000" transform="matrix(2.11235 5.57368 -14.8681 5.63481 52.2 105.7)"/><path fill="#b5b1a3" d="M178 185l22-50-54 45z"/><path fill="#864f1d" d="M205.2 83.3l18 15.1 1.4-60-34.3 43z"/><path fill="#b4a882" d="M106.6 128l-38.7 17.9 47.3-12.1 67.4-19.1z"/><path fill="#e6e2cf" d="M52.4 95l.1 2-30.9 2-.1-2z"/><path fill="#dfd7c6" d="M136 185l-115-2 51-42z"/><path d="M40 75h31v2H40z"/><path fill="#d8cdb2" d="M68 98h14v31H68z"/><circle r="1" fill="#dbd4bf" transform="matrix(-1.6877 -7.5503 84.872 -18.97114 99.3 9.6)"/><path fill="#97845e" d="M129 64h21v13h-21z"/><path fill="#2d0f00" d="M23 99l-21 1 5 13z"/><path fill="#b58545" d="M26 63h41v11H26z"/><path fill="#826a40" d="M161.6 70.4l-8.4 59.5 69.6-11.2-53.1-10z"/><path fill="#ab9876" d="M140 7h8v48h-8z"/><path fill="#5f441d" d="M20.2 11l2.9 2.8L11.8 25l-2.9-2.9z"/><path d="M103 103l-14-6 18-7z"/><path fill="#e2d6bd" d="M149 72l16-43-20 6z"/><path fill="#533e18" d="M90 134l3-7-21 4z"/><path fill="#b89f6d" d="M223 24h33v45h-33z"/><circle r="1" fill="#827e72" transform="matrix(-29.02347 61.64087 -6.45653 -3.04004 250.1 135.5)"/><path fill="#827858" d="M197 114.4l-86.9 42.5-14.5-22.1 34.7 20z"/><path fill="#091500" d="M41.1 91.7l1.7-1.7-25.6 2.2 5.5 1.2z"/><path fill="#cdcac0" d="M48.8 41.9l-59.4-5.7 89.8 29.1-20.1-26.2z"/><path fill="#0b0000" d="M18 100l-3 17h9z"/><path fill="#323026" d="M170 122l31 12-37 25z"/><path fill="#543109" d="M227.7-16l4.9 30.3L207.1-16h-9.8z"/><ellipse cx="201" cy="99" fill="#2e1900" rx="16" ry="10"/><path fill="#7a5223" d="M104 72l35 28-30-11z"/><circle cx="144" cy="89" r="12"/><circle r="1" fill="#5a2200" transform="matrix(.65964 4.5348 -24.48902 3.5622 200 54)"/><path fill="#997f54" d="M116.4 38.3l-28.8-3.8 8.2 16.3 22.3-16.2z"/><path fill="#a68f65" d="M213.2 137.8l-41.3-14 40.4-5.7 1.6 66.9z"/><path fill="#b19259" d="M133.3 110.7L120.5 58l-49.9 1.1 42.9-6.3z"/><path fill="#cabca0" d="M40.4 178.3l30.6 4.4-45.7-88.1-6.3-.2z"/><path fill="#6b5a3d" d="M241 136l-6 14-26-41z"/><path fill="#eeda9f" d="M271-14v41l-62-43z"/><path fill="#2a1b00" d="M71.9 86.1l10.9-.3-49.1 29.3 29.8 4z"/><path fill="#f5edc3" d="M192 85h14v3h-14z"/><path fill="#e9e5d8" d="M62.8-16L55 13.9 6.1 35.5l13.2-17.1z"/><path fill="#3f4115" d="M27.1 84.3l.8 12.5 6.7-13.5-16.8-9.2z"/><path fill="#302310" d="M143.5 125.9l-38.3 10.3 13.8 2.9.4 5.9z"/><path fill="#a7997f" d="M223 69h6v41h-6z"/></g></g></svg>