<svg xmlns="http://www.w3.org/2000/svg" viewBox="0 0 1351 900"><defs/><filter id="a"><feGaussianBlur stdDeviation="12"/></filter><rect width="100%" height="100%" fill="#524628"/><g filter="url(#a)"><g fill-opacity=".5" transform="translate(2.6 2.6) scale(5.27734)"><circle r="1" fill="#fff" transform="matrix(77.67805 73.18487 -94.45604 100.25516 181 62.7)"/><circle r="1" fill="#ffffef" transform="matrix(-21.24041 65.74983 -90.6754 -29.29259 213.2 58.5)"/><circle cx="139" cy="169" r="104" fill="#a78748"/><circle r="1" fill="#331200" transform="rotate(12.4 -656 990.5) scale(61.22749 13.53162)"/><circle r="1" fill="#aa8f5f" transform="matrix(8.68237 24.45062 -57.20143 20.31213 60.8 19)"/><circle r="1" fill="#fff" transform="rotate(13 -94.3 1069.7) scale(30.96521 90.88144)"/><circle r="1" fill="#ecf1e9" transform="matrix(-15.94468 2.0106 -4.76336 -37.77504 154.6 99.7)"/><path fill="#6f0d00" d="M188 111.6l3.1-46 11 .8-3.2 46z"/><circle r="1" fill="#2b0000" transform="rotate(94.4 -30.6 57.3) scale(48.70914 22.63626)"/><path fill="#d5be86" d="M64 183.5v-145h24v145z"/><circle r="1" transform="matrix(-7.20447 -1.00477 3.2093 -23.01148 9 12.4)"/><ellipse cx="56" cy="99" fill="#624823" rx="8" ry="55"/><circle r="1" fill="#96723c" transform="matrix(-3.01665 11.34688 -50.85037 -13.51895 255 154.7)"/><path fill="#7b6840" d="M88 53l41 66-43 20z"/><circle r="1" fill="#f9f2df" transform="matrix(22.49518 17.76563 -20.14537 25.50846 182.4 39)"/><path fill="#f0f6fb" d="M19.9 44.3L-16 38.1l31.5-4.2 3-2.2z"/><circle r="1" fill="#dfcb9c" transform="matrix(-31.08701 26.80947 -14.11367 -16.36556 129.6 31.3)"/><ellipse cx="83" cy="169" fill="#bb9e61" rx="71" ry="22"/><circle r="1" fill="#a18959" transform="matrix(16.30381 14.31466 -19.5318 22.24591 76.4 25.4)"/><path fill="#d7ceb0" d="M268 85.6l-29.4 73 25.6-17.4-72.4-9.2z"/><path fill="#e0e2da" d="M116 90h48v17h-48z"/><path fill="#aa9877" d="M46 69h7v51h-7z"/><path fill="#050000" d="M242.8 143l-.5 2-35-8 .4-2z"/><path fill="#5d3c07" d="M250 117h6v18h-6z"/><path fill="#271b07" d="M255 170l-54-16-32 31z"/><path fill="#70542a" d="M0 132h51v38H0z"/><path fill="#401400" d="M2.1 136.2l.8-29.9-1.7-50.1 62.5 86.1z"/><path fill="#963600" d="M190 68h11v29h-11z"/><path fill="#f3f7ef" d="M219 120l-29 6 42-81z"/><path d="M-11 12l28-28-8 51z"/><path fill="#321600" d="M105.1 113.4l47.7-5.8v1l-47.6 5.8z"/><circle r="1" fill="#dbd3b6" transform="matrix(28.96195 -2.14128 .16172 2.1873 104 107.2)"/><path fill="#726949" d="M163.1 84.3l8.7-6.8 11 14.2-8.6 6.8z"/><ellipse cy="95" fill="#a49d8d" rx="1" ry="88"/><path fill="#f3eec6" d="M182 74h9v28h-9z"/><circle cx="108" cy="98" r="6" fill="#152b05"/><circle r="1" fill="#ac8743" transform="matrix(3.7604 10.8494 -26.0514 9.02943 158.1 143.6)"/><path fill="#9e8652" d="M56-8l100-5-85 54z"/><path fill="#8a7346" d="M90 61h25v28H90z"/><path d="M33 63.6l7-.2 1 63-7 .2z"/><path fill="#e1d5ad" d="M162.3 110.3l5.6 22.4-28.2 7-5.6-22.4z"/><path fill="#5e4a22" d="M49.6 129.1l-60.7 5.9 74.6 19.2.9-97.3z"/><path fill="#797b07" d="M185 103l12 19-2-26z"/><ellipse cx="227" cy="115" fill="#75684a" rx="6" ry="4"/><path fill="#cfc09d" d="M68 75h19v62H68z"/><path fill="#cdbf89" d="M164 143l79-14-45-13z"/><path fill="#716143" d="M43.3 31.5l-31.7-4.4 5.1-36.6 31.7 4.4z"/><path fill="#f2f3eb" d="M212.9 105.8l39.3 19.1-61.6.9 80.4-16.5z"/><path fill="#9a6827" d="M179 106.6l-3.7 8.9-8.8 22.5 18.9-8.3z"/><path d="M2 45h7v10H2z"/><path fill="#d1b77a" d="M94.8 154.2l6.6-13.5 63.8 31.1-6.6 13.5z"/><path fill="#f4f4ed" d="M271 24.1L162.7 46.9l44.4 23.4-.6 41.4z"/><path fill="#c6bb9a" d="M89.1 75.4l50.4 6.1 36.2 1.9 25.8-18.9z"/><path fill="#9e8352" d="M55 185l74-69-141 69z"/><path fill="#5f3e0d" d="M175.4 161.2l-2.7-16.8 10-1.6 2.6 16.8z"/><path fill="#cfb477" d="M264 165l-24-21 31-21z"/><path fill="#f2f6fb" d="M138 96l18-16 9 15z"/><circle r="1" fill="#cbb991" transform="rotate(142.6 50.6 35) scale(56.47675 12.42171)"/><path fill="#692605" d="M5 116.5l1-28 27 1-1 28z"/><path fill="#fffff8" d="M195 15l-32-2 5-13z"/><path fill="#c3ad75" d="M146.2 98.9l-30.8 45.9 52.7-8.8-23-11.1z"/><path fill="#822100" d="M192 81h10v19h-10z"/><path fill="#868775" d="M132 82h8v17h-8z"/><path fill="#1f0a00" d="M227 139h11v6h-11z"/><path fill="#754f1f" d="M230.3 150.5l40.7 2.6-33.3 5.1-17.9-11z"/><path fill="#d3c6a3" d="M188 30l4-46 15 36z"/><path fill="#0d0000" d="M1.2 71.2l.7-8 40.9 3.6-.7 8z"/><path fill="#c5bc9e" d="M105 91l-6 12-6-13z"/><ellipse cx="36" cy="51" fill="#433516" rx="28" ry="6"/><path fill="#5d4f36" d="M87 77l35 10-35 1z"/><path fill="#a18b5e" d="M64 32.6l-1.1 48.3-11.7-18.5 44-14.1z"/><path fill="#120000" d="M2 118h37v11H2z"/><path fill="#af8e4b" d="M182.7 147.2l1 7.1 28.9-.3-14.8-29.7z"/><path fill="#dfd0ab" d="M225 125h24v14h-24z"/><path fill="#d9d0b3" d="M90.4 59.2l53.3 8.7 7.8-83.6 30.6 48.3z"/><path fill="#dcc971" d="M208.5 96.5l-31 5.5 5.6-.7 20.2 5.6z"/><circle r="1" fill="#f2edd8" transform="rotate(115.8 116 75.1) scale(32.01938 29.16123)"/><path fill="#460000" d="M12 80h18v39H12z"/><path fill="#752100" d="M173.8 135.4l-1.8 6.8-5.8-1.6 1.8-6.8z"/><path fill="#cfcdb9" d="M203.6 110.2l-4.3 11.7 8.6 19 10.2-18.8z"/><circle r="1" fill="#f9f8c7" transform="rotate(-145.7 103 44) scale(2.6328 2.8745)"/><path fill="#83743a" d="M30 86h3v31h-3z"/><path fill="#a1916b" d="M104 86l28 16-14 1z"/><circle r="1" fill="#7c5c2a" transform="matrix(14.59464 9.99316 -6.47734 9.45991 161 156.3)"/><path fill="#dfbe59" d="M200.7 64.8l-4.6.3 5.2 21 3.4 2.8z"/><ellipse cx="48" cy="96" fill="#82714f" rx="4" ry="34"/><path fill="#727366" d="M16 60L6 54l-22 7z"/><path fill="#dfdac5" d="M153.1 27.7l-12.9 2.6-35.8-1.1 67 46.8z"/><circle r="1" fill="#a4997c" transform="matrix(-.48802 2.33169 -48.04256 -10.0552 97.5 46.6)"/><path fill="#af9b6d" d="M87 66h34v13H87z"/><path fill="#d5dcde" d="M223 77h33v31h-33z"/><path fill="#ab9f80" d="M214 129.1l13.3-7 4.7 8.8-13.3 7z"/><path fill="#deddd5" d="M-9 45l25-10-32-2z"/><ellipse cx="6" cy="18" rx="6" ry="17"/><path fill="#987c4b" d="M118.6 147.2l58.5-19.3-32.9 15.6 4.8 17.4z"/><path fill="#826623" d="M31.2 75.4l-.6 4-19.8-2.8.6-4z"/><path fill="#e8e1c6" d="M267.2 120.5l-41.7 16.9-.7-1.9 41.7-16.9z"/><path fill="#fffffc" d="M156 125h14v4h-14z"/><path fill="#afa794" d="M11 30h11v15H11z"/><ellipse cx="100" cy="156" fill="#bba167" rx="23" ry="24"/></g></g></svg>