<svg xmlns="http://www.w3.org/2000/svg" viewBox="0 0 1351 900"><defs/><filter id="a"><feGaussianBlur stdDeviation="12"/></filter><rect width="100%" height="100%" fill="#413322"/><g filter="url(#a)"><g fill-opacity=".5" transform="translate(2.6 2.6) scale(5.27734)"><circle r="1" fill="#fff" transform="rotate(59.6 4.5 112) scale(96.26627 255.00001)"/><circle r="1" fill="#fff" transform="matrix(.12578 -28.8062 254.99757 1.11343 122.8 15.2)"/><circle r="1" fill="#fffff1" transform="matrix(148.09248 158.366 -31.74078 29.6817 28 135.5)"/><circle r="1" fill="#402000" transform="matrix(35.95717 10.57598 -7.3699 25.05688 60.1 70)"/><path fill="#120400" d="M94 160l21-49 46 20z"/><circle r="1" fill="#7c4c0f" transform="rotate(-47.4 181 -181) scale(20.02308 54.91035)"/><circle r="1" fill="#867b66" transform="matrix(-9.88967 -11.14946 93.34604 -82.79874 165 139.2)"/><circle r="1" fill="#fff" transform="matrix(-.16947 -24.15596 107.12222 -.75152 59.7 7.2)"/><circle r="1" fill="#d6c8a5" transform="rotate(-159.2 115.7 6.3) scale(69.08539 14.88702)"/><circle r="1" fill="#fffffc" transform="matrix(8.81526 10.0342 -62.0562 54.5177 38.4 145.2)"/><circle r="1" fill="#fff0b7" transform="matrix(10.80326 -9.57713 20.47277 23.09383 139.8 60.7)"/><ellipse cx="11" cy="45" fill="#fffff7" rx="10" ry="50"/><circle r="1" fill="#050000" transform="rotate(-147.9 128.8 13.5) scale(38.04042 9.82528)"/><path fill="#0f0500" d="M47.9 92.7l20.6-34.8L107 82l-12.2 4.3z"/><circle r="1" fill="#a3854b" transform="matrix(-52.19869 -33.38245 6.4723 -10.12044 126.2 81.3)"/><path fill="#bcb2a3" d="M151 103h13v67h-13z"/><path fill="#fffddb" d="M26 69h13v35H26z"/><circle r="1" fill="#443616" transform="rotate(-16.8 391.4 -582) scale(52.54256 4.47416)"/><circle r="1" fill="#b8a073" transform="matrix(12.60804 31.19977 -22.75297 9.19463 0 115.2)"/><path fill="#ecdeb0" d="M169 118L70 81l13 31z"/><circle r="1" fill="#1b1003" transform="matrix(10.37548 1.45818 -2.5608 18.22104 173 132.8)"/><path fill="#b5ae94" d="M122.3 185H57l18.6-74.2 29 13.1z"/><path fill="#763909" d="M181 33h7v64h-7z"/><path fill="#ebefe4" d="M185.4 57.4l11.3-18.6 2.7 18.1-4 19.5z"/><path fill="#70644d" d="M183.6 197.4L168 170.6l62.3-36 15.5 26.8z"/><path fill="#110600" d="M113 126h23v24h-23z"/><path fill="#332000" d="M228 14h8v11h-8z"/><ellipse cx="111" cy="68" fill="#a88a55" rx="16" ry="36"/><path fill="#e0d5af" d="M70.1 57.9l63-34.2-79.9 8.4 9.2 17.3z"/><path fill="#a5926c" d="M53 121.8l-34.1-13.9 22.3 36-57.2-2.3z"/><path fill="#fffcf5" d="M133 48l14 42 18-19z"/><path fill="#d3d7d3" d="M215 24h36v47h-36z"/><path fill="#f1dca9" d="M203 117l-21-4 15 13z"/><path fill="#fff" d="M-6.4 182.2l-7.5-28 46.3-12.4 7.5 28z"/><path fill="#55472a" d="M104 106l23 12-10 51z"/><circle r="1" fill="#fff9da" transform="matrix(15.13342 -5.54884 2.75484 7.51332 10 126.8)"/><path fill="#91763b" d="M202.2 64.7l12.1 7.2-3.1-34.4-13.3-9.2z"/><path fill="#9c4c07" d="M147 42h28v19h-28z"/><path fill="#847653" d="M88 90.8l-4.6-13.9-9.9 39.8-35-24.9z"/><path fill="#2d0800" d="M7.3 89L.4 99l-5.7-4 6.9-10z"/><circle cx="38" cy="1" r="4" fill="#180600"/><path fill="#927042" d="M159.3 89.7l75.4 7-73.6-21.6 4.6-46.1z"/><circle r="1" fill="#f2eaca" transform="matrix(-57.9689 19.8472 -4.63458 -13.5365 185.7 12.9)"/><path fill="#8a6736" d="M22 45h10v36H22z"/><path fill="#fefbee" d="M97 134.9l-73.7-29 20.9 11.6-12.8-26.3z"/><path d="M64 62l21 7-25 24z"/><path fill="#5a3f29" d="M110 71l34 2-26 9z"/><path fill="#f9f2df" d="M8.2 82.3l47.7-10.5-34.7 22L6.7 90z"/><path fill="#efcc87" d="M175.2 81.8l-.5-63.8 4.6-1.8.4 58.3z"/><path fill="#9a8c68" d="M271 22.2l-22.9 14.5-1.2-1.4L252.4 7z"/><path fill="#897a51" d="M32.9 11.2l-7.2 14.9-1.7-8.9-3.2 3.5z"/><path fill="#fff" d="M20.1 126.6L50.7 185-16 151.6l40 4.4z"/><circle r="1" fill="#fffff8" transform="matrix(-38.17997 10.9992 -5.20922 -18.08202 74.8 6)"/><path fill="#211607" d="M203 119l-7 43 72-86z"/><path fill="#bb9c65" d="M228 93l-16 20-17-3z"/><path fill="#d4c9b8" d="M205.4 97.4l-63.3 26.9-39.7-26.8 59.9 24.7z"/><path fill="#f4ecd7" d="M20 26l-1 85-35-71z"/><path fill="#bba272" d="M49 64h13v16H49z"/><path fill="#dfc899" d="M109.1 30.9l-7.9-9.5 34.7 52 23.6-35.8z"/><path fill="#1f0d00" d="M207.5 97.3l2 3.4-45 26-2-3.4z"/><path fill="#ffffe5" d="M79 93h16v20H79z"/><path fill="#351f0c" d="M188 84l49-14 8 23z"/><path fill="#453017" d="M78 65h21v23H78z"/><path fill="#93825a" d="M29 26l14-10-11 14z"/><path fill="#c8b588" d="M125 102L88 59l52 35z"/><path fill="#fff" d="M42 127l30-6-27 39z"/><path fill="#838075" d="M119 163h57v7h-57z"/><ellipse cx="50" cy="87" fill="#190700" rx="11" ry="5"/><path fill="#463e2e" d="M253 47h3v41h-3z"/><path fill="#c6c1ae" d="M49.7 152.9L97.6 185l.2-64.7 18 3.7z"/><circle r="1" fill="#bfae84" transform="rotate(79.6 77.3 131.3) scale(2.21723 50.42269)"/><path fill="#8e7c5a" d="M31.1 125.1l23-1.9-59.3 15.1 14.5 7.1z"/><path fill="#44321b" d="M229.7 13.7l5.1 5.4-5.4 1.2-7.6-8.2z"/><circle r="1" fill="#d95300" transform="matrix(3.9548 .751 -.72599 3.82308 125 59.2)"/><path fill="#9e8f6c" d="M74.9 109.8l1.8 10.8 40.1 6.1 11.1-2z"/><path fill="#d3c4a6" d="M82.1 41.1l22.8 9.7-2.2-29.6-26.4 45.5z"/><path fill="#231a0c" d="M133.8 134.6l4.7 30-23.8-36 20.6-8.8z"/><path fill="#70583b" d="M212 75h44v10h-44z"/><path fill="#af9971" d="M199 110l1 16-26-2z"/><ellipse cx="157" cy="73" fill="#fcfded" rx="18" ry="2"/><path fill="#2b2318" d="M164 127h31v22h-31z"/><path fill="#b09c78" d="M165.9 95.1l46.7-6.2 2 6.1-43.5 18.9z"/><path fill="#fbfadc" d="M117.9 46.6l13.4 11 11.6-11.3-14.7-2.7z"/><circle cx="72" cy="97" r="5" fill="#292218"/><path fill="#3f3909" d="M158 87h8v14h-8z"/><path fill="#664316" d="M70 71L60 47l-34-7z"/><path fill="#733d17" d="M173 70l-16-14 17-17z"/><circle r="1" fill="#fff" transform="matrix(9.61902 19.4626 -26.6532 13.17283 8.2 0)"/><path fill="#1f0f00" d="M98 159.6l5-21.4 1 .2-5 21.4z"/><path fill="#7f603e" d="M98.9 76.8l.8-18.4-.6-2.4-21.3 29.7z"/><path fill="#a38f65" d="M48 115l-14 1-5 26z"/><path fill="#874f10" d="M208.3-9.9l-37.8 13L157.1-16l7.5 8.9z"/><path fill="#0a0000" d="M271 120.6l-9.2-31.3-41.7-4.4-12.4-3z"/><path fill="#060000" d="M63.4 66l20.8-2.9L86.6 80l-20.8 2.9z"/><path fill="#7d6137" d="M-.4 113.7l-.5-30-15.1 43.4 26.1-9.4z"/><path fill="#fcfcf5" d="M208 31h24v11h-24z"/><circle cx="89" cy="49" r="3" fill="#3b0000"/><path fill="#eaeced" d="M159.8 63.2l-19 19 9.4 6.7 8-1.9z"/><path fill="#fff" d="M50 114l2-15-22 13z"/><path fill="#f3e7c5" d="M70.5 92.6l.6-6.9 18.1 22.9 9.1-20.7z"/></g></g></svg>