<svg xmlns="http://www.w3.org/2000/svg" viewBox="0 0 1067 800"><defs/><filter id="a"><feGaussianBlur stdDeviation="12"/></filter><rect width="100%" height="100%" fill="#51583d"/><g filter="url(#a)"><g fill-opacity=".5" transform="translate(2 2) scale(4.16797)"><ellipse cx="129" cy="49" fill="#fff" rx="132" ry="142"/><path fill="#faffff" d="M50 176L271-1-16 0z"/><circle r="1" fill="#252d35" transform="matrix(-42.58189 -55.26936 31.37075 -24.16937 179.9 145.2)"/><ellipse cx="96" cy="41" fill="#d4f9ff" rx="255" ry="50"/><circle r="1" fill="#1b2423" transform="rotate(-158.1 11.9 61.5) scale(34.98284 30.01671)"/><circle r="1" fill="#60656c" transform="matrix(-8.15727 -55.1403 103.21604 -15.26944 232.3 148.4)"/><circle cx="100" cy="149" r="31" fill="#f1fff9"/><path fill="#def2ff" d="M31 0h98v163H31z"/><circle r="1" fill="#a0c2f3" transform="matrix(36.80145 -39.85026 79.50593 73.4232 205.8 10.4)"/><circle r="1" fill="#c0c8cc" transform="matrix(50.91405 1.50832 -.15643 5.28047 219.2 166)"/><ellipse cx="188" cy="148" fill="#060200" rx="58" ry="6"/><circle r="1" fill="#c3cedc" transform="rotate(120.4 82.3 137.2) scale(5.56452 102.00649)"/><circle r="1" fill="#fff" transform="matrix(-.09484 -56.6668 31.48933 -.0527 23.8 41.3)"/><circle r="1" fill="#313b33" transform="matrix(-5.50033 22.22579 -36.38478 -9.00432 59 190)"/><path fill="#18210c" d="M26 124h10v26H26z"/><path fill="#5e6760" d="M129 87h44v104h-44z"/><path fill="#ccd7cb" d="M160 155l-63-6 3 51z"/><ellipse cx="229" cy="180" fill="#030300" rx="98" ry="3"/><path fill="#babfc8" d="M135 181h34v10h-34z"/><path d="M164.6 137.9l-.2-4 51-1.8.2 4zM152 112h39v5h-39z"/><path fill="#ab9fa7" d="M17.9 177.6L-16 175v2.3l28.9-16.9z"/><path fill="#d1d9ca" d="M29.5 154l103.8-54.7-12.3 63.6-92.2 3.1z"/><path fill="#464b36" d="M130 171h61v12h-61z"/><ellipse cx="193" cy="94" fill="#413f44" rx="13" ry="5"/><path fill="#d5e9f9" d="M55 145L123 3 25 117z"/><ellipse cx="176" cy="123" rx="28" ry="2"/><path fill="#565453" d="M219 87l52 53V98z"/><ellipse cx="32" cy="26" fill="#ecffff" rx="43" ry="75"/><circle r="1" fill="#868580" transform="matrix(2.80143 -4.13683 49.53534 33.54494 242.4 143.7)"/><path fill="#93a0a9" d="M199.2 181.6l58.9 9L196 206h28.2z"/><path fill="#2e3823" d="M28.1 100.7l-.2 15-20-.4.2-15z"/><path fill="#2e2f2f" d="M271 138.8l-80.8-43.2 50.7 32.9-4.4-2.7z"/><ellipse cx="185" cy="128" fill="#d5e0e0" rx="21" ry="2"/><path fill="#161512" d="M247.5 153.2l-18-7.4-51.4-.8 24.9 14.7z"/><path fill="#dee3d1" d="M17.1 145.4l1.4 5.9 69 17.2 24.9 3z"/><path fill="#bcc3d0" d="M200 99.5l7.2-3.5 45.6 16.4-33.8-5.8z"/><path fill="#c8cacf" d="M193.9 103l-35.1-18.7 23.6 26.8 21-2z"/><path fill="#464d35" d="M172 98l-43 64 22-73z"/><path fill="#7c8a95" d="M137.1 173.3l90.6-15.8-102.6-3 31.9-2.8z"/><circle r="1" fill="#cce0f9" transform="matrix(53.7304 42.43372 -15.27768 19.3449 155.2 41.5)"/><path fill="#d1f4ff" d="M131 141h121v1H131z"/><path fill="#cedcd9" d="M108 81h21v110h-21z"/><path fill="#4c593c" d="M200.3 179.2L174 195.7l-14.3-23 26.3-16.4z"/><path fill="#bfc3c2" d="M195 163h55v7h-55z"/><path fill="#a1aab5" d="M257.6 118.9l-6.7 22-12.5-3.8 6.7-22z"/><ellipse cx="222" cy="13" fill="#a4c5e7" rx="42" ry="35"/><path fill="#d9e9f7" d="M20 52h153v36H20z"/><path d="M227 178h29v8h-29z"/><path fill="#6c7e68" d="M65.9 167.6l2.8-3.6 67.7 42-122-47.4z"/><path fill="#4c4e49" d="M129 89h32v16h-32z"/><circle r="1" fill="#3c3f3b" transform="matrix(3.9638 13.12876 -20.95954 6.32806 15.8 147.3)"/><path fill="#484846" d="M221 141l16 10 34-10z"/><path fill="#0a0503" d="M132 145h22v7h-22z"/><circle r="1" fill="#feffff" transform="matrix(72.312 -84.27534 21.32208 18.2953 13.4 14.3)"/><ellipse cx="23" cy="188" fill="#323532" rx="76" ry="9"/><path fill="#e1e9d6" d="M54.9 168.2l-35.8-19.6 58.4 9.4-11.4 11.1z"/><path fill="#b1b7ad" d="M153 118h43v3h-43z"/><path fill="#110d06" d="M270 110v9l-33-8z"/><path fill="#adc7df" d="M201.2 110.8l48.1 31 21.7 2.7-25.1-13.5z"/><circle cx="19" cy="178" r="2" fill="#fff"/><path fill="#c9cdcf" d="M230.4 92.1l25.5 8.8-.3 1-25.5-8.8z"/><path fill="#d2dfd9" d="M135.7 116.2l-112.2-2.1L146.9 206l-68.6-31.4z"/><path fill="#a4abb2" d="M130 106h56v2h-56z"/><path fill="#5b6550" d="M58.7 203.9l-22.6-42.8-3.6-2.3 28.3 9.3z"/><path fill="#b6cddd" d="M142 75h112v13H142z"/><path fill="#828d96" d="M136 171l34-26 15 19z"/><path fill="#696a67" d="M193 88.6l27.5 22.1-39-14.1-12.3-10z"/><ellipse cx="200" cy="136" fill="#131614" rx="20" ry="3"/><path fill="#110d0d" d="M153 108h35v2h-35z"/><path fill="#232420" d="M215.4 110.3L260 133l-1.4 2.7L214 113z"/><path fill="#292828" d="M12.2 161l-26.7 9.1 23.3-29.9L50.7 206z"/><path fill="#6f7578" d="M270.7 170.9l-51.2-36.4-30.9 4.7 79.9 8.2z"/><ellipse cx="154" cy="102" fill="#c7ceca" rx="17" ry="1"/><path fill="#333835" d="M-14.1 109.8L-.3 144l19.5-36.4-29.5-35.8z"/><path fill="#34343a" d="M130.2 178.6l22.2-.7-16.8 5.1-5.7 23z"/><path fill="#576454" d="M166.1 127.1l-7.8-13.4-28.5 6.7 47.2 24.7z"/><path fill="#3d3c35" d="M225.4 96.8l45.2 16-18.7-10.7 12.6 2.1z"/><path fill="#3d3433" d="M212.2 199.6l-6.1-.3-32.3-56.8 21.3 28.7z"/><circle r="1" fill="#3f492f" transform="rotate(156.5 20 97.5) scale(2.65934 16.73063)"/><path fill="#d5dde8" d="M146.6 74.3L90 50l127.8 47.5 10.1-1.3z"/><path fill="#bcc2be" d="M170 128h36v3h-36z"/><path fill="#9facbb" d="M134 153h22v17h-22z"/><circle r="1" fill="#c6dbea" transform="matrix(-1.07653 24.27822 -23.72151 -1.05184 105.6 101.5)"/><ellipse cx="169" cy="104" rx="10" ry="1"/><path fill="#dff6fe" d="M115 0L5 67l15 35z"/><path fill="#dfe8ec" d="M209 66l-20-32-82 47z"/><path d="M178 146h42v2h-42z"/><ellipse cx="152" cy="182" fill="#979da1" rx="16" ry="2"/><path fill="#555552" d="M209.9 97.7L188.3 89l28.5 7.9 26.5 9.5z"/><path fill="#6a7b61" d="M33 110l-6-10-13-1z"/><path fill="#98a0a6" d="M234.3 163l22.4 8.3-12.8-11.5-20-6.8z"/><path fill="#bac3cb" d="M152.7 79.7l.4-1 82.2 31.6-.4 1z"/><path fill="#cfe4d8" d="M66 177h6v3h-6z"/><path fill="#d2d9c4" d="M130.2 186.5l-4.3-54.5-23.7 31.3-29 11.1z"/><ellipse cx="181" cy="124" fill="#030601" rx="9" ry="3"/><ellipse cx="198" cy="143" fill="#454138" rx="58" ry="1"/><ellipse cx="235" cy="181" rx="21" ry="3"/><ellipse cx="211" cy="152" rx="28" ry="2"/><ellipse cx="211" cy="149" fill="#78746b" rx="79" ry="1"/></g></g></svg>