<svg xmlns="http://www.w3.org/2000/svg" viewBox="0 0 1400 700"><defs/><filter id="a"><feGaussianBlur stdDeviation="12"/></filter><rect width="100%" height="100%" fill="#3d5144"/><g filter="url(#a)"><g fill-opacity=".5" transform="translate(2.7 2.7) scale(5.46875)"><circle r="1" fill="#fffdf1" transform="rotate(11.8 -487 474) scale(138.15513 118.54944)"/><circle r="1" fill="#f9ffff" transform="matrix(-38.8201 38.58078 -23.82451 -23.9723 58.2 57.9)"/><path fill="#2a231d" d="M109 29h147v30H109z"/><circle r="1" fill="#180000" transform="matrix(-41.50544 -155.9889 28.26234 -7.52003 250.9 44.9)"/><circle cx="181" cy="93" r="54" fill="#c59258"/><path fill="#3c281f" d="M27.3 110.1l-43.3 7.4 8.9 21.7 61.4-16.3z"/><ellipse cx="105" cy="22" fill="#beeeff" rx="74" ry="9"/><circle r="1" fill="#516383" transform="matrix(-1.6355 -15.00557 243.90711 -26.58411 85.8 0)"/><path fill="#451700" d="M210 75l42 68 10-90z"/><circle r="1" fill="#e6c595" transform="rotate(14.7 -390.6 426.4) scale(28.05266 66.19442)"/><path fill="#113137" d="M156.4 41.1l-39 6.8L140 21.1l77.2 30.3z"/><circle r="1" fill="#84662b" transform="matrix(44.77985 2.3282 -.47125 9.06395 129.7 103.5)"/><path fill="#4f6276" d="M2.8 89.6l-28.1-7L-2.8-7.6l28.1 7z"/><path fill="#9ebacd" d="M148.9 73.9l-11.8-30.3.3 4.2L199 34.4z"/><ellipse cx="214" cy="104" fill="#ffedcf" rx="10" ry="18"/><circle r="1" fill="#090300" transform="matrix(40.72126 -.4311 .23546 22.24177 234.4 16.3)"/><path fill="#d8e6f6" d="M18 26h69v67H18z"/><path fill="#1f0000" d="M60 93h4v35h-4z"/><circle r="1" fill="#f5dbae" transform="rotate(-12.6 597.1 -777.7) scale(7.43766 52.68512)"/><circle r="1" fill="#ad9974" transform="rotate(-23.5 266.5 -444) scale(31.81797 15.99301)"/><ellipse cx="118" cy="120" fill="#ffdba2" rx="46" ry="9"/><path fill="#cc9344" d="M165 112h82v16h-82z"/><path fill="#233a3b" d="M144 66L91 33l43 1z"/><path fill="#97abb8" d="M13 38L8 63l90-4z"/><path fill="#785425" d="M187 87l16 48V75z"/><ellipse cx="153" cy="8" fill="#4a5e74" rx="35" ry="7"/><circle r="1" fill="#d2f0ff" transform="matrix(-32.70235 -3.66816 .5098 -4.54504 113.6 17.8)"/><path fill="#fff" d="M69 52l-1-25 27-1 1 25z"/><path fill="#231000" d="M227 5h29v107h-29z"/><path fill="#fbfcfd" d="M111.4 74.4l-54.8-8.6-35 42.9L25.3 60z"/><path fill="#f7fcfb" d="M152.6 69.3l35.3-1.3-26.7-3.9-20.7.1z"/><path fill="#343630" d="M236 22l-70 28 51 1z"/><path fill="#614112" d="M238.7 78.6l-35.1 8.9-4.3-34.3 46.3 89.8z"/><circle r="1" fill="#b6c1c2" transform="matrix(-19.36093 14.81335 -8.98757 -11.74668 104 67.5)"/><path fill="#dae5ed" d="M191 40.1l-39.7 12.1 3.3-8.2 31.6-4.8z"/><path fill="#f5ecd7" d="M181 73h26l-21 11z"/><path fill="#273839" d="M139 43l40-20.3L244.7-16 173 42.9z"/><circle r="1" fill="#a9d1f5" transform="matrix(2.21415 12.00743 -32.28147 5.95264 51.7 28)"/><path fill="#523104" d="M169.4 126.5l1-12.5 27.1 29-59.8-12.6z"/><path fill="#140d01" d="M25 116h17v8H25z"/><path fill="#a0b6c8" d="M9 44h14v77H9z"/><path fill="#fae1b4" d="M193 129l-21-16 13-29z"/><path fill="#ffe6d8" d="M214 87l-16 14 25 2z"/><path fill="#fff" d="M179 21l-37-7 21 12z"/><path fill="#2f413e" d="M154.3 19.4l-16.4 20.8-46.2 6.6 22.7 3.8z"/><path fill="#7b633e" d="M135.3 103.3l-14-14.7 59.8 13.4-12 10.6z"/><circle r="1" fill="#cab595" transform="matrix(-31.81013 21.0265 -3.9676 -6.00243 65.6 94.9)"/><path fill="#cdceca" d="M195 53l4.7 2.9 27.7-3.6-19.9-.7z"/><circle r="1" transform="matrix(-42.57362 -118.28372 19.53827 -7.03237 252 5.2)"/><path fill="#1e271a" d="M39.4 111.3l-3 .3-1.8-14.9 3-.3z"/><path fill="#5f4f38" d="M61.7 124.2l-8.2-25.3 9.9-6.7 2.1 14.1z"/><path fill="#33393b" d="M139.1 76.5l-9.3-44.1-2.8 23.3 19-5.2z"/><ellipse cx="172" cy="53" fill="#5e7172" rx="21" ry="6"/><path fill="#0d1214" d="M148.9 34.5l-23.2 3.4 6.3 5.2 48.2-3.3z"/><circle r="1" fill="#d5eeff" transform="matrix(26.51932 -2.09595 .43193 5.46511 122.6 20.4)"/><path fill="#835630" d="M71.7 120.3l-24.3 14.3 28.7-8.7-1.1-2.2z"/><path fill="#596b75" d="M176-11.4l-4.6 29.7-43.5-7 4.7-29.6z"/><circle cx="1" cy="2" r="31" fill="#676e76"/><path fill="#faffff" d="M145 45l-3 5-5-6z"/><path fill="#fbd2a8" d="M213.8 103l13.2 13.6-10.8 10.4-13.2-13.6z"/><path fill="#e0c9aa" d="M42 115l11-25 8 37z"/><path fill="#583f11" d="M208.6 48.7l17.6 5.5 9.3 33.1-1.2-55.3z"/><path fill="#2f1000" d="M202 110l3-8-15 8z"/><path fill="#667c76" d="M188 37l-13-20 22 16z"/><path fill="#daa051" d="M212 56h15v14h-15z"/><path fill="#76a0a1" d="M135.1 30.5l-22.7-5.1 6 10.5 21-3z"/><path fill="#c0a76f" d="M77 93.5h34v19H77z"/><circle cx="72" cy="88" r="12" fill="#e4ddc6"/><path fill="#fdffff" d="M73.8 37.4l32.8 4-28.2 9.4L41.2 47z"/><path fill="#877f7a" d="M-16 98.3l79.5 17.4-42.6-7.2 7.6 31z"/><path fill="#9a7131" d="M225 113h31v7h-31z"/><path fill="#48645a" d="M111 30l-19 6 51 9z"/><path fill="#feffff" d="M83 49h31v4H83z"/><path fill="#f1f5f6" d="M24.1 102.1l-25.3.7 56.7-16.9-31.9-27.3z"/><path fill="#d5d4c5" d="M177.4 58.2l-19 6.1-17.6-.1 5.8 15z"/><circle r="1" fill="#2b3139" transform="rotate(150.1 99.7 34.6) scale(17.53305 25.39524)"/><ellipse cx="120" cy="102" fill="#706132" rx="28" ry="3"/><path fill="#b9dafd" d="M129 14l-64-1 39 19z"/><path fill="#5f5240" d="M160 69l1 5 18-4z"/><path fill="#16140f" d="M26 106l10 16-12-2z"/><path fill="#e6d8db" d="M173.4 94.7l12.7-9.7-.9 23.5-23.7-25.8z"/><path fill="#372000" d="M224 82h31v29h-31z"/><path fill="#fff" d="M151.4 48.8l16.8-6.5.4 1-16.8 6.4z"/><path fill="#5a7d6e" d="M155.3 23.6l-24.2 1.2 40.8 13.3-13.2-13.7z"/><path fill="#1e1911" d="M127 92l2-6 3 11z"/><path fill="#dab87d" d="M124 112h42v16h-42z"/><path fill="#7897a7" d="M-7.7 95.5l6.6 24.5 8.7-24.7 10.8-60.9z"/><path fill="#765828" d="M188.7 110.5l25.8-35.6.8.6-25.8 35.6z"/><path fill="#e8dbc0" d="M67 113h37v9H67z"/><path fill="#c3b18b" d="M196 62l-31 36-21-3z"/><path fill="#85826e" d="M179.4 28.7L178 53.2l35.3 3-37 19.4z"/><ellipse cx="195" cy="118" fill="#e4bf78" rx="5" ry="8"/><path fill="#a4a499" d="M137.9 100.7l-30.5-47.6 24.1 4.6 7.4 1.9z"/><circle r="1" fill="#371f06" transform="rotate(98 44.9 150.5) scale(23.08671 1)"/><path fill="#524530" d="M58 104l-4 6 1 4z"/><circle r="1" fill="#4a3008" transform="rotate(163.2 117.7 80.8) scale(21.30548 8.24897)"/><path fill="#a27942" d="M119 126h48v2h-48z"/><path fill="#855d28" d="M227 101l-5-33-16 6z"/><path fill="#3e2407" d="M169 96l-4 8 6 8z"/><path fill="#4c5354" d="M135.6 66.9l1.7 7.3 22.4-40.9-17.3 21.5z"/></g></g></svg>