<svg xmlns="http://www.w3.org/2000/svg" viewBox="0 0 533 800"><defs/><filter id="a"><feGaussianBlur stdDeviation="12"/></filter><rect width="100%" height="100%" fill="#5e322b"/><g filter="url(#a)"><g fill-opacity=".5" transform="translate(1.6 1.6) scale(3.125)"><circle r="1" fill="#f9ffff" transform="rotate(74.8 11.2 99.1) scale(101.69722 153.48854)"/><circle r="1" fill="#9cd2b2" transform="matrix(-103.96355 54.58208 -22.02816 -41.95747 47.3 255)"/><circle r="1" fill="#fff" transform="matrix(-26.5373 -89.17377 44.76921 -13.3229 148.7 45)"/><circle r="1" fill="#638158" transform="rotate(-43.6 185.5 6) scale(50.75979 169.00001)"/><path fill="#cdeac0" d="M92 26L29-16 19 172z"/><circle r="1" fill="#fff" transform="matrix(-47.63125 -131.57988 41.0327 -14.85363 156.4 20.7)"/><path fill="#313938" d="M155 100L37 225l-53-36z"/><path fill="#fff" d="M42 112h11v60H42z"/><ellipse cy="75" fill="#728930" rx="32" ry="72"/><path fill="#bdc1c8" d="M0 224h64v30H0z"/><path fill="#e9c4c7" d="M78 185h27v27H78z"/><circle cx="73" cy="145" r="23" fill="#3c3e43"/><circle r="1" fill="#e7fdc0" transform="matrix(-2.63807 -34.28477 25.2814 -1.9453 40.2 20.3)"/><circle r="1" fill="#000e00" transform="matrix(-10.66884 7.62176 -17.2147 -24.0969 24.5 197.9)"/><path fill="#3e5815" d="M155.2 204.8l-24.4-54.9 42-18.7 24.4 54.9z"/><path fill="#090613" d="M62 241l2-60 13 55z"/><circle r="1" fill="#96a59b" transform="matrix(-45.62197 38.82734 -3.30057 -3.87816 130.4 88)"/><path fill="#23282d" d="M97.2 93.6l1.7 7.8-42.1 9-1.7-7.8z"/><path fill="#e1f2ff" d="M104 237l1-10-27 2z"/><ellipse cx="129" cy="217" fill="#9ca728" rx="18" ry="20"/><circle r="1" fill="#8e9c91" transform="matrix(-42.81217 33.81102 -13.74658 -17.4062 54 80.8)"/><path fill="#968a85" d="M35.3 180.1l2.5-116.7 7.7 105 21.1 49.5z"/><path fill="#f0faf8" d="M112.2 156l61.9-31.8-3.6-24-34.7 33.7z"/><path fill="#f9fffa" d="M132-16L84 62l101-32z"/><path fill="#8e7970" d="M151 109l-26 63-75-19z"/><path fill="#001500" d="M114 179.9l20.1-6.2 3.8 12.4-20 6.2z"/><path fill="#c5d2e0" d="M98 105l10 17-65-3z"/><path fill="#c3c0cc" d="M15 128h17v40H15z"/><path fill="#adafc3" d="M70 219l-1-23 37 19z"/><ellipse cx="108" cy="175" fill="#4d372e" rx="4" ry="71"/><path fill="#475758" d="M-3 180l26-29-33-70z"/><circle r="1" fill="#abb95c" transform="matrix(24.99318 54.84253 -11.03098 5.0271 21.7 27.6)"/><path fill="#131512" d="M84 105h3v115h-3z"/><path fill="#274800" d="M170 253l-27-60 42 1z"/><circle r="1" fill="#515657" transform="matrix(18.45703 -1.65374 .51904 5.79286 78.6 70.4)"/><path fill="#b5b5ae" d="M99 92l42-36-99 36z"/><circle r="1" fill="#9aba82" transform="rotate(161.1 41.7 10) scale(13.70677 48.28311)"/><path fill="#d9ecfc" d="M60 72L39 48 56-1z"/><ellipse cx="152" cy="255" fill="#829ba9" rx="8" ry="27"/><path fill="#fefffd" d="M23.2 244.4L21 241l27.9-19.5L51 225z"/><path fill="#b9bfb5" d="M46.2 194.9l5.6 8.7-1-19.6 21.1-5.1z"/><ellipse cx="87" cy="223" fill="#151127" rx="22" ry="4"/><ellipse cy="52" fill="#586618" rx="9" ry="45"/><path fill="#323739" d="M65.5 134.4l33 49.5-50.7-10.1 63.6-51.6z"/><path fill="#f0ecef" d="M22.8 101.2l7.6 31.1 26.4-32.4-4.1 41.8z"/><path fill="#b7cbde" d="M82 227h25v11H82z"/><path fill="#31383a" d="M55 109h5v73h-5z"/><ellipse cx="116" cy="172" fill="#fb1426" rx="9" ry="5"/><path fill="#effefe" d="M135.7 100.8l49.3 37.3V68.4l-18.4-2.6z"/><circle cx="9" cy="201" r="3" fill="#fff"/><path fill="#fff" d="M13 134h14v9H13z"/><path fill="#001a04" d="M16.3 208.4L13.2 223l-25.5-5.4 3.1-14.6z"/><path fill="#121507" d="M41.8 217.8l17.8 3.4-35.4 3.4 5.6-47.6z"/><ellipse cx="74" cy="120" fill="#41413f" rx="3" ry="42"/><path fill="#fff" d="M103 80l-14 4-2 13z"/><circle r="1" fill="#686f3a" transform="rotate(24.6 -215 104) scale(28.39373 4.97041)"/><path fill="#cbdbdc" d="M120.2 148.2l-4.5-11 38-15.4 4.6 11z"/><path fill="#fdffff" d="M133.7-16l-17 37-26.8 14.2L94.7 21z"/><circle r="1" fill="#707475" transform="rotate(21.6 -642.1 205.6) scale(28.92461 7.98419)"/><path fill="#fff2ff" d="M117 160h10v6h-10z"/><path fill="#ece6d8" d="M40 135l-4 26 17-3z"/><path fill="#0d0000" d="M56.3 190.6l-2.6 29-2-.2 2.6-29z"/><path fill="#4e4e57" d="M72 42h19v8H72z"/><path fill="#6f7454" d="M-1.4 106.2l5.9 34.5 42.8-13.2.2 14.9z"/><path fill="#58645d" d="M106.9 52.1l-6.8 15.4-15.3 14.6-2.7-8.6z"/><path fill="#1e1f30" d="M111.5 237.4l-8.1-20 21.5 23.4-42-.2z"/><path fill="#8cad5c" d="M142.5 193.6l-10.6-26.4 18.5 16.5-2 10.2z"/><path fill="#a1623f" d="M145.4 108.7l5 8.6-27.8 16-5-8.6z"/><path fill="#454e4c" d="M54.8 235.6l43 4.5-45.1 2.6-10.1-.3z"/><circle r="1" fill="#7a9286" transform="rotate(23.4 -343.4 232) scale(6.36848 12.77984)"/><path fill="#eef6fb" d="M35.6 124.9l-3.4 25.2-2.3 5.3-9.1-12.7z"/><path fill="#8b8573" d="M120.2 87.5l49.4-35.2-66.9 61.8 2.7 31.4z"/><path fill="#c3decf" d="M91 157h13v9H91z"/><path fill="#61645f" d="M89 77.9L61.2 113l54.9-36-31.3 43.4z"/><path fill="#586335" d="M134 271l-1-60 26-3z"/><path fill="#9594a5" d="M94 241l39 22-2-22z"/><path fill="#0f141b" d="M55.7 192.9l-1.6-5.8 52.2-14 1.6 5.8z"/><path fill="#e5e9e7" d="M70 190h3v27h-3z"/><path fill="#56524b" d="M23.1 154.3l11.1-.9 10.1 9.6.3 11z"/><path fill="#88a8ab" d="M143.4 84.9l3-.5 4.2 30.7-3 .5z"/><path fill="#d6c9c4" d="M97 181h8v35h-8z"/><path fill="#1f3440" d="M96.7 167.6l-2.4 46.9h-1l2.4-47z"/><circle r="1" fill="#bbd069" transform="rotate(-166.5 72.7 96.5) scale(12.23441 5.75161)"/><path fill="#ab7e68" d="M110.4 83.2l24.4-21.1-21.1 6.8-12.6 29.9z"/><circle r="1" fill="#ced6d3" transform="rotate(93.5 -24.2 78.7) scale(49.84916 3.4706)"/><path fill="#20640d" d="M120.7 175.7l64.3-15.8V173l-87 11z"/><path fill="#cea088" d="M127 11l-22 20 11-2z"/><circle r="1" fill="#fff" transform="matrix(-14.33828 -9.0293 19.88159 -31.57142 160.8 31.8)"/><path fill="#c5dde8" d="M71.9 103.5l-.9 3.6 1.7 14.4-12.6 6.8z"/><path fill="#c5d8e0" d="M64 81l-1 13 25-18z"/><path fill="#f0e6dc" d="M31.4 159.1l-1.3 5.8-17.5-4 1.3-5.8z"/><path fill="#8f0718" d="M146 156l-24 8 26 5z"/><path fill="#c8d5d5" d="M22.6 101l-11.2 13.8 28.1-.6-15.5 5.6z"/><path fill="#c8d4db" d="M77.7 46L55.5 71.8l45.3-28.5-9.2 30.9z"/><path fill="#fffaed" d="M52 166l-9 10 4-39z"/><path fill="#8b996b" d="M85 11l9 15-34 11z"/><path fill="#e4ebee" d="M76 106h9v14h-9z"/><circle r="1" fill="#becdc7" transform="matrix(-21.40012 6.44834 -.28851 -.95748 54.8 184.7)"/><path fill="#d3e894" d="M82.6 16.8l36-34.7 4.8 5-36 34.8z"/><path fill="#1b261d" d="M-16 148.7l33.4 38.1 62.1-12.6-95.5 33.5z"/></g></g></svg>