<svg xmlns="http://www.w3.org/2000/svg" viewBox="0 0 320 212"><defs/><filter id="a"><feGaussianBlur stdDeviation="12"/></filter><rect width="100%" height="100%" fill="#3c3129"/><g filter="url(#a)"><g fill-opacity=".5" transform="matrix(1.25 0 0 1.25 .6 .6)"><ellipse cx="70" cy="76" fill="#ffe2b2" rx="188" ry="124"/><circle r="1" fill="#000006" transform="matrix(2.31388 -18.75507 62.80272 7.7482 130.5 145.8)"/><circle r="1" fill="#fdcfaf" transform="matrix(-77.43369 25.1013 -9.68101 -29.86445 171.8 90.3)"/><circle r="1" fill="#210000" transform="matrix(.90197 65.2496 -18.69054 .25837 2.6 89.8)"/><ellipse cx="96" cy="81" fill="#d94e00" rx="26" ry="28"/><path fill="#df0000" d="M140 85h45v23h-45z"/><path fill="#e9e4dc" d="M31 61h39v68H31z"/><path fill="#fdffff" d="M77 107h120v18H77z"/><ellipse cx="229" cy="75" fill="#251f17" rx="4" ry="98"/><circle r="1" fill="#c6ae96" transform="matrix(5.08434 -33.90538 77.26768 11.58681 107.9 22.5)"/><ellipse cx="224" cy="26" fill="#78624f" rx="46" ry="30"/><path fill="#f2f9dc" d="M122.9 46.8l-4.4 112.6 18.8-75.3 56.3 3.6z"/><path fill="#c16d00" d="M72 55h48v55H72z"/><ellipse cx="207" cy="113" rx="2" ry="59"/><ellipse cx="52" cy="91" fill="#5c4536" rx="5" ry="65"/><path fill="#fff" d="M233 51h13v53h-13z"/><path fill="#a06500" d="M133 55h68v9h-68z"/><path fill="#d70b00" d="M138 86h46v20h-46z"/><path fill="#e1ffff" d="M225.8 57.1l-1.7 78.2L208.9 78l3.3-17.8z"/><path fill="#29211b" d="M120 129h66v30h-66z"/><path fill="#fff" d="M31 75h16v54H31z"/><circle r="1" fill="#635949" transform="matrix(76.51569 -21.77115 4.45057 15.64174 246 144.8)"/><path fill="#471d00" d="M26 34.3l-26.6-.9 19.4 119.9-26.4-3.7z"/><path fill="#141514" d="M107 152.7l-22-1.5 2-30 22 1.6z"/><ellipse cx="190" cy="103" fill="#eceee5" rx="6" ry="53"/><path fill="#594d41" d="M246 0h10v137h-10z"/><path fill="#ffffe9" d="M101.5 123l3.3-10.3 16.5-4-64.2-3.2z"/><path fill="#dcc09e" d="M15.5 149.3l98.4 22.8-3.4 14.6-98.4-22.8z"/><path fill="#665646" d="M93 160l-36-4 10-45z"/><path fill="#a11000" d="M72.9 101.2l4.7-23.1 48.5 7.6-22 7.9z"/><path fill="#d1c3b1" d="M152.1 54.3l60.7-2.1L66.7 40.9 55.6 55.5z"/><path fill="#7e7566" d="M162 145l-54-28-6 20z"/><ellipse cy="13" fill="#c4ac98" rx="39" ry="19"/><ellipse cx="218" cy="113" fill="#afc289" rx="8" ry="28"/><path fill="#caa900" d="M73 56h42v26H73z"/><path fill="#f3efed" d="M120 63h16v57h-16z"/><circle r="1" fill="#715d4a" transform="matrix(-28.8352 13.20179 -6.96547 -15.21391 214.8 38.4)"/><path d="M130 147h43v12h-43z"/><path fill="#f2f2d0" d="M188.7 128.6l-28-2.1 37.7-32.6L179 65.4z"/><path fill="#582f0f" d="M0 33h20v117H0z"/><circle r="1" fill="#bda58a" transform="matrix(-1.75317 -9.368 24.9703 -4.67307 187.8 20.7)"/><path fill="#5a4031" d="M2 58l71-26-89 5z"/><path fill="#dfd1c3" d="M58 52h14v58H58z"/><path fill="#493f37" d="M186 163l-63-36 64 2z"/><path fill="#d92900" d="M137 87h47v17h-47z"/><path fill="#cfb398" d="M20 58h8v81h-8z"/><path fill="#fff" d="M209 61h17v23h-17z"/><path fill="#feffff" d="M232 55h13v26h-13z"/><circle r="1" fill="#b8cc93" transform="matrix(5.75593 -1.17556 4.01571 19.6622 239.9 109.8)"/><path fill="#b29a81" d="M22 52h30v24H22z"/><ellipse cx="198" cy="97" fill="#9b978f" rx="5" ry="45"/><path fill="#f3fbc9" d="M138 70h45v16h-45z"/><ellipse cx="229" cy="94" fill="#282116" rx="3" ry="39"/><circle cx="70" cy="118" r="5" fill="#292a00"/><ellipse cx="199" cy="154" fill="#ae977b" rx="24" ry="4"/><path fill="#9b8871" d="M192 64l-30-32 92 18z"/><path fill="#baa991" d="M78.2 118.9l-29.5 14-4.7-11.6 29.7 23.9z"/><path fill="#8f7861" d="M271-3.1L81.7.5l145 16-60.8 24z"/><ellipse cx="216" cy="162" fill="#23201c" rx="41" ry="3"/><ellipse cx="161" cy="59" fill="#b16800" rx="25" ry="4"/><circle r="1" fill="#a18870" transform="rotate(-81.2 165 5.9) scale(7.18696 84.37194)"/><path fill="#67574c" d="M29.4 146.4l87-27.7L59 140.8l49.7 22.8z"/><path fill="#ac3306" d="M122 79.9l-6 32.3-18.9-29.1 37.6-3.6z"/><path fill="#7c6b5b" d="M117 138h54v8h-54z"/><ellipse cx="97" cy="149" fill="#26201b" rx="34" ry="4"/><path fill="#323526" d="M205 74h5v35h-5z"/><path fill="#ebe2cc" d="M92.6 108.3l-23.9 15.8 51.7-2.3-83-14.4z"/><path fill="#b4861a" d="M137 54.5l-1.1 28 7.2-23.6 62.4 10.5z"/><path fill="#fff" d="M31 76h15v22H31z"/><path fill="#715742" d="M52 33h5v117h-5z"/><path fill="#4d3d28" d="M27 70l5 4 11-1z"/><ellipse cx="153" cy="86" fill="#f3cc08" rx="19" ry="2"/><path fill="#5f4f3d" d="M181.9 34.7L271 2.6l-80 47.8 10.3-2.5z"/><ellipse cx="110" cy="34" fill="#8a7661" rx="93" ry="3"/><path fill="#5d5145" d="M239.7 184l-57-23.7 88.3-16.4-73.8-3.3z"/><path fill="#d6cac3" d="M121 55h15v35h-15z"/><path fill="#242122" d="M126 130h56v8h-56z"/><ellipse cx="29" cy="98" fill="#0f0500" rx="1" ry="33"/><path fill="#adb78c" d="M209 89h17v49h-17z"/><path fill="#c42200" d="M137 95h45v13h-45z"/><path fill="#e5ddd1" d="M174.3 115.2l27.2-3.7-17.3-61 3.6 83.4z"/><circle cx="107" cy="126" r="5" fill="#0f1308"/><path fill="#9b0007" d="M77 83h41v6H77z"/><path fill="#c5ac90" d="M25 52h23v21H25z"/><path fill="#a49b8c" d="M111 108.5l-.3 31.9-11.4-8.5 29.9-.2z"/><path fill="#19130a" d="M125.2 157.1l8.3.1-6.9-17 17 .1z"/><path fill="#d26e00" d="M73 89h37v18H73z"/><circle r="1" fill="#503521" transform="matrix(2.9451 -5.77737 12.61941 6.43292 12.5 143.9)"/><path fill="#6a5b4b" d="M248 27h8v99h-8z"/><path fill="#fff4da" d="M58 108h6v23h-6z"/><path fill="#cdac82" d="M-16 184v-16.2l35.7-4.5-35.7-24.2z"/><path fill="#615040" d="M233 0h17v48h-17z"/><path fill="#423424" d="M26 130h30v2H26z"/><path fill="#b3bc8a" d="M232 95h14v31h-14z"/><path fill="#3e370d" d="M63 117h6v8h-6z"/><ellipse cx="144" cy="138" fill="#dcc7b2" rx="23" ry="1"/><path fill="#d5cbad" d="M123.6 109.2l76.9-2.6 2.6 33.3 2.8-32.6z"/><path fill="#a18b71" d="M209 158.8l-19.2-6.5-13.6-9.1 41.3 6.9z"/><ellipse cx="49" cy="101" fill="#b1a899" rx="2" ry="41"/><path fill="#c4b39f" d="M60 40h108v15H60z"/></g></g></svg>