<svg xmlns="http://www.w3.org/2000/svg" viewBox="0 0 1019 800"><defs/><filter id="a"><feGaussianBlur stdDeviation="12"/></filter><rect width="100%" height="100%" fill="#383b2f"/><g filter="url(#a)"><g fill-opacity=".5" transform="translate(2 2) scale(3.98047)"><circle r="1" fill="#fff" transform="matrix(-248.22322 58.39719 -27.54965 -117.10262 131.9 73.8)"/><circle r="1" fill="#d6f9ff" transform="matrix(15.34894 -92.9858 251.59539 41.53023 138.5 61.2)"/><circle cx="7" cy="182" r="121" fill="#cfc1ad"/><circle r="1" fill="#fff" transform="matrix(6.67978 30.38136 -66.42592 14.60469 242.3 111.8)"/><path fill="#2d350c" d="M96.3 168.2l-.6-32 26-.4.6 32z"/><ellipse cy="25" fill="#fff" rx="23" ry="199"/><circle r="1" fill="#627245" transform="matrix(-82.07966 21.59177 -6.75884 -25.69327 185.3 194.8)"/><circle cx="130" r="88" fill="#85b9ec"/><circle r="1" fill="#fff" transform="rotate(130.8 114.8 60.3) scale(15.12031 71.37452)"/><path fill="#19252e" d="M22 83h4v117h-4z"/><path fill="#975302" d="M128 82h6v118h-6z"/><path fill="#fffeff" d="M72 79L-9-16l25 91z"/><circle r="1" fill="#8cc3ee" transform="matrix(-11.41536 -18.70136 55.416 -33.82608 190.2 78)"/><path fill="#445231" d="M222 169l-91 46 5-36z"/><path fill="#f4e8e0" d="M79 65h48v40H79z"/><path fill="#79a6ce" d="M47 62l71 3L15-16z"/><path fill="#dddfd0" d="M196.5 157.1l-59.8-10.3-3.9 29 59.4-8.6z"/><circle r="1" fill="#fff" transform="matrix(21.16275 -33.34716 15.6291 9.91853 251.2 83)"/><circle r="1" fill="#bfb19a" transform="matrix(-71.69687 -12.10079 1.70229 -10.086 70.5 112.7)"/><circle r="1" fill="#879175" transform="matrix(3.72519 10.07049 -38.82523 14.36189 247.3 165)"/><path fill="#ebe5d1" d="M72.5 215l-26.8-11.4.7-38.5 42.7 36.5z"/><path d="M72 141h2v24h-2zm0-57h2v23h-2z"/><path fill="#ffe1b1" d="M121 115h7v85h-7z"/><ellipse cx="203" cy="175" fill="#424f2a" rx="7" ry="20"/><path fill="#f5ffff" d="M78 137l3 28 14-2z"/><path fill="#a4a6ab" d="M40.9 61.7l-15.8-6.8L-16 71.1l6.4 8.8z"/><ellipse cx="39" cy="122" fill="#57554e" rx="2" ry="46"/><circle r="1" fill="#fff" transform="rotate(-135.9 116.5 -42.4) scale(40.82211 13.63413)"/><ellipse cx="17" cy="111" fill="#c9b27a" rx="3" ry="50"/><path fill="#181100" d="M25 196h16v4H25z"/><ellipse cx="115" cy="113" fill="#c0ae8e" rx="8" ry="37"/><path fill="#61573a" d="M56 83h2v117h-2z"/><path fill="#dce7f1" d="M21.5 173.4l-1.9-15 15-1.8 1.8 15z"/><circle r="1" fill="#81a7ca" transform="matrix(-8.13732 11.26236 -28.74682 -20.77027 199.8 23.6)"/><path fill="#fafcfe" d="M250 92l-62 31-31-18z"/><circle r="1" fill="#fffeff" transform="matrix(23.01142 -7.7442 13.49274 40.09286 3 23.3)"/><ellipse cx="49" cy="83" fill="#6c6356" rx="28" ry="2"/><path fill="#f4f7f5" d="M66 60l42 17-46 5z"/><path fill="#a7b2b2" d="M173 145h10v39h-10z"/><path fill="#cbedff" d="M94.2 194.1l-.4-18 14-.2.4 18z"/><path d="M68 172h2v16h-2z"/><circle r="1" fill="#c2a770" transform="matrix(1.65997 -16.06324 7.90931 .81735 62.5 120.4)"/><ellipse cx="23" cy="161" fill="#110f07" rx="1" ry="80"/><path d="M92 112h1v29h-1z"/><ellipse cx="63" cy="107" rx="7" ry="2"/><path fill="#89723f" d="M86.5 78h11v6h-11z"/><path fill="#fff" d="M23 108h18v5H23z"/><path d="M92 172h1v25h-1z"/><path fill="#bfcacb" d="M159.7 110l57.9 61.4-7 5.8 37-26.1z"/><path fill="#655d42" d="M25 136h15v10H25z"/><path fill="#222d2f" d="M75 165l-13 3-7-4z"/><path fill="#7eb2d7" d="M220.2 76l3.8-8 21.8 10-3.8 8.2z"/><path fill="#d8e6ed" d="M35.3 74.6L5.4 66l85.2-.1-46.7 24.9z"/><path fill="#ebf3f0" d="M133.7 155.4l11.8.5 1.4 18.8-6.6 1.3z"/><path fill="#e8e7e6" d="M59.8 204.6l-11 .7-2.6-37.9 11-.7z"/><path fill="#fff" d="M221 113l50-16.7-42.7-37.9 42.7-.1z"/><path fill="#828b88" d="M0 156h16v8H0z"/><path fill="#fff" d="M21 137h2v30h-2z"/><path fill="#b5d5f5" d="M58 144h14v22H58z"/><path fill="#c5d4e6" d="M104.5 145l10.3-27-18.5-3.8-3.7 4.8z"/><path fill="#dfb661" d="M56 168h12v27H56z"/><path d="M86.4 142h1l.2 14h-1z"/><path fill="#f5ffff" d="M88 157h3v38h-3z"/><path fill="#485236" d="M139.4 182.7l-4.9-13.4-1.4 25.5 80.3 8.8z"/><path fill="#e7d6b2" d="M51 112h16v31H51z"/><ellipse cx="39" cy="189" fill="#3d3d35" rx="1" ry="69"/><path d="M21 181h2v16h-2z"/><path fill="#484c4d" d="M86.5 101.9l2-19.9 1 .1-2 19.9z"/><ellipse cx="108" cy="143" fill="#555443" rx="1" ry="54"/><path fill="#dac188" d="M113 167h15v33h-15z"/><path fill="#e6f6ff" d="M59 89h12v16H59z"/><path fill="#eceef5" d="M109.3 106.2l-32.7-1 9-5.4 22.8-31z"/><path fill="#1b2333" d="M68 107h2v23h-2z"/><path fill="#9fc7e1" d="M213.3 95.6l-69.2 13.2-40.8-80L262.1 42z"/><path fill="#d4e1f0" d="M20 96h30v9H20z"/><path fill="#faffff" d="M88 97h3v39h-3z"/><path fill="#66696b" d="M-13.9 64.7l42.2-.2-26.7 2.6-11.8-7.3z"/><path fill="#fff" d="M217 0h31v26h-31z"/><circle r="1" fill="#b6d5eb" transform="rotate(-170.5 89.4 57) scale(34.63149 12.63046)"/><path fill="#7fa0bd" d="M216.3 6.9l3.2-22.9-8.1 48-26.6-19.9z"/><ellipse cx="7" cy="128" rx="6" ry="1"/><ellipse cx="82" cy="184" fill="#fed784" rx="4" ry="17"/><path fill="#403c2f" d="M91 112h16v3H91z"/><path fill="#3f3c26" d="M45.9 206.5h-1l-.8-41h1z"/><path fill="#eaeef0" d="M187.4 134l78.5 1.7 5.1 24.4-41.7-16.3z"/><circle r="1" fill="#5d694b" transform="matrix(2.51734 9.13913 -40.85343 11.2529 221.9 183.3)"/><path fill="#a08754" d="M86 137h10v8H86z"/><path fill="#abcce6" d="M25 179h14v16H25z"/><path fill="#82969e" d="M0 184h13v8H0z"/><path fill="#a4a089" d="M32 200l30-7-23 20z"/><path fill="#e2c07e" d="M116 106h12v32h-12z"/><path fill="#f1f4f9" d="M9.7 184.9l5.6 30.1.6-46.5-31.9-8.4z"/><path fill="#a9afb0" d="M22 49l-2 17 22-1z"/><path fill="#eee4ce" d="M0 140h87v2H0z"/><path fill="#fffeff" d="M34.9 33.7l2.7-1.4 5.5 31.4L-16 24z"/><path fill="#1f2a32" d="M32 173h2v13h-2z"/><path fill="#3c3a3a" d="M23.2 112.1l17.8 2.8-.2 1-17.8-2.8z"/><path fill="#fbf1d9" d="M17 168h24v4H17z"/><path fill="#001835" d="M56 144h2v23h-2z"/></g></g></svg>