<svg xmlns="http://www.w3.org/2000/svg" viewBox="0 0 1391 900"><defs/><filter id="a"><feGaussianBlur stdDeviation="12"/></filter><rect width="100%" height="100%" fill="#68363b"/><g filter="url(#a)"><g fill-opacity=".5" transform="translate(2.7 2.7) scale(5.4336)"><circle cx="129" cy="109" r="183" fill="#c4f7e8"/><circle r="1" fill="#030505" transform="matrix(-227.37925 -1.58743 .14293 -20.47222 122.8 46)"/><ellipse cx="65" cy="82" fill="#fffffa" rx="159" ry="13"/><ellipse cx="154" cy="155" fill="#fbfeff" rx="254" ry="11"/><path fill="#c9cccc" d="M107 0h72v39h-72z"/><ellipse cy="58" fill="#f0f2f1" rx="24" ry="32"/><ellipse cx="81" cy="42" rx="28" ry="14"/><circle r="1" fill="#e0dccb" transform="matrix(2.87008 -11.42626 87.83268 22.06204 182.3 109.7)"/><path fill="#696a5f" d="M46 85.9L96 84l2 58-50 1.8z"/><circle r="1" fill="#dde0e3" transform="matrix(-70.38886 2.8834 -.88205 -21.53225 234.4 0)"/><circle r="1" fill="#171716" transform="matrix(63.16812 -11.23625 2.16065 12.14677 166.8 47.8)"/><path fill="#bbbbb7" d="M146.8 130.4l73.1-26.6L233.4 43l-19.2 9.7z"/><circle r="1" fill="#f3e8c5" transform="rotate(-106.3 50.9 51.2) scale(6.07744 43.73817)"/><circle r="1" fill="#f5f8f8" transform="matrix(.28133 40.29649 -4.35613 .03041 16 78)"/><ellipse cx="24" cy="76" fill="#f7f7f8" rx="53" ry="11"/><path d="M46 43l-30.9-2 .9-12 30.9 2.2z"/><ellipse cx="1" cy="43" fill="#575b53" rx="12" ry="20"/><path fill="#dcdfe0" d="M225 33h18v6h-18z"/><ellipse cx="96" cy="5" fill="#b9bcba" rx="113" ry="11"/><path fill="#5a5f60" d="M218.7 83.5l7.7-17.7-8.7 46.6 27.2 1.6z"/><path fill="#030406" d="M239.7 38.6L150 54.9l107.2-15L271 13.1z"/><path fill="#767671" d="M142 145l-35-44-83 43z"/><path fill="#fefff7" d="M96 73h92v9H96z"/><path fill="#fff" d="M56.4 39.7l-2 2.3-6.8-5.7 2-2.3z"/><path fill="#848684" d="M179.8 40.8l-37.9 3.3-1.7-19 37.9-3.2z"/><path fill="#212120" d="M177 28h34v39h-34z"/><ellipse cx="99" cy="50" fill="#0e0e0b" rx="18" ry="15"/><path fill="#1b1f18" d="M167 87h10v8h-10z"/><path fill="#fff" d="M217.5 60.5l.1 54-2.1-45.5 26.6-3.2z"/><path fill="#a4a5a1" d="M114 20.4l13.3 55.3L116 53.9l23.9-48z"/><path fill="#6b755e" d="M23 86l2 19 31-14z"/><path fill="#0a2618" d="M246.1 142.2l21.2 4.4L262 136l-16.2-2.2z"/><path fill="#a0a29f" d="M217.7 55.6l-1.1 4.9-26.3-6.1 1.1-4.9z"/><path fill="#817d5d" d="M96 66h52v7H96z"/><ellipse cx="57" cy="24" fill="#646869" rx="54" ry="5"/><path fill="#d9d0b3" d="M172.4 113.4L163.2 90 92.3 76 77.6 98.9z"/><circle r="1" fill="#cbcfd6" transform="matrix(-1.0977 -10.27136 29.6889 -3.17283 234.3 124.2)"/><path fill="#fff" d="M170 41l3-8 5 3z"/><circle r="1" fill="#7c7e79" transform="matrix(-22.7005 -10.13893 1.82259 -4.08067 29.8 45.3)"/><ellipse cx="24" cy="139" fill="#797a78" rx="219" ry="6"/><path fill="#3d2521" d="M90 95h6v26h-6z"/><path fill="#7d7e78" d="M146 54h34v6h-34z"/><ellipse cx="217" cy="97" fill="#feffff" rx="2" ry="34"/><ellipse cx="248" cy="56" fill="#17181a" rx="16" ry="8"/><path fill="#101111" d="M165.5 30l6.8 1.9-5.8 20.2-6.8-2z"/><path fill="#4d524f" d="M23 43h2v46h-2z"/><path fill="#a9aaa6" d="M181.8 114.9l24.5-47.6 18.8 64.3-74.7 2.5z"/><path fill="#2f3530" d="M78.7 69l-55.4-5.9 3-8.8 30.2 1.9z"/><path fill="#000100" d="M120 46l29 1-18 19z"/><path fill="#b8bbbe" d="M237 64h19v29h-19z"/><circle r="1" fill="#dfe1e4" transform="rotate(-178 122.7 76.8) scale(62.16916 11.75519)"/><ellipse cx="1" cy="99" fill="#62715c" rx="11" ry="9"/><path fill="#28291f" d="M148.3 64.6l9-16.6 7.9 23.1 49.8-8.7z"/><path fill="#d9d5cb" d="M176 71h18v37h-18z"/><path fill="#c1a976" d="M48 108l-1 22-63 3z"/><path fill="#030300" d="M48.5 44.5l-23.7-8.8L77 46.9l19 17.8z"/><path fill="#6b7072" d="M244 27l-48-4 30 12z"/><path fill="#e4e6e2" d="M120.6 36.4l-.7 2.9-14.5-3.7.7-2.9z"/><path fill="#0e0f10" d="M174 29l59 4-50 11z"/><path fill="#73746c" d="M46 67l49-3-28-9z"/><path fill="#e4e8e6" d="M45 52h2v21h-2z"/><path fill="#737778" d="M219 66h11v48h-11z"/><path fill="#86877d" d="M170 66.8l1-9 13 1.4-1 9z"/><path fill="#846d3f" d="M111 96h35v2h-35z"/><path fill="#6f7270" d="M156 29.1l64.2-12.2-76.8 26.9 9.7 12.8z"/><path fill="#1a201b" d="M10 62l-26-5V33z"/><path fill="#8d918a" d="M86 81l6 48-43-28z"/><path fill="#fff" d="M51 19h1v21h-1zm183-2h1v20h-1z"/><path fill="#fbfaf8" d="M26 65h18v22H26z"/><path fill="#c3c3b8" d="M5.3 128.4l11.8-28.9 2.2-62.9 6.3 84.8z"/><path fill="#979a9a" d="M66 35l14-25-31 4z"/><path fill="#616561" d="M172 80h5v18h-5z"/><path fill="#060607" d="M244.8 36.7l.9 3.9-22.5 4.7-.9-3.9z"/><ellipse cx="27" cy="160" fill="#bbbdbd" rx="63" ry="16"/><path fill="#2b382c" d="M199 134h8v6h-8z"/><path fill="#9a9c9b" d="M169.5 24.4l-69.3-8.6L121 42.4l26.5-1.3z"/><ellipse cx="143" cy="84" fill="#edead9" rx="20" ry="13"/><path fill="#92917d" d="M118.4 74.2l63.4-3.5-48.9-9.8 6.3 4.1z"/><path fill="#161718" d="M231.1 42.2l-19.9 9.6-13.9 2.5 11.4-20.8z"/><circle r="1" fill="#85867c" transform="matrix(.28335 .95902 -91.13095 26.92593 231.3 46.9)"/><path fill="#989b9b" d="M212.6 36.3l14.4-3.6-54.5-16 48.3-2.4z"/><path fill="#8c8d89" d="M220 45h17v6h-17z"/><circle r="1" fill="#767265" transform="rotate(160.3 10.4 68.6) scale(40.58974 4.05019)"/><ellipse cx="47" cy="65" fill="#565a57" rx="1" ry="31"/><path fill="#dedfd6" d="M76 70h20l-4 29z"/><path fill="#040503" d="M193 60h22v4h-22z"/><path fill="#080809" d="M73 30h33v10H73z"/><path fill="#f0f0ef" d="M-16 59l33.4 37.7L12 38.6l10.4 27.5z"/><path fill="#f2f5f6" d="M5 50l4 3-9-1z"/><path fill="#fff" d="M176.7 40.2l-4.8-5 1.4-1.4 4.8 5z"/><path fill="#090a0a" d="M172 41l19 12-38-1z"/><path fill="#0f0f10" d="M51.1 45.6L37.9 27.1l-7.7.7L11 31.4z"/><path fill="#767a78" d="M243.8 111.1l-47.9 9.3 53.8-17.3 21.3 13.2z"/><path fill="#878985" d="M25.7 37.3l-5.2 12.5L9.4 10.2l-23.8 39.9z"/><path fill="#c8c5b3" d="M2.9 112.8l45.9 1.5-1.7-25-8.2 12z"/><circle cx="46" cy="38" r="2" fill="#d8dbdb"/><path fill="#fff" d="M43.4 54.9L41.8 50l2.8-1 1.6 4.8z"/><path fill="#71613b" d="M110 107l-6-1 5-12z"/><path fill="#fff" d="M234 33h11v2h-11z"/></g></g></svg>