<svg xmlns="http://www.w3.org/2000/svg" viewBox="0 0 1397 900"><defs/><filter id="a"><feGaussianBlur stdDeviation="12"/></filter><rect width="100%" height="100%" fill="#233628"/><g filter="url(#a)"><g fill-opacity=".5" transform="translate(2.7 2.7) scale(5.45703)"><circle r="1" fill="#fff" transform="matrix(4.15708 116.49007 -205.6645 7.33937 150.2 82.4)"/><circle r="1" fill="#fff" transform="rotate(142.2 79.3 118.2) scale(97.7388 64.86276)"/><path fill="#44493e" d="M-16 127L5-16 189 96z"/><circle r="1" fill="#f8ede6" transform="matrix(46.36452 -40.41953 22.7879 26.1396 93 159)"/><circle r="1" fill="#dbe1eb" transform="rotate(-40.4 173.2 -274.5) scale(58.06292 26.08229)"/><circle r="1" fill="#fcffff" transform="matrix(19.90731 -4.3405 14.47907 66.407 237.4 134)"/><path fill="#000800" d="M35.8 74.1l-1.7 25-46-3.2 1.8-25z"/><path fill="#001d00" d="M74.6 72.4l36.9 3.3-2.1 23.9-36.9-3.3z"/><path fill="#cac9d4" d="M129 102l-21.5-.6 2.6-55.2 18 16.1z"/><circle r="1" fill="#001b00" transform="rotate(-178.1 29.4 42.4) scale(7.64991 19.23027)"/><circle r="1" fill="#181511" transform="rotate(-113.3 114.2 -7.8) scale(25.44533 5.82565)"/><circle r="1" fill="#54504f" transform="matrix(8.29139 -15.47737 23.58907 12.6369 69.7 12.4)"/><circle r="1" fill="#bfb7a9" transform="rotate(128.6 -2.7 82.2) scale(46.30646 26.28527)"/><path fill="#406c82" d="M190.7 112l28 2-1.4 20-28-2z"/><circle r="1" fill="#717646" transform="matrix(2.42593 -23.4971 10.78873 1.11387 245.2 77.3)"/><path fill="#4e4c30" d="M136 128h36v9h-36z"/><path fill="#fffcff" d="M36 78h12v22H36z"/><ellipse cx="144" cy="82" fill="#cad5d4" rx="5" ry="37"/><path fill="#002703" d="M129 72h11v36h-11z"/><ellipse cx="73" cy="157" fill="#e1ded9" rx="170" ry="11"/><path fill="#d9e1e6" d="M232 68l39-40-129 36z"/><path fill="#888f95" d="M224.1 65.9l1.7 32-44 2.2-1.6-32z"/><circle r="1" fill="#fff" transform="matrix(3.06858 -1.10398 11.71004 32.5488 93.2 3.7)"/><path fill="#fff" d="M89 75h3v22h-3z"/><path fill="#b7b49f" d="M1.8 103.2l15.6-22 1.1 32.5 63.2-5.9z"/><circle r="1" fill="#7d7d7d" transform="matrix(-15.93601 24.11682 -41.51826 -27.4346 65.7 36.3)"/><ellipse cx="69" cy="99" fill="#d3d7ce" rx="3" ry="41"/><path fill="#f7fcfe" d="M268 174l-92 2 67-84z"/><circle r="1" fill="#767c83" transform="matrix(-17.59193 65.05574 -16.96374 -4.58722 136.6 16)"/><path fill="#2d4f7e" d="M161.5 110.4l-12.1-1.6L165 97.9l16 27.4z"/><circle r="1" fill="#a6acb7" transform="matrix(-42.64233 56.3091 -11.88392 -8.99958 176.8 17.1)"/><path fill="#fff" d="M226 102V34h8v68z"/><path fill="#bac1c3" d="M55 57.1L22.8 41.4l2.2-4.5 32.4 15.7z"/><ellipse cx="131" cy="62" fill="#bfc6c9" rx="47" ry="4"/><path fill="#fafdff" d="M246.8 1.9l-34.1 26.5L257.9-16l8.3 24.1z"/><path fill="#d9dedd" d="M102.9 107.5l40.7 9.7L271 168.9l-103.6-52.2z"/><path fill="#d7e8f2" d="M177 101h42v15h-42z"/><path fill="#61635c" d="M80-16H10l100 66z"/><path fill="#002a00" d="M72 70h13v27H72z"/><path fill="#0f3604" d="M67.6 103.3l-.8-34.5-8.5 8.8-14-4.4z"/><path fill="#4c554d" d="M82 117l-3-16 47 1z"/><path fill="#ceced2" d="M110 76h19v26h-19z"/><path fill="#404440" d="M111 65l24 10-30 2z"/><path fill="#9ba4aa" d="M278.3-5.5l4.6 7.8-125.2 75.2-4.6-7.8z"/><path fill="#dce3dc" d="M157.6 96.5l-16.3-.1.8-8.4 6 23.4z"/><path fill="#e6edf1" d="M219 58l-72 1 39 14z"/><path fill="#3f7032" d="M151 75h23v12h-23z"/><circle cx="247" cy="66" r="13" fill="#747537"/><path fill="#080c08" d="M102 77h7v25h-7z"/><path fill="#b6bec4" d="M222.2 126.6l3.7-8.9 1.8-93.4-20 69.3z"/><path fill="#2f2016" d="M173.5 121.5l-1.4-35.2-19.5-1.6 29 28.5z"/><path fill="#5a554f" d="M13 83l39-27-68-31z"/><path fill="#555b5e" d="M226.7 10.3L207.2 26l-1.9-2.3L224.8 8z"/><path fill="#303632" d="M191 71h3v31h-3z"/><path fill="#8a8b82" d="M109.1 97.2l-6.9 25-58.2-9.1-24.7 37z"/><path fill="#b4b2a7" d="M-8 179l93-12-6-61z"/><path fill="#486244" d="M143.2 62l2.6 72h-1l-2.6-72z"/><path fill="#e3e5e5" d="M106.3 42.3L82.9-16l22.9 46.2L128 94.6z"/><path fill="#002b00" d="M0 75h11v23H0z"/><path fill="#000d00" d="M19 77h16v20H19z"/><ellipse cx="147" cy="90" fill="#f2f6f4" rx="2" ry="28"/><circle r="1" fill="#676762" transform="rotate(-142 14 7) scale(51.65447 11.36594)"/><path fill="#3f5573" d="M35.1 118.8l-42.5 14.1 10.8-28.3 34.5 14.7z"/><circle r="1" fill="#929794" transform="matrix(-1.5413 1.87034 -56.9388 -46.92198 54 29.4)"/><path fill="#13120b" d="M104 102h27v5h-27z"/><ellipse cx="13" cy="114" fill="#9e9c8e" rx="3" ry="47"/><ellipse cx="70" cy="99" fill="#b9bba5" rx="29" ry="2"/><path fill="#f4faff" d="M234.4 49.2l24.7-8 2.5 7.6-24.7 8z"/><path fill="#45403c" d="M6 67h61v10H6z"/><path fill="#b33122" d="M182.3 96.1l-10.8-11.5.6 17.7 4.6 1.5z"/><path fill="#e9e4c2" d="M31 106h32v4H31z"/><path fill="#464849" d="M212.7 70.5l-10.7.7-6.5-1.3 15-3.3z"/><path fill="#b0aaa0" d="M87 76h5v39h-5z"/><path fill="#d8dde2" d="M246.5 129.4l1.7-40.8-10.5-11.3-2.5 41.5z"/><path fill="#787f7e" d="M147.3 86.1L104.6-16l63.2 2.7L142 49.3z"/><circle r="1" fill="#71838f" transform="matrix(1.3521 4.39507 -11.28642 3.47216 136.1 108)"/><ellipse cx="204" cy="58" fill="#575c57" rx="203" ry="1"/><path fill="#fff" d="M226 54h9v48h-9z"/><path fill="#347cbf" d="M189 114h24v8h-24z"/><path fill="#073700" d="M51 76h16v23H51z"/><circle cx="115" cy="147" r="32" fill="#cacbc5"/><path fill="#a49a77" d="M217.6 133.5l-14.7-2-34.5-4.5 45.7-3.1z"/><path fill="#ece4e1" d="M183.9 92.8l-10-4 1.5-25 8 55.2z"/><circle r="1" fill="#c7d1d6" transform="rotate(-115 137.3 -63) scale(11.07029 47.84687)"/><circle r="1" fill="#dfe6e7" transform="rotate(140.9 66.3 107.2) scale(24.5113 12.66774)"/><path fill="#9f9b8f" d="M-16 151.4l93.8-11.2-2.4 4.6-5.2-35.5z"/><path fill="#323d4c" d="M248 84h3v17h-3z"/><path fill="#c3c3cd" d="M39 77h11v21H39z"/><circle r="1" fill="#455f7d" transform="rotate(-100.5 53 46.9) scale(2.4763 41.57666)"/><path fill="#003600" d="M129 77h8v26h-8z"/><path fill="#fafcfb" d="M226 100h30v23h-30z"/><path fill="#868781" d="M76.1 57.9l-80.5 6.3 34.5 3.5 90.3-1.1z"/><path fill="#0a3b03" d="M92 74h12v25H92z"/><path fill="#fcffff" d="M26 39h-7l14 7z"/><ellipse cx="69" cy="83" fill="#e9ecee" rx="2" ry="20"/><path fill="#cdefff" d="M188 98l13 17 24 4z"/><path fill="#5e523c" d="M142.6 120.5l9.6 19.7-.2-15.7-3-1.7z"/><path fill="#8b9496" d="M17 112l-27-17 38 5z"/><ellipse cx="172" cy="120" fill="#ecf0e4" rx="1" ry="15"/><path fill="#7d8281" d="M93 55l19-23L10 0z"/></g></g></svg>