<svg xmlns="http://www.w3.org/2000/svg" viewBox="0 0 1400 881"><defs/><filter id="a"><feGaussianBlur stdDeviation="12"/></filter><rect width="100%" height="100%" fill="#585241"/><g filter="url(#a)"><g fill-opacity=".5" transform="translate(2.7 2.7) scale(5.46875)"><circle r="1" fill="#e5f1f2" transform="matrix(8.35962 -60.2445 252.5799 35.04836 89.2 103.8)"/><circle r="1" transform="matrix(-1.95723 14.55982 -61.40676 -8.25472 118 61.8)"/><ellipse cx="232" cy="87" fill="#fff" rx="252" ry="10"/><circle r="1" fill="#fff" transform="rotate(18.6 -174.5 31.1) scale(66.42331 27.63113)"/><circle r="1" fill="#506561" transform="matrix(-87.13077 16.1799 -5.32134 -28.65606 60.5 124.3)"/><circle r="1" fill="#d2cab3" transform="rotate(-59.2 204.6 -167.8) scale(105.57899 51.7445)"/><circle r="1" fill="#c0cfdc" transform="matrix(-.76928 -12.17312 28.71218 -1.81446 35.1 8.7)"/><circle r="1" fill="#030914" transform="matrix(2.95697 15.95437 -69.0075 12.78978 189.5 18.7)"/><circle r="1" fill="#b0bcc4" transform="rotate(142.8 53.4 28) scale(47.99265 10.39956)"/><ellipse cx="156" cy="6" fill="#b6bbbc" rx="12" ry="21"/><ellipse cx="199" cy="53" fill="#54554b" rx="151" ry="18"/><circle r="1" fill="#9ba2a3" transform="matrix(4.11384 -8.38821 45.65482 22.39054 99 31.9)"/><ellipse cx="128" cy="63" fill="#242523" rx="44" ry="17"/><ellipse cx="203" cy="93" fill="#fffef1" rx="36" ry="15"/><circle r="1" transform="matrix(-.4842 16.65444 -19.4523 -.56555 89.5 0)"/><circle r="1" fill="#c3c3c3" transform="matrix(1.11318 27.71586 -65.691 2.63842 151.2 149.8)"/><path fill="#6b8482" d="M-3 169L33 63l51 113z"/><ellipse cx="40" cy="28" fill="#020c1b" rx="31" ry="10"/><circle r="1" fill="#fff" transform="matrix(26.34912 -5.15218 6.34713 32.46033 0 61)"/><ellipse cx="91" cy="87" fill="#fff" rx="94" ry="6"/><circle cx="176" cy="110" r="8" fill="#2f2000"/><ellipse cx="164" cy="41" fill="#979a94" rx="75" ry="4"/><circle cx="199" cy="6" r="33" fill="#161717"/><path fill="#57685f" d="M103.6 125.4l-88.4 14.7L126 91.9l39.6 1.8z"/><circle r="1" fill="#888265" transform="matrix(-51.00156 15.61252 -3.94652 -12.89212 211 58.5)"/><ellipse cx="78" cy="51" fill="#000001" rx="29" ry="4"/><path fill="#86867f" d="M220 1l-16 28-17-13z"/><circle r="1" fill="#d3d6d7" transform="matrix(-26.67819 -10.68826 1.79291 -4.47516 58.5 61.4)"/><ellipse cx="169" cy="51" rx="22" ry="5"/><path fill="#ffffe4" d="M155.3 116.7l-.6-15 14-.4.6 15z"/><path fill="#9da3a1" d="M.8-4.7l34.9-23.5L59.2 6.7 24.3 30.2z"/><path d="M119 19h33v17h-33z"/><path fill="#898b86" d="M155 47l-51 15 50-34z"/><path fill="#af9d6f" d="M224 135l5.3-47.2 14.4 7.4L271 138z"/><path fill="#ffffe8" d="M248 51h4v29h-4z"/><path fill="#0d0e13" d="M35 79h5v13h-5z"/><ellipse cx="67" cy="32" rx="14" ry="6"/><path fill="#d3d9dc" d="M66.6 44.2L55.7 36 45.6 53l-.3-22.4z"/><ellipse cx="59" cy="106" fill="#69726a" rx="57" ry="15"/><path fill="#b4b2a9" d="M58 132l-44 11-7 29z"/><path fill="#fffff5" d="M115 77L80 88l35 12z"/><ellipse cx="252" cy="21" fill="#9a9f9c" rx="21" ry="9"/><path fill="#005467" d="M55.8 141l5.7 5.6L30.2 179l-5.7-5.6z"/><path fill="#ede8d7" d="M214.4 107.4l12.5 36.9-3.7-41.2-8.3-47.7z"/><ellipse cx="225" cy="70" fill="#ebe4ce" rx="2" ry="29"/><path fill="#554f3d" d="M271 19l-56 25 25 10z"/><circle r="1" transform="matrix(19.86444 -4.70798 2.1914 9.24618 239.4 3.7)"/><path d="M194 32.1l31-10.7 3 8.5-31.2 10.7z"/><path fill="#000007" d="M71.7 11l-18-15.9L112.5-16l-7.3 28.8z"/><circle r="1" fill="#999888" transform="matrix(23.47195 -15.54342 2.08732 3.15204 202 48.9)"/><path fill="#707a75" d="M83 72h29v8H83z"/><path fill="#00010d" d="M24 19l-25-2 7 12z"/><ellipse cx="135" cy="6" fill="#898d8c" rx="28" ry="11"/><ellipse cx="48" cy="64" fill="#aeb1b0" rx="42" ry="4"/><path fill="#8f938e" d="M69 12l24 39 29-32z"/><path fill="#fff" d="M62 19l13 3-6 3z"/><path fill="#090a0e" d="M64 52h30v10H64z"/><circle r="1" fill="#191d1d" transform="matrix(-9.67935 12.0446 -6.17924 -4.9658 43.8 26.4)"/><path fill="#292a29" d="M26 72l5 3-4 9z"/><path fill="#d8dbdd" d="M25.6 38.4l55.6 2.5-13.4-2.5L2.1 70.7z"/><circle r="1" transform="matrix(8.67775 .2027 -.15458 6.61784 166.7 32.6)"/><path d="M140 60l-13 15-4-20z"/><path fill="#9b968f" d="M158.4 108.3l1.9 25.6L16 148.5l117-31.7z"/><path fill="#00000f" d="M-10.2 19.9l6.6-34.7L8.8 14.6l-17.8.6z"/><path fill="#e8e1cc" d="M163 99l-2-26 41 39z"/><path fill="#eff1ef" d="M189 78h67v12h-67z"/><path fill="#e5e1e1" d="M-16 128v10l34-10z"/><path fill="#010102" d="M239-9l-63 25-13-32z"/><path fill="#93948e" d="M154 33.3l-25.9 61.1L147.6 39l25.8-55z"/><circle r="1" fill="#00566a" transform="matrix(-8.97163 2.71807 -1.17843 -3.88967 3.5 155.2)"/><path fill="#f4f6f7" d="M-3.8 92.9l30.3-2L7.3 30.7-16 13.4z"/><path fill="#7e7357" d="M191 119l-24 1 20-13z"/><path fill="#f2f3ea" d="M164 20l-1 7-7-1 1-7z"/><circle r="1" fill="#040402" transform="rotate(147.9 69.6 50.3) scale(12.22486 4.36147)"/><path fill="#f9f9fa" d="M87.1 83.7l-12-7.5-40.4 16.1 125.6-7.5z"/><path fill="#0e6770" d="M4 122h25v6H4z"/><path fill="#9ea39c" d="M191 31l-14 6 6 4z"/><ellipse cx="22" cy="16" fill="#7a8082" rx="26" ry="3"/><path fill="#cdc09d" d="M225 91h31v22h-31z"/><path fill="#efead8" d="M215 44h2v82h-2z"/><path fill="#838677" d="M224.1 68.6l-48.4 4.1h-44.8l93.6 5.6z"/><path fill="#d7d8d9" d="M65.5 56.5l-1.2 7.9-17.8-2.9 1.2-7.9z"/><path fill="#f3eedd" d="M198 56h2v61h-2z"/><path fill="#075356" d="M76.2 131l2.6-5.1 21.5-10.5L85 130.3z"/><path fill="#958868" d="M225 123h31v13h-31z"/><path d="M101.7 55l-.4-7 17-1 .4 7z"/><ellipse cx="147" cy="15" fill="#555857" rx="34" ry="4"/><circle cx="205" cy="24" r="3" fill="#f0f2f0"/><path fill="#12606a" d="M50.5 133.9L30 136.1 64.4 121l21.9-9.6z"/><path fill="#0d0e0e" d="M87.7 48.4l-14 2 28.6 21.8 8 .5z"/><path fill="#979fa2" d="M50.6 46L53 35.2 75.4 40 73 50.8z"/><path fill="#9a9590" d="M50 126h19l18 43z"/><path fill="#45635f" d="M110.8 100l28 7 13.3 7.9-8.6-20.4z"/><path fill="#0d0d0a" d="M174.8 37.7l40.1-22.5-47.8 7.2-8.5 5.4z"/><path fill="#959993" d="M118-16L88 50l29-19z"/><path fill="#0c0e0b" d="M204.9 16.9l29.5 3.6-4.2 9.1-21.1.8z"/><path fill="#d6dbd4" d="M23 19h4v8h-4z"/><ellipse cx="223" cy="160" fill="#bebfbd" rx="118" ry="25"/><path fill="#aab0ae" d="M-16-.9l84.6 9.1 6.1 19.9L46.9-16z"/><ellipse cy="107" fill="#82938c" rx="39" ry="16"/></g></g></svg>