<svg xmlns="http://www.w3.org/2000/svg" viewBox="0 0 652 900"><defs/><filter id="a"><feGaussianBlur stdDeviation="12"/></filter><rect width="100%" height="100%" fill="#543a2e"/><g filter="url(#a)"><g fill-opacity=".5" transform="translate(1.8 1.8) scale(3.51563)"><ellipse cx="79" cy="40" fill="#fff" rx="184" ry="64"/><circle r="1" fill="#fff" transform="matrix(-183.48206 13.79609 -1.25334 -16.66885 151.5 253)"/><circle r="1" fill="#fff" transform="rotate(100.3 48.4 59.3) scale(41.12852 160.83183)"/><ellipse cx="91" cy="85" fill="#3c1d00" rx="52" ry="25"/><circle r="1" fill="#e6b030" transform="rotate(-13.1 502.7 -552.3) scale(36.62449 43.82913)"/><ellipse cx="27" cy="165" fill="#6f9a98" rx="28" ry="75"/><circle r="1" fill="#fff" transform="matrix(-18.12023 41.67369 -157.77931 -68.6044 149.3 22.7)"/><circle r="1" fill="#fff" transform="matrix(145.7213 -12.49272 1.2808 14.93986 125.9 252.8)"/><circle r="1" fill="#c8e3cd" transform="matrix(.33542 6.64544 -52.26392 2.63794 75.9 216)"/><path fill="#8faf97" d="M191.4 188.2l-8.6 37-32.2-7.4 8.6-37z"/><path fill="#fff" d="M57 183l-73-31 33 28zM58 0h127v62H58z"/><path fill="#312e29" d="M44 128l6-65 87-4z"/><path fill="#f5f2f1" d="M-16 69l63 72-20-48z"/><circle r="1" fill="#0e2429" transform="matrix(-25.1742 -6.41682 4.24717 -16.6623 20.5 195)"/><path fill="#000107" d="M-5.8 79.8l1.6-44 12 .4-1.6 44z"/><circle r="1" fill="#fff" transform="matrix(1.01273 11.57551 -78.24227 6.84531 129.9 252.3)"/><circle r="1" fill="#283c38" transform="rotate(-53.7 142 58.2) scale(20.18003 57.68556)"/><circle r="1" fill="#bc822a" transform="matrix(-7.90023 26.00273 -24.22752 -7.36088 127.8 79.9)"/><circle r="1" fill="#b1b9b5" transform="rotate(-154.6 21.4 20.4) scale(18.46687 45.43939)"/><circle r="1" fill="#00130a" transform="matrix(-10.95594 -1.34022 3.96333 -32.39918 126.5 195.7)"/><ellipse cx="105" cy="125" fill="#696411" rx="29" ry="41"/><ellipse cx="23" cy="218" fill="#ecf0db" rx="29" ry="4"/><circle r="1" fill="#c3a56b" transform="matrix(-10.10894 -8.53747 37.59506 -44.51508 177.5 89.2)"/><path fill="#566546" d="M44 247l11-41 80 32z"/><path fill="#fff" d="M166-9l8 78-23 15z"/><path fill="#b4b4b1" d="M10 11h36v96H10z"/><path fill="#e0e6da" d="M68 212h42v7H68z"/><path fill="#fffff6" d="M96 247l-103 5 85 19z"/><path fill="#fbf3ef" d="M50 140h2v75h-2z"/><ellipse cx="11" cy="198" fill="#afbaa8" rx="2" ry="98"/><ellipse cx="47" cy="233" fill="#535333" rx="58" ry="13"/><ellipse cx="178" cy="216" fill="#f5faec" rx="2" ry="43"/><circle r="1" fill="#334342" transform="rotate(-102.2 116.5 56) scale(28.3513 35.75655)"/><circle cx="149" cy="204" r="9" fill="#000001"/><path fill="#252400" d="M146.3 158l7.9-20.2 15.8-19.9 4.3 30.9z"/><circle r="1" fill="#8d6844" transform="matrix(-35.71544 13.8239 -3.32591 -8.59283 172.5 160.2)"/><circle r="1" fill="#fff" transform="matrix(-1.4521 3.66758 -32.81666 -12.99303 9.7 167.8)"/><path fill="#faffff" d="M65 0h120v61H65z"/><path fill="#c88e38" d="M128 46l19 10-17 27z"/><path fill="#272f1c" d="M164 181h12v33h-12z"/><path fill="#464242" d="M46.5 121.9l-28.9-24 33.9 45.9L105 60z"/><path fill="#a0c2e4" d="M200 72l-21-13-17 33z"/><path fill="#2a4a38" d="M14 103L1 157l-17-82z"/><path fill="#dbf4f1" d="M138 186h2v27h-2z"/><path fill="#3e3d3b" d="M47 62h35v75H47z"/><ellipse cx="163" cy="202" fill="#ebebe9" rx="2" ry="19"/><path fill="#dcd9bf" d="M146.5 213l25.9 10.2 27.6 6.1-10.7-7.4z"/><ellipse cy="3" fill="#e7ffff" rx="136" ry="7"/><path fill="#2d1f28" d="M191.3 58.7l8.7 10.2-24.8 22.5 24.8 9.4z"/><path fill="#707a74" d="M109.7 207.7l-22.9 7.9-20.7 19.2L90.5 187z"/><circle r="1" fill="#fff" transform="rotate(141.4 -8 59.4) scale(2.14626 43.87392)"/><path fill="#e1eded" d="M68.6 83.8l9 .4-.2 4-9-.4z"/><path fill="#2b3e3c" d="M45.7 199.5l-51.4-16.7 4-12.3 51.4 16.7z"/><path d="M75.8 209.5l7.6-18.2-41.4-2 28.9.8z"/><path fill="#383431" d="M52 137h14v108H52z"/><path fill="#9f7e25" d="M107.2 102.5l15.6-9 30 52-15.6 9z"/><path fill="#feffef" d="M71 254l129-25-17 42z"/><path fill="#e9cba9" d="M161.2 107.8l-6.9-48.6-25.8-16.5 11 20.8z"/><path fill="#585f45" d="M42 224h138v11H42z"/><path fill="#c2cdc8" d="M28 211.5l-3-85h1l3 85z"/><path fill="#00040d" d="M28 149h8v21h-8z"/><path fill="#afafaa" d="M56 62L7 10l50 1z"/><path fill="#4e5f47" d="M-3 252l25-2-21-55z"/><path fill="#fff" d="M84 209l20 8H85z"/><path fill="#253636" d="M7.8 89.2l.4 2.6-11-38.1 9.2 4.6z"/><path fill="#d2d2b2" d="M109 210.6l10.9 2.9-15.5 5.7-.1-15.9z"/><path fill="#2d412b" d="M153 233l-69-13 67-8z"/><path fill="#b6beb7" d="M18 211l31 8 13-10z"/><path fill="#9b9a98" d="M37.3 120.2L52.8 50 34.3 97.1-7.3 70.3z"/><path fill="#06170a" d="M11 158l-2-25-25 24z"/><circle r="1" fill="#050b0f" transform="matrix(3.39268 7.18674 -15.62128 7.37442 123.4 194.8)"/><path fill="#c6cccc" d="M37 131h1v83h-1z"/><path fill="#32422e" d="M159.2 211l3-12.4-2.9-23.2-22.1 11.3z"/><path fill="#fff" d="M37.8 181.4l1-2.9 11.4 4.1-1 2.9z"/><path fill="#332e33" d="M102 95l-4-34H48z"/><path fill="#a26521" d="M200 96l-23-5-29 39z"/><ellipse cx="45" cy="184" fill="#bbc1bc" rx="1" ry="39"/><path fill="#d99e3a" d="M140 95h38v14h-38z"/><path fill="#e3faff" d="M6.9 31.2L-16 11.1 85.7 6.9 7.7-4.2z"/><path fill="#fff" d="M22 221.4l-.5-3 30.4-5.8.6 3z"/><path fill="#364129" d="M180 186h5v33h-5z"/><circle r="1" fill="#f2f2ee" transform="matrix(-.68726 2.54708 -28.03681 -7.56491 3.8 169)"/><path fill="#000507" d="M129 158h7v52h-7z"/><path fill="#00040d" d="M39 146h5v29h-5z"/><path fill="#e5f2f3" d="M112 175h10v2h-10z"/><path fill="#feffff" d="M154 0h21v79h-21z"/><path fill="#3a473d" d="M26.3 128.9l-2.2 42-13.7-68.1 54 62.4z"/><path fill="#fff" d="M75 210l-3 9h-7zm-5-34h8v1h-8z"/><path fill="#071e24" d="M-16 192l24 24 1-34z"/><path fill="#73621b" d="M129.5 158.9l18.4 6.7-28.7-46.4-39-22.3z"/><path fill="#56696a" d="M7.3 41.1l5.6 9.1L-16-4.3l13.4 67.6z"/><path fill="#000409" d="M39 190h5v21h-5z"/><path fill="#8d9477" d="M77 119.4l-9.8-2 1.8-8.8 9.8 2z"/><ellipse cx="164" cy="197" fill="#2a2f21" rx="1" ry="20"/><path fill="#162527" d="M19.9 218.8L14 180l10.7 11.1 2 11z"/><path fill="#c3c3b4" d="M51 199h1v57h-1z"/><path fill="#464748" d="M52 127h-7l-1-56h7z"/><path fill="#000814" d="M18 153h8v14h-8z"/></g></g></svg>