<svg xmlns="http://www.w3.org/2000/svg" viewBox="0 0 1400 782"><defs/><filter id="a"><feGaussianBlur stdDeviation="12"/></filter><rect width="100%" height="100%" fill="#496d3c"/><g filter="url(#a)"><g fill-opacity=".5" transform="translate(2.7 2.7) scale(5.46875)"><ellipse cx="133" cy="29" fill="#fff" rx="255" ry="51"/><circle r="1" fill="#f4f3ff" transform="matrix(-62.33601 177.14777 -25.46268 -8.95999 52.4 35.4)"/><circle r="1" fill="#fff" transform="rotate(101.5 72.3 74.2) scale(39.61205 77.46657)"/><ellipse cx="100" cy="123" fill="#fff7ff" rx="61" ry="10"/><ellipse cx="94" cy="72" rx="22" ry="31"/><circle r="1" fill="#fff" transform="rotate(-9.2 301.7 -1288.5) scale(22.38973 51.46308)"/><circle r="1" fill="#2b1130" transform="matrix(17.95276 .20559 -1.12883 98.5737 251.6 61)"/><circle r="1" fill="#3c2944" transform="matrix(44.98937 -17.81255 9.3353 23.57828 149.5 86.1)"/><circle r="1" fill="#e0c7ea" transform="rotate(65.2 -73.2 120.8) scale(15.18229 40.9228)"/><path fill="#f0dcf2" d="M235.1 23.1l-35.6 99.2-14-26.7 11-38.3z"/><circle r="1" fill="#e6fcff" transform="rotate(-93.6 81.6 -59.7) scale(25.12488 86.0465)"/><path fill="#2c2319" d="M58 70h57v35H58z"/><circle r="1" fill="#34173d" transform="matrix(1.56538 17.15957 -133.65735 12.1929 230.4 130.4)"/><path fill="#9a584d" d="M10-16L20 89l-36 35z"/><ellipse cx="39" cy="19" fill="#bde3ff" rx="24" ry="84"/><path fill="#030008" d="M112 37l-4 42-38-28z"/><ellipse cx="122" cy="117" fill="#efe3f5" rx="75" ry="4"/><path fill="#daf1ff" d="M27.2 39.2L208.4 8.3 75.8 48.8l-.3 27z"/><path fill="#4d3f5b" d="M34 104h17v24H34z"/><path fill="#24162f" d="M211 79h33v37h-33z"/><circle r="1" fill="#fff" transform="rotate(-125.8 118 -28.8) scale(33.99192 16.57867)"/><path fill="#f3e4e5" d="M-16 123.1l42.8 7.1-13.2-54.6L53 90z"/><ellipse cx="189" cy="14" fill="#fbfeff" rx="45" ry="39"/><path fill="#423e41" d="M73 113l122 1-4-64z"/><path fill="#87949d" d="M112 51h48v31h-48z"/><circle r="1" fill="#93c6f4" transform="matrix(6.5024 26.15082 -40.51816 10.07483 53.3 5.5)"/><path fill="#fff" d="M97 118l41 8 5-12z"/><path fill="#72696f" d="M145.1 131.9l84.6-6.6-48.3-49.7 2.4 37.3z"/><path fill="#474e2e" d="M58 71h56v21H58z"/><ellipse cx="255" cy="20" fill="#747567" rx="22" ry="51"/><path fill="#93796b" d="M0 0h18v106H0z"/><ellipse cx="140" cy="67" rx="2" ry="12"/><path fill="#1c1e1a" d="M55 90h73v14H55z"/><path fill="#f1fcff" d="M21 51h54v20H21z"/><path fill="#d8eaff" d="M116 0h27v55h-27z"/><path fill="#261f22" d="M76 138h177v4H76z"/><path fill="#c8bbc4" d="M47.4 116.2l8.4 40.8 14.9-9.1-20-61z"/><path fill="#171419" d="M76 47h15v26H76z"/><path fill="#524251" d="M38.9 100l-20.5 13 8.4-.5 8.5 2.9z"/><circle r="1" fill="#c4e1f9" transform="rotate(63.5 28.8 81.8) scale(23.02512 35.8288)"/><path fill="#faffff" d="M203 0h30v74h-30z"/><circle r="1" fill="#403839" transform="matrix(-.57222 2.29504 -4.3027 -1.07279 30.2 77.6)"/><path fill="#f0f6fe" d="M212.5 46.1l-62.2 17.5 57-72.4 33.5-5.4z"/><path fill="#2a321e" d="M158 78h26v33h-26z"/><path fill="#e5dccb" d="M18 79h35v23H18z"/><path fill="#a298a6" d="M26 126L2 157l119-28z"/><path fill="#998d8b" d="M183 82h32v21h-32z"/><path fill="#8cc1ed" d="M79-15l-68-1 7 48z"/><path fill="#2e3f41" d="M1 53l-16 48L7 72z"/><circle r="1" fill="#10150f" transform="matrix(8.5547 10.5489 -6.08807 4.93716 224 104)"/><path fill="#2a262b" d="M62.8 84.1l50.5-48-2.2 40.9-15.5-8.3z"/><circle r="1" fill="#ccc5cf" transform="rotate(9.4 -725.8 59.7) scale(32.06671 12.95742)"/><circle r="1" fill="#494d4a" transform="matrix(-32.0437 6.45479 -.76324 -3.78895 160.5 125)"/><path fill="#507024" d="M91.7 70.2l-9.6 7.1 29.9 29.8-3-22.8z"/><path d="M45 118.5l7.2 5.4-1.2 1.6-7.2-5.4z"/><path fill="#525156" d="M22 157l4-36 5 23z"/><path fill="#8c9196" d="M143 46h18v28h-18z"/><ellipse cx="5" cy="38" fill="#fadcbe" rx="1" ry="83"/><path fill="#e6e5e2" d="M57.8 52.7l-19.1 73.8 6 .9L37 68.8z"/><path fill="#dcd5e0" d="M138.8 123l-9.4 3.6 54.5-10.9-22 .8z"/><path fill="#c3b2ac" d="M211 82l-19 18V52z"/><path fill="#393f35" d="M178.3 80.1l-25.7 42.1-19.1-55.8L141 81z"/><path fill="#2c3232" d="M250.7 157l8.9-86-24.8 3.2-5.7 36z"/><path fill="#575a54" d="M209 80h24v10h-24z"/><path fill="#3a4a65" d="M36 99h3v35h-3z"/><path fill="#4b3c55" d="M109.1 110.9l-17.6 5.8-25-16.6-16.1 15.6z"/><circle r="1" fill="#131214" transform="rotate(-170.7 117.2 61.5) scale(64.27388 2.06654)"/><path fill="#b6b7b8" d="M49 142l3-28 88 11z"/><path fill="#7d8d8b" d="M113 62h25v21h-25z"/><ellipse cx="13" cy="55" fill="#4b3d37" rx="1" ry="49"/><path fill="#fff" d="M19 85h5v18h-5z"/><path fill="#c2bbb1" d="M23 79h36v10H23z"/><path fill="#c6a184" d="M18.6 62.8l-7.8 2L-.6 19.2l7.8-2z"/><circle r="1" fill="#503027" transform="matrix(3.80662 15.19168 -.97001 .24306 0 4.6)"/><path fill="#d7e9f7" d="M141.4 56.6l24.8-63.4L80.6 18l50.1 34.2z"/><circle r="1" fill="#7d8483" transform="matrix(-31.2004 -.49622 .02447 -1.53835 152.3 113.8)"/><path fill="#67655c" d="M169 56h23v23h-23z"/><path fill="#280d00" d="M-7.3 9.2l-1.6 30.3 10.5-2.1 1-4.9z"/><path fill="#00001a" d="M44.3 128.4l1.5-5.8 3.9 1-1.5 5.8z"/><ellipse cx="237" cy="25" fill="#696861" rx="4" ry="49"/><path fill="#2d2e2e" d="M77 46.8l26.4-5.9 12.4 27.7-37.7 2z"/><path fill="#f6fdff" d="M42 63h16v17H42z"/><path fill="#a0b5d3" d="M33 106h8v5h-8z"/><path fill="#808c85" d="M29 92h7v7h-7z"/><path fill="#f7fdff" d="M208 0h25v78h-25z"/><path fill="#b0d7ef" d="M17 18h36v24H17z"/><path fill="#95857d" d="M59 98.9L41.1 75.8-12 72.5l65.6 9.1z"/><path fill="#543f49" d="M65.9 88.3l16.9 6L54.9 64l20 47.2z"/><ellipse cx="146" cy="139" fill="#393638" rx="27" ry="12"/><ellipse cx="2" cy="116" fill="#e6f3f6" rx="10" ry="6"/><path fill="#828a87" d="M113 104h41v2h-41z"/><path fill="#ddf0fd" d="M74 71L37 61l37-21z"/><path fill="#fbf7fb" d="M156 116h12v4h-12z"/><circle r="1" fill="#eceeed" transform="matrix(22.19465 1.11892 -.23975 4.75557 120.2 119.3)"/><path fill="#404542" d="M-16 28.1l31.6 57.8L-16 40.1 4.3 82.3z"/><path fill="#eff7ff" d="M162.8 60l24.1-9.4 28.6 18L156.6-16z"/><path fill="#da9f75" d="M15 106l-18 6-13-11z"/><path fill="#8fbadf" d="M14 26.2l.3 60.3 1-95.2L69.4-16z"/><path fill="#231e2a" d="M56 89h27v16H56z"/><path fill="#5a5a5b" d="M210 135l-11-17-50 9z"/></g></g></svg>