<svg xmlns="http://www.w3.org/2000/svg" viewBox="0 0 656 900"><defs/><filter id="a"><feGaussianBlur stdDeviation="12"/></filter><rect width="100%" height="100%" fill="#5e7a38"/><g filter="url(#a)"><g fill-opacity=".5" transform="translate(1.8 1.8) scale(3.51563)"><circle r="1" fill="#fff" transform="matrix(8.95406 92.42614 -173.28194 16.78722 73.2 46.9)"/><circle r="1" fill="#fff" transform="matrix(172.70136 -43.31844 15.25107 60.80275 54 41)"/><circle r="1" fill="#b96442" transform="rotate(-124.7 84.1 45.7) scale(59.6246 71.82407)"/><ellipse cx="89" fill="#fff" rx="116" ry="36"/><circle cx="16" cy="74" r="40" fill="#fff"/><ellipse cx="109" cy="233" fill="#315311" rx="83" ry="45"/><path fill="#504509" d="M65.2 134.5l6-34.5 31.6 5.5-6 34.5z"/><path fill="#e19978" d="M0 180h48v22H0z"/><path fill="#b66431" d="M67 33h9v157h-9z"/><path fill="#b3540d" d="M78.3 46.9l1-5 100.4 23.2-1 5z"/><path fill="#b59d78" d="M201 84l-74 97-25-101z"/><path fill="#0e3100" d="M160.4 144l32.2 30-15 16-32.2-30z"/><path fill="#180700" d="M0 146h19v34H0z"/><circle r="1" fill="#fffdfb" transform="matrix(-74.70472 -19.43315 2.70442 -10.39632 80 60)"/><ellipse cx="110" cy="106" fill="#295e1b" rx="25" ry="6"/><path fill="#c9925e" d="M62 38L26 60l88-19z"/><path fill="#fff" d="M165 0h21v65h-21z"/><path fill="#b56e44" d="M75 111l42 107L9 152z"/><circle r="1" fill="#b15512" transform="matrix(31.462 -4.59387 .31228 2.1387 136.8 36.7)"/><path fill="#fff" d="M33 128l34-18-51 10z"/><path fill="#f6ffff" d="M144.1 101.9l18-3-16-5.6-39.9 8.9z"/><ellipse cx="84" cy="8" fill="#fff" rx="133" ry="23"/><path fill="#90c7d9" d="M174.3 135.7l1.4 17.9.7 9.1 24.6-5.9z"/><path fill="#afa4b4" d="M142 188h44v9h-44z"/><circle r="1" fill="#894925" transform="matrix(4.6612 -10.9467 55.82936 23.7726 70 187.3)"/><circle r="1" fill="#bd7e4c" transform="matrix(45.59106 9.62786 -.71342 3.37829 38.9 36.2)"/><ellipse cx="93" cy="172" fill="#6db0d0" rx="11" ry="9"/><ellipse cy="79" fill="#fff" rx="29" ry="38"/><path fill="#c6efe8" d="M78 84h47v9H78z"/><circle r="1" fill="#814b24" transform="matrix(14.6954 -28.69304 2.797 1.43251 156.8 107)"/><path fill="#e8ffff" d="M-16 191.6l3.5-1.3 21.4-12.9 5.4 12.2z"/><path fill="#ddd2b7" d="M142 111l-39 30-4-22z"/><path fill="#3e351a" d="M109 187.7l-4 3.6 76.2-8L70 177.9z"/><circle r="1" fill="#181b07" transform="matrix(30.209 4.79047 -1.37632 8.67917 74.6 210.3)"/><path fill="#fff" d="M168.8 86.6L163 76.1l12.2-6.7 5.8 10.5zM138 87L70 47l76 17z"/><path fill="#ffbc8e" d="M19 222l16-12 6-17z"/><path fill="#b23e0b" d="M40.3 109.2l.9 2.9-37.5 10.7-.9-2.9z"/><path fill="#b67541" d="M155.5 95.5l14-29.3L142.8 86-15.5 53.2z"/><ellipse cx="82" cy="15" fill="#f7feff" rx="42" ry="27"/><path fill="#c09e68" d="M-9 139l81 10-7-31z"/><path fill="#f2eee5" d="M176 75.6l-6.7 12.9 15.4 3.9-27.1 16.4z"/><path fill="#afc3c6" d="M153 115h19v17h-19z"/><ellipse cy="67" fill="#fff" rx="5" ry="77"/><path fill="#fff" d="M153 54l-55-8 49-7zM68 77l-50 36-34-64z"/><path fill="#461700" d="M106.3 165.6l5.8-24.1 5.1 5.1-11.5 33.8z"/><path fill="#d48a4d" d="M106.8 224.1l-7.2-32 11.2-13.2v38.7z"/><circle r="1" fill="#507a2f" transform="rotate(-164.1 50.4 118.7) scale(64.40958 24.74043)"/><path fill="#c89a67" d="M72 13h5v37h-5z"/><circle r="1" fill="#d89a60" transform="rotate(93.2 52 97) scale(33.81824 1.63885)"/><path fill="#80491c" d="M67 63h5v43h-5z"/><path fill="#a06126" d="M172 32.2l-12.5 3.4-1.6-5.8 12.6-3.4z"/><path fill="#bdd3cf" d="M50 85h17v18H50z"/><path fill="#4f3f15" d="M146.5 120l8.9 2.9 45.6 3.9-50.6-.4z"/><path fill="#1a4c10" d="M116.4 229.6l21.6-28.7 63 36.3-92.4-26.1z"/><path fill="#a55527" d="M139.8 134.3l7.4 18.2-32 6.8 12.4-25.3z"/><circle r="1" fill="#cca77e" transform="rotate(175.7 14 30.5) scale(10.11572 5.1832)"/><path fill="#c38747" d="M114.8 160l48.7 17.6-14.6 3.8-18.9-.3z"/><path fill="#fff" d="M64 46l-80-19 14 33z"/><circle r="1" fill="#be854f" transform="rotate(15 -716 376.8) scale(43.46714 2.53304)"/><path fill="#8e8c88" d="M124 186l77 23-28-23z"/><path fill="#221c0e" d="M188 144l-12.4-4 6.5-20 12.3 4z"/><circle r="1" fill="#9a6234" transform="matrix(.1908 .98163 -128.35405 24.9495 166.1 88.5)"/><path fill="#a64a16" d="M107 112h4v37h-4z"/><path fill="#1d4111" d="M111 179h16v28h-16z"/><path fill="#3b421b" d="M80 120l12 25 6-26z"/><path fill="#7d652e" d="M89 105h77v9H89z"/><circle r="1" fill="#fff" transform="matrix(12.3781 9.45463 -14.83587 19.42328 183.5 41.6)"/><path fill="#fdfaee" d="M61 75h5v46h-5z"/><path fill="#fff" d="M131 95h26v6h-26z"/><path fill="#9b8653" d="M97 88l-51 24 50-6z"/><path fill="#3d6119" d="M-3 221l24 13 8-44z"/><path fill="#839265" d="M97 74.6l-.1 19.8L84 115.9l26.5-50.7z"/><path fill="#d7eee0" d="M82.6 100.6L72 95l9.4-17.6L92 83z"/><path fill="#8b973b" d="M194.9 91.4l-28.1 57.7-19.4-10.2 18-9.5z"/><path fill="#72ab2f" d="M125.3 186.2l12.5-1.1 17.6 10.6-22.9 4.9z"/><path fill="#964116" d="M185.7 71.1l-.2 1L76.3 46.9l.2-1z"/><path fill="#e17e53" d="M20 179l12-14-15 4z"/><path fill="#288295" d="M138 153h8v15h-8z"/><path fill="#fff" d="M-3 1.5l-13 116 65.2-9.7-33.5-49.3z"/><path fill="#164000" d="M179 97l14-7 8 14z"/><path fill="#d0b689" d="M80.6 127.5l9.5 27.4-4.7 1.6-9.5-27.4z"/><path fill="#fbfefd" d="M114 77l46-5-21 13z"/><path fill="#e2a263" d="M69 122l-22 28 16 12z"/><path fill="#dac5ab" d="M116 116h20v19h-20z"/><path fill="#9f9957" d="M-13 229l46 14-45 2z"/><path fill="#9d6839" d="M72.5 73.2l10.6 17.2L65.9 83l7 100.8z"/><path fill="#b3682d" d="M40.2 117.9L35.3 161l9.5 12.4 21.6-4.1z"/><path fill="#85837c" d="M2 126h19v18H2z"/><path fill="#fff" d="M33.3 127.9l12.9-13.7 5.8 1.9-30.4 5.3z"/><path fill="#041702" d="M8.8 179.9l-6.9-17.3-8.7 3.5 28.2-8.5z"/><path fill="#673b14" d="M138.6 145.9l-2.7-1.2 28.4-57.1 6.5-6z"/><path fill="#c3804a" d="M128 38h-28l-2 9z"/><path fill="#466c38" d="M83.4 117l60.1-12.3-53.3-.7-21.6 19.6z"/><ellipse cx="92" cy="62" fill="#fff" rx="18" ry="10"/><path fill="#92582e" d="M6 30l64.3 15-.3 1L5.7 31z"/><path fill="#e8af7e" d="M159 34h4v40h-4z"/><circle r="1" fill="#7a8d43" transform="matrix(18.98145 6.68442 -1.06113 3.01324 184.8 109)"/><path fill="#cc925b" d="M129.6 211.3l-20.6-6.2 1.1 4.9 14.9 4.8z"/></g></g></svg>