<svg xmlns="http://www.w3.org/2000/svg" viewBox="0 0 1350 900"><defs/><filter id="a"><feGaussianBlur stdDeviation="12"/></filter><rect width="100%" height="100%" fill="#415d34"/><g filter="url(#a)"><g fill-opacity=".5" transform="translate(2.6 2.6) scale(5.27344)"><circle r="1" fill="#ffaa91" transform="matrix(-254.38628 -15.11333 8.12873 -136.82203 133.4 46.8)"/><circle r="1" fill="#febb88" transform="matrix(14.94303 48.87644 -67.75173 20.71378 201.2 0)"/><circle r="1" fill="#3a7276" transform="rotate(83.5 -34.9 151.6) scale(30.47311 84.3142)"/><path fill="#483219" d="M206.5 90.9l-50.9 41.5 39.9 6.2 43.3-2.4z"/><path fill="#ffffc7" d="M170.1 100.1l9.2 11-57.5-2.8 22.7-11.7z"/><circle r="1" fill="#21474b" transform="rotate(-173.6 16.5 5.1) scale(16.62422 27.65517)"/><ellipse cx="91" cy="32" fill="#ffbc82" rx="29" ry="16"/><path fill="#e0feff" d="M143 162l19-14-22-6z"/><path fill="#ffdc9c" d="M35.2 75.3L7.9 95l28 13 18.3-35.5z"/><circle r="1" fill="#d48451" transform="matrix(-7.04835 -28.9135 38.8394 -9.46802 209.6 85)"/><path fill="#ffe7a3" d="M132 48.8l.7 23.4 19.1 4.3-1.3-25.5z"/><ellipse cx="39" cy="36" rx="15" ry="4"/><path fill="#edffff" d="M199 138h28v7h-28z"/><path fill="#7a3615" d="M56.1 152.6l5-75.4 7.9 87.4-81.6 10.1z"/><path d="M244.6 127l8-9.1 12.8 11.1-8 9.1z"/><path fill="#9fcae2" d="M93.8 144.4L104 113l14.2 4.6L108 149z"/><path fill="#082402" d="M77 169l21-26-23 1z"/><path fill="#ddfeff" d="M180 145h10v18h-10z"/><path fill="#afcbed" d="M57 142l-29-20 30-5z"/><path fill="#9ab5bf" d="M49.2 12.6L49 9.8 23.3 24.2l40.1 15.5z"/><ellipse cx="126" cy="18" fill="#521a00" rx="7" ry="16"/><path fill="#032020" d="M209 140.9l28.9-7.5-18.5-16.8-18 17.1z"/><path fill="#ffffd1" d="M236.5 95.2l-5.2.4-18-23.6 36.5 25.6z"/><path fill="#151700" d="M99.1 77l10.4 7.1-17 4.1-15.9-5.6z"/><circle r="1" fill="#894c2e" transform="matrix(1.78489 -9.72795 44.69479 8.2006 207.6 97)"/><path fill="#7e4420" d="M12.2 74.2L.1 128.6l60.6-13.1L-16 90.9z"/><path fill="#ffefad" d="M132 11h30v20h-30z"/><path fill="#b2dcff" d="M147.7 119l2.5 15.8-13.9 2.2-2.5-15.8z"/><path fill="#4f0f01" d="M20.6 157.5l-9.4-16.1 1-2.7 16.5-4.3z"/><path fill="#000002" d="M182.4 63.4l-1.7 4.7-15-5.5 1.6-4.7z"/><circle r="1" fill="#f7b975" transform="matrix(-6.35855 -.7357 6.94522 -60.02577 5.7 15)"/><path fill="#66381c" d="M247 139l-3 19-48-4z"/><path fill="#ffffe0" d="M260.7 148.2L227.3 118l2-2.3 33.4 30.1z"/><path fill="#be6f41" d="M54 114L-1 61l125-19z"/><ellipse cx="141" cy="159" fill="#7498ae" rx="51" ry="7"/><path fill="#face95" d="M20.1 109.3L46.8 86l21.3-15-36.7 2.3z"/><circle r="1" fill="#ebe4b0" transform="matrix(-19.77886 -4.6093 .6473 -2.77759 216.5 161)"/><path fill="#f7ae73" d="M134.9 6.2L63.2-2.2 87 46.1 98.6-16z"/><circle r="1" fill="#d48853" transform="rotate(-170.6 101.1 11.9) scale(16.40033 52.79944)"/><path fill="#ffffd3" d="M107 63.6v-9l14-.2v9z"/><path fill="#524e53" d="M31 125h99v5H31z"/><circle cx="169" cy="146" r="8" fill="#212300"/><path fill="#592706" d="M62.2 145.4l-1.5 5.9-34.9-8.7 1.5-5.9z"/><path fill="#7c9da7" d="M215.3 54.1l-6.6-17.6 60.3 2L238.8 61z"/><path fill="#474706" d="M108 141l45-6-41 18z"/><path fill="#642a03" d="M191 134h7v36h-7z"/><path fill="#a96a35" d="M121 32h11v112h-11z"/><path fill="#0a7bde" d="M183.4 6.9L163.8 2l6.3-18 11.1 4.6z"/><path fill="#3b6090" d="M113.8 18.7l-8.2 1.9L81 11.3l31-2.4z"/><path fill="#9baba9" d="M154.8 121l3.7 26.6 9.8-23L90.6 147z"/><circle r="1" fill="#72461b" transform="matrix(-.23487 -.97203 69.93618 -16.8986 119.3 54.3)"/><circle r="1" fill="#4e2b0d" transform="matrix(-7.68088 5.80677 -3.68019 -4.86795 11.8 104.6)"/><path fill="#fff9b8" d="M191 27h10v23h-10z"/><path fill="#9b6143" d="M35 86l118 27-101 6z"/><path fill="#fffbbb" d="M134 101h43v9h-43z"/><path fill="#e9d19c" d="M75.2 53.8L144 31.3 103.2 40 84 24z"/><path fill="#ffffda" d="M118.3 23h-5l.4-18h5z"/><path fill="#dcf6ff" d="M237 138l-17-3-17 12z"/><path fill="#450e00" d="M57 123l15 17-12 2z"/><path fill="#324621" d="M14.9 9.9l46.4-.3-10.2-13L31.7-16z"/><circle r="1" fill="#b9784c" transform="matrix(73.97382 -12.9105 1.24404 7.12802 129.4 95.3)"/><path fill="#ca6134" d="M64.2-10.7L60.8 0l17.4 59.5-.2-28.2z"/><path fill="#ffd6b2" d="M16.4 123.1l3.3 3.7-20 18-3.4-3.6z"/><path fill="#c9ebe0" d="M125 138l-5-9-27 10z"/><path fill="#d4a777" d="M175.7 73.2L271 51.9l-21 34.2-9.5 2.7z"/><path fill="#83533a" d="M163 24h27v8h-27z"/><ellipse cx="255" cy="17" fill="#b2cee7" rx="31" ry="4"/><path fill="#365641" d="M66 166h142v4H66z"/><path fill="#edf3eb" d="M209 36h28v6h-28z"/><path fill="#abc39e" d="M20.1 149.5l13.5 10.3 48.4-18-8.3 8z"/><ellipse cx="37" cy="103" fill="#ffffd2" rx="7" ry="4"/><path fill="#2b471e" d="M245.7 55.7l-13.4-15.9L267.1 64l3.9-3.7z"/><circle r="1" fill="#f7dbb6" transform="matrix(-89.1914 20.10015 -.21985 -.97553 234.2 163.7)"/><path fill="#5c7072" d="M81 111h22v24H81z"/><path fill="#16374b" d="M248 8h5v13h-5z"/><path fill="#58a1e1" d="M212.7-.5L234.4-8l3 8.5L215.5 8z"/><ellipse cx="72" cy="86" fill="#fff5d3" rx="5" ry="4"/><circle cx="71" cy="123" r="4" fill="#deffff"/><path fill="#b15f2f" d="M111 82L92 71l67-16z"/><path fill="#874829" d="M265.1 85.2l-37 52.7 16.4-14.7-15.7-21.4z"/><path fill="#a1301f" d="M60 181.8L-12 164l2-7.7L61.9 174z"/><path fill="#733e25" d="M166.1 151.7l43.6-75.1 35.6 32.2-30.4-21.2z"/><path fill="#b7613a" d="M125.9 2.2l59.6 13.5 1.2 17.9 12.3-7.8z"/><circle r="1" fill="#b3663d" transform="rotate(-38 115.5 12) scale(32.36637 13.61202)"/><path fill="#bd6b3e" d="M206.1 142.4l-12.3-42.1-7.7 38.9 19.6-10.1z"/><path fill="#521a02" d="M134 139l17-6 6 9z"/><path fill="#4c924f" d="M224.2 129.5L197.5 116l25.2-6.3 9.7 8z"/><path fill="#fbe4af" d="M133 54h33v6h-33z"/><path fill="#e3f5ff" d="M201 135l-4 10 19-2z"/><path fill="#ffe7b2" d="M19.1 91.5l1.6 19.9 10.4-25.1L12.9 91z"/><path fill="#fbf4bc" d="M132.7 7.8l16.4 1.9 16.1 9.4-28.6 4.9z"/><path fill="#b6c6c6" d="M106 155l3-25-23 5z"/><path fill="#364221" d="M72 151.2l35.1-7.1-25.1-6 13.2 21.2z"/><path fill="#bd623a" d="M176.9 105.4l-8-17.7 32 26.3-60.2 8.3z"/><path fill="#825239" d="M87 30l37-1-20-6z"/><path fill="#e6e3b5" d="M113.7 42.7l-58.2 11L114.1 36l7.2 5.5z"/><circle r="1" fill="#d1935b" transform="rotate(171.6 73.5 22.7) scale(17.64966 11.95113)"/><path fill="#0d050a" d="M208.7 125.3l33.6 13.9-5.7-3.9-29.2 2.9z"/><path fill="#c2d1df" d="M173.8 130.2l-13.1-6.2-28.8 4.1.7-9.5z"/><path fill="#fedcb0" d="M231.9 80.1L214.5 77l19.1 20.6 11-3.4z"/></g></g></svg>