<svg xmlns="http://www.w3.org/2000/svg" viewBox="0 0 1350 900"><defs/><filter id="a"><feGaussianBlur stdDeviation="12"/></filter><rect width="100%" height="100%" fill="#50402b"/><g filter="url(#a)"><g fill-opacity=".5" transform="translate(2.6 2.6) scale(5.27344)"><circle r="1" fill="#94a6ad" transform="matrix(152.94324 9.62237 -4.25932 67.69999 119.4 71.1)"/><ellipse cx="158" cy="64" fill="#b9bfc5" rx="17" ry="82"/><ellipse cx="123" cy="92" fill="#070000" rx="70" ry="9"/><ellipse cx="97" cy="145" fill="#14100f" rx="59" ry="32"/><ellipse cx="17" cy="72" fill="#e7edcc" rx="27" ry="15"/><ellipse cx="142" cy="164" fill="#000002" rx="163" ry="17"/><circle r="1" fill="#d8d2d0" transform="matrix(-40.9773 -3.8735 .76666 -8.11037 112.5 43.7)"/><circle r="1" fill="#bfcacd" transform="matrix(10.55868 1.1284 -3.59754 33.66306 199.7 96)"/><path d="M71 53h119v7H71z"/><path fill="#d6d1d7" d="M142 101h29v44h-29z"/><path fill="#a09075" d="M125.7 149.3L60.9 139l43-18 9.1 10.9z"/><path fill="#edffec" d="M141 59h31v25h-31z"/><circle r="1" fill="#4f5a63" transform="rotate(-26.5 281 -1) scale(24.2295 48.55576)"/><ellipse cx="115" cy="10" fill="#4d4b4b" rx="255" ry="20"/><path fill="#0e0800" d="M121.1 85.3l12-27.4 7.7 21.8-7.7 45z"/><circle cx="248" cy="120" r="40" fill="#4e5047"/><path d="M182.5 135.7l-7-.4 2-39 7 .4z"/><ellipse cx="58" cy="118" fill="#000001" rx="5" ry="37"/><path fill="#fff" d="M28 76h10v21H28z"/><path fill="#f4fdff" d="M65 113l17-14 23 9z"/><path fill="#999da0" d="M216.2 92.5L114.2-16l107.5 77.8 31-.1z"/><path d="M45 38h7v40h-7z"/><path fill="#f6ffff" d="M44 101l9-25v32z"/><path fill="#bec2bb" d="M60.5 85l-5.8-35.6 4.9-4.4 23 39.1z"/><path fill="#4f5545" d="M160 98.3l8-30.4-20.4-9.4 36 48.8z"/><path fill="#fff" d="M119 43h48v7h-48z"/><path fill="#f9d1d5" d="M124 106l5 20-21-18z"/><path d="M129.6 144.8l-12.5-13 17.3-16.6 12.5 13z"/><path fill="#2b3740" d="M209.7 166.6l-54.6-52.7-1.6-7 67.5 40.5z"/><path fill="#5c5b51" d="M-16 176l47-37-5-85z"/><path fill="#9ce386" d="M107 72l33-13-66 2z"/><path fill="#7997bf" d="M51 128l-20 13 3-38z"/><path d="M37 112V93l22 30z"/><path fill="#e0dee9" d="M174.7 101.5l-37.1 2.3-2.6 9.4 19.6 23.7z"/><path fill="#695131" d="M64 138h120v10H64z"/><path fill="#030000" d="M149.3 153.3L99.6 120l-10.1 5.6 10.6-20.1z"/><ellipse cx="130" cy="94" fill="#4c422b" rx="36" ry="9"/><path fill="#130700" d="M132 35h15v8h-15z"/><path fill="#b8bebb" d="M84 127l19-6 16 16z"/><path fill="#1d1d25" d="M189 66l-45-16 30-1z"/><circle r="1" fill="#b0cbf6" transform="matrix(-10.02833 -3.92669 1.52332 -3.89039 68.2 113)"/><path fill="#090b0e" d="M79 107l21 14-25 6z"/><path fill="#28603a" d="M97.4 63.5l-9.1 27.4-18.4-37.7L62.8 78z"/><path fill="#77889c" d="M225 138.6l16.8-3.2-93.6-26.7 70 33.7z"/><path d="M140.1 77.3l-12.6 3-3.6-15.6 12.6-3z"/><path fill="#575553" d="M152-9l116 40 3 53z"/><path fill="#fffff4" d="M9 59.4l11.7 3.3 1.8 2.4-10.2 17z"/><path fill="#b7aeb8" d="M108.2 109.2L85 117.4l9-11.3 11.9-10.7z"/><path fill="#fff" d="M175.9 87.4L160.6 86l11.3-15.4-1.1 14.4z"/><path fill="#191a13" d="M83.4 127.2l-47.1-18.4L45.8 68l-1.4 39.7z"/><path fill="#c2c3cc" d="M54 45h64v5H54z"/><circle r="1" fill="#212120" transform="rotate(-130.8 52.9 33.1) scale(15.03991 7.00375)"/><path d="M161 116l-6-2 1-10z"/><path fill="#060b10" d="M188 77l-6 40-11-19z"/><circle cx="150" cy="74" r="10" fill="#f4fffc"/><path fill="#d4dadf" d="M148 36h24v14h-24z"/><circle r="1" fill="#a09274" transform="matrix(5.2501 -11.79194 30.65648 13.64915 14 45.2)"/><path d="M133 63h24v2h-24z"/><path fill="#fff" d="M166 99l10 8-30-2z"/><path d="M18 150l45-2-66 24zm195 34l3-36 33 19z"/><path fill="#87898a" d="M143 0h34v30h-34z"/><path fill="#92d48e" d="M110.3 85.6l-19.8-5.9 24-20.8-6.1 15.8z"/><path fill="#2e2626" d="M165.1 77.5l-9 13.3L98 107.4l29.7-3.2z"/><circle r="1" fill="#524c44" transform="rotate(-7.1 84.8 -437.4) scale(127.17827 11.94706)"/><path fill="#d6e7df" d="M34 106l10-47-16 18z"/><path fill="#623e2c" d="M111 114l18 7 21-8z"/><path fill="#fff7ff" d="M130 60h40v3h-40z"/><path d="M182 123l3 18-14-14z"/><path fill="#ffffed" d="M78 84l1-9-10-12z"/><path fill="#f5faf3" d="M59.8 75.4l2.9 2.9 2.1-4.4-2.7-17.1z"/><path fill="#fff" d="M128 44h17v8h-17z"/><path fill="#757f87" d="M22 104l35 31-36-58z"/><path fill="#0f1c11" d="M161 65l5 7-5 8z"/><path fill="#6a88b2" d="M200 157h9v7h-9z"/><path fill="#a0a6a6" d="M220.1 86.5l29.2-24.4-39 1.2-25.4 68.2z"/><path fill="#434b57" d="M95 49h30v4H95z"/><path fill="#ae9e9a" d="M128 129.3L111.7 113l4.3-4.3 16.3 16.3z"/><circle r="1" fill="#e5f0eb" transform="matrix(1.23532 5.35077 -6.70937 1.54898 7.4 78)"/><circle r="1" fill="#575347" transform="matrix(-26.15743 31.50647 -12.95745 -10.75759 240.2 114.4)"/><path fill="#897860" d="M164.8 131.7l21 9.3 10.2 2.3-71.8 4.6z"/><circle r="1" fill="#877d91" transform="matrix(-5.22934 -2.66147 1.5574 -3.06003 141 103.4)"/><path fill="#7f736c" d="M41 38l52-27 27 28z"/><circle r="1" fill="#2f312f" transform="matrix(11.30996 -17.05282 22.13799 14.6826 236.2 3.3)"/><path fill="#c3c2a0" d="M39 42h5v32h-5z"/><path fill="#7fb589" d="M141 71h38v4h-38z"/><path fill="#140f01" d="M45 40h8v25h-8z"/><ellipse cx="121" cy="51" fill="#b4c5dd" rx="48" ry="1"/><circle r="1" fill="#716853" transform="rotate(-169.7 16.3 31) scale(3.86892 55.92362)"/><path fill="#241424" d="M67 52h3v28h-3z"/><path fill="#433c2d" d="M62 86h114v15H62z"/><path fill="#141414" d="M27.4 185l41.7-45.8L55.6 91l1.2 94z"/><path fill="#d4bb83" d="M235 49h21v4h-21z"/><circle cx="138" cy="66" r="2" fill="#fff"/><circle cx="125" cy="110" r="3" fill="#fffeff"/><path fill="#fffffd" d="M94.4 111.2L80 104.4l1.7-3.6 14.5 6.8z"/><path fill="#4f5b6b" d="M61.9 117.1l-11.8 34.1-15-37-47.2 43.3z"/><path fill="#8f9288" d="M51 47h4v55h-4z"/><path fill="#525656" d="M29 167l21-1-24-21z"/><ellipse cx="200" cy="59" fill="#8c8b7f" rx="12" ry="24"/></g></g></svg>