<svg xmlns="http://www.w3.org/2000/svg" viewBox="0 0 1200 900"><defs/><filter id="a"><feGaussianBlur stdDeviation="12"/></filter><rect width="100%" height="100%" fill="#6a4848"/><g filter="url(#a)"><g fill-opacity=".5" transform="translate(2.3 2.3) scale(4.6875)"><circle cx="127" cy="137" r="188" fill="#0b0000"/><circle r="1" fill="#e46e14" transform="matrix(-98.0808 -.85594 .23398 -26.81152 174.9 71.4)"/><circle r="1" transform="rotate(-95.9 133.3 34.2) scale(44.76452 255.00003)"/><circle cx="43" cy="62" r="87" fill="#3e0400"/><ellipse cx="162" cy="12" fill="#090500" rx="254" ry="23"/><path fill="#e8ffec" d="M142 43h13v22h-13z"/><circle r="1" fill="#763306" transform="rotate(67.9 -8 170.4) scale(24.68655 57.16707)"/><path fill="#ffa765" d="M251 72l1 25-52-28z"/><circle r="1" fill="#6d1f00" transform="matrix(13.17824 -55.31644 26.04206 6.2041 70 63.2)"/><circle r="1" transform="rotate(83.3 -29 183.5) scale(44.06925 254.99999)"/><ellipse cx="216" cy="45" fill="#532a00" rx="64" ry="14"/><circle r="1" fill="#ac7123" transform="matrix(-23.79468 -35.27707 11.34932 -7.65521 146.8 79.7)"/><path fill="#55928c" d="M137.7 126.3l11 4.3-44.1 19.4 8.6 10z"/><circle r="1" fill="#230e00" transform="matrix(-30.87515 34.1702 -28.22774 -25.50572 218.5 129)"/><circle r="1" fill="#0e0300" transform="matrix(34.51675 -2.29063 7.3863 111.30169 0 126.6)"/><ellipse cx="75" cy="16" fill="#d01c00" rx="51" ry="3"/><path fill="#e56e36" d="M188.1 52l19.7 10 4.3 10.2-19.4 37.2z"/><path fill="#bfcb49" d="M46 71l-6-12-23-8z"/><circle cx="47" cy="28" r="30" fill="#1a0a00"/><path fill="#f5c681" d="M225 73.8l5.5 2.3-9.4 22.1-5.6-2.3z"/><circle r="1" fill="#962e02" transform="rotate(43.8 -38.6 160.7) scale(35.30116 16.33836)"/><circle r="1" fill="#030000" transform="matrix(12.62251 -23.34485 67.10098 36.28137 253.7 20.1)"/><ellipse cx="184" cy="112" fill="#371700" rx="7" ry="32"/><path fill="#942806" d="M44.8 65.5L85 71l14.9-5.4-93-20.3z"/><ellipse cx="41" cy="19" fill="#950c00" rx="46" ry="3"/><path fill="#395311" d="M119 66l-8-20 64-26z"/><circle r="1" fill="#240000" transform="matrix(2.97114 -.3913 7.732 58.70827 253 71.4)"/><path fill="#d86d2a" d="M192 59l-66 23 50 3z"/><path fill="#7da71d" d="M242 39l9 23-21-5z"/><path fill="#9f4210" d="M190.2 38.7l29-1.2-80.3 52.6 63.4-23.3z"/><path fill="#695c05" d="M180 123h21v17h-21z"/><path fill="#9df93e" d="M128 52h10v13h-10z"/><path fill="#f27143" d="M190.9 93.2l10.6 19.2-4.4 2.4-10.6-19.2z"/><path fill="#808e8c" d="M141.7 131.6l-8.3-6.4-.4 29.3 9.8-38z"/><path fill="#8c0b01" d="M248.7 100l-11.2-17.5-18.4-3.9 33.7 24.9z"/><path fill="#001000" d="M94 19h50v23H94z"/><path fill="#fdd491" d="M176.9 47.4l.5-.8 27.7 16-.5.8z"/><path fill="#130200" d="M215 77l7 61-27-37z"/><circle cx="211" cy="72" r="4" fill="#ffffdc"/><path fill="#fff49d" d="M256.1 120.9l-1 .1-1.2-9.9 1-.1z"/><path fill="#e7ff58" d="M139 91v-9l-9 4z"/><path fill="#a64d11" d="M78 3h6v50h-6z"/><path fill="#6c0c00" d="M165 100l-25 26-56-49z"/><path fill="#0b0000" d="M189.6 133.1l12.3-17.1-23.1-19.7-1.5 18.7z"/><path fill="#8d7e51" d="M159 64V24l-6 22z"/><path fill="#b42100" d="M217 72l33-1-58-21z"/><path fill="#eb9c53" d="M200.4 75.3l-79.2-33.6.4-1 79.2 33.6z"/><path fill="#6f2805" d="M185 18h6v55h-6z"/><path fill="#cdb768" d="M242 70h7v29h-7z"/><path fill="#efffb5" d="M147.1 67.4L144 47.7l6.9-1.1 3.1 19.7z"/><path fill="#150f00" d="M51 21h27v37H51z"/><circle r="1" fill="#390c00" transform="rotate(108.4 -9.2 88.4) scale(51.6997 20.29761)"/><path fill="#150500" d="M217 39l38-15-33 39z"/><circle r="1" fill="#010000" transform="matrix(-19.64506 -26.4521 38.05931 -28.26534 227.7 168.5)"/><path fill="#5a9280" d="M113.1 155.5l9-17.5 3.8 4.1-4.1 11.7z"/><ellipse cx="92" cy="5" fill="#050a00" rx="113" ry="8"/><circle r="1" fill="#0e0900" transform="matrix(82.2988 23.39405 -5.75002 20.2282 80.9 164.4)"/><path fill="#e58d55" d="M159 103h12v10h-12z"/><path fill="#621500" d="M49 150l11 23v-59z"/><path fill="#ad3906" d="M109.5 79.3l22.1 9.2L149.2 62l-40.4 5.2z"/><path fill="#ffce80" d="M241 80l12-6h-34z"/><path fill="#310500" d="M271 147l-33-60-33 16z"/><path fill="#85660e" d="M166.1 126.5l-3.7-7.7-20.4 5.1 9.1-19.8z"/><path fill="#a24a13" d="M179.7 49.7l-13.4 30L176.4 36l-34-3.7z"/><path fill="#5b0b00" d="M-16 82.5L2-16l4.1 87.2 23.5 1.6z"/><circle cx="197" cy="42" r="3" fill="#fff565"/><circle cx="149" cy="48" r="4" fill="#e1ffff"/><path fill="#cf7b4b" d="M215.2 74.5l2-.4 5.6 29.4-2 .4z"/><path fill="#110800" d="M182 108l-84 66 30 33z"/><path fill="#201a0e" d="M189.5 30.3L167.6-1.5l1.5 64.5-11.4-12.4z"/><path fill="#969c48" d="M83 61l11 8 3-6z"/><circle r="1" fill="#5f0300" transform="rotate(97.2 -37.5 83) scale(3.50711 44.50005)"/><path fill="#6f0000" d="M209.6 75.5l9 1.1-2.2 17.9-9-1.1z"/><path fill="#a5a04f" d="M113 111h14v4h-14z"/><ellipse cx="129" cy="137" fill="#230a00" rx="4" ry="43"/><path fill="#da3300" d="M99 13h26v4H99z"/><path fill="#ff2716" d="M252.4 74.2l-3.7 5.9 17.9-4.7 4.4-23.9z"/><path fill="#3e1a00" d="M72.4 124l81 41.4-34.5-23L103 88.3z"/><circle r="1" fill="#782c01" transform="rotate(-169.4 91.5 61.3) scale(20.03046 1.93399)"/><path fill="#e64002" d="M158.6 109.8l19.4-7.1-5-1.8-17.2 6z"/><path fill="#040d00" d="M4 24h52v17H4z"/><path fill="#53683d" d="M145.6 57.9l-8.7-8.9-4.1 7.8 22.3-5.4z"/><path fill="#633812" d="M127 68l41 9-25-13z"/><circle r="1" fill="#42180a" transform="rotate(-18.6 361.8 -368.5) scale(35.7364 2.29675)"/><path fill="#ff9e3f" d="M195.3 70.8l3.2-3.9 12.2 10.3-3.2 3.9z"/><path fill="#ad3007" d="M206.6 74.4l-35.4-6 30.2 25.1 3.6-26.9z"/><path fill="#d6711e" d="M224.3 69.5l4.3-6.8 15.1 9.8-4.3 6.8z"/><path fill="#9ca511" d="M187 135l-3.7 1.3-4.4-13.3 3.8-1.3z"/><path fill="#cf712b" d="M171 48l11 44-16-14z"/><path fill="#210300" d="M196.9 134.6l-16.3-69.1 11.3 86.9 43.9 7.9z"/><path fill="#6a0f00" d="M71.7 111.1l23.1 4.6-26.6 6.6-46-19.8z"/><circle r="1" fill="#7e1f00" transform="rotate(10 -260.8 1092) scale(18.57956 4.20433)"/><path fill="#731f03" d="M47.2 42.3l4.9 55.2-19.4-60.6 1.1 1.7z"/><path fill="#788202" d="M207 131h4v12h-4z"/><path fill="#181600" d="M106.5 36.2l8.4 18.7 18.5-4.6-39.9-29z"/><path fill="#870700" d="M45.9 82.8l54-6.2-73.7-.7 14.4-7.5z"/><path fill="#160800" d="M85 96l36-13-35 25z"/><path fill="#ecfffb" d="M117.5 142.8l8.7-2.5.3 1-8.7 2.4z"/><circle r="1" fill="#530000" transform="matrix(-28.14393 -4.32799 .2301 -1.49627 155.9 112.5)"/><circle r="1" fill="#54b7c9" transform="matrix(.9794 3.68088 -3.01418 .80201 117.5 151)"/></g></g></svg>