<svg xmlns="http://www.w3.org/2000/svg" viewBox="0 0 1339 900"><defs/><filter id="a"><feGaussianBlur stdDeviation="12"/></filter><rect width="100%" height="100%" fill="#5d5a2c"/><g filter="url(#a)"><g fill-opacity=".5" transform="translate(2.6 2.6) scale(5.23047)"><circle r="1" fill="#dca580" transform="matrix(-237.30415 -92.99848 29.38347 -74.97779 194.2 59.5)"/><circle r="1" fill="#000008" transform="matrix(-18.58847 -23.9641 20.4171 -15.83712 132.1 108.7)"/><circle r="1" fill="#cda170" transform="rotate(19.4 -376 183.2) scale(47.77355 36.57009)"/><circle r="1" fill="#ffe2b8" transform="matrix(-9.97363 6.06397 -49.751 -81.82721 216.5 156.3)"/><ellipse cx="181" cy="11" fill="#d8a680" rx="116" ry="27"/><path fill="#1c1e00" d="M182 51h28v35h-28z"/><path fill="#e0a070" d="M-30.1 103.8l36-55.4L30 64.2l-36 55.4z"/><path fill="#d8faff" d="M102.7 82.4l-10.5 36.1 33.1-49.9 21.6 11.3z"/><path fill="#514221" d="M238 52h18v119h-18z"/><circle r="1" fill="#da9f6f" transform="rotate(-89.9 144.5 -78.5) scale(109.76921 13.9922)"/><path fill="#455915" d="M87 103l76-70L43 95z"/><path fill="#e7b38c" d="M138.9 183.2L-5 152.6l2-9.8 144 30.6z"/><ellipse cx="89" cy="149" fill="#234314" rx="41" ry="13"/><path fill="#c1f5fd" d="M144.8 75.7l14.5 15 7.1 20.6L137 74.4z"/><path fill="#d3b39c" d="M71.4 49.9l2.1 30-33 2.2-2-30z"/><path fill="#bf825c" d="M-4 107l112 23-11-34z"/><circle r="1" fill="#19161b" transform="rotate(77.4 -.6 132.8) scale(24.27798 25.94835)"/><path fill="#4a3d10" d="M206 10L134 0l85-16z"/><circle r="1" fill="#336e15" transform="matrix(-5.32498 2.73347 -11.43613 -22.27831 158 76.5)"/><path fill="#ffdac2" d="M174 88l37 68-12-69z"/><path fill="#81441c" d="M207 70.5l7.1-28-42.4-12.3 6.7 34.4z"/><circle r="1" fill="#7b5323" transform="matrix(146.27706 30.85463 -.40705 1.92975 121.4 21.9)"/><path fill="#faffff" d="M122.2 79.4L96.7 99.8l20.4-25.3 32.9 6z"/><path fill="#002300" d="M241 69h15v18h-15z"/><circle r="1" fill="#7b4f21" transform="rotate(-115 130.6 8.4) scale(24.69289 12.39584)"/><path fill="#e4b796" d="M198 33l-89-49L-9-8z"/><path fill="#81642a" d="M8 13h59v34H8z"/><circle r="1" fill="#214d20" transform="matrix(-50.19346 .10472 -.01975 -9.46751 154.2 163.7)"/><path fill="#cffacf" d="M92.6 103l9-.9 1.8 21-9 .8z"/><ellipse cx="46" cy="91" fill="#1e1b07" rx="33" ry="8"/><path fill="#825127" d="M146 25L90 37l1-24z"/><path fill="#071b00" d="M10 55h8v19h-8z"/><circle r="1" fill="#a38361" transform="matrix(-.88912 -16.41712 40.74263 -2.20654 230 99.2)"/><circle r="1" fill="#d69a6d" transform="matrix(1.79746 7.78567 -37.19079 8.58617 21 8.7)"/><ellipse cx="76" cy="121" fill="#a66633" rx="9" ry="87"/><path fill="#d4a67d" d="M271 47L171-6l-16 32z"/><circle r="1" fill="#daa269" transform="matrix(67.98504 -14.3267 1.18362 5.61667 81.6 47.2)"/><path fill="#c88551" d="M236.4 134.6l10.1 25-39 15.8-10-25z"/><circle r="1" fill="#93653a" transform="rotate(103.1 -35 111.6) scale(7.88568 92.73023)"/><path fill="#6e8c36" d="M83 50h83v23H83z"/><path fill="#fff" d="M129.1 81.2l-2.6-8.6 12.4-3.8 2.6 8.6z"/><path fill="#caf2ff" d="M162 101.4l2.9.7-4.8 22.5-3-.7z"/><path fill="#f6debf" d="M-3.8 140.6L-17 127.9l12.1 19.7 83.2 13.8z"/><path fill="#c6f5ff" d="M248 88h8v7h-8z"/><ellipse cx="7" cy="80" fill="#d6af7f" rx="18" ry="8"/><path fill="#10470d" d="M176 62l20 24 23-1z"/><path fill="#332100" d="M234 48h22v7h-22z"/><path fill="#a5cded" d="M53 67v12H41V67z"/><path fill="#365415" d="M142 69h24v11h-24z"/><path d="M39 69l-3 7-20-6z"/><ellipse cx="158" cy="140" fill="#a0684a" rx="13" ry="15"/><ellipse cx="133" cy="93" fill="#0c0806" rx="21" ry="8"/><ellipse cx="216" cy="55" fill="#d5c091" rx="3" ry="124"/><path fill="#0c2405" d="M266 151l-30-12 34-12z"/><path fill="#9ccb57" d="M134 59h46v12h-46z"/><circle r="1" fill="#c98058" transform="rotate(-170.6 26.5 12.4) scale(41.11723 5.67251)"/><path fill="#6ac36a" d="M15 119l2 20 39-11z"/><path fill="#3f3b41" d="M142.4 149.2l-39.9-21.8-1.8-26.6 16.5-1.4z"/><path fill="#b8c1c6" d="M70 109l-30-8 27-1z"/><path fill="#b2b699" d="M241 121.1l24.3-5.7 5.7 1.4-35 12.4z"/><path fill="#45561f" d="M157.9 43.5l-28.8-3.3-2.6 39.2 3.1-12.5z"/><path fill="#37560e" d="M67.2 17.9l-28.5 5-2-10.8 28.6-5z"/><path fill="#ffffec" d="M61 18h15v3H61z"/><path fill="#fff5c9" d="M217 167h20v5h-20z"/><path fill="#cb9f77" d="M271 4.5L202.4 55l45.8-11.6 5.6 28.4z"/><path fill="#0a3212" d="M140.7-7.6L165.6 0l-2.3 7.6L138.4 0z"/><path fill="#725127" d="M83.6 158.3L59.8 85.1l43.4 7.8-13.8 18.7z"/><path fill="#caffff" d="M204.5 89.5h-21v-3h21z"/><path fill="#1e581a" d="M39.9 142.2l29.6 4.7-1.4 8.9-29.6-4.7z"/><path fill="#444328" d="M84 54h11v23H84z"/><path fill="#63501c" d="M69.4 44.4l-12.9.8L8.6 60.1 61.5 36z"/><path fill="#c69165" d="M259.5 67.3l-50.3-11.2-26-8.8 49.8 2z"/><path fill="#7f4d1f" d="M236 45h5v120h-5z"/><path fill="#be8c59" d="M58 46h25v40H58z"/><path fill="#001600" d="M207.8 12.3l-5-1 3.4-15.6 5 1z"/><path fill="#ffdcb3" d="M208 156l-27-65 29 37z"/><path fill="#5d6965" d="M208 105l-19-13 20 32z"/><circle r="1" fill="#c39c72" transform="rotate(-114 139.4 4.5) scale(44.46511 2.87356)"/><path fill="#865927" d="M13.7 132.5l-1.9-42.7-21.4 21.3 20.5 22.4z"/><circle r="1" fill="#deba92" transform="rotate(10.3 -871.2 653) scale(91.2218 1)"/><circle cx="25" cy="110" r="14" fill="#bf9a6e"/><path fill="#2f4e21" d="M79.2 134.2l-4.5 8.9 16 20.3 111 10.5z"/><path fill="#23682a" d="M-13 187l16-25 40 8z"/><path fill="#a56132" d="M-6.5 50.9l23.7 7.9 7-7.6-27.7-30.5z"/><path fill="#996437" d="M115.9 140.6l2.8-1.3-39.9-35.1-48 11.5z"/><path fill="#367020" d="M20 42L7 24l24 10z"/><path fill="#8fa44f" d="M86.3 97.1l-5.4-6.4 13.9-28.2 33.1-31.3z"/><path fill="#ca905c" d="M18 53l60 3-61 15z"/><path fill="#f5d8b1" d="M213.7-4l6.7 2-6.1 20-6.7-2z"/><path fill="#ddf1f7" d="M147.5 79.4l-23.6 1.1 7.4-10.5 16.3 20.1z"/><path fill="#d7a385" d="M163.9 146l-31.4 6-.4-2 31.4-6z"/><path fill="#d7a87c" d="M99 35h66v5H99z"/><circle r="1" fill="#5d441b" transform="rotate(72.1 108.3 177.4) scale(1.29117 12.14248)"/><ellipse cx="51" cy="97" fill="#1c1a0f" rx="17" ry="4"/><path fill="#080000" d="M257.1 111.4l.8 1.8-21 9.4-.8-1.8z"/><path fill="#102102" d="M241 50h15v6h-15z"/><path fill="#bd7c4a" d="M211.5 138.8l59.5 31.8-17.2-38.6 17.2 18.7z"/><path fill="#b26e3c" d="M164.4 32.6l8.9 11.8 26.9 21.8-52-9.4z"/><path fill="#f0e0bf" d="M17 80.2L.7 86l24.7-12-16 1.5z"/><path fill="#a45c2d" d="M104 21L72 38l10 23z"/></g></g></svg>