<svg xmlns="http://www.w3.org/2000/svg" viewBox="0 0 1400 457"><defs/><filter id="a"><feGaussianBlur stdDeviation="12"/></filter><rect width="100%" height="100%" fill="#374239"/><g filter="url(#a)"><g fill-opacity=".5" transform="translate(2.7 2.7) scale(5.46875)"><circle cx="112" cy="66" r="158" fill="#fff"/><circle cx="100" cy="26" r="166" fill="#fff"/><circle cx="122" cy="45" r="146" fill="#fff"/><circle r="1" fill="#4e4936" transform="matrix(-4.10733 -9.76495 14.3182 -6.02252 227.9 39.3)"/><circle cx="63" cy="3" r="153" fill="#fff"/><path fill="#aeb9ab" d="M105 14h17v51h-17z"/><circle r="1" fill="#cdd9b7" transform="matrix(26.2758 -2.78775 1.51033 14.2355 33 50.7)"/><ellipse cx="225" cy="5" fill="#fff" rx="254" ry="22"/><ellipse cx="139" cy="82" fill="#fff" rx="255" ry="18"/><path fill="#5e8563" d="M136 44h5v16h-5z"/><path fill="#27582e" d="M75 59h9v5h-9z"/><path fill="#60b0c1" d="M121.4 31.6l-15-.2.2-15 15 .2z"/><path fill="#525051" d="M207 63h42v2h-42z"/><circle cx="31" cy="50" r="6" fill="#cb5f6e"/><path fill="#285931" d="M95.2 48.4v2.8l-9 .6 7-4.8z"/><path fill="#fff" d="M29 16l112 21-81 10z"/><path fill="#848e84" d="M239.8 52.2l7-25.1-5.1 3.9-34.8 14.7z"/><path fill="#a9e19f" d="M45 33l-31-1 19-13z"/><path fill="#fff" d="M260 98L271-5l-31 45z"/><circle r="1" fill="#dec09d" transform="rotate(44.8 -5.9 165.6) scale(4.35896 19.52661)"/><ellipse cx="173" cy="63" fill="#7f7f80" rx="11" ry="2"/><path fill="#fff" d="M271 11L129 43l-10-59z"/><ellipse cx="226" cy="57" fill="#fff" rx="83" ry="5"/><path fill="#9c8f83" d="M207.2 26.6l42.2 7.8-48.3 20.3 26.5-18.9z"/><path fill="#aae5a6" d="M48.6 57.9l-9.5-33 20.7 35.4-45.2 3.6z"/><path fill="#fff" d="M123.9 49.7L161 31.8 88.2 36l172.9 43.9z"/><ellipse cx="198" cy="82" fill="#fff" rx="207" ry="18"/><path fill="#4a744d" d="M148 48l-14-2 6-3z"/><path fill="#fff" d="M28 19l17 21 1 25zm83.6 26.6l-13.7 26L74.4 98l7.3-38.3z"/><path fill="#4abe3c" d="M9.5 57.8l-.8-.4 11.8-23.2.8.4z"/><path fill="#fff" d="M25.5 32.9l2.3 38.2L4.1 8.4-16 67.5z"/><ellipse cx="64" cy="57" fill="#fff" rx="10" ry="77"/><path fill="#78816f" d="M247.1 48.2l-27.9-7.1 14.3-14.5-3.6 4.9z"/><path fill="#930000" d="M26 52h12v2H26z"/><circle r="1" fill="#485240" transform="matrix(-.9922 -1.93062 1.38816 -.71342 80 46)"/><path fill="#002e00" d="M135 56h7v2h-7z"/><path fill="#c8a474" d="M111.6 59l-10-3.2 3.8 4.4 29.2 9.7z"/><path fill="#fff" d="M17.2 55.4L53.8 53l-5.5 6-18.7-1.4z"/><path fill="#b7424b" d="M31 37h2v15h-2z"/><path fill="#cdad82" d="M133.6 53.9L96.4 43.5l7.2-1.9 3.2 1.4z"/><path fill="#edf1f4" d="M242.3 53.3l-26.9-7.7.3-1 26.9 7.8z"/><path fill="#fff" d="M107-16h110l12 47z"/><path fill="#36ae23" d="M50.4 60l-12.6 3-.2-1 12.6-3z"/><path fill="#9e7c70" d="M224.6 38.7l-15.8 11.4 13.9-18.4-16.1 1.1z"/><path fill="#fff" d="M17 48h51v2H17zm220.9-11.2l-2.7-11.3-111.6 8.8L263.7-16z"/><path fill="#fff" d="M187 0h20v63h-20z"/><path fill="#cdcccd" d="M174 30l13 5-19 16z"/><path fill="#3f5067" d="M242.4 51.4l-.5.9-16.3-7.7.5-.9z"/><path fill="#7acb6e" d="M47 42h7v10h-7z"/><ellipse cx="155" cy="54" fill="#fff" rx="11" ry="82"/><circle r="1" fill="#a89994" transform="rotate(-152.9 47.6 17.5) scale(10.56783 1)"/><path fill="#002100" d="M80 61l-5-2-1 3z"/><path fill="#a57030" d="M120.3 46.8l1 .3-5.6 16.1-1-.3z"/><circle cx="71" cy="11" r="35" fill="#fff"/><circle r="1" fill="#fff" transform="matrix(15.66814 4.64278 -18.88055 63.71677 0 31)"/><path fill="#fff" d="M230.4 42l1-.5 2.2 4.5-1 .5z"/><path fill="#fdfdfb" d="M129.4 52.1l56.8 11.2L145.9 51 81.2 26.4z"/><path fill="#87cc7a" d="M40 32l9 1-16-13z"/><path fill="#002100" d="M89.4 49.4l1-1.6 4.2 2.8-1 1.6z"/><ellipse cx="252" cy="45" fill="#fff" rx="6" ry="82"/><path fill="#446052" d="M222.8 47.5l21.8-15.8.6.8-21.8 15.8z"/><circle cx="80" cy="47" r="2" fill="#14250b"/><path fill="#b98748" d="M112.3 43.8l1 .3-5.6 16.1-1-.3z"/><circle r="1" fill="#fff" transform="matrix(21.15901 24.51454 -21.38611 18.4588 62.7 11)"/><path fill="#b19a71" d="M120.1 45.8l5.7-5.7 2 2.1-5.6 5.7z"/><path fill="#fefdfc" d="M113.8 72.9l66.7-12.2-71.7 6.6 7.6-30.6z"/><path fill="#fff" d="M32 22l5 15 13 7zm-6 34l-16 2 14-25z"/><path fill="#96c6ce" d="M123 16v16l-20 1z"/><path fill="#7ed276" d="M17 61.1L31 60v1l-14 1z"/><circle r="1" fill="#777f84" transform="matrix(-.23525 .97193 -3.9532 -.95686 224.3 51.1)"/><ellipse cx="211" cy="56" fill="#fff" rx="70" ry="5"/><path fill="#fff" d="M93.1 78.6l16.2-18.8 15.3 21.4-48.9-27.9zM77.4 62L45.6 98 34 50.7l-7.2 33.8z"/><path fill="#c4a67a" d="M95.5 54.2l16.5 8.2 5 1.2-2.6-3.3z"/><path fill="#fdfafa" d="M110.7 46.1L47.7 33l50.9 16.1 9.7 5.7z"/><ellipse cx="94" cy="42" fill="#b4978b" rx="14" ry="1"/><path fill="#44b130" d="M53 53h2v6h-2z"/><path fill="#cecbc8" d="M224.8 35l-.2.9-19.4-4.8.2-1z"/><path fill="#fff" d="M118 58l24 20-13-30z"/><path fill="#be846d" d="M220.6 33l-9.6-6.3 10.6 2.4L221 45z"/><path fill="#b73545" d="M27 36l8 1v1l-8-1z"/><path fill="#56ba44" d="M29 20.7l.3-1 5.7 1.6-.3 1z"/><path fill="#72865d" d="M227.7 34l-.2-1 16.8-3 .2 1z"/><path fill="#fff8ff" d="M33 22l15 27-21-15z"/><path fill="#b08547" d="M109 44.9l16.2 5.3-.3.9-16.1-5.3z"/><path fill="#5b5b5b" d="M174.5 62.4l13 .2v1l-13-.2z"/><circle cx="34" cy="39" r="4" fill="#d29292"/><path fill="#a5df9f" d="M27 56l-12 9 4-9z"/><ellipse cx="126" cy="82" fill="#fff" rx="255" ry="16"/><path fill="#9f8b65" d="M101 64h3v4h-3z"/><path fill="#fff" d="M-16 11.3L42.6-16l1.7 54 109 4.7z"/><path fill="#4f6c64" d="M238.5 44.8l-9.6-3 2.6-8.6 9.6 3z"/><path fill="#68974f" d="M224.6 27.1l.5-.8 4.3 2.6-.5.8z"/><path fill="#fff" d="M22 55h29v3H22zm230.8-8.7l-12.9 44L271 10.7l-32.5 33.1z"/><path fill="#68484e" d="M218 30.7l.4-1 19.6 7.6-.4 1z"/><circle r="1" fill="#fff" transform="matrix(-16.1945 .12682 -.04023 -5.13766 57 65.5)"/></g></g></svg>