<svg xmlns="http://www.w3.org/2000/svg" viewBox="0 0 1067 800"><defs/><filter id="a"><feGaussianBlur stdDeviation="12"/></filter><rect width="100%" height="100%" fill="#464646"/><g filter="url(#a)"><g fill-opacity=".5" transform="translate(2 2) scale(4.16797)"><circle r="1" fill="#fff" transform="matrix(-76.31244 -22.56742 10.308 -34.85686 117.6 83.5)"/><path fill="#fff" d="M248 117L135 62l70 66z"/><circle r="1" transform="matrix(-85.29126 -240.31313 54.5194 -19.34987 8 130.2)"/><circle r="1" fill="#e5e5e6" transform="matrix(10.36312 3.85262 -8.04551 21.64152 161.7 139.5)"/><path fill="#e7e7e4" d="M83 50h40v79H83z"/><circle r="1" fill="#161616" transform="rotate(101.2 32.5 38.7) scale(29.21332 112.46022)"/><path fill="#e7e7e8" d="M91.9 77.4L152 52.1 42 42.5l-.2 11z"/><path fill="#fff" d="M25.1 82.4l3.3 7.2 25.1.3-.9-10.6z"/><path fill="#1a1a18" d="M131 206h-22.7l31.8-114.5 13.5 44.8z"/><path fill="#fff" d="M134 53l28 5 10 82z"/><circle r="1" fill="#838383" transform="matrix(-14.33838 -.91176 3.10748 -48.86866 245.8 115.7)"/><path fill="#feffff" d="M238.1 107.5l-3.9 17.7-44.6-3.5 6.9-16z"/><path d="M174.1 104.2l36.5 41.5-43.4-34.4 7.7-20.2z"/><circle r="1" fill="#181817" transform="matrix(26.53343 95.03208 -11.25145 3.14146 94.9 190)"/><path fill="#1d1d1d" d="M228 105l-21 1-29-30z"/><circle r="1" fill="#fefdff" transform="matrix(25.59704 25.71747 -5.1658 5.14162 170.4 78.7)"/><circle r="1" fill="#2f302f" transform="rotate(-101.5 103.8 -78.2) scale(50.797 84.23826)"/><path fill="#747470" d="M100 101L36 39l25 70z"/><path fill="#a6a6a2" d="M95.4 140.3l39-17 26-58.9-84 45.9z"/><path fill="#020202" d="M164 161l-3-31-12 47z"/><path fill="#fff" d="M165 90h4v67h-4z"/><path fill="#060608" d="M68.6 96.7l-11.5 17 21.3-5.3 1.1-13z"/><ellipse cx="127" cy="185" fill="#292928" rx="84" ry="27"/><path fill="#fff" d="M60 91h5v14h-5z"/><path fill="#1b1b1a" d="M169 110l10 19 41 4z"/><path fill="#d5d6d6" d="M31.4 37.9l41.1 33.5-36.8 13.5 39.4-36.1z"/><path fill="#fefdff" d="M153 133.4l7.8 1.8-5.8 25.4-7.8-1.8z"/><path fill="#8d8d8a" d="M58.8 78.3l15.6-6.7 7.8 61.3 7.9-89.3z"/><path fill="#282828" d="M-9.9-16l92.2 65.2 17.8-2.9 53.2 7.7z"/><path d="M54 82.5l-.8-3.9L68 75.5l.9 3.9z"/><path fill="#adadab" d="M102 143l11-7 11 17z"/><circle r="1" fill="#5c5c5c" transform="rotate(93.6 54.1 189.5) scale(31.8213 27.59952)"/><path fill="#74726e" d="M158.7 133.7l-24.8-27.5L116.8 59l45.6 64.3z"/><path fill="#3f3f3f" d="M171 128h41v60h-41z"/><path fill="#fff" d="M233 117l-43-6 3-11z"/><circle cx="219" cy="78" r="30" fill="#484848"/><path fill="#1f1e1c" d="M137.3 111.4L147 178l2.9-32.5 1.4-26z"/><path fill="#fff" d="M178.2 79.7l-24.9-23.5L168 86.7l-7.2 32.2z"/><circle r="1" fill="#191919" transform="matrix(-12.32958 -32.93275 11.47893 -4.29756 37.7 10.5)"/><path fill="#dedfde" d="M32 83h33v5H32z"/><path fill="#3e3e3e" d="M133.4-1.5l100.9 52.8-23.5 56.5-82.1-77.6z"/><path fill="#191918" d="M40.7 118.1L7 206l-23-87.3 80.2-31.9z"/><path fill="#eff1f2" d="M63.4 69.3l15.8-22.8-11.1-2.7-12-1z"/><ellipse cx="17" cy="67" fill="#151514" rx="28" ry="18"/><path fill="#a6a4a4" d="M221 126l-50-31 18 24z"/><path fill="#bdbeba" d="M130 127l-23-55-26 50z"/><path fill="#3a3a38" d="M108 126l-6 13 40-12z"/><path fill="#eeeef1" d="M86.8 63.4l21.7-16.2 7 15.3-21 26.5z"/><path fill="#353535" d="M135.2 203.1l52.1 2.9-16.1-43.8-13.6-14.8z"/><path fill="#ecedec" d="M162 139h5v12h-5z"/><path fill="#ececed" d="M59 92l-1 9 17-12z"/><path d="M180.3 123.3L170.7 97l1-.3 9.6 26.3z"/><path fill="#fff" d="M232 108v12h-22v-12z"/><circle r="1" fill="#2e2d2e" transform="matrix(-132.8992 -12.32869 1.7807 -19.19546 246.9 11.4)"/><ellipse cx="40" cy="81" fill="#060606" rx="15" ry="1"/><path fill="#fff" d="M168 157l-3-.2 3-27.9 3 .3z"/><path fill="#f5f4f8" d="M162 103l8 29 4-11z"/><circle r="1" fill="#2b2b2a" transform="rotate(-132.8 88.3 66) scale(103.51401 23.24589)"/><path fill="#dbdadc" d="M152.2 124.2l4.1 25.7 8-60.7 8.2 36.4z"/><ellipse cx="254" cy="104" fill="#6c6d6d" rx="19" ry="42"/><circle cx="129" cy="72" r="14" fill="#9b9993"/><ellipse cx="89" cy="90" fill="#a8a7a6" rx="26" ry="4"/><path fill="#454545" d="M169.1 144.1l4.8-24.5 53 10.3-4.8 24.5z"/><circle r="1" fill="#dddfe0" transform="matrix(22.39714 12.00924 -.95718 1.78514 52.3 48.3)"/><path fill="#e5e5e6" d="M96 47h16v33H96z"/><path fill="#fff" d="M160.8 60.5l34.8 43.5 8.8 5.8-7-10.9z"/><circle r="1" fill="#3a3a3a" transform="matrix(-1.0521 9.15395 -24.86312 -2.8576 121.9 41)"/><circle r="1" fill="#bfc0bc" transform="rotate(-59.8 90.6 -1.4) scale(4.69518 3.56172)"/><path fill="#262626" d="M69.1 176.1l-.9 16.6 50.2-48-31.4 8.1z"/><path fill="#aeadad" d="M119 124l-39-21 9 30z"/><path fill="#595959" d="M258.1 53.8l-38.7 34.5-19.2 13.2 33.2 5.9z"/><path fill="#c7c8c6" d="M104 143h2v10h-2z"/><circle cx="119" cy="152" r="3" fill="#dcdbdb"/><ellipse cx="9" cy="31" fill="#1a1a1a" rx="24" ry="81"/><path fill="#131313" d="M171 107.6l24.3 17.6-2.3 3.2-24.3-17.6z"/><ellipse cx="119" cy="56" fill="#dfdfe0" rx="32" ry="6"/><path fill="#c1c0c2" d="M156 112l-17-46 20 5z"/><path fill="#2e2e2f" d="M180.2 140.4l-11.3-34.6 3.5-11.5 2.7 8.2z"/><path fill="#6f6e6c" d="M135 94l-7 39 18-30z"/><path fill="#81817d" d="M90 83L47 71l-7-18z"/><path fill="#121211" d="M159 142l8 19-11-1z"/><path fill="#adadad" d="M111 150h7v4h-7z"/><circle cx="87" cy="33" r="14" fill="#303030"/><path fill="#1d1d1d" d="M55 122l12-26 13-1z"/><ellipse cx="50" cy="15" fill="#252525" rx="18" ry="29"/><circle r="1" fill="#474747" transform="matrix(-19.4392 -25.3155 2.41397 -1.85364 177.5 70.5)"/><circle r="1" fill="#f4f8fa" transform="rotate(123.4 84 119.4) scale(7.50246 6.44027)"/><path fill="#e1e4e4" d="M66 42l17 5-24 1z"/><path fill="#5b5b5b" d="M215.6 170.4l30.5-57.5-8.6-.6-17.1 29.6z"/><ellipse cx="146" cy="132" fill="#1c1c1a" rx="4" ry="19"/><path fill="#969490" d="M101 75l12 26-14-13z"/><circle r="1" fill="#171717" transform="rotate(-32.9 331.5 54.5) scale(30.07694 77.15779)"/><circle r="1" fill="#575757" transform="matrix(25.79393 8.5205 -3.76523 11.3984 232.3 145)"/><path fill="#282726" d="M152 143l-21-25 17 2z"/><circle cx="69" cy="171" r="2" fill="#b6b6b4"/><path fill="#191919" d="M183.9 123.4l36.3 6.2-18.5 2.7-31.5-26.8z"/><path fill="#d2d1d3" d="M91 145h5v2h-5z"/><path fill="#252525" d="M11 91l16 49 62-12z"/><path fill="#aeaeae" d="M26 84h8v6h-8z"/><path fill="#a2a29d" d="M128 129l-12-50 22 29z"/></g></g></svg>