<svg xmlns="http://www.w3.org/2000/svg" viewBox="0 0 1350 900"><defs/><filter id="a"><feGaussianBlur stdDeviation="12"/></filter><rect width="100%" height="100%" fill="#5a4033"/><g filter="url(#a)"><g fill-opacity=".5" transform="translate(2.6 2.6) scale(5.27344)"><circle r="1" fill="#dbe6c4" transform="rotate(14.5 -149.8 605.3) scale(255 98.62518)"/><circle r="1" fill="#000500" transform="matrix(-18.94905 13.85511 -29.9568 -40.97064 111.6 123.9)"/><ellipse cx="23" cy="121" fill="#eee9cc" rx="8" ry="169"/><circle r="1" fill="#1e1e0e" transform="matrix(-1.23749 16.24083 -36.68713 -2.79542 187.3 109)"/><path fill="#e2dcc7" d="M131.4 40.5l-8.6 53.6 52.8 5-1.6-53.6z"/><path d="M48 90h13v78H48z"/><circle r="1" fill="#eae3d0" transform="matrix(-16.295 -42.22947 22.38477 -8.63757 254.5 80.6)"/><circle cx="44" cy="34" r="50" fill="#bfb498"/><path fill="#000701" d="M27.3 132.5l2.7 31.8 40.9-6.2-22.5-36.2z"/><path fill="#020300" d="M133 93l-67 24 49 12z"/><circle r="1" fill="#b8af95" transform="matrix(-39.70963 30.6911 -17.81745 -23.05308 181.3 169)"/><path d="M12.8 133.6l-.6 37-13-.2.6-37z"/><path fill="#e2d4b9" d="M166 130l-48-4 27-17z"/><path fill="#c5bda2" d="M93.2 123.7l12.9 11.4L44.5 117l36.3 39z"/><ellipse cx="21" cy="131" fill="#ffffed" rx="7" ry="18"/><path d="M140.2 161.8l11.5-17.7-21.9-11.7-.1 28.9z"/><path fill="#c3bca1" d="M123 172l7-36-13 3z"/><ellipse cx="218" cy="90" fill="#817c69" rx="15" ry="42"/><path fill="#d0caab" d="M235.4 8.1l-77.9 5.5-48.2-10.5 50.1-10.2z"/><path fill="#f8fdfa" d="M3.5 40.7l9.8-2 5.2 26.6-9.8 2z"/><ellipse cx="206" cy="151" fill="#fffbed" rx="59" ry="2"/><path fill="#2a2b1e" d="M217 85h9v39h-9z"/><path fill="#fffff3" d="M138 82l10 41 2-25z"/><path fill="#302c1b" d="M152 96h47v24h-47z"/><circle r="1" fill="#9a9075" transform="rotate(-139.9 55.8 15.5) scale(35.94166 29.56726)"/><path fill="#c6bca5" d="M233 87h23v76h-23z"/><path fill="#d9d5c0" d="M153 72h78v13h-78z"/><ellipse cx="160" cy="30" fill="#6d6645" rx="27" ry="11"/><ellipse cx="151" cy="71" fill="#564627" rx="2" ry="37"/><path fill="#504633" d="M107 93l31 3 4 28z"/><circle r="1" fill="#676d57" transform="rotate(-9.6 607.3 47.1) scale(14.83473 32.64832)"/><path fill="#e1dac8" d="M56 29l50-4L43 9z"/><path fill="#060b05" d="M141.8 136.3l-44.6 1.5 28.3-31.2-37.2 5.6z"/><ellipse cx="224" cy="43" fill="#dcd4bd" rx="32" ry="4"/><path fill="#fff" d="M154 57h6v37h-6z"/><path fill="#000c06" d="M28 126h32v21H28z"/><path fill="#e4e1d1" d="M71.5 136.1l-9.3 11.4 14.2-43.9-12-.3z"/><path fill="#766c53" d="M196.6 115.9l-34.7 12.8 20.4 56.3-18.8-21.9z"/><path fill="#c0b8a0" d="M205 102h25v12h-25z"/><ellipse cx="102" cy="157" fill="#334031" rx="21" ry="25"/><path fill="#83836b" d="M15.9 149.5L9.7 185l44.7-17.2L20 154.5z"/><path fill="#fff" d="M186 8l2-16 13 18z"/><path fill="#ccb594" d="M113 140h3v30h-3z"/><path fill="#e6d8bb" d="M120 122h12v8h-12z"/><path fill="#000901" d="M190 91h11v15h-11z"/><path fill="#151609" d="M217 80h4v36h-4z"/><path fill="#afa88e" d="M72.6 147l-1.5 19.2L98 125.6l-11.9 1.8z"/><path d="M13 177.5h-24v-43h24z"/><path fill="#cabc9f" d="M24 119h48v6H24z"/><circle r="1" fill="#8b8269" transform="matrix(-1.24882 8.8262 -44.5775 -6.30728 189.8 162.8)"/><ellipse cx="231" cy="98" fill="#463f30" rx="2" ry="34"/><path fill="#eee7d1" d="M153 138v20l16-10z"/><path fill="#e6e4ce" d="M13 7L-6 23l25 2z"/><path fill="#bbaf95" d="M140.8 125.9l56.4-.7-68.9-5.6 28.5 36.2z"/><path d="M50.4 97l12.6 3.4-3.4 12.6-12.6-3.4z"/><ellipse cx="54" fill="#918866" rx="37" ry="13"/><path fill="#e1d8be" d="M227 72h4v46h-4z"/><path fill="#67664e" d="M14.8 55.7l5.3 4.7L.4 67.1l5 30.7z"/><path fill="#635f4a" d="M104.5 70.2L76 105.9 70.8 117l35.5-18.3z"/><path fill="#f2efdc" d="M13 40h3v50h-3z"/><path d="M106 142h6v23h-6z"/><path fill="#aea588" d="M169 55h15v44h-15z"/><path fill="#b0aa92" d="M106.4 91.3l29.7 7.8 4.4-16.8-30.9-27.6z"/><circle r="1" transform="matrix(-8.77409 3.36806 -4.00178 -10.425 137.9 150.4)"/><ellipse cx="98" cy="140" fill="#af9d81" rx="31" ry="2"/><ellipse cx="204" cy="101" fill="#100b01" rx="1" ry="31"/><path fill="#fef4dc" d="M123 141h5v11h-5z"/><path fill="#d9d2bd" d="M214 40l50 54 7-43z"/><circle r="1" fill="#bcab8d" transform="matrix(5.49454 -32.912 11.08589 1.85075 41.8 83.9)"/><ellipse cx="207" cy="91" fill="#f4eeda" rx="2" ry="23"/><path fill="#7e785f" d="M193 90l-15 11 9-57z"/><ellipse cx="189" cy="70" fill="#6d6449" rx="42" ry="2"/><path fill="#726d56" d="M245 68h2v66h-2z"/><path fill="#b9ac91" d="M271 135.5l-63.7-4.4-14.5-16.7-7.8 34.1z"/><path fill="#aca188" d="M59 95l32-4-51-81z"/><path fill="#7b6e5a" d="M60.9 121.4l-1.5-13.2 32.7 34.5-5.2-23.9z"/><path fill="#000b06" d="M89.4 142.9l-2.7-3.5-9 27.2 10.6-7.8z"/><path fill="#e8dac0" d="M28 160h5v9h-5z"/><path fill="#b9af92" d="M151.7 45.5l-7.5 13-52-30 7.6-13z"/><path fill="#5a5038" d="M133 77h3v39h-3z"/><path fill="#232e23" d="M28.6 126.8l17.6 65.7-2.8.7-17.6-65.7z"/><path fill="#494734" d="M190.2 114.5l30.4-1.3 6.7-42.3-17.1 60.3z"/><circle r="1" fill="#f1e8cf" transform="matrix(-1.94948 1.34293 -1.6404 -2.3813 222 84.8)"/><circle r="1" fill="#aba285" transform="rotate(-162.9 75.6 -7.5) scale(42.12296 12.86344)"/><path fill="#8a7c63" d="M88.9 45.1l-28.3.1L43 31l53.8 6.1z"/><path fill="#fffff2" d="M161.6 52.2l6 3.6-7.2 12-6-3.6z"/><path fill="#b0b196" d="M64.6 151.3l-4.2-21.6 5-1 4.2 21.6z"/><path d="M13 99h3v12h-3z"/><circle cx="78" cy="104" r="3" fill="#f0e7d1"/><path fill="#fffff7" d="M65 103h7v13h-7z"/><ellipse cx="122" cy="95" fill="#080a00" rx="1" ry="26"/><path fill="#a8af9b" d="M52.1 108.7L56 110l-4.1 13.4L48 122z"/><path fill="#f3f1df" d="M124 71h7v22h-7z"/><path fill="#d6d0b8" d="M196.5 51h7v38h-7z"/><path fill="#4d503a" d="M106.2 76.8l-.4 13-18-.6.4-13z"/><path fill="#938163" d="M153 112l-3 44-10-36z"/><path fill="#ebe4cc" d="M152 121h23v4h-23z"/><path fill="#f6e8d3" d="M150.8 92.4l.4 21-10 .2-.4-21z"/><path fill="#b0a085" d="M102 127l-24 15 18-22z"/><path fill="#655944" d="M171.2 123.4l-12.8-37.2 26.5 42.1-32.6 6z"/></g></g></svg>