<svg xmlns="http://www.w3.org/2000/svg" viewBox="0 0 1400 602"><defs/><filter id="a"><feGaussianBlur stdDeviation="12"/></filter><rect width="100%" height="100%" fill="#386937"/><g filter="url(#a)"><g fill-opacity=".5" transform="translate(2.7 2.7) scale(5.46875)"><circle r="1" fill="#f6caea" transform="matrix(69.14415 97.35855 -159.98562 113.62196 109.6 57)"/><circle r="1" fill="#1c1c1f" transform="matrix(64.71526 -9.11107 2.48894 17.67878 86.8 72.8)"/><ellipse cx="94" cy="23" fill="#d0d5c8" rx="127" ry="28"/><path fill="#0a0f00" d="M168 57h50v17h-50z"/><ellipse cx="40" cy="54" fill="#fffffb" rx="7" ry="49"/><ellipse cx="62" cy="76" rx="16" ry="24"/><path fill="#d2d9e3" d="M76 40L99 5v94z"/><ellipse cx="243" cy="11" fill="#62604d" rx="75" ry="14"/><path d="M106 45h13v35h-13z"/><ellipse cx="174" cy="43" fill="#dee1dc" rx="39" ry="16"/><path d="M26 42h4v44h-4z"/><ellipse cx="58" cy="38" fill="#6c6b5d" rx="11" ry="30"/><path d="M140 54l-10-10 6 31z"/><path fill="#e9e6db" d="M125 29l-7 28 15 18z"/><path fill="#aeada3" d="M271 108L127 74-9 119z"/><path d="M90.5 84.9L58.6 87l-1.1-16 31.9-2z"/><path fill="#1d1f24" d="M-1.8 48.7l36.7 20.5-.7 15L8.9 57.7z"/><path fill="#2c2e1c" d="M172 60h28v20h-28z"/><path fill="#705561" d="M265.8 124l-32 1-1.6-47 32-1z"/><path fill="#dad8d5" d="M222.7 21.1l16.5 26.3-12 7.5-16.4-26.3z"/><ellipse cx="211" cy="83" fill="#7d7d79" rx="12" ry="41"/><path fill="#c6c8c9" d="M-7 125l31-6-11-64z"/><circle r="1" fill="#e2e6e3" transform="rotate(-157.4 14 13.2) scale(36.64813 6.86295)"/><path fill="#72756f" d="M127.8 20.9L95.9 72.1l9.2-45.8 3.8-6.8z"/><path fill="#282e22" d="M155 50l-10 5 11 10z"/><ellipse cx="50" cy="16" fill="#848e73" rx="36" ry="6"/><path fill="#e2ddcd" d="M34 63h12v31H34z"/><path fill="#1d2125" d="M7 65l-21 10L5 51z"/><ellipse cx="147" cy="39" fill="ivory" rx="13" ry="9"/><path fill="#191c23" d="M112.3 55.7l10.1 12.9-10.1 17.5-19.9-25.3z"/><path fill="#c3c9c7" d="M71 5h31v55H71z"/><path fill="#babdb4" d="M120 90h70v20h-70z"/><ellipse cx="93" cy="65" fill="#c8d1dc" rx="3" ry="64"/><path fill="#9a9e9d" d="M186.5 48l15.1-18.6L219.5 44l-15.1 18.7z"/><ellipse cx="134" cy="63" fill="#080b0d" rx="3" ry="20"/><path fill="#8d8c7c" d="M25.5 81.1L53.9 125l13.6-29.5L4 86.1z"/><path fill="#969a8d" d="M161.5 21.2l4.8-24.6 42.2 8.2-4.8 24.6z"/><path fill="#12151b" d="M87.5 78.6L57 52.1l9.3 40 9.6 4.2z"/><path fill="#4a9843" d="M45.7-8.3l5.4 23.4-4.8 1.2-5.4-23.4z"/><circle r="1" fill="#dde4ca" transform="matrix(5.72402 -.62183 2.74227 25.24301 41 18.8)"/><path fill="#8a8c7b" d="M78.4 31.4L44.7 16.6l34.8-3.7 11 25.3z"/><path fill="#fff" d="M83 18h21v4H83z"/><path fill="#dadec5" d="M38.2 9.7l82.6-2.8L157.9 25l-55.1-10.1z"/><path fill="#fbffff" d="M69 33h9v11h-9z"/><path fill="#1a2a1a" d="M213.9 53.6l2.9-1.4-1.3 15.7-6.8-13.6z"/><path fill="#cbcbca" d="M206.5 125h2l26.9-38.4-7.1-3.8z"/><path fill="#797c73" d="M64.7 42.5l30.8 31.1-30.4-9.7-1.2-10.6z"/><path fill="#aaaca1" d="M172.6 89.8l-15.5-51.7-9 48.5-9.1-37.9z"/><ellipse cx="49" cy="69" fill="#201b0f" rx="2" ry="24"/><path fill="#a6aba3" d="M79.6 125l25.2-8-.4-47.9-19.9 19.1z"/><path fill="#c2c1b7" d="M131.9 44l15.3-9.9-32.5-1.7 11.2 43.2z"/><path fill="#181918" d="M16 61h11v8H16z"/><path fill="#898a82" d="M216.4 48l-2.1 73-48.8-52.6 54.6 17.7z"/><path fill="#9ea3a1" d="M174 45h19v16h-19z"/><path fill="#acb8c9" d="M26 29l-28 5 12 24z"/><circle r="1" fill="#6b685a" transform="matrix(18.8246 -15.69763 8.37293 10.04082 238.3 7.3)"/><path fill="#dcded8" d="M163.2 73.5l1.9-11.6 20.3-32.7-30.2 22.7z"/><path fill="#dddedc" d="M214.1 21.5L237 41.1l-30-13.5-24 12.6z"/><path fill="#10250e" d="M19.9 45.2l10.3 6.2-2 3.4-10.4-6.2z"/><path fill="#2f3426" d="M112.1 70.4l89.3-10.5-1.1 18.7-37.2-12.7z"/><path fill="#9c9f89" d="M113.6 9.2l23.4 1.6-3.3-26.8L51-9.4z"/><path fill="#030611" d="M104 48h12l-3 30z"/><path fill="#1c2224" d="M96.2 52.1l1.4 18.8 25.4-5.1-12.8 19z"/><circle r="1" fill="#818477" transform="rotate(-37.7 183.2 -177.2) scale(20.08624 5.2272)"/><path fill="#acada8" d="M200 65l8-25 3 26z"/><path fill="#585e63" d="M199 57l2-14-7 10z"/><path fill="#a8a49f" d="M224 49h32v31h-32z"/><path fill="#9ea18f" d="M121.2 35.7l-35-10 31.2-5.6 33.9 3.8z"/><path fill="#1a2817" d="M219.9 67l-14.3 7-8-16.8-7.8 14.5z"/><path fill="#dcdbd2" d="M28.5 120.2l-35.3-14.9-9.2 2.4L11.6 99z"/><path fill="#423326" d="M244 47.6l-4.5-7.7 2.5-1.5 4.5 7.7z"/><path fill="#b8baaa" d="M49 27h7v24h-7z"/><path fill="#161a1a" d="M141.7 63L137 83.7l-1.1-33.4-7.7 2.7z"/><path fill="#0b0f12" d="M48 70h41v15H48z"/><path d="M28 69h5v17h-5z"/><path fill="#c5c8be" d="M138.4 64.9l10.4-26.7 20.6 47.1-9.1-45.9z"/><circle r="1" fill="#eef0e7" transform="matrix(-20.55828 -3.9217 .94378 -4.94747 4 23.6)"/><path fill="#9c9c97" d="M22 49h4v25h-4z"/><path fill="#b6b9a8" d="M82 22h9v44h-9z"/><path fill="#8e8f7f" d="M31.7 10.1L81.2 15 8.6 8.3l24.8 18.4z"/><path fill="#b5b9b9" d="M14.6-16L-16 28.4l43.4 1.1-35 31.9z"/><path fill="#f6f8f3" d="M168 29h10v17h-10z"/><path fill="#86887c" d="M123 66h10v12h-10z"/><path fill="#221614" d="M114 44h4v32h-4z"/><path fill="#1b140c" d="M85 67h5v18h-5z"/><path fill="#758080" d="M111.4 24.8l1.9 22.6-12.1 6.6 7.2-17.4z"/><path fill="#7b7c74" d="M154.1 125H196l25.3-79.2v44.6z"/><path d="M17 59h4v8h-4z"/><circle cx="149" cy="58" r="3" fill="#020107"/><path fill="#2b1410" d="M65 44h3v8h-3z"/><path fill="#73736c" d="M249 76l-38 49 32-19z"/><path fill="#050709" d="M135.5 49.4l6.8 17.8-3.8 1.4-6.8-17.8z"/><path fill="#5f7b5e" d="M74.3 69.5l4.5-17.1 9.1 7.5-3.7.5z"/><path fill="#2b2f19" d="M189 69l-19-12-3 14z"/><path fill="#949a9c" d="M-16 117.6l38.9-47.3-32.6-18.1 27 5.6z"/><path d="M28.2 84.5l-1.4-39h1l1.4 39z"/><path fill="#a3a69e" d="M151.1 76.2l18.1-3.9 23.6 16.4 2.7 36.3z"/><path fill="#fff" d="M229 83h2v8h-2z"/><ellipse cx="39" cy="38" fill="#e0dfd0" rx="6" ry="33"/><path fill="#0d0e09" d="M47 81h19v10H47z"/></g></g></svg>