<svg xmlns="http://www.w3.org/2000/svg" viewBox="0 0 1350 900"><defs/><filter id="a"><feGaussianBlur stdDeviation="12"/></filter><rect width="100%" height="100%" fill="#5d3e32"/><g filter="url(#a)"><g fill-opacity=".5" transform="translate(2.6 2.6) scale(5.27344)"><circle r="1" fill="#e7f7d4" transform="matrix(-17.10534 98.16444 -176.34195 -30.72792 67 39.2)"/><path d="M131 92h42v78h-42z"/><circle r="1" fill="#f0e7ca" transform="matrix(11.49504 -.33984 5.33053 180.30542 93 134.4)"/><circle r="1" fill="#182519" transform="matrix(26.75103 10.57909 -17.78715 44.97784 49.8 134.5)"/><ellipse cy="98" fill="#fffffc" rx="16" ry="62"/><circle r="1" fill="#cacfb6" transform="matrix(12.95457 -8.80392 48.5074 71.37648 243.2 136.5)"/><circle r="1" fill="#b3c79e" transform="matrix(56.62419 63.83696 -13.9363 12.36167 255 27.8)"/><path fill="#e6d9b3" d="M117 122h79v13h-79z"/><circle r="1" fill="#1f1f10" transform="matrix(-1.49615 -14.23489 33.92923 -3.5661 163 102.3)"/><path fill="#a5a78a" d="M162.4 72.1l53.7 95.8L202 185l-34-61.6z"/><path fill="#000100" d="M239 49h12v81h-12z"/><path fill="#fffff7" d="M252 58h4v68h-4z"/><circle r="1" fill="#d4cdb5" transform="matrix(-54.56309 26.50622 -15.6579 -32.2318 24.2 32.9)"/><circle r="1" fill="#000200" transform="rotate(97.2 9.9 145.7) scale(21.6428 28.05455)"/><path fill="#fffff6" d="M138.8 61l-1.6 31-20-1 1.6-31z"/><path fill="#7b6f59" d="M-13 127l91 2 2-58z"/><path fill="#f5e8d6" d="M196 70h24v50h-24z"/><path d="M221.5 148.2l-25.7-14.7 9.5-14.4 30.1 13z"/><path fill="#ede8cf" d="M95.5 167.3l29.3-59.8v37.2l-50.4-4.3z"/><circle r="1" fill="#f1ecdc" transform="matrix(5.37235 -1.38938 7.36444 28.4762 43.6 77.1)"/><ellipse cx="57" cy="169" rx="13" ry="40"/><circle r="1" fill="#857c61" transform="rotate(84.5 99 146.4) scale(16.86652 90.35366)"/><circle r="1" fill="#c3b290" transform="matrix(.36418 4.69884 -44.12279 3.41968 24.2 127.7)"/><path fill="#1a1d10" d="M31 125.1l8.5-20.9L28.2 64l4 46z"/><path fill="#fff" d="M9 113l-25-74 29 3z"/><path fill="#0b1306" d="M60 94h20v18H60z"/><circle r="1" fill="#7b6e4f" transform="matrix(-.81622 4.7494 -49.75375 -8.55054 29.2 41)"/><path fill="#060c01" d="M175.7 95.3l3.6 11.6 13.6-22.1-10.6-.6z"/><path fill="#fff" d="M116 99h12v12h-12z"/><path d="M114 89h10v9h-10z"/><path fill="#858265" d="M17.9 104l14.8 6-26.6 66-14.8-6z"/><circle cx="150" cy="105" r="18" fill="#191910"/><circle r="1" fill="#9f987e" transform="matrix(10.92314 3.23558 -7.63522 25.77609 228.3 105.9)"/><path fill="#e1d6b6" d="M179 128h13v20h-13z"/><circle r="1" fill="#838369" transform="matrix(-20.60617 50.8829 -30.01146 -12.15381 255 159.4)"/><path fill="#f3f2d0" d="M208.3 21l-2.9-10.6L225.7 5l2.9 10.6z"/><circle r="1" fill="#02130b" transform="matrix(13.37769 33.78819 -27.6248 10.93743 150.3 169.2)"/><ellipse cx="89" cy="38" fill="#bfb499" rx="14" ry="74"/><circle r="1" fill="#c3b89d" transform="matrix(11.05047 -6.0231 18.74825 34.39702 132.3 42.7)"/><circle r="1" fill="#83795b" transform="matrix(27.77419 65.25573 -9.9941 4.2537 137 0)"/><path fill="#fffff4" d="M7 140h6v13H7z"/><circle r="1" fill="#666d58" transform="matrix(17.35447 -14.29035 8.3238 10.10859 198.4 156)"/><path fill="#5e523e" d="M164 88l-34 5-5 27z"/><path fill="#e2d7c3" d="M195 54h15v48h-15z"/><ellipse cx="229" cy="167" rx="3" ry="19"/><path fill="#968c72" d="M80.9 104.6L17.7 82.1l45.5 39.8L53 68.6z"/><circle r="1" fill="#dcd2bd" transform="rotate(-22.1 451.4 -171) scale(6.60191 45.14246)"/><path fill="#6b614f" d="M189 56h5v66h-5z"/><ellipse cx="151" cy="73" fill="#6e654b" rx="44" ry="2"/><path d="M243 52h9v50h-9z"/><path fill="#020903" d="M158.6 137l31.6 13.2 16.4 4.6-35.4-1.4z"/><circle r="1" fill="#403e32" transform="matrix(25.77338 -3.11892 .32439 2.6806 35 121.5)"/><path fill="#c3b89b" d="M12.4 97.7l-.7-54.4L24.6 48l5.6 67.5z"/><path d="M197 122h18l8 32z"/><path fill="#a89b7f" d="M224.8 119.7l-122 6 89.7 14.9-2.6-49.4z"/><path fill="#222e24" d="M-2.4 146.9l.4 29.7 18-33L57.7 185z"/><path fill="#e5e4cb" d="M-2.3 25.3l53.5-8.9 29.6 16.7-50.3-15.2z"/><circle r="1" fill="#9a9c7f" transform="rotate(173.8 54.5 76.3) scale(3.07221 28.08722)"/><circle r="1" fill="#b4a486" transform="matrix(.94154 3.31788 -56.59258 16.05972 56.8 120.7)"/><path fill="#b2af96" d="M248 102l6 48 17-31z"/><path fill="#0b110b" d="M13 145l50-12-31-1z"/><path fill="#292b1b" d="M182.7 113.1l15.9-3.6-13.3-4.8-57.4-1.6z"/><ellipse cx="52" fill="#a69c81" rx="46" ry="16"/><path fill="#dfd8c6" d="M153.2 62.9l-.3 27.7L127 76.8l2.2 20.3z"/><path d="M110 149h4v21h-4z"/><path fill="#bbbb9e" d="M251.6 53.8l9.2-59.6-9.7 128.7 7.4-8.3z"/><ellipse cx="108" cy="86" fill="#988861" rx="6" ry="61"/><path fill="#fffffc" d="M128 76h9v17h-9z"/><path fill="#303424" d="M30 67h4v41h-4z"/><path fill="#c2b699" d="M213 143l-20 4 24 3z"/><path fill="#ebe9dd" d="M46 49v35L29 55z"/><path fill="#f9eeda" d="M163 77h5v16h-5z"/><path d="M59 101h12v9H59z"/><path fill="#d9d1bb" d="M172 93l1-16 16-1z"/><path fill="#999077" d="M233 45h8v125h-8z"/><circle r="1" fill="#030e08" transform="matrix(9.07287 4.03833 -10.96802 24.64171 59.7 158.8)"/><path d="M216 151h4v19h-4z"/><path fill="#aaa28b" d="M179 166h37v4h-37z"/><path fill="#000603" d="M135 100h29v17h-29z"/><path fill="#ac9e82" d="M153.1 64.9l-7.4 1.2 2.7 41.2-5.4-.4z"/><path fill="#69604c" d="M252.8 94.7l-14.2 65.4 16.6 15.5-5.8-21.6z"/><path fill="#596e57" d="M70 143h12v27H70z"/><path fill="#000700" d="M241 53h7v64h-7z"/><path d="M224.4 141.2l-28.6 4.6-.2-1 28.6-4.6z"/><circle r="1" fill="#706652" transform="rotate(-163 76.5 49.5) scale(23.82134 3.00029)"/><path fill="#bdb9a1" d="M113 70h14v20h-14z"/><path fill="#e8dcc3" d="M93 138h34v5H93z"/><path fill="#39382c" d="M25 118h56v3H25z"/><path fill="#000a03" d="M13 165h56v5H13z"/><path fill="#686148" d="M158 42h5v49h-5z"/><path fill="#fff" d="M216 2.5l3.6 1.8-7.7 15.2-3.5-1.8z"/><path fill="#000902" d="M197 131h32v8h-32z"/><path fill="#000a00" d="M246 47h6v43h-6z"/><path fill="#baae94" d="M237.1 124.2l-9.7 23.8 19.4-11.4-36.5-17.7z"/><path fill="#8a846a" d="M260 46l-60-3 28-40z"/><path fill="#928569" d="M47.7 38l28.8 3-2.2 21-28.8-3z"/><circle r="1" fill="#464a3d" transform="matrix(2.2386 4.256 -25.4583 13.39073 48.5 139.6)"/><path fill="#c6bca6" d="M42 132l-14-7 39-2z"/><path fill="#d8d0b7" d="M76 36h7v39h-7z"/><path fill="#1e1807" d="M14.6 125.8l-2.8 2.8-6.4-6.4 2.8-2.8z"/></g></g></svg>