<svg xmlns="http://www.w3.org/2000/svg" viewBox="0 0 1350 900"><defs/><filter id="a"><feGaussianBlur stdDeviation="12"/></filter><rect width="100%" height="100%" fill="#4e5036"/><g filter="url(#a)"><g fill-opacity=".5" transform="translate(2.6 2.6) scale(5.27344)"><circle r="1" fill="ivory" transform="rotate(-121.1 93.8 -27.7) scale(97.38067 201.01323)"/><circle r="1" fill="#e2ccaf" transform="matrix(163.35389 39.82139 -16.768 68.78507 192.6 74.8)"/><circle r="1" fill="#433320" transform="matrix(12.90492 -24.47636 54.24913 28.60232 118 145.6)"/><circle r="1" fill="#66593a" transform="matrix(-34.01189 -81.213 25.86588 -10.8326 0 112.4)"/><circle r="1" transform="matrix(52.42093 -22.14347 7.70672 18.24436 24.8 1.1)"/><path fill="#fffff6" d="M19 52h58v40H19z"/><circle r="1" fill="#fffdef" transform="matrix(-2.23946 -11.22622 97.55418 -19.46061 209.5 15.6)"/><ellipse cx="180" cy="56" fill="#fff" rx="34" ry="10"/><circle r="1" fill="#8b6c55" transform="matrix(-1.39517 17.35552 -74.39087 -5.98012 178.2 142.8)"/><circle r="1" fill="#1f1c06" transform="rotate(-31.4 248.7 -81.4) scale(7.23912 28.99348)"/><circle r="1" fill="#fff" transform="matrix(-.27601 11.4769 -28.04203 -.6744 255 51)"/><circle r="1" fill="#d6c8ab" transform="matrix(16.28681 -13.09993 9.7778 12.1565 26.7 40.3)"/><circle cx="66" cy="162" r="37" fill="#c3b08f"/><circle r="1" fill="#b3a98d" transform="matrix(104.81685 17.25253 -4.59834 27.93698 237.5 107.6)"/><path fill="#908161" d="M119 55l112-14-51-12z"/><path d="M134 165l-29-4 25-16zM17 142l15-7-14-28z"/><path fill="#726a4f" d="M216.3 32l-1.8 33.8 20.7 2.8L221.3 30z"/><circle r="1" fill="#f5ebcd" transform="matrix(3.636 30.10664 -7.89382 .95334 57 126.2)"/><path d="M85.3 128.3l29.2-19.2-11.9 24.4 13.2 1.5z"/><circle cx="176" cy="169" r="14"/><circle r="1" fill="#000200" transform="matrix(85.10984 -47.24019 8.46093 15.24355 23 4.3)"/><path fill="#192400" d="M41 89h13v10H41z"/><circle r="1" fill="#9c9175" transform="matrix(32.75271 -21.60058 11.86652 17.99307 21.6 164)"/><path fill="#ffe" d="M207.2 65.3l12.5-15.8-4-12-74.2 30.9z"/><circle r="1" fill="#928466" transform="rotate(-101.7 124.8 -72) scale(6.91365 52.8428)"/><path fill="#edddc5" d="M37.3 112L21.7 22.2l-5.6 75.9 35.3 7.8z"/><path fill="#a69d8a" d="M218 185l-35-32 31 5z"/><ellipse cy="58" rx="2" ry="49"/><path fill="#edddc2" d="M26 119h33v11H26z"/><path fill="#fff" d="M257.4 39.9l1.2 23-24 1.2-1.2-23z"/><path fill="#070409" d="M217.6 152.1l-2.4 32 3.9-14.7 30.2.2z"/><circle r="1" fill="#a1987b" transform="matrix(-3.39625 -10.97583 57.5484 -17.80719 89.3 6)"/><path fill="#645c3c" d="M132 42h7v28h-7z"/><path fill="#d3bea9" d="M250 148h6v22h-6z"/><path fill="#000603" d="M88 110l-30 12 13 4z"/><ellipse cx="145" cy="152" fill="#a7a78c" rx="15" ry="9"/><path fill="#76714e" d="M-.3 147.4l19.9-98.7L7.7 31.3l-5.1 6.5z"/><path fill="#fef8e3" d="M70.3 121.6l-15.6-19.4L67.1 185l-12.6-64.5z"/><path fill="#121e13" d="M117 138h24v8h-24z"/><path fill="#fff" d="M76.9 88.8l-18 1.3-1.8-25 18-1.2z"/><circle r="1" fill="#a58568" transform="matrix(2.72962 -9.17094 63.09591 18.77976 180.4 136.5)"/><path fill="#0f1606" d="M33 112l-8-9-6 17z"/><path d="M25 138l-3-7 19 1z"/><ellipse cx="198" cy="162" rx="2" ry="13"/><path fill="#afa384" d="M10 64h7v102h-7z"/><path fill="#172400" d="M62 94h13v8H62z"/><circle r="1" fill="#776d4e" transform="rotate(164.8 79.3 17.6) scale(105.21466 1)"/><path d="M150 142h3v15h-3z"/><path fill="#ece5d2" d="M271 17L160 36l78-52z"/><path fill="#91876a" d="M77 132h27v38H77z"/><path fill="#cec2a5" d="M81.4 49l8.9 73.9L128 84 46.2 58.9z"/><path fill="#b9ae93" d="M115 69h141v56H115z"/><path fill="#ffffd1" d="M142 54h30v14h-30z"/><path d="M121.7 136.7l.2-1 120.4 25.6-.2 1z"/><path fill="#6f6548" d="M211.9 63l2.5-12.7L228 53l-2.5 12.7z"/><path fill="#9d8265" d="M106 127h79v13h-79z"/><path fill="#fffdec" d="M66 119H35l31-9z"/><path fill="#11140b" d="M114 112l-11 20-5-18z"/><path d="M208 153h2v17h-2z"/><path fill="#baaf91" d="M115 166l-16 19 9-24z"/><ellipse cx="133" cy="46" fill="#ac9e7e" rx="48" ry="6"/><path fill="#fffffb" d="M212.1 45.1l-75.7 9.8 69 7.3 14.3-16.6z"/><path fill="#0b0f0d" d="M71 109h17v12H71z"/><path fill="#fff" d="M271 40l-36 20-10-18z"/><path fill="#f2e9d4" d="M68.2 169.7l-6.1-25.3-3.9 2.9-1.9 19.4z"/><path fill="#c7bea5" d="M7.2 38.3l49.3-27.6 26.4 11.1-54.4 34.5z"/><ellipse cx="175" cy="165" rx="17" ry="7"/><circle r="1" fill="#87785a" transform="matrix(-.39364 -2.53064 116.01332 -18.04596 245.6 27.2)"/><path fill="#eae0cd" d="M18 63h19v37H18z"/><path fill="#000a00" d="M37-16l-53 85V-1z"/><path fill="#b9ab8c" d="M73 149l-46-48 13 31z"/><path fill="#717046" d="M77.8 91.5L-16 113.7l45.1-5.1 22-14.7z"/><path fill="#bfb397" d="M153 148h7v15h-7z"/><ellipse cx="123" cy="159" fill="#040b04" rx="13" ry="5"/><path fill="#b2a88e" d="M271 78.7l-1.4 64.1-42.1-7.7-96.1-23.7z"/><path d="M29 131h10v6H29z"/><path fill="#c5b99d" d="M134 39l-65 67 56 1z"/><path fill="#d6cfb9" d="M78.6 39l49.4 5.2 113.1-20.4-92.8-5.4z"/><path fill="#e7e0ca" d="M202-1l-45 12 13-25z"/><path fill="#c8ba9d" d="M218.7 41.7L172 48.2l-.8-5.9 46.6-6.5z"/><path fill="#605743" d="M69 141l28-12 25 6z"/><path fill="#363b21" d="M6 41h2v53H6z"/><path fill="#eae3ce" d="M73 127l-1 9 9-11z"/><path d="M102.4 184.8l-1-.2 6.2-35.4 1 .2z"/><path fill="#9a9071" d="M8 43h10v63H8z"/><path fill="#b9a485" d="M85.6 133.2l44.7-5.4v1l-44.6 5.4z"/><path fill="#bbae93" d="M58.6 15.4L100.2 116 85 124.4l7.6-27.2z"/><path fill="#2d2f16" d="M18 111h8v33h-8z"/><path fill="#9e9377" d="M55.1 170.8l-.9-34.5-29.3 1.7-1.8 47z"/><path fill="#e4d9bf" d="M54.3 80.9l-17 15-17.4-54.2 43.4 9.4z"/><path fill="#30372f" d="M244.1 150.8l8.2-8.6-1.8 7.6.1 3.3z"/><path fill="#696446" d="M10.3 154.4l-16 .2-.6-39 16-.2z"/><path fill="#898260" d="M8.7 36.9l-3 2.1 20.7-18.2L105.8-16z"/><path fill="#171912" d="M68 115h14v11H68z"/><path fill="#4a4d40" d="M181 181l-113 4 83-29z"/><path fill="#816b42" d="M80.5 102.3l-5.9 5.3-15 3.7-1-9.4z"/><path fill="#6f6547" d="M129 60h12v9h-12z"/><path fill="#0b1f03" d="M44.5-16l86.6 14L67.2.8-16 42.9z"/><path fill="#b5ac8e" d="M123.7 153l-26.3-6 .9-4 26.3 6z"/></g></g></svg>