<svg xmlns="http://www.w3.org/2000/svg" viewBox="0 0 1400 437"><defs/><filter id="a"><feGaussianBlur stdDeviation="12"/></filter><rect width="100%" height="100%" fill="#503a2c"/><g filter="url(#a)"><g fill-opacity=".5" transform="translate(2.7 2.7) scale(5.46875)"><circle r="1" fill="#ceba99" transform="matrix(157.36458 -27.46451 11.77258 67.45386 93.2 60.4)"/><circle r="1" fill="#280000" transform="matrix(5.44839 19.91596 -42.45014 11.61305 103.7 36.9)"/><circle r="1" fill="#e5c294" transform="matrix(1.03626 -25.80102 53.43305 2.14606 193.2 36.1)"/><circle r="1" fill="#c6ced0" transform="rotate(144.8 -.7 16.5) scale(27.77606 20.9558)"/><path fill="#02060b" d="M167 59h48v15h-48z"/><ellipse cx="174" cy="37" fill="#be3d00" rx="12" ry="13"/><path fill="#f8f0e0" d="M85.6 19.5l5.8-9.5-43.6 15.6 21.1 7.3z"/><circle r="1" fill="#492100" transform="matrix(9.10076 -2.32963 6.1856 24.16423 129.1 50)"/><ellipse cx="23" cy="3" rx="32" ry="4"/><path fill="#3b2308" d="M38.7 48.4L103.8 84 84.7 72.4l2.9-42.1z"/><path fill="#fff" d="M227 49l-66 1 39 10z"/><path fill="#eb0700" d="M193 56.9l6.7-19.6 20.4 11-26.6 3.8z"/><ellipse cx="151" cy="2" fill="#bba790" rx="94" ry="13"/><path fill="#fff" d="M144 34h8v28h-8z"/><path fill="#e6f8e9" d="M189 33h52v7h-52z"/><circle r="1" fill="#595248" transform="matrix(5.22538 2.44771 -40.20392 85.82738 42.3 36.4)"/><path fill="#d1e1ee" d="M229 24h17v17h-17z"/><path d="M236 28h3v35h-3z"/><path fill="#6e5e43" d="M252-5l-59 34 67-7z"/><ellipse cx="103" cy="61" fill="#ced0c6" rx="21" ry="5"/><path fill="#4f300f" d="M99 10L40 55l96 2z"/><ellipse cx="189" cy="44" fill="#fffff9" rx="4" ry="16"/><path fill="#be6c00" d="M165 26h22v25h-22z"/><path fill="#c9c0ab" d="M36 58h21v16H36z"/><path fill="#312f26" d="M226 24h2v55h-2z"/><path fill="#332011" d="M72 52.4l-3.9 20 50.1-3.6-32.9-1.6z"/><path fill="#cfb691" d="M122 92l-3-23 74 8z"/><circle r="1" fill="#f5f3e2" transform="rotate(88 83.1 139) scale(20.16674 2.282)"/><path fill="#d1d1cc" d="M-5.8 18L0 6.4 27.8 20 22 31.6z"/><circle r="1" fill="#d40000" transform="rotate(169.9 101.3 31.8) scale(10.946 3.90355)"/><path fill="#3c332a" d="M236 82l-35-23-49 8z"/><path fill="#beb096" d="M139 21h6v45h-6z"/><path d="M0 0h45v7H0z"/><path fill="#494136" d="M44 0h11v35H44z"/><path fill="#958e7e" d="M17.3 38.1L-5.1 3.4 4.5 70l66-35.2z"/><path fill="#e4e4dc" d="M157 33h4v30h-4z"/><ellipse cx="242" cy="34" fill="#fff" rx="3" ry="11"/><path fill="#e4e0cd" d="M185 50h35v10h-35z"/><path fill="#70645a" d="M155.5 50.8l2.6-36-23.4 12.8 9.7-13.3z"/><ellipse cx="65" cy="61" fill="#e1d2b1" rx="3" ry="6"/><path fill="#e4d9c7" d="M57.7 33.2l-3.3-13.7 36.4-4.2-28.5 18.5z"/><path fill="#9f8668" d="M97 35h19v5H97z"/><path fill="#d32500" d="M194 41h20v10h-20z"/><ellipse cx="189" cy="23" fill="#c7c1b3" rx="30" ry="3"/><path fill="#403830" d="M33 56L7 75l29-7z"/><path fill="#553012" d="M125 25h14v46h-14z"/><path fill="#696258" d="M169 56l34 3-16 9z"/><path fill="#595548" d="M271 37.5l-71.2 54.9 44.4-20.2 5.9-84.8z"/><circle r="1" fill="#93816e" transform="rotate(19.9 30.8 205) scale(33.24568 11.08778)"/><ellipse cx="174" cy="41" fill="#9f0600" rx="11" ry="4"/><ellipse cx="242" cy="49" fill="#c5ddae" rx="3" ry="11"/><path fill="#e6e2d0" d="M166 50h51v8h-51z"/><path fill="#bb7000" d="M194 26h22v4h-22z"/><path fill="#4a3b2d" d="M56 66h24v8H56z"/><path fill="#4c2b09" d="M87 16h51v12H87z"/><path fill="#0a0500" d="M186 69h24v6h-24z"/><path fill="#fff" d="M229 28h6v12h-6z"/><path fill="#c2a400" d="M165 26h21v12h-21z"/><path fill="#36322b" d="M162.9 75.8l21-18.7-12.5.6-7.1 7.1z"/><path fill="#bcb9b2" d="M16.5 45L27 54l-.3-19.7 5.1-23.9z"/><path fill="#efdfc0" d="M118 59h7v7h-7z"/><path fill="#797063" d="M29.3 27.5l11-20.3-51.4-.3 50 9.2z"/><path fill="#726b59" d="M-16 26.7l52 35.8-23-6.8L-1 20z"/><path fill="#f9f6c7" d="M199 28l20 11h-24z"/><circle cx="232" cy="59" r="4" fill="#cbeab0"/><path fill="#95896f" d="M134 66l29-14 7 8z"/><path fill="#e5dfd4" d="M186 25h7v34h-7z"/><path fill="#f4f9e8" d="M144 36h7v25h-7z"/><path fill="#746354" d="M237.6 13l-45.4 3.2 62 10.1L230.1-16z"/><ellipse cx="1" cy="66" fill="#484944" rx="3" ry="14"/><ellipse cx="51" cy="67" fill="#f4e5c3" rx="2" ry="11"/><path fill="#dacaac" d="M12 56h7v9h-7z"/><path fill="#c2b49d" d="M4 37h4v38H4z"/><path fill="#d0cac3" d="M157 24h6v27h-6z"/><path fill="#82715e" d="M251.8 83.1l-86.1-7.8 42.9 11.5-72.1-20.6z"/><path fill="#958676" d="M221 25l8-7-5 24z"/><path fill="#583519" d="M111 22h25v35h-25z"/><path fill="#b3a794" d="M33 13l9 18 2-12z"/><circle r="1" fill="#b49f87" transform="rotate(93.2 75.4 78.3) scale(4.97155 72.29928)"/><path fill="#8c755c" d="M163.2 68.1l-1.8.7-32.1-12.2 23 3.8z"/><path fill="#573f24" d="M151 34.9l-22-.8v-1l22 .8z"/><path fill="#6d6253" d="M83.4 61.8l24.7 3.5-1.5 10.9L82 72.7z"/><ellipse cx="237" cy="49" fill="#4a402c" rx="2" ry="27"/><path fill="#af9c80" d="M132 94l22-20-95 2z"/><path fill="#ca6600" d="M164 42h21v8h-21z"/><path fill="#a39987" d="M190.1 65.9l-3.4-8.7 1.7-4.9-10.3 12.1z"/><path fill="#726456" d="M49.2 74.1L34.7 94l7.9-28L25-3.9z"/><path fill="#595040" d="M67.3 19.7l5.1-2.8L54.8 4.7 43.6 1.3z"/><path fill="#e23600" d="M216.1 46.1l-20 .7-.2-7 20-.6z"/><path fill="#4e463f" d="M217 67.5h-22v-7h22z"/><circle r="1" fill="#371d08" transform="matrix(-4.46034 6.67922 -5.11125 -3.41326 76.4 62.1)"/><path fill="#746652" d="M8 58.7l57.7-20.4-39.6 27.4-10.7-22.2z"/><path fill="#6e5a48" d="M123.4 13.9l30.7 10 2.5 64.5-1-71.3z"/><path fill="#f8f2e1" d="M83 16l-6 8-8-9z"/><ellipse cx="28" rx="18" ry="7"/><path fill="#4e311b" d="M55.4 44.1L75.1 29l44.3 18-79.7 10.3z"/><path fill="#625647" d="M244 70l6-55 21 18z"/><path fill="#ddd8ce" d="M217 27h5v28h-5z"/><path fill="#44433a" d="M61.9 36l-30-2 .2-2 30 2z"/><path fill="#adc598" d="M229 45h7v20h-7z"/></g></g></svg>