<svg xmlns="http://www.w3.org/2000/svg" viewBox="0 0 1235 800"><defs/><filter id="a"><feGaussianBlur stdDeviation="12"/></filter><rect width="100%" height="100%" fill="#3c5444"/><g filter="url(#a)"><g fill-opacity=".5" transform="translate(2.4 2.4) scale(4.82422)"><circle r="1" fill="#f1d9e0" transform="matrix(11.33341 -53.46383 191.69414 40.63586 115.4 59.4)"/><circle r="1" transform="rotate(51.9 -17 84.9) scale(9.07931 149.77383)"/><circle r="1" fill="#efdfde" transform="matrix(24.29688 23.24418 -38.6426 40.39268 80 106)"/><circle r="1" fill="#fff" transform="rotate(-37.5 29 -15.1) scale(255 40.92684)"/><path d="M11 67h34v40H11z"/><circle r="1" fill="#fcfdfe" transform="rotate(136.3 102.2 75.2) scale(28.18335 19.75145)"/><path d="M258.4 29.3l-55.3 8.8-7.5-47.4 55.3-8.8z"/><path d="M251 0h5v165h-5z"/><circle r="1" fill="#746e6b" transform="rotate(-153.4 106 33.4) scale(72.94793 31.20837)"/><path d="M173.5-13.7l1 25-72 2.4-1-25z"/><ellipse cx="119" cy="164" fill="#0d0002" rx="171" ry="13"/><circle r="1" fill="#8c726c" transform="matrix(-59.57443 15.51798 -4.41694 -16.95688 98.3 135)"/><circle r="1" fill="#daddd9" transform="matrix(29.94085 3.3676 -3.93672 35.00079 75.6 84.5)"/><path fill="#cac3c2" d="M162 12h39v21h-39z"/><circle r="1" fill="#030305" transform="matrix(-41.46975 32.70852 -5.33596 -6.76524 63.5 43.7)"/><circle r="1" fill="#5a6158" transform="matrix(-.50526 -48.2472 16.43368 -.1721 187.3 94)"/><path fill="#d1d2d0" d="M202 36h47v66h-47z"/><path fill="#060004" d="M0 77h45v30H0z"/><path fill="#0e030a" d="M171-16L85 10l180 1z"/><path fill="#1d2021" d="M83.9 155.6l-17-1.2 1.2-18 17 1.2z"/><circle r="1" fill="#989084" transform="matrix(-16.9465 -15.30285 19.898 -22.03519 105 123.2)"/><ellipse cy="135" fill="#0e0008" rx="8" ry="58"/><path d="M251 45h5v98h-5z"/><path fill="#989994" d="M205.4 139.8l-1.8-50 45-1.6 1.8 50z"/><path fill="#12080f" d="M199.9 34.6l44.6 1.5 26.5-5-67.7-29.9z"/><path fill="#826970" d="M22 107h19v46H22z"/><path fill="#0f1010" d="M25 57h21v47H25z"/><circle r="1" fill="#aeb0ab" transform="matrix(34.14681 -.27082 .14805 18.66748 99.3 56.1)"/><path fill="#fbfef8" d="M55 77h58v13H55z"/><path fill="#e1d6d3" d="M62 37l-78-27 80-26z"/><circle r="1" fill="#675953" transform="matrix(-56.58737 5.2311 -1.5449 -16.71187 157.6 132.5)"/><path fill="#dddedd" d="M203 36h48v23h-48z"/><path fill="#000101" d="M37 47h16v11H37z"/><path fill="#f4ece9" d="M101.6-5.7l.8 12-20 1.4-.8-12z"/><path fill="#ababa7" d="M38.9 71.7l54.4-41.4 44.3 54.2-73.1-26z"/><path fill="#0e0e0f" d="M52 36L40 67l37-26z"/><circle cx="46" cy="44" r="4" fill="#f1e8e4"/><path fill="#040405" d="M62 27h27v6H62z"/><ellipse cx="86" cy="6" fill="#ece6e3" rx="3" ry="11"/><path fill="#dad2d0" d="M75.5 27.4l-26-.9 1-26 26 1z"/><path fill="#0b0b0b" d="M82 29l38-17-45 5z"/><path fill="#b3b2af" d="M43 107h81v15H43z"/><path fill="#8d8e88" d="M121 12h56v91h-56z"/><path fill="#676056" d="M98.3 100.6l4.2 36.5-.2-8.9 2.3-32.8z"/><ellipse cx="200" cy="103" fill="#35493d" rx="2" ry="59"/><ellipse cx="165" cy="71" fill="#dadfd7" rx="1" ry="51"/><circle cx="185" cy="28" r="15" fill="#b1b4af"/><ellipse cx="155" cy="155" fill="#443f40" rx="102" ry="3"/><path fill="#585353" d="M49 115h5v25h-5z"/><path fill="#1a1a19" d="M42.4 99.7l-14.5 3.9-4.2-46.7 22.5 1.2z"/><path fill="#dad3d1" d="M37 58l-53-27 47-47z"/><path fill="#070a09" d="M89 7h23v9H89z"/><path fill="#72726d" d="M147 55h17v64h-17z"/><path fill="#b6b7b3" d="M207 65h44v34h-44z"/><path fill="#4c3a40" d="M5 105h22v50H5z"/><circle r="1" fill="#0f0a0f" transform="matrix(.09012 6.35316 -73.72482 1.04578 177.4 164)"/><path fill="#1a1819" d="M201 0h55v36h-55z"/><path fill="#dcd5d3" d="M20.8 37.3l5 .5-2.6 28.9-5-.5z"/><path fill="#9a9999" d="M40.2 132.3l17.2 5.2-5.6 18.2-17.2-5.2z"/><circle r="1" fill="#848780" transform="matrix(-27.22512 -8.27162 2.82437 -9.2961 175.5 44)"/><path fill="#0e0b10" d="M0 153h45v12H0z"/><ellipse cx="5" cy="74" fill="#ece5e5" rx="6" ry="3"/><path fill="#a2a19e" d="M107.2 10.8l3.8 1.6 89.9 1-26.8 27.9z"/><ellipse cx="140" cy="50" fill="#eceee7" rx="22" ry="1"/><path fill="#433936" d="M176.2 141.9l-28.4-24.4-.9 40.6 93.3-4.3z"/><path fill="#d9d2cf" d="M76.7-11.1l8.6-4.9 3.4 32.9-44.9.2z"/><ellipse cx="187" cy="3" fill="#191819" rx="85" ry="9"/><ellipse cx="118" cy="152" fill="#2a2524" rx="60" ry="3"/><path fill="#75736f" d="M205.2 143.3l46.3 6.4-21.6-33.4-29.4 8.6z"/><path fill="#73716e" d="M55.6 126.9L75.4 142l-27.1 15.5-3.8 3.4z"/><ellipse cx="113" cy="163" fill="#151415" rx="255" ry="6"/><path fill="#c4c4bf" d="M105 80L72 47 48 65z"/><path fill="#191919" d="M66.9 27.1l-9.6 22-10.4-13.2 26.2 6.8z"/><path fill="#d4cecc" d="M62.4 15.7l1.1 21-30 1.6-1-21z"/><path fill="#1c1c1c" d="M0 78h41v28H0z"/><path fill="#94918a" d="M120 63h18v61h-18z"/><path fill="#6e726c" d="M168 51h31v86h-31z"/><path fill="#d0d1cf" d="M250 76l-52-39 52-1z"/><path fill="#bdbdb9" d="M46 94h51v22H46z"/><path fill="#716456" d="M104 123h37v27h-37z"/><path fill="#92948d" d="M97.5 27l19.4-15.7L134.5 33l-19.4 15.7z"/><path fill="#7d7b77" d="M33 106h8v47h-8z"/><path fill="#1a1a1a" d="M37 47h20v11H37z"/><path fill="#c1b9bb" d="M44 122h4v26h-4z"/><path fill="#4a4a47" d="M53 157h34l-4-23z"/><ellipse cx="118" cy="87" fill="#dee6e0" rx="1" ry="36"/><path fill="#181818" d="M24 57h21v48H24z"/><path fill="#908070" d="M102.6 119.1l-22.3 32.1 6.5-.3 23.1-10.1z"/><path fill="#dfe0db" d="M117.1 82.1L53.8 66.5l4.3 33.3 57-9.3z"/><path fill="#b8b9b5" d="M180.8 14.5l22.1 37.1 2.3 18-5.6-45.5z"/><path fill="#565249" d="M170.5 125.5l19.6 24.6-59.4-13.8 18.5-20z"/><path fill="#1a1b1a" d="M64.2 34.1l-.9-10.8 11.4 20.8 73-60.1z"/><path fill="#161515" d="M-16 128.2l49.3-63.1L12 70.4.1 180z"/><path fill="#d3cecb" d="M55 2h21v25H55z"/><path fill="#898d85" d="M201.1 70.8l13.5 44.2 19 .9-29.9 19.8z"/><path fill="#d5d0ce" d="M0 0h36v57H0z"/><circle r="1" fill="#141315" transform="matrix(3.25021 0 0 45.05054 255 80.7)"/><path fill="#0f0f10" d="M76 17h9v12h-9z"/><path fill="#8d8a84" d="M122 16.9L61.3 55.1l33.9-26.7L117 12.6z"/><path fill="#bcb5b3" d="M46 65h10v38H46z"/></g></g></svg>