<svg xmlns="http://www.w3.org/2000/svg" viewBox="0 0 900 1267"><defs/><filter id="a"><feGaussianBlur stdDeviation="12"/></filter><rect width="100%" height="100%" fill="#4c3b29"/><g filter="url(#a)"><g fill-opacity=".5" transform="translate(2.5 2.5) scale(4.94922)"><circle r="1" fill="#d5b488" transform="rotate(-75.8 111.3 15.8) scale(154.55794 86.32298)"/><ellipse cx="1" cy="170" fill="#fffff9" rx="11" ry="96"/><circle r="1" fill="#371605" transform="matrix(-3.38113 23.8564 -85.326 -12.0931 120.7 221.5)"/><path fill="#ead29a" d="M137 213.9l-8.7-2.4 19.8-56.2 2.2 38z"/><circle r="1" transform="rotate(-79.6 220 -.9) scale(66.88867 28.53538)"/><circle cx="43" cy="153" r="28" fill="#c7b691"/><circle r="1" fill="#453824" transform="matrix(66.34653 -60.93528 16.05643 17.48229 158 43.1)"/><circle r="1" fill="#a99577" transform="rotate(-37.8 80.2 -92.8) scale(49.85559 57.08988)"/><path fill="#ffe39b" d="M102 163h23v27h-23z"/><path fill="#37332b" d="M20 14L-4 57l24 35z"/><circle r="1" fill="#543916" transform="matrix(-5.84414 .43866 -4.92853 -65.66159 129.2 141)"/><path fill="#e1c087" d="M56 231l49-8-8 15z"/><path fill="#0c0809" d="M71 141h13v34H71z"/><ellipse cx="176" cy="52" fill="#0e0e0b" rx="17" ry="47"/><circle r="1" fill="#41240f" transform="rotate(66.1 -139.6 158.5) scale(7.93687 52.7072)"/><ellipse cx="82" cy="116" fill="#ebcba6" rx="16" ry="10"/><ellipse cx="27" cy="148" fill="#ffffec" rx="3" ry="33"/><path fill="#fff" d="M144.2 197.4l.4-25.3 4-4.3.8 29.8z"/><path fill="#977954" d="M133 47h27v109h-27z"/><circle r="1" fill="#784f22" transform="matrix(-7.704 -15.45182 36.50977 -18.2031 68.2 255)"/><path fill="#fee5b2" d="M83 152h7v39h-7z"/><circle r="1" fill="#f1e6bf" transform="matrix(.78606 2.36286 -54.21462 18.03568 34 245.4)"/><ellipse cx="46" cy="187" fill="#7e3c26" rx="27" ry="12"/><path fill="#744c2b" d="M107 183h37v60h-37z"/><path fill="#5e461f" d="M126 140l-19 27 42-3z"/><path fill="#ca9d63" d="M114 69h8v73h-8z"/><circle r="1" fill="#f2e0bb" transform="matrix(-.01733 12.08578 -3.64976 -.00523 68 164.7)"/><circle r="1" transform="rotate(7.4 -1621.4 1485.9) scale(13.16551 63.38836)"/><path fill="#efe9cc" d="M6.5 119.1l4.2-38.6L-16 63.4 5.6 238.1z"/><path fill="#fffffa" d="M103 163h7v20h-7z"/><path fill="#b79765" d="M13 221l-16 28 28-3z"/><ellipse cx="15" cy="176" fill="#8a7e69" rx="6" ry="71"/><path fill="#6a4f2f" d="M58.1 118.2l-16-15 21.8-23.4 16 15z"/><path fill="#402a14" d="M122 56h11v64h-11z"/><path fill="#716553" d="M129.7-1.5l31.2 10.8-16.6 48.2-31.2-10.8z"/><ellipse cx="39" cy="25" fill="#4f3f28" rx="2" ry="37"/><path fill="#674923" d="M72 55l-37 1 31 9z"/><path fill="#eed29a" d="M87 184l26 16-10-14z"/><path fill="#c09a69" d="M128.5 212.2l-3.2 4.9 16.3-9.9-32.9-7.7z"/><path fill="#523316" d="M91 166h10v19H91z"/><path fill="#d2b285" d="M34 64h48v10H34z"/><path fill="#100c05" d="M164.7 210.7l-42.8 3.9 72.4 48.3-54.3-46.1z"/><circle r="1" fill="#592612" transform="matrix(8.56515 -8.24716 19.83113 20.59575 108.3 213.8)"/><path fill="#59340c" d="M83 62l23.5 5-1.5 7-23.5-5z"/><path fill="#4c3d25" d="M80.2 35.8l5.2-26.6-20.3 58.5 24.8-52.5z"/><path fill="#0d0800" d="M153 62h1v72h-1z"/><path fill="#927d55" d="M25.2 189.7l33.2-7.5-15.5-62.6-1.7 22.6z"/><path fill="#ad9067" d="M20.1 139.3l.2-10.8 44.8 8.9-44.4-47.8z"/><path fill="#593f18" d="M114 157v23l-8-27z"/><path fill="#f2cc86" d="M82.7 189.6l30.8-3.5 6.6-24.7 10.4 19z"/><circle r="1" fill="#534e43" transform="matrix(-20.40248 -13.8173 15.20292 -22.44847 0 25.3)"/><circle r="1" fill="#bea781" transform="matrix(-11.96987 30.23244 -6.79658 -2.69096 85 45.5)"/><path fill="#af2215" d="M41 192l32-5-6-12z"/><path fill="#59281e" d="M73.3 206.2l-42.5 11.4-2-7.8 42.4-11.4z"/><path fill="#88754c" d="M148 232v21l-15-29z"/><path fill="#d3c592" d="M86 153h23v11H86z"/><circle r="1" fill="#392e1f" transform="matrix(-22.46685 .95318 -2.13367 -50.29146 181 94.1)"/><path fill="#997b53" d="M121.6 156.4l34.7-38.2 3.8 25.5-27.8 13.9z"/><path fill="#ad997e" d="M84.7-1.6L48 12.4l12 48.4 8.8-7.2z"/><path fill="#fff6cf" d="M35.9 200.7l.6-1.9 7.6 2.5-.6 1.9z"/><circle cx="154" cy="183" r="5" fill="#ad8a5b"/><path fill="#e1d8b9" d="M20 172l9-2 5 15z"/><path fill="#a17b48" d="M128.2 198.4l25.6-53.5-39.2 48.6-6-22.1z"/><path fill="#ffffeb" d="M86 152h3v23h-3z"/><path fill="#4d3e2f" d="M21 183h3v61h-3z"/><path fill="#b37d58" d="M48 200l47-10-17-12z"/><path fill="#0b0906" d="M182 16l-25 9 16 32z"/><circle r="1" fill="#2f2211" transform="rotate(150.4 31.6 142.8) scale(7.31647 33.54271)"/><path fill="#f7e6bd" d="M26 245l-42 26 11-19z"/><path fill="#3f311f" d="M86 223l-38-8-6 22z"/><path fill="#7f5d36" d="M22 251l76-25 8 45z"/><path fill="#ffffd2" d="M144 167h5v28h-5z"/><circle r="1" fill="#312206" transform="matrix(-.71248 8.67566 -3.63294 -.29835 128.1 164.9)"/><path fill="#c56854" d="M42.6 224.1l-22.9-1.7 30.9-10.5-9.4 9.9z"/><path fill="#4d3e27" d="M156.5 163.1l16.9 1.7-18.7 66 3.6-36.9z"/><ellipse cx="134" cy="107" fill="#c09e6e" rx="2" ry="44"/><path fill="#483e2d" d="M14 0h6v112h-6z"/><path fill="#654421" d="M98.3 141l10.3-35.6-18.4.3L103.5 81z"/><path fill="#a4733b" d="M3.8 250.2l19.5-10.5-28.1 1-11.2 17.7z"/><path fill="#605544" d="M114 13.4l49.2 5.6-34.1-35 25.3 49z"/><path fill="#140e00" d="M151 159h7v19h-7z"/><circle r="1" fill="#6f614e" transform="matrix(10.87661 -2.19607 5.44132 26.9495 0 49)"/><ellipse cx="55" cy="102" fill="#5c4930" rx="21" ry="4"/><path fill="#90744e" d="M139.5 12.3l2.6 32.8-122.5 62.1 91.2-24.1z"/><path d="M173 157h9v78h-9z"/><path fill="#493929" d="M71 143h14v34H71z"/><circle cx="32" cy="108" r="3" fill="#ffffe7"/><ellipse cx="138" cy="175" fill="#71562e" rx="5" ry="31"/><path fill="#605541" d="M31 197.9l-12.1-16.5 8.1-.9 35.2 22.7z"/><path fill="#9d8d76" d="M79.4-26.8l53.2 57-22 20.6-53.2-57z"/><circle r="1" fill="#190e0f" transform="rotate(96.7 -67.3 117) scale(1 10.85202)"/><path fill="#524531" d="M152 20h3v111h-3z"/><path fill="#d2b68a" d="M24 192h3v26h-3z"/><path fill="#dfd4b2" d="M15.7 238.5l-16.3 2-1.5-42.9 11 27.6z"/><path fill="#ab8758" d="M113 80h10v65h-10z"/><path fill="#877864" d="M22 14l85-28-88 2z"/><path fill="#e2d6b7" d="M35.9 156.4l-9.7 22.4-2.5-45.3 4.5 4.3z"/><path fill="#f9eac1" d="M68 179.9l19.8-2.8.2 1-19.8 2.8z"/><ellipse cx="119" cy="216" fill="#9a2f20" rx="11" ry="6"/><path fill="#9a7f5b" d="M154 112h6v46h-6z"/></g></g></svg>