<svg xmlns="http://www.w3.org/2000/svg" viewBox="0 0 675 900"><defs/><filter id="a"><feGaussianBlur stdDeviation="12"/></filter><rect width="100%" height="100%" fill="#462d26"/><g filter="url(#a)"><g fill-opacity=".5" transform="translate(1.8 1.8) scale(3.51563)"><circle r="1" fill="#fff" transform="rotate(-110.7 53.7 16.6) scale(101.34512 189.3493)"/><circle r="1" fill="#fff" transform="rotate(57.4 -3.2 82) scale(58.05774 191.00002)"/><ellipse cx="158" cy="189" fill="#d3bc9d" rx="38" ry="62"/><path fill="#f6ffff" d="M69 246L0 198l12 65z"/><circle r="1" fill="#634125" transform="matrix(32.78954 16.02478 -31.03353 63.50008 103 107.5)"/><circle r="1" fill="#fff" transform="rotate(-59.8 87.5 -4.9) scale(120.13959 29.40887)"/><circle r="1" fill="#fff" transform="matrix(117.75067 -13.20785 4.41713 39.37961 128 2.6)"/><path fill="#5a270a" d="M16 28L0 124l-16-97z"/><path fill="#827b68" d="M84 156l-89 22 14 69z"/><circle r="1" fill="#000200" transform="matrix(32.94395 30.09868 -17.33977 18.97892 86.6 223.9)"/><path fill="#ceaa8c" d="M123 73h48v114h-48z"/><path d="M135 132h14v30h-14z"/><path fill="#fff9e7" d="M38 68h18v117H38z"/><path fill="#080000" d="M103 144h20v54h-20z"/><path fill="#fffffc" d="M16 223l58 25-59 2z"/><circle cx="151" cy="14" r="35" fill="#fff"/><path d="M53 226.5H23v-13h30z"/><path fill="#483323" d="M180.5 94.3l-13.9 1.2-3.1-35.8 13.9-1.2z"/><circle r="1" fill="#785d52" transform="matrix(2.13381 -20.10455 53.38814 5.6664 170.5 237.2)"/><path fill="#0e0b05" d="M175 114h17v41h-17z"/><circle r="1" fill="#fffff6" transform="matrix(-14.54257 -16.1107 34.82114 -31.43183 86.4 42.5)"/><path fill="#5e483a" d="M113 93l-69 89 47 28z"/><circle cx="26" cy="196" r="10" fill="#e9d7b7"/><circle r="1" fill="#f7d1a6" transform="matrix(5.53356 9.5459 -29.542 17.1249 185.8 100.7)"/><circle r="1" fill="#fffef3" transform="matrix(40.70038 -34.51643 8.613 10.1561 17.7 138.7)"/><path fill="#816d5a" d="M165 58l-48-22-74 98z"/><path fill="#4f3d25" d="M30 144l-6 57 16-41z"/><path fill="#f2d1ba" d="M123 89h11v59h-11z"/><path fill="#d8b59b" d="M109.8 88.4L138.6 68 179 195.2 164.3 63.4z"/><path fill="#ffe0bd" d="M-16 31L9-2 0 81z"/><ellipse cx="50" cy="12" fill="#fdfdf2" rx="35" ry="96"/><path fill="#321e18" d="M9.6 49.4l-10.7 55.4L3 66l6.4-51.1z"/><path d="M207 182h-30l1 8z"/><circle r="1" fill="#ffe2b1" transform="matrix(8.15042 -1.296 3.83803 24.13683 191 64.5)"/><path d="M47 251h100v5H47z"/><circle r="1" fill="#c3a38c" transform="matrix(-4.2935 -.14864 1.49012 -43.04172 128.4 204.5)"/><path fill="#06202c" d="M11 231l-18-21 18 4z"/><path fill="#1c0902" d="M137 133h11v35h-11z"/><path fill="#43322f" d="M134 82h9v27h-9z"/><path fill="#1d0d05" d="M183 65l-17-3 13-11z"/><path d="M132 186h19v4h-19z"/><ellipse cx="1" cy="184" fill="#0f0000" rx="3" ry="12"/><path fill="#fffff4" d="M207 5.9L165.4-16H96.6l53.1 73.5z"/><path fill="#ccbbab" d="M111 103.8l-11.7-6.4-74.6 73.2 70.7-60.8z"/><path d="M105 144h10v18h-10z"/><circle r="1" fill="#6d533d" transform="rotate(168 57.4 91.4) scale(63.08208 2.74357)"/><path fill="#150000" d="M98 116h18v8H98z"/><path fill="#e9ac9e" d="M87.3 83.9l32.8-37.7 4.6 3.9-32.8 37.7z"/><circle r="1" fill="#7a5640" transform="matrix(-1.8227 -2.08905 68.07494 -59.39542 180.4 38.5)"/><path fill="#b7a290" d="M15 32.9l-3.2 24.5L-16 184.7l26.6-89.9z"/><path d="M95 179h14v35H95z"/><path fill="#4e3a37" d="M121 88l-7-16-46 45z"/><path fill="#e7c2a6" d="M151 175h11v26h-11z"/><path fill="#b19077" d="M112 164.3l26.3-35.2-2.6 30.2 3.5.6z"/><path fill="#857156" d="M27 144h15v13H27z"/><path fill="#532626" d="M133.3 234.5l34.3 7.3-3 13.7-34.2-7.3z"/><path fill="#f3e7d3" d="M45.7 134.6l-13 62.7 24-48.5 3.4-32.2z"/><path fill="#c49e85" d="M91.6 138.8l2 3.4-43.2 27-2-3.4z"/><path fill="#34261d" d="M185.5 160.2l14.2-28.4-28.3-16.3 2.9 25z"/><circle r="1" fill="#bca585" transform="matrix(27.49099 -6.00929 2.19034 10.02027 185.9 170.1)"/><path d="M87.3 177l-4-.1 1.4-28 4 .2z"/><path fill="#d7b7a3" d="M138 87h27v41h-27z"/><path d="M25 215h8v11h-8z"/><path fill="#cff3ff" d="M4 209h20v3H4z"/><path fill="#a9aba6" d="M60.9 237.1L78.8 250l-67.3-21.3 44.6 5.5z"/><ellipse cx="75" cy="181" fill="#18120b" rx="3" ry="28"/><ellipse cx="191" cy="221" fill="#887965" rx="37" ry="27"/><path fill="#cdcccc" d="M172 64l-2 15 9 14z"/><path fill="#fff3e0" d="M124 82l45.3-40.8.7.8-45.3 40.8z"/><path fill="#735543" d="M51.1 184.1l4.7-24.9 45.7 27.8-45.3 3.2z"/><path fill="#626a65" d="M113.9 92.4L90.7 66l-44.5 71 42-73.8z"/><path fill="#839297" d="M5 251h46v5H5z"/><path fill="#fffff7" d="M91 67l43-57-49 32z"/><path d="M-5 213.7l7-.3 3 56.9-7 .3z"/><path fill="#6a462e" d="M18.5 160.3l5 .7-4 28.7-5-.7z"/><path fill="#dbbb9d" d="M123.1 212.6l1.1-28.7 6.7 36.5 4.2-42.3z"/><path fill="#fffff5" d="M11 134h37v9H11z"/><ellipse cx="5" cy="144" fill="#f0eae0" rx="15" ry="31"/><ellipse cx="84" cy="203" rx="3" ry="18"/><path fill="#c6b29f" d="M39 186l15-4-4-37z"/><path fill="#c7d2d5" d="M98 105l7-11v19z"/><path fill="#020000" d="M180 83l-3-8-2 14z"/><path fill="#070300" d="M124.1 233.5L68 216.6l44.1 20.3 2-55.3z"/><path fill="#000807" d="M49.3 233l2.4-37.2 34.1 50.6L20.2 218z"/><path fill="#a08777" d="M162 133.8l4.5-5.6 40.5-13.5-2.6 3.3z"/><path fill="#b7927f" d="M11.9 17.6l4.2-18.7L-16 52.8V7.6z"/><path fill="#1b1b18" d="M82 120l-6 8 3 17z"/><path fill="#c7a597" d="M100.3 65.8l25.2-15.4-6.8 27.9L106.5 62z"/><path fill="#655550" d="M147.9 53.4l-34.2-7.3 5.4-10.9 26.4 27z"/><path fill="#492a29" d="M162.6 187.5l-3.3-2.4-36.3 6.1 34.9.4z"/><path fill="#5c4334" d="M68 218.5l1.4-33-.1-34.3-9.3 58z"/><circle r="1" fill="#906d59" transform="matrix(-3.54537 53.31572 -2.21336 -.14718 80.3 172.6)"/><path d="M13 233h2v14h-2z"/><path fill="#36302d" d="M12 205l9-25-25 25z"/><path fill="#89999b" d="M32.3 242.5L5 218.4l26.8-13.3-9.6 16.6z"/><path fill="#d0b399" d="M194.6 112.4l-5.2-1-57.5 25.8-10.2-25.9z"/><path fill="#fff1d4" d="M32 208l2-19-6 11z"/><path fill="#d1cfd7" d="M180.4 59.1l-12.1 10.5-.7-.7 12.1-10.5z"/><path fill="#0e0e0d" d="M104.7 118.7l-11.4 12 1.7-9.5 4.2-11.5z"/><path fill="#383932" d="M31.6 212.8l4.7-22.7-1.9 37L50.3 215z"/></g></g></svg>