<svg xmlns="http://www.w3.org/2000/svg" viewBox="0 0 1067 800"><defs/><filter id="a"><feGaussianBlur stdDeviation="12"/></filter><rect width="100%" height="100%" fill="#835641"/><g filter="url(#a)"><g fill-opacity=".5" transform="translate(2 2) scale(4.16797)"><ellipse cx="97" cy="25" fill="#fff" rx="179" ry="84"/><circle r="1" fill="#fff" transform="matrix(-219.44557 18.81312 -5.45337 -63.61077 105.1 30.9)"/><circle r="1" fill="#c0e2d9" transform="matrix(4.42619 32.68054 -44.44468 6.0195 170.1 135.4)"/><circle r="1" transform="rotate(-77.6 210 -74.2) scale(83.63723 30.08175)"/><circle r="1" fill="#ddc5ae" transform="rotate(138.8 -20.9 62.2) scale(18.65119 37.17125)"/><circle r="1" fill="#edfcff" transform="matrix(-.56546 -43.96493 214.4927 -2.75874 106 36.9)"/><circle r="1" fill="#7f8e2d" transform="matrix(-5.51164 15.22575 -27.69164 -10.02423 120.3 99.6)"/><path fill="#f1ffff" d="M163 75h65v21h-65z"/><ellipse cx="89" cy="165" fill="#b0896a" rx="45" ry="44"/><circle r="1" fill="#ead9bd" transform="rotate(-60.7 221.8 -75) scale(56.96254 10.82016)"/><path fill="#575440" d="M184 103l-64 77 65-17z"/><path fill="#fbf9f9" d="M189.7 134l-3.2-28.4 36.5 27-106.6 25.3z"/><ellipse cx="239" cy="123" fill="#190b05" rx="15" ry="56"/><path fill="#132e23" d="M180 95h41v13h-41z"/><path fill="#dad7d5" d="M126.4 99.1l10.9-1.5 5.3 46.7-12.1 25z"/><path fill="#0d1814" d="M203 133h30v48h-30z"/><circle cx="211" cy="153" r="6" fill="#f7edde"/><path fill="#ffb990" d="M236.7 181.3l17.2 24.7-43-.3 19.6-23.2z"/><path fill="#d1d5cd" d="M211.6 86.1l38-5.9 4.1 8.4-1.6-3z"/><path fill="#fffffc" d="M70.7 88l19.5-4.5 5.1 22.5-19.5 4.5z"/><circle r="1" fill="#faf9ec" transform="matrix(-3.65215 -15.69417 7.86684 -1.83067 190.2 149.4)"/><path fill="#d68f66" d="M6.8 167.9l31.6 5.5L-.8 206l-2.8-80.2z"/><circle r="1" fill="#2c2f1d" transform="rotate(12.8 -693 720.6) scale(9.71945 24.83713)"/><circle r="1" fill="#62543d" transform="rotate(-121.4 61.6 45.6) scale(22.01335 24.01624)"/><circle r="1" fill="#fff" transform="rotate(81.7 -70 89.7) scale(5.78477 5.00687)"/><path fill="#8e9269" d="M174.9 96l20.5 10.9L136 119l-7.8-34.1z"/><circle cx="48" cy="52" r="47" fill="#f8f6f6"/><path fill="#9b7259" d="M7 94h23v28H7z"/><path fill="#030f0d" d="M7 157h31v8H7z"/><circle r="1" fill="#ccddea" transform="matrix(24.6967 -8.78531 22.54973 63.39031 139 28)"/><path fill="#dbdad4" d="M127.6 119.4l18.7 9.8 33.7-21.8 46 3z"/><path fill="#e1e4e7" d="M222 99L106 57l153-71z"/><path fill="#ded7cf" d="M221 125l-30-6 27 19z"/><path fill="#60583f" d="M12.9 115.7l65.4 13.2 84-15.8-66.4-7.1z"/><path fill="#e0ded8" d="M130.6 139.7l71.8 5.9-45.6 1.1-27.4 7.7z"/><path fill="#070100" d="M246.1 97.2l-38.3 85.1-84.5 23.7 102.6-17.5z"/><path fill="#090605" d="M206 115h50v8h-50z"/><path d="M-16 124l19 5 2 12z"/><path fill="#555c5c" d="M158 120l-6 44 36-55z"/><circle r="1" fill="#ce9f74" transform="rotate(-162.1 97.6 74) scale(15.00853 17.70764)"/><path fill="#f1f0f0" d="M117-16L22.2 79.8-16 130.1-9.1-2.3z"/><path fill="#2c1f1d" d="M30 106l14 4-8 48z"/><path fill="#070c07" d="M271 100l-93-3 58 18z"/><path fill="#fff" d="M190 105h8v41h-8z"/><path fill="#f7f3f8" d="M151 117h4v30h-4z"/><path fill="#9c993e" d="M104.6 82.2l-13.4 29.5 44.5-14.1 53.8 1.6z"/><path fill="#c9cab3" d="M31.2 109l-4.3 5.9L-13 85.1l-3 8.5z"/><path fill="#242c00" d="M136 155.8l11.1 3 30.2-6.5-13.7-3.3z"/><path fill="#e1dfe1" d="M124.4 110.7l-1.6-8.8 14.8-2.6 1.6 8.8z"/><path fill="#000e09" d="M10 147l2 13-13-9z"/><circle r="1" fill="#af9970" transform="matrix(-21.26354 -5.34103 .34123 -1.35848 153.9 162.6)"/><circle cx="97" cy="149" r="33" fill="#a0755b"/><path fill="#df7445" d="M47 98h26v8H47z"/><path fill="#211912" d="M198.3 140.2l40.5 21.4-5.1-22.8-31.6-5.3z"/><path fill="#bb6640" d="M36.6 206l-4.3-.7-20-36.6 22.5-6.1z"/><path fill="#8f7551" d="M200.2 181.5l-23.8-20.2 22.1 2.3-55.1 42.4z"/><path fill="#cfbf9f" d="M7 175l-22 4 15-37z"/><path fill="#dac0a7" d="M12 148h11v9H12z"/><path fill="#fffcf6" d="M131 120h4v37h-4z"/><path fill="#ebffff" d="M46.5 95.5v7h-17v-7z"/><path fill="#464b51" d="M170 134l15-20-1 23z"/><path fill="#42342a" d="M231 69h20v12h-20z"/><path fill="#695a4a" d="M269.4 56.3l-30.6 43.8 13.5-2.7L271 77.7z"/><path fill="#a59f93" d="M193.9 105.6l-36.5 9.7 30.8-25.1-6.8 30.7z"/><path fill="#000001" d="M128.8 111.4v1l-93.6 8.2v-1z"/><path fill="#91654e" d="M48 206l36-88-43 7z"/><path fill="#592211" d="M241.8 128.8l-5.5 51.7 9.8 13.8 15.9-67.9z"/><path fill="#251d18" d="M131.4 168.9l20.1 18.6 3.2-1.3-11.2 18z"/><path fill="#2f2820" d="M4.2 163.9l25.5-11.8 13.1 5.8-32.3 10.9z"/><path fill="#39281c" d="M34.8 166l5-.7 5.4 38.7-5 .7z"/><path fill="#bfb865" d="M134 94l-21-18-28 14z"/><ellipse cx="186" cy="142" fill="#fff9f2" rx="18" ry="3"/><path fill="#dee1e3" d="M207.2 13.2l-26.4 50.4 15.8 35.3 43.5-34z"/><circle r="1" fill="#0a0b05" transform="rotate(-141.1 136.2 47.2) scale(13.35241 10.71991)"/><path fill="#808e58" d="M44 109h50v6H44z"/><path fill="#926850" d="M109 116h20v34h-20z"/><path fill="#5c5046" d="M230.4 84.2L271 56l-36.9 29.3-29.6 50.6z"/><ellipse cx="131" cy="190" fill="#bdac98" rx="2" ry="39"/><ellipse cx="214" cy="111" fill="#abb6b0" rx="8" ry="3"/><path fill="#eee" d="M-16 95.9L80.9-16l45.4 87.7-45.1 21.2z"/><circle r="1" fill="#cedbe6" transform="matrix(-28.69676 -9.77332 15.54666 -45.64864 149.7 6)"/><path fill="#f5edea" d="M135 99h26v2h-26z"/><path fill="#100d03" d="M188.9 93.3l-2.5 10 8.8-1-.3-4.3z"/><path fill="#868482" d="M135 126h16v14h-16z"/><path fill="#e7e6e6" d="M146.2 92l78-22 46.8-3.7L251-16z"/><path fill="#224009" d="M187.7 169l-4.9-1.1 1.5-6.8 4.9 1z"/><path fill="#9d6249" d="M7 94l4 21 17-21z"/><path fill="#a69b8e" d="M217.5 158.5l-28.9-8.3 2-6.7 28.8 8.3z"/><path fill="#ede6e0" d="M129 118h22v7h-22z"/><path fill="#ffffd9" d="M3 105h14v2H3z"/><path fill="#fffff9" d="M25 137h6v14h-6z"/><path fill="#a9997b" d="M202.1 184.2l-9.3-4.5-8.8 13.9 19.6-20.5z"/><path fill="#755641" d="M252 186l19-7-44-2z"/><path fill="#eae6e7" d="M158 110h16v3h-16z"/><path fill="#211610" d="M144 160l-7 7-4-10z"/><path fill="#baaf9c" d="M202.7 145.5l-2-.3 4.6-28.7 2 .3z"/><path fill="#754f41" d="M13 109.4L3.1 105l-11.3-2.6 45.4 24.7z"/><path fill="#b38d6d" d="M96 186.5l-14.4-17.8 16.3-13.2 14.5 17.8z"/><path fill="#f3f5e1" d="M64 82l32 10-16 19z"/><path fill="#130906" d="M271 102l-51 38 3-39z"/></g></g></svg>