<svg xmlns="http://www.w3.org/2000/svg" viewBox="0 0 1352 900"><defs/><filter id="a"><feGaussianBlur stdDeviation="12"/></filter><rect width="100%" height="100%" fill="#5f4235"/><g filter="url(#a)"><g fill-opacity=".5" transform="translate(2.6 2.6) scale(5.28125)"><circle cx="140" cy="25" r="147" fill="#f8ffff"/><path fill="#000009" d="M125 88h46v54h-46z"/><path fill="#fff" d="M123 121.5H67v-133h56z"/><ellipse cx="201" cy="58" fill="#f8f3e9" rx="15" ry="169"/><circle r="1" fill="#76664f" transform="matrix(-18.0552 -21.76383 53.38222 -44.2857 221.5 144.4)"/><path fill="#817163" d="M6-13l97 197-106-47z"/><path fill="#1c2831" d="M128.9 46.4L114.3 28l63.8.9L167 57z"/><ellipse cx="225" cy="86" fill="#663a21" rx="7" ry="169"/><ellipse cx="27" cy="77" fill="#cacccb" rx="7" ry="164"/><path fill="#1f0600" d="M134 72h16v37h-16z"/><ellipse cx="12" cy="73" fill="#4f3b2a" rx="8" ry="161"/><ellipse cx="133" cy="14" fill="#e8d9d5" rx="74" ry="15"/><path fill="#8ab6fc" d="M163 58h16v58h-16z"/><ellipse cx="92" cy="156" fill="#b1a9a0" rx="27" ry="65"/><path fill="#5b4434" d="M42 79L17 185l53-9z"/><path fill="#000017" d="M171 143l1-40-13 31z"/><path fill="#756658" d="M97 153h90v17H97z"/><path fill="#e9e5dc" d="M132 92l-19 41-1-110z"/><path d="M169.9 102l-8.1-11.3-5.9-1.6-30.4 18.6z"/><path fill="#00000e" d="M124 113l2 30 25-9z"/><ellipse cx="192" cy="46" fill="#ece7e6" rx="7" ry="151"/><circle cx="80" cy="55" r="30" fill="#f1e3d7"/><path fill="#723713" d="M179 118h7v52h-7z"/><path fill="#341a0c" d="M216 132h16v38h-16z"/><path fill="#e0dbce" d="M232 0h11v68h-11z"/><path fill="#7286bf" d="M129.7 105.5l40 57.7-1.3-9.7-16.2-38.8z"/><path fill="#b3d6ff" d="M173 34h6v119h-6z"/><path fill="#92beff" d="M175.2 156.9l1.5-20.8-16.1 12.6-57.5-2.1z"/><circle r="1" fill="#9b9787" transform="rotate(-162.8 134 38.5) scale(15.90702 37.48629)"/><circle r="1" fill="#bdab99" transform="matrix(-9.20823 -2.83544 18.15407 -58.95623 211.4 106.3)"/><ellipse cx="118" cy="69" fill="#dcdbe0" rx="6" ry="161"/><path fill="#958c81" d="M-10 32L23 0 1 129z"/><path fill="#b9b4af" d="M148.4 81l-73.1 33.6 93.4-30.2-19.6-36.5z"/><path fill="#62564c" d="M96 143h17v27H96z"/><path fill="#081235" d="M146 139h13v8h-13z"/><path fill="#ebe6e1" d="M83 0h13v151H83z"/><path fill="#dad3cf" d="M23 33h12v63H23z"/><circle r="1" fill="#a9c5ff" transform="matrix(2.14035 3.09106 -12.05755 8.34904 136.3 147.5)"/><ellipse cx="131" cy="111" rx="3" ry="15"/><path fill="#2c1f14" d="M17.7 134.5l-13.3-25L2.7 185h18.4z"/><path fill="#444a53" d="M144 27h32l-9 43z"/><path fill="#58301a" d="M137 70h12v26h-12z"/><path fill="#00000c" d="M171 136l-22-27 21 14z"/><ellipse cx="182" cy="42" fill="#d09f80" rx="5" ry="86"/><path fill="#93acd8" d="M176 109l-29-39 25-7z"/><circle r="1" fill="#a69870" transform="matrix(.56494 -7.42185 19.56446 1.48922 143.6 53)"/><ellipse cx="220" cy="9" fill="#aa8c7c" rx="4" ry="105"/><path fill="#000006" d="M130.1 107.4l27.4-1 4.2-13.4-6.2-3.8z"/><path fill="#8086a8" d="M133.2 123.8l.2-17.3 15.4 3.9 6.1 12.3z"/><path fill="#b9a96c" d="M124 43l1 67 13-44z"/><path fill="#918e88" d="M20 103h14v55H20z"/><path fill="#ccbbab" d="M66 80h15v56H66z"/><path fill="#4c4d47" d="M124 28h15v24h-15z"/><path fill="#c5beb3" d="M233 0h13v113h-13z"/><path fill="#7b5d48" d="M213 80l5-11 23 5z"/><ellipse cx="111" cy="125" fill="#726862" rx="1" ry="161"/><path fill="#e6dddd" d="M105 30.5l98-5-4.9 47.9-30.2-57.8z"/><ellipse cx="39" cy="17" fill="#a07e6e" rx="5" ry="83"/><path fill="#7b86a7" d="M172 110l-11.9-67.3 8.7 77.7-17.4-12.3z"/><circle r="1" fill="#979387" transform="matrix(-9.06922 20.61623 -12.38807 -5.4496 200.4 167.5)"/><circle r="1" fill="#c0aca5" transform="matrix(-3.14917 -65.39143 8.28964 -.39922 56.8 22.7)"/><path fill="#000004" d="M124.8 130l8.8-6.7 9.6 12.8-8.8 6.6z"/><path fill="#d8cfc0" d="M203 55h13v83h-13z"/><path fill="#3d507f" d="M134 123h25v8h-25z"/><path fill="#af8977" d="M155.7 88.3l-4 1.6-6.9 8.6-2.6-23.4z"/><path fill="#e7dfd8" d="M66 11h57v37H66z"/><path fill="#a69c8a" d="M119 158h52v12h-52z"/><path fill="#847062" d="M20.2 58.6l-19-29 26 3.6-10-45.2z"/><path fill="#6d5f4a" d="M120 154h45v4h-45z"/><path fill="#837c74" d="M96 6h1v148h-1z"/><ellipse cx="1" cy="60" fill="#aba9a5" rx="3" ry="58"/><circle r="1" fill="#5c90dd" transform="matrix(.71342 16.94384 -2.70789 .11402 174.2 137)"/><path fill="#443022" d="M35 138l47 47H34z"/><circle r="1" fill="#6b4c41" transform="matrix(-3.4802 1.43955 -1.47073 -3.55559 60 23.5)"/><path fill="#6b503b" d="M4 66h15v54H4z"/><path fill="#b7ccf7" d="M168.7 146.8l-42.6 6.8 36.4-.5 11.7 4.6z"/><ellipse cx="249" cy="63" fill="#938a79" rx="4" ry="74"/><ellipse cx="228" fill="#33221e" rx="3" ry="16"/><path fill="#696357" d="M79 129h3v41h-3z"/><path fill="#6e594c" d="M35.1 122l29.7 14.8.9 13.2-13.2 12z"/><path fill="#9f877b" d="M50 86h15v51H50z"/><path fill="#c8b1aa" d="M121 0h58v24h-58z"/><circle cx="163" cy="132" r="6"/><circle r="1" fill="#b4aea7" transform="rotate(-100.1 106 37.5) scale(37.70474 5.47347)"/><path fill="#cdc1a6" d="M117.7 92.1l33.2-45.9 6.3 32.6-15.5-10.9z"/><path fill="#090b06" d="M133.5 76.5l13.3-.6.2 2.5-1.8-8.8z"/><path fill="#ebe6e4" d="M102.5 64h-21V-36h21z"/><path fill="#8f6951" d="M34 72h17v45H34z"/><path fill="#6b3c20" d="M175.6 167.2l-1.5-11.1 10.2-7.5-7.1 36.4z"/><path fill="#2d2b25" d="M154 41l8 8 12-19z"/><ellipse cx="177" cy="47" fill="#e7e6f8" rx="2" ry="24"/><path fill="#f0eae4" d="M190.3 97l-7.2-42.8 16.8-40.7 1 59.1z"/><path fill="#bba192" d="M178 0h9v67h-9z"/><circle r="1" fill="#646758" transform="rotate(-138.3 156.7 28) scale(14.13133 28.91679)"/><ellipse cx="124" cy="116" fill="#808eab" rx="1" ry="68"/><path fill="#b6aea1" d="M193 114h25v26h-25z"/><path fill="#c4afa2" d="M104 78h7v51h-7z"/><path fill="#dbd4ce" d="M204 18h14v42h-14z"/><path fill="#b08668" d="M179 99h8v26h-8z"/><path fill="#593a26" d="M216 150l15-47-1 58z"/></g></g></svg>