<svg xmlns="http://www.w3.org/2000/svg" viewBox="0 0 1400 893"><defs/><filter id="a"><feGaussianBlur stdDeviation="12"/></filter><rect width="100%" height="100%" fill="#343d45"/><g filter="url(#a)"><g fill-opacity=".5" transform="translate(2.7 2.7) scale(5.46875)"><circle cx="152" cy="47" r="201" fill="#fffffa"/><circle r="1" fill="#fff" transform="matrix(-96.52758 5.74157 -1.93709 -32.56644 175 0)"/><path fill="#e5e1c3" d="M47 50l167 78-2-105z"/><circle r="1" fill="#416d8f" transform="rotate(71.9 -43.6 66.5) scale(77.27339 34.66422)"/><path fill="#5d3500" d="M155 124h48v24h-48z"/><ellipse cx="146" cy="81" fill="#b69b70" rx="25" ry="67"/><path fill="#efddd0" d="M20 170l-36 7L24 49z"/><ellipse cx="98" cy="143" fill="#75644e" rx="17" ry="50"/><path fill="#000a04" d="M40 20l41 5L50 4z"/><path fill="#3f2f21" d="M14.5 87h-29V11h29z"/><circle r="1" fill="#faffff" transform="matrix(5.5315 19.3788 -46.48849 13.26973 198.2 7.6)"/><ellipse cx="233" cy="82" fill="#ab8c54" rx="20" ry="66"/><path fill="#4191ce" d="M36 44h35v97H36z"/><path fill="azure" d="M201 0h13v123h-13z"/><path fill="#fff" d="M38.8 19.5L18 17.3l3.3-30.8L42-11.3z"/><path d="M78 144h129v3H78z"/><circle cx="31" cy="110" r="9" fill="#000105"/><path fill="#886b4c" d="M155.7 31l13.4-2.3-.2 32.1-2.7 92.3z"/><path fill="#725332" d="M79 28h50v13H79z"/><path fill="#e0eade" d="M76 46l49-9-47 69z"/><path fill="#745735" d="M217 21h9v131h-9z"/><path fill="#e5eadb" d="M109.2 44.6l12-.2 1.6 93-12 .2z"/><path fill="#fff" d="M271 163l-22-37 6-51z"/><ellipse cx="18" cy="64" fill="#efe1c2" rx="4" ry="45"/><path fill="#463722" d="M22 39h53v6H22z"/><circle r="1" fill="#424550" transform="matrix(9.12018 -1.44397 3.61069 22.80533 6.2 93.3)"/><path fill="#c6c3a8" d="M224.6 135.8l1.8-104 17 .4-1.8 104z"/><ellipse cx="148" cy="113" fill="#d0d2c2" rx="5" ry="162"/><path fill="#cdd9cf" d="M168 39h30v84h-30z"/><path fill="#050401" d="M198 68h2v43h-2z"/><circle r="1" fill="#432519" transform="rotate(-133.3 73.1 32) scale(7.07178 12.34695)"/><path fill="#e2e6e9" d="M40 27h38v12H40z"/><ellipse cx="101" cy="130" fill="#b8a27d" rx="31" ry="14"/><path fill="#7b5734" d="M243 18h7v126h-7z"/><path fill="#956a3e" d="M20.6 23.6L38.2 20l5.2 24.5L25.8 48z"/><circle r="1" fill="#619bc7" transform="matrix(1.20024 33.4034 -23.78607 .85467 46.3 78.1)"/><path fill="#447397" d="M31 109.4l16.7 31.4 19.2 2.7L54 79z"/><path fill="#eafaff" d="M157 0h99v17h-99z"/><path fill="#d7dde5" d="M145 32L80 2l1 20z"/><path fill="#fff" d="M143.8 154.1l39.8 10-1.4 5.8-39.8-10z"/><ellipse cx="70" cy="151" fill="#5d6562" rx="55" ry="4"/><path d="M100 89l-1-12-3 2z"/><path fill="#000102" d="M14.5-2v12h-5V-2z"/><ellipse cy="47" fill="#d2deea" rx="3" ry="19"/><path fill="#e1ecee" d="M0 121h15v42H0z"/><path fill="#9eaec4" d="M79 153h37v10H79z"/><path fill="#e1edfb" d="M267.9 8.5l-99-24.5 43.6 98.2-1.2-56.4z"/><path fill="#fff" d="M-8.8 9.7l.7-20 17 .6-.8 20z"/><path fill="#3d392b" d="M263.6 154.7l-22-13.8 4.8-7.6 22 13.8z"/><path fill="#23291e" d="M78 142.5h52v5H78z"/><path fill="#bfc7d1" d="M152 34l11-50L45-2z"/><path fill="#c9af8a" d="M72 38h7v94h-7z"/><ellipse cx="45" cy="146" fill="#d2c7ba" rx="26" ry="3"/><path fill="#ebfdff" d="M252 11h4v30h-4z"/><path fill="#987243" d="M123 35h4v101h-4z"/><path fill="#7d8049" d="M249 59.5l22 53-11.1-35.7-9.7-65z"/><path fill="#ccc6aa" d="M127.8 69.8l11 .4-2.6 72-11-.4z"/><path fill="#44514e" d="M41 2l37 10-36 8z"/><path fill="#00051b" d="M4.9 75.2l7.3 8.2-17 15.4-7.4-8.2z"/><path fill="#7f6a47" d="M214 23h9v43h-9z"/><path fill="#aea4ae" d="M-16 85l55 45-21 5z"/><path fill="#9d988a" d="M6 26h6v37H6z"/><path fill="#bab0aa" d="M101 115h5v36h-5z"/><path fill="#e6eceb" d="M249 95h7v40h-7z"/><path fill="#a8906c" d="M137 36h9v110h-9z"/><path fill="#000104" d="M68 40l-18 3-9-6z"/><path fill="#d7e2d8" d="M92.7 142.7l-3.6 9.3-1.8-.7 3.6-9.3z"/><path fill="#747e7b" d="M143 148h113v5H143z"/><path fill="#71a0ca" d="M23 46h49v27H23z"/><path d="M20 112l7 7 11-2z"/><path fill="#7c6b58" d="M20 19h20v30H20z"/><path fill="#58544b" d="M33.2 156l18.5.6-23.9-20.3 11.3 22.4z"/><ellipse cx="17" cy="29" fill="#dcdfd8" rx="2" ry="71"/><ellipse cy="17" fill="#0f2137" rx="9" ry="8"/><path fill="#061414" d="M91 150l9-11 1 12z"/><path fill="#c83351" d="M16 126h3v19h-3z"/><ellipse cx="95" cy="113" fill="#370000" rx="8" ry="3"/><path fill="#b39c7b" d="M153 36h9v107h-9z"/><path fill="#c3c5af" d="M87.3 99.8l8.2-13.1-22.1-23 8.5 81.9z"/><path fill="#3f403e" d="M199 72h2v42h-2z"/><path fill="#d4dfde" d="M121.8 124.4l.2-28.2-.3-61.4-22.1 24.6z"/><path fill="#4a5147" d="M26 150l-2 9-9-10z"/><path fill="#cac09c" d="M214.7 129l-7.8-7.8L202 140l13.2 17.9z"/><path fill="#b9a089" d="M71 104.3l11.5-1.2 10.3 8.5 14.5-5.8z"/><path fill="#6c5a45" d="M82 26h12v17H82z"/><ellipse cx="78" cy="4" fill="#000c17" rx="1" ry="21"/><path fill="#7a5e40" d="M163 33h6v23h-6z"/><path fill="#0d1a24" d="M3.6 67.5h-1l1.8-53h1z"/><path fill="#d6e7f2" d="M78-6L54 11l21-5z"/><path fill="#f2fbff" d="M157 0h34v29h-34z"/><path fill="#e7f0e6" d="M168 117h33v6h-33z"/><path fill="#efeffa" d="M89 115h5v5h-5z"/><path d="M24.8 110.1l-1-2.8 9.4-3.4 1 2.8z"/><path fill="#697176" d="M49 124l-31 28 22-43z"/><path fill="#c5ced2" d="M49 24l-7-1-2 26z"/><path fill="#61492d" d="M244 18h8v14h-8z"/><circle cx="250" cy="161" r="5" fill="#e6ebe7"/><path fill="#ced1d4" d="M81.8 24.9l-4.3-37.2 38.6-3.7 30.3 48.3z"/><path fill="#8d6630" d="M74 127h5v16h-5z"/><path fill="#7aa6cc" d="M51 55l-36-5 62-9z"/></g></g></svg>