<svg xmlns="http://www.w3.org/2000/svg" viewBox="0 0 1352 900"><defs/><filter id="a"><feGaussianBlur stdDeviation="12"/></filter><rect width="100%" height="100%" fill="#4b3527"/><g filter="url(#a)"><g fill-opacity=".5" transform="translate(2.6 2.6) scale(5.28125)"><circle r="1" fill="#cbddf5" transform="matrix(-37.61957 75.33713 -226.7108 -113.20796 164.6 67.3)"/><circle r="1" fill="#ffffba" transform="rotate(-63.4 87.5 -14) scale(67.32022 20.37163)"/><circle r="1" fill="#2d1915" transform="matrix(34.79268 28.33302 -19.41424 23.8405 110.6 110)"/><circle cx="134" cy="38" r="42" fill="#f0e3b5"/><circle r="1" fill="#334263" transform="matrix(23.30868 2.05345 -12.74052 144.61715 11.4 128.4)"/><circle r="1" fill="#3154af" transform="matrix(-72.54279 -5.32721 3.2547 -44.32054 247.4 43)"/><circle r="1" fill="#a0aade" transform="matrix(-7.79818 59.23309 -32.64995 -4.29845 198.3 89)"/><circle r="1" fill="#36375d" transform="rotate(-59.8 268 -125.9) scale(163.20979 30.35692)"/><ellipse cx="223" cy="17" fill="#00021d" rx="45" ry="7"/><path fill="#100000" d="M86 48h19v18H86z"/><circle r="1" fill="#ac9c78" transform="matrix(9.87401 104.76126 -18.98565 1.78944 161.4 138.4)"/><circle r="1" fill="#d7faff" transform="rotate(-12.2 99.3 -928) scale(32.7601 11.01384)"/><path fill="#ffd" d="M101 10L38 60l90-22z"/><path fill="#ffd" d="M136 97l-29-28-1-56z"/><circle r="1" fill="#8c8286" transform="rotate(132.5 -.6 67.2) scale(13.67885 39.14615)"/><ellipse cx="3" cy="18" fill="#c0efff" rx="5" ry="20"/><path fill="#fff5b4" d="M50 36h38v43H50z"/><circle r="1" fill="#645c59" transform="matrix(-10.32936 2.54798 -17.68345 -71.68777 28 110)"/><path fill="#0a1937" d="M201.5 8.9L271-4.9l-18 21.1L175 27z"/><path fill="#78727d" d="M47 160h168v10H47z"/><circle r="1" fill="#002" transform="matrix(-.1277 -9.1453 37.85167 -.52854 86.9 151.2)"/><ellipse cx="6" cy="115" fill="#1c3b75" rx="12" ry="79"/><path fill="#90855a" d="M158 124L136 11l-17 121z"/><circle r="1" fill="#37283d" transform="matrix(11.82164 -39.53692 11.44567 3.42229 106.3 115.6)"/><circle r="1" fill="#6c5d55" transform="rotate(168.6 24.9 2.8) scale(45.03088 30.80848)"/><path fill="#2d2011" d="M9 0h8v61H9z"/><path fill="#341e07" d="M102.1 50.1L83.4 68.7l5.1-16.6 6.1-9.1z"/><path fill="#241b14" d="M63 166l81-19 10-30z"/><ellipse cx="138" cy="7" fill="#998fa7" rx="38" ry="20"/><circle r="1" fill="#677fbd" transform="matrix(-15.1649 -16.88454 31.74974 -28.51612 214.6 50.4)"/><path fill="#6080c7" d="M8 124L5 71l-21 20z"/><path fill="#bddfff" d="M189.8 13.9l-15.9 2.6L191.4-16l60 11.1z"/><ellipse cx="185" cy="115" fill="#b9bce1" rx="9" ry="41"/><ellipse cx="44" cy="82" fill="#d3bb96" rx="10" ry="30"/><ellipse cx="171" cy="62" fill="#b3a1a2" rx="9" ry="76"/><path fill="#ffffe9" d="M110 23l17 36-52-26z"/><path fill="#ede384" d="M145.3 41.3l8-.5 3.4 64-8 .4z"/><circle r="1" fill="#6b5d58" transform="matrix(-3.24911 -17.78025 2.97387 -.54344 158 47)"/><circle cy="50" r="13" fill="#362608"/><path fill="#a59ea9" d="M161.2 115.6l1.5 55.5-13.5 6.3-5.3-25.5z"/><path fill="#f8f1bf" d="M102.3 74.6L112.8 22l2.3-2.3 21.9 53z"/><path fill="#958b84" d="M132 147l-21 16 10 22z"/><circle r="1" fill="#a2beff" transform="matrix(-5.25135 -31.04787 4.47905 -.75758 2.1 8.4)"/><ellipse cx="251" cy="71" fill="#5d6999" rx="26" ry="57"/><path fill="#685743" d="M74 0l50 23-43-39z"/><path fill="#583522" d="M90 46h12v38H90z"/><circle r="1" fill="#000d2c" transform="matrix(10.40022 3.01723 -5.96702 20.56798 14.4 169)"/><circle r="1" fill="#393748" transform="matrix(-11.29182 -9.74683 32.99967 -38.2305 250.9 162.7)"/><path fill="#111226" d="M196 73h3v33h-3z"/><ellipse cx="160" cy="83" fill="#473636" rx="2" ry="34"/><ellipse cx="175" cy="145" fill="#6f5849" rx="2" ry="169"/><circle r="1" fill="#2a283d" transform="rotate(91.6 76.5 113.3) scale(27.53143 1.36332)"/><path fill="#01001d" d="M94.1 119.7l-16.5-6.9L89 133.9l20-16.4z"/><path fill="#785d65" d="M90.4 151.1l-6.5-12.6 60.1-20.7-42.7 27.6z"/><circle r="1" fill="#d7c893" transform="matrix(7.85232 5.76501 -14.83468 20.2058 61.3 40.6)"/><path fill="#ad9f9f" d="M38 101h7v43h-7z"/><path fill="#6c6047" d="M146 20l10 13-41-14z"/><path fill="#b7b058" d="M57.6 115.4l1.9-22 13 1.2-2 22z"/><circle r="1" fill="#7e7e9d" transform="rotate(-57.2 230.2 -145.6) scale(38.59179 16.352)"/><ellipse cx="170" cy="73" fill="#c7c0c0" rx="5" ry="50"/><path fill="#7c6b5b" d="M20 109l-5-94 32 24z"/><ellipse cx="129" cy="33" fill="#dbd07b" rx="20" ry="9"/><circle r="1" fill="#96919d" transform="rotate(-48.6 38.8 -64.8) scale(34.89533 8.51804)"/><path fill="#413d6b" d="M71 90h34v29H71z"/><path fill="#16121f" d="M101 158.3L93 171l-50-31.3 8-12.7z"/><path fill="#000002" d="M7 86h5v42H7z"/><path fill="#878274" d="M115.2 118.1L143.1 45l5.8 58.7 16.6-19.4z"/><path fill="#b9deff" d="M10 62.3L7.8 69 4 67.7 6.2 61z"/><path fill="#fffec8" d="M77.7 47.7l11.8 26.5-9.2 4-11.8-26.4z"/><circle r="1" fill="#6785cb" transform="rotate(-105 128.7 -96.2) scale(2.08093 33.96304)"/><circle r="1" fill="#536cab" transform="matrix(-2.2949 .27771 -3.42063 -28.2666 11.7 85.3)"/><path fill="#bcb8ce" d="M160-16L126 9l41 26z"/><path fill="#431e01" d="M71 103h6v27h-6z"/><path fill="#473e37" d="M5.6.4l2.3 18.9 8.4 81.9L21.9-16z"/><path fill="#603a2d" d="M126.9 146.2l-.4 22.8 18.3 9.8.6-29.5z"/><path fill="#a2a7cd" d="M179 132l27-45 41 10z"/><path fill="#fffff6" d="M6.9 49.5l-13.9-2 .1-1 13.9 2z"/><path fill="#132247" d="M213.9 21.9l-32.7 6.7-4.8-10.5 52.6-16z"/><circle cx="96" cy="62" r="9" fill="#8b6a59"/><path fill="#85744e" d="M94.4 3.8l.4 21.4L71.3 9.4l5.6.6z"/><path fill="#0a100b" d="M88.7 54.8l17.3-.3-1.7-6.1-15-1.3z"/><circle r="1" fill="#f3efba" transform="matrix(-10.51067 -20.47956 6.20888 -3.18657 107.7 29.6)"/><path fill="#fff" d="M121.7 66l-16 10.3.6-21.4-3.1-22.5z"/><circle r="1" fill="#585245" transform="matrix(-4.95502 -1.40018 4.62352 -16.36195 140.1 99.9)"/><path fill="#a699a6" d="M110.1 70.4L98.7 84.1l-7.6 6.1 10.3-1.3z"/><path fill="#c1d5f6" d="M189.5 51v8h-13v-8z"/><path fill="#faf3b0" d="M59 51h12v46H59z"/><path fill="#95ade9" d="M178 32h6v76h-6z"/><ellipse cx="127" cy="62" fill="#d3c78d" rx="5" ry="36"/><path fill="#fff" d="M71 37l33-7 9 18z"/><path fill="#bda1c8" d="M127.7 129l-5.6-10.7 6.2-3.2 5.6 10.6z"/><path fill="#857696" d="M59 125h15v13H59z"/><path fill="#3c282b" d="M88.9 180.5l7.5-34.6 34.7-3.2-23.7-47z"/><path fill="#55493e" d="M63 18.3L44.9 46.4l-12.8 16 15.2-26.1z"/><path fill="#9791ab" d="M177 142h17v28h-17z"/><path fill="#505661" d="M33 140h18v30H33z"/><path fill="#746558" d="M163.9 92.6l-10.3 18.6-27 53.8 32.7-41.1z"/><path fill="#4f618f" d="M212 69h44v15h-44z"/><path fill="#e5de9a" d="M148 46h9v36h-9z"/><path fill="#000722" d="M244.9 4l-52.4 11.6 55.1-18.5L271-.3z"/></g></g></svg>