<svg xmlns="http://www.w3.org/2000/svg" viewBox="0 0 900 600"><defs/><filter id="a"><feGaussianBlur stdDeviation="12"/></filter><rect width="100%" height="100%" fill="#38472b"/><g filter="url(#a)"><g fill-opacity=".5" transform="translate(1.8 1.8) scale(3.51563)"><circle r="1" fill="#fffff6" transform="rotate(-2.4 628.7 -1894) scale(174.87621 37.63859)"/><ellipse cx="42" cy="46" fill="#ffffe7" rx="104" ry="12"/><ellipse cx="229" cy="91" fill="#07000c" rx="104" ry="19"/><circle r="1" fill="#fff6bf" transform="matrix(-.3402 -10.66832 29.05334 -.9265 193 40.8)"/><circle r="1" fill="#666468" transform="matrix(-175.23137 24.19523 -4.05532 -29.37022 177 169)"/><circle r="1" fill="#69656c" transform="rotate(-93.1 107.8 -42.7) scale(14.322 94.46128)"/><circle r="1" fill="#736d57" transform="matrix(-3.63016 -18.5031 99.89956 -19.59951 225.2 0)"/><ellipse cx="43" cy="104" fill="#63745b" rx="112" ry="10"/><ellipse cx="161" cy="58" fill="#2d1d15" rx="21" ry="13"/><circle r="1" fill="#141b14" transform="matrix(108.95512 -12.8213 1.3829 11.75191 78 141.6)"/><ellipse cx="18" cy="74" fill="#90b1bd" rx="169" ry="2"/><path fill="#96a5a6" d="M271 29v23l-69 19z"/><path fill="#0b0c15" d="M104.5 98.4l7.6-12.7-55.7-13.4L12.9 86z"/><ellipse cx="42" cy="44" fill="#faeac5" rx="71" ry="15"/><circle r="1" fill="#75878e" transform="rotate(-29.1 279 -101.4) scale(3.45256 28.79111)"/><path fill="#2e79aa" d="M109.3 112.4l10.2 17.8-5.4 5.4L84 95.9z"/><circle r="1" fill="#b9bca3" transform="rotate(175.2 22.9 14.1) scale(38.97433 14.19105)"/><path fill="#fffcd6" d="M207 28l-3 21-41-4z"/><ellipse cx="250" cy="89" fill="#12080d" rx="45" ry="27"/><circle r="1" fill="#a28447" transform="matrix(49.58963 17.10799 -.86556 2.50893 148.7 111.8)"/><path fill="#7c8e8c" d="M147 72l36 7 46-22z"/><path fill="#8b8466" d="M140.4 24.3l-2 19.9-42.8-4.5 2-19.9z"/><path fill="#8d9382" d="M27 92l-28 20-15-21z"/><circle r="1" fill="#dfbb8c" transform="rotate(179.3 95 15.1) scale(29.1398 6.86178)"/><path fill="#72786a" d="M141 0l113-14 17 35z"/><circle r="1" fill="#292934" transform="matrix(-42.8381 16.12322 -2.03363 -5.4032 217.7 50.7)"/><path fill="#494947" d="M181.5 79.7l4 8.7 77.6 56.9-89.4-35.3z"/><path fill="#303738" d="M104 57h52v13h-52z"/><path fill="#fed89d" d="M147.3 34.8L145 54.5l-22.6-3.2 57.8-11.1z"/><path fill="#2d3140" d="M272.2 9.7l3.3 5-49.7 33.6-3.3-5z"/><path fill="#695852" d="M-.8 55.5l52.6 23.2-20.6-25.6-42.1 43.6z"/><path fill="#394f11" d="M17 94h49v14H17z"/><path fill="#100b0d" d="M200 73l-82 7 24 17z"/><path fill="#7b999a" d="M67 71h82v5H67z"/><circle r="1" fill="#464d43" transform="rotate(-143.7 70 -10) scale(3.7791 12.27069)"/><path fill="#6f7b6c" d="M55 10L10.2-8l74.3-7.8 1.1 20.2z"/><path fill="#3a4339" d="M45.7 70.9L58 55l10.3 8L56 79z"/><path fill="#fff4d3" d="M84 34.5L96.1 48l-52 14.6-18-7.4z"/><ellipse cx="119" cy="106" fill="#96aebc" rx="1" ry="31"/><circle r="1" fill="#f9f1d6" transform="matrix(-7.5635 8.63637 -12.92316 -11.31776 13.8 46.6)"/><path fill="#141d0d" d="M123 119h39v20h-39z"/><path fill="#b4b8a1" d="M99 19L-16 3l56 43z"/><circle r="1" fill="#141818" transform="matrix(85.65223 -1.81276 .08914 4.21161 43.5 83.2)"/><circle r="1" fill="#b3baa3" transform="matrix(-.55469 8.59825 -22.69127 -1.46385 119.6 7.4)"/><path fill="#46301f" d="M146 47h31v12h-31z"/><path fill="#302b2b" d="M271 148l-47.7-86.3 14.8 36.7-34.9 9z"/><path fill="#738588" d="M82 104.9l25.2-2.4-23.6 11.3-23.1-6.6z"/><path fill="#020017" d="M99.8 111.5L93 122.6l-6.9-4 6.7-11.2z"/><path fill="#b49d79" d="M220 44l41-30-62 2z"/><ellipse cx="182" cy="32" fill="#372c1e" rx="1" ry="22"/><path fill="#585b50" d="M120.3 114l2.5-74.6-16 67.5 22.4-29.6z"/><ellipse cx="33" cy="144" fill="#232e13" rx="49" ry="17"/><path fill="#405460" d="M158.6 80.9l-.4 8 2.9 12.1-8.8-1.4z"/><path fill="#15151e" d="M231.2 131l-64 .1-3.8 9.8 27.4-4z"/><path fill="#0055a4" d="M41 107h11v7H41z"/><ellipse cx="83" cy="169" fill="#555b51" rx="133" ry="6"/><path fill="#090407" d="M200 88h31v20h-31z"/><path fill="#fff" d="M186 49l-2-13 16 3z"/><path fill="#fde3b0" d="M6 53h19v9H6z"/><path fill="#100e0e" d="M241.2 109.6L271 49.2l-31.9 15.1 31.9 65.4z"/><path fill="#43551f" d="M-12.2 119.2l44-21.5 12.4 25.1-44 21.5z"/><path fill="#6e7f88" d="M75 77l6-8 13 11z"/><circle r="1" fill="#2e3920" transform="rotate(-29.9 285.3 -61.3) scale(19.56893 15.55207)"/><ellipse cx="80" cy="94" fill="#303d25" rx="31" ry="6"/><circle cx="253" cy="165" r="16" fill="#323733"/><circle r="1" fill="#6f8792" transform="matrix(-2.1329 .7472 -4.9524 -14.13656 90 132.4)"/><path fill="#695850" d="M104.1 117.1l14.4 16.2-14.7-2.5-8.8-22.6z"/><path fill="#f9d9a4" d="M125 42h45v4h-45z"/><circle r="1" fill="#7e8367" transform="matrix(-2.40246 -1.38605 2.9591 -5.12905 195.1 99.4)"/><path fill="#575e56" d="M84.1 40.5l2.7 30.9h-1l-2.6-30.8z"/><path fill="#d9be94" d="M198.6 50.6l6.2-.7 22.6-16.7-18.4-12z"/><path fill="#0072b3" d="M104 106l-6 2 17 16z"/><path d="M185 90h6v17h-6z"/><path fill="#364443" d="M35.2 68.6l60.6-5.9 7.4-10.4 2.6 19.3z"/><path fill="#bda278" d="M138 28h32v15h-32z"/><path fill="#272e01" d="M115.7 111.8l-4.4 4.1-11-11.7 4.4-4.1z"/><ellipse cx="153" cy="55" fill="#4b433b" rx="9" ry="11"/><path fill="#3b4023" d="M82 115l-23-10 36 41z"/><path fill="#ce9a1b" d="M110 98.5v3h-10v-3z"/><path fill="#fffff2" d="M73 33L62 44l40 2z"/><circle r="1" fill="#586053" transform="rotate(165.1 72.4 93.4) scale(48.94473 24.13316)"/><circle cy="56" r="5" fill="#717054"/><path fill="#007ec1" d="M94 104.5l-10.6-3 .6-2 10.6 3z"/><path fill="#838894" d="M151 98l-15 4-3 7z"/><path fill="#334033" d="M26 58h12v3H26z"/><path fill="#c79913" d="M149.8 112.5l.4-1 52 18-.4 1z"/><path fill="#a5a88f" d="M29 28h84v8H29z"/><path fill="#2a2821" d="M239 64l-68 14 35 13z"/><path fill="#7d9499" d="M0 74h50v3H0z"/><path d="M164 85h13v13h-13z"/><path fill="#72827b" d="M193.4 72.5l-44.5 2.6 90.6-22.9-11.4 15.7z"/><circle r="1" fill="#5f6e93" transform="matrix(-.3371 .94147 -21.12812 -7.56496 177.4 124.1)"/><path fill="#797a6a" d="M271 7l-54 17 12-40z"/><path fill="#353a38" d="M227.8 39.2l-53.7 27.9L232.3 53l32.8-36.7z"/><circle r="1" fill="#b6c8cc" transform="matrix(5.9563 3.9233 -.55007 .83512 74.1 107.5)"/><circle cx="137" cy="17" r="4" fill="#1c2421"/><path fill="#5e6e77" d="M17 66h2v35h-2z"/><path fill="#657779" d="M89 74.3l23.2-2.8 14.7 11 58-15.1z"/><path fill="#130c0e" d="M126 80h24v20h-24z"/><path fill="#fff" d="M174 45l2-10h6z"/></g></g></svg>