<svg xmlns="http://www.w3.org/2000/svg" viewBox="0 0 1250 938"><defs/><filter id="a"><feGaussianBlur stdDeviation="12"/></filter><rect width="100%" height="100%" fill="#293744"/><g filter="url(#a)"><g fill-opacity=".5" transform="translate(2.4 2.4) scale(4.88281)"><circle r="1" fill="#effad5" transform="matrix(-209.32911 -17.57786 12.2595 -145.99454 105.4 95.8)"/><circle r="1" fill="#fff" transform="matrix(-85.01607 53.38188 -5.61324 -8.93966 36.7 51.9)"/><circle r="1" fill="#15274c" transform="matrix(5.88249 -10.02645 79.605 46.70397 242.3 33.4)"/><circle r="1" fill="#796751" transform="matrix(77.07061 17.5704 -8.34376 36.59899 58.3 127.3)"/><circle r="1" fill="#d5cac8" transform="matrix(-2.08999 22.6356 -40.87374 -3.77395 49.1 184.5)"/><circle r="1" fill="#a8bcce" transform="matrix(-42.1187 -5.51432 3.59439 -27.45417 212.1 69.3)"/><ellipse cx="214" cy="191" fill="#dacdd2" rx="46" ry="25"/><path fill="#1a363b" d="M224.8 137l46.3 8.2-3.9 21.7-46.3-8.1z"/><path fill="#001540" d="M88 144h12v48H88z"/><circle r="1" fill="#b48236" transform="matrix(25.0066 -34.1976 20.43203 14.94069 25.4 108.4)"/><circle r="1" fill="#6fbf4d" transform="matrix(11.64388 24.15656 -94.07593 45.34623 25.7 15.8)"/><path fill="#4c4a62" d="M194.8 100.1l-18.3 21.1L131.2 82l18.3-21.1z"/><circle r="1" fill="#eff" transform="matrix(-78.47162 -33.89178 2.07074 -4.7945 240.5 12)"/><path fill="#3d626d" d="M179 154l-121 7 6-45z"/><ellipse cx="130" cy="164" fill="#b1d2ff" rx="28" ry="9"/><circle r="1" fill="#13172e" transform="matrix(-13.48007 -6.42397 3.41246 -7.16071 247.4 99.8)"/><ellipse cx="121" cy="58" fill="#b0bc9d" rx="20" ry="87"/><circle r="1" fill="#53a34b" transform="matrix(3.61774 -7.81705 49.1858 22.76321 173.4 26.3)"/><path fill="#d2d4dc" d="M155.1 168.6l9.8-46.1 28.8 4.6-23.1 21.2z"/><path fill="#f5ffff" d="M171.8 53.9l26.6-11.3 7.6 3.5 8.1 16.4z"/><path fill="#304686" d="M132.4 177.3l5.3 11.9 32.5-8.4-6.8-20.5z"/><path fill="#c2b7a0" d="M62.2 114.7l-9.9 42.9-18.5-4.3 9.9-42.9z"/><path fill="#dbeaff" d="M244 143l-6-39-11 20z"/><path fill="#b9adb3" d="M88 105h81v17H88z"/><path fill="#384963" d="M65 92l33.1 27.9 5.4-33.1-43.4 71.6z"/><path fill="#5ea150" d="M100 60L9 83l61-42z"/><circle r="1" fill="#3b5d57" transform="rotate(133.3 95.8 118.6) scale(4.52028 17.3366)"/><circle r="1" fill="#7ebe60" transform="matrix(-2.9463 -13.75302 31.81441 -6.81556 134.7 18.4)"/><path fill="#717d8f" d="M222.8 98l-16.6-7 25-59 16.6 7z"/><ellipse cx="219" cy="137" fill="#54635f" rx="18" ry="9"/><path fill="#beafc9" d="M107.5 126l-19.6 8.1 3.2 11.7 16.2-70.4z"/><circle r="1" fill="#b5c4c2" transform="matrix(-15.38508 -16.54359 7.35347 -6.83853 148 46.8)"/><path fill="#dcedeb" d="M-3 73.2l-4.7-8.8L161-25.2l4.7 8.8z"/><path fill="#000027" d="M98 64L83 53l11-2z"/><path fill="#8a9ec7" d="M99 167h38v25H99z"/><path fill="#4f5c5c" d="M239 183l32-39-16-63z"/><path fill="#60696e" d="M50.8 144.7l1.9-16 2.5 37.8-17.2 9.2z"/><circle r="1" fill="#1e3148" transform="matrix(1.42494 -7.11791 19.7235 3.94847 225.2 19.6)"/><path fill="#03182e" d="M170.8 78.8l-6.6 9.8 19.9 4.9-9.7-12.2z"/><circle r="1" fill="#000a32" transform="matrix(-7.43827 16.70592 -.91354 -.40675 74.5 86.8)"/><path fill="#c0e2ff" d="M259 159l-6 42-26 6z"/><path fill="#555669" d="M186.2 164.4l-9.3-32.4-8.2 59.7-18.8-27.6z"/><path fill="#1a2a4f" d="M137.7 140.2l1.3 14.9-13.8 3.2 29.7-2.1z"/><path fill="#cad8e1" d="M73 117h21v6H73z"/><path fill="#c0cadc" d="M252 116l-40 19 36-31z"/><path fill="#dee2e3" d="M97 65h45v6H97z"/><path fill="#556879" d="M118.4 66.2l6.3-26.3-29.4 22.9 26.2-1.7z"/><path fill="#f5fcff" d="M159 142h6v21h-6z"/><path fill="#dcf6ff" d="M229.3 89.5l-2-7.7 21.4-5.3 2 7.7z"/><path fill="#dae7de" d="M17.1 77.5L1.5 89.6l-17.2-20.2 74.5-20.9z"/><path fill="#cfc8bb" d="M161.6 129.2l-38.4-28.9 7.2-9.5 38.4 28.9z"/><path fill="#04458d" d="M104 172h6v20h-6z"/><path fill="#c3c3b9" d="M95.6 203.7l-96-3.4.8-22 96 3.4z"/><path fill="#5f513f" d="M15 134h12v28H15z"/><path fill="#2e4850" d="M92.2 205.2l-8.3-47.8 38.5-17-29 34.4z"/><ellipse cx="90" cy="134" fill="#9bbed6" rx="2" ry="25"/><path fill="#8f867e" d="M104 101l4 43 68-10z"/><path fill="#c1bbc9" d="M205 162l-20-30 46 34z"/><path fill="#687d8a" d="M200 42l71 26-76-63z"/><path fill="#a0a9ba" d="M147 162.9l9 .3-1 26-9-.4z"/><path fill="#a1b1b9" d="M108.8 55.4l-48-10.8L133 32.9l-33.3 29z"/><circle r="1" fill="#58576a" transform="matrix(-2.168 2.26869 -33.6577 -32.164 198.1 131.3)"/><circle r="1" fill="#47555a" transform="rotate(-120.4 147.8 -21.6) scale(3.92589 28.58395)"/><circle cx="107" cy="164" r="5" fill="#e4ffff"/><circle r="1" fill="#cfe9ff" transform="matrix(-41.01903 -14.44508 1.06674 -3.02916 219.9 4.4)"/><path fill="#343751" d="M105.5 58.7l-10.9 69.4-4.1-1.1 14.2-41.7z"/><circle r="1" fill="#f0faff" transform="matrix(5.70171 3.39875 -1.98497 3.32997 241.4 137.2)"/><path fill="#000a28" d="M98 157l-6 16 8 13z"/><path fill="#a9b9c7" d="M90.5 109.7l-2.4-53.4L58 95.6l23.1-33.2z"/><ellipse cx="74" cy="183" fill="#c0bfbb" rx="15" ry="22"/><path fill="#2d4231" d="M58 156.9L91.2 124l-12.6.4-13.9 9.7z"/><path fill="#0d2d5d" d="M138 173h8v17h-8z"/><path fill="#516073" d="M244.2 73.5l9 7.4-30.5-12.2 2.6 13.5z"/><path fill="#3766a8" d="M207.3-12.3l-20.8 4.1L271 .4v19.7z"/><path fill="#c5bebf" d="M178 75l17-3 2 36z"/><path fill="#7e95b9" d="M3.6-9.6l16-1.7 2.8 26.9-16 1.7z"/><path fill="#c9e1fd" d="M186.1-16L271 17.8l-26-9.3 26 27.2z"/><path fill="#95b6e0" d="M43.3 167.9L32.9 164l5.8-16 10.4 3.8z"/><path fill="#c0b6cf" d="M56 73h7v24h-7z"/><circle r="1" fill="#438354" transform="matrix(-.97774 1.41743 -47.40837 -32.70233 169.4 14.2)"/><circle cx="154" cy="150" r="6" fill="#2d3f51"/><path fill="#f9ffff" d="M210 51l-28-2 20-7z"/><path fill="#4d5558" d="M161.3 73.1l30 27.9 12.8 19.4-16.2-8.8z"/><circle r="1" fill="#d0e6fa" transform="matrix(21.3513 1.0979 -.09691 1.8847 157.5 160.7)"/><path fill="#59627d" d="M87 104l-2-25-30 62z"/><path fill="#879092" d="M115.4 26.3l80.7 106.6 39.4-7.4-24.1 15.7z"/><path fill="#fdffff" d="M171 143l-18-4 9 9z"/><circle r="1" fill="#65a04d" transform="matrix(9.20377 -18.63576 18.52118 9.14718 0 37)"/><path fill="#778c73" d="M129.4 162.8l12.6-36.6L65.7 166l11.4-29.1z"/><path fill="#a6bd9f" d="M164 52h12v26h-12z"/><path fill="#eef4fa" d="M61.6 124.2l3.1-1.3-20.4.6 4 2.5z"/><path fill="#e2d1c0" d="M193.2 173.3l-11.4-28 34.1 61.7-16.2-21.5z"/><path fill="#8dba76" d="M113.1 11.3l19.1-12.9 41.1 39.5-89.9-5.6z"/><path fill="#4f566c" d="M146.4 73.8l2 16.8-12.8 1.6-2-16.8z"/><path fill="#d6f2ff" d="M239 64h4v27h-4z"/><path fill="#d6c6a3" d="M114 184h22v8h-22z"/><path fill="#fff4e1" d="M174 127.9l.8-.4 25.3 56.6-1 .4z"/><path fill="#b2d2e9" d="M142.6 160.5l1 .1-4.2 58.9-1-.1z"/><path fill="#ca1557" d="M163 155l7 4 3-7z"/><circle cx="70" cy="77" r="4" fill="#f9edf8"/></g></g></svg>