<svg xmlns="http://www.w3.org/2000/svg" viewBox="0 0 1200 674"><defs/><filter id="a"><feGaussianBlur stdDeviation="12"/></filter><rect width="100%" height="100%" fill="#4d423f"/><g filter="url(#a)"><g fill-opacity=".5" transform="translate(2.3 2.3) scale(4.6875)"><circle r="1" fill="#fff7de" transform="matrix(-17.9834 93.1486 -135.45465 -26.15108 129.6 95.2)"/><ellipse cx="95" cy="34" fill="#fff9f8" rx="23" ry="81"/><path d="M177 13h79v31h-79z"/><circle r="1" fill="#ffcdb5" transform="matrix(-8.2181 18.86611 -100.58575 -43.81522 121.4 100.7)"/><circle r="1" transform="rotate(-87.5 112.4 -44.1) scale(4.74855 55.16814)"/><ellipse cx="140" cy="11" fill="#444e5b" rx="23" ry="50"/><circle r="1" fill="#e99568" transform="rotate(-69.5 80.6 40.5) scale(33.27443 129.47418)"/><path fill="#22100f" d="M13 11h41v28H13z"/><path fill="#eed2c9" d="M271 49l-26 109-49-111z"/><path fill="#110100" d="M118.1 92.1L221.8 109l-13.5-23.5-8.3 12.1z"/><path fill="#383c39" d="M97 0h6v76h-6z"/><path fill="#fcffff" d="M193-13l-42 33-4-36z"/><ellipse cx="160" cy="87" fill="#ffd8c6" rx="44" ry="9"/><path fill="#030000" d="M125 57h75v4h-75z"/><path fill="#fff" d="M47.7 10.8L62.9-15l29.9 84 2.5-85z"/><circle r="1" transform="rotate(11.5 -691 224.5) scale(30.84229 3.17439)"/><path fill="#fcffff" d="M107 0h11v77h-11z"/><path fill="#001736" d="M139 19h18v23h-18z"/><circle r="1" fill="#ffc6b2" transform="matrix(52.2975 9.03335 -1.92479 11.14332 51.5 66.8)"/><ellipse cx="155" cy="69" rx="37" ry="4"/><circle r="1" transform="matrix(24.84529 -4.98374 3.2593 16.24845 249.6 18.3)"/><path fill="#4a5050" d="M61 0h9v54h-9z"/><ellipse cx="195" cy="44" fill="#261c17" rx="4" ry="33"/><circle r="1" fill="#e3ceb8" transform="rotate(99 -51.8 64.7) scale(6.65555 123.27608)"/><circle r="1" fill="#fac3b2" transform="matrix(-74.51591 -28.69573 6.20945 -16.12444 115.5 100.3)"/><path fill="#cabeb4" d="M131 19l11 37-28-5z"/><path fill="#fdffff" d="M159 24h13v17h-13z"/><path fill="#b2512a" d="M126 127l29 31 36-14z"/><path fill="#ffdeca" d="M193.6 64l-.4 5-56.8-5 .4-5z"/><path fill="#b07251" d="M2 89l62 60-16-67z"/><path fill="#3b483b" d="M179.6-16l-11.7 30.8 36.9 24.7L247.2-16z"/><path d="M152 52h43v2h-43z"/><path fill="#343229" d="M117 0h13v29h-13z"/><ellipse cx="192" cy="100" rx="26" ry="3"/><path fill="#fce3c4" d="M58 100h12v43H58z"/><path fill="#626f77" d="M-13.8 52.7l-1.3-19 64.9-4.4 1.3 19z"/><path fill="#251615" d="M152 44h53v2h-53z"/><path fill="#edcdbf" d="M200 50h5v47h-5z"/><path fill="#edbcab" d="M13.8 70.2l187.7 76.5 5.2-56.1 1 17.1z"/><ellipse cx="57" cy="11" fill="#e2e1e6" rx="3" ry="47"/><circle r="1" fill="#6b6f7e" transform="matrix(-8.0185 -33.9626 7.7281 -1.82459 222.2 142)"/><circle r="1" fill="#b57450" transform="matrix(32.74787 8.47954 -2.30807 8.91373 102 125.5)"/><path d="M202.8 87.1l.4-5 8 .8-.4 5z"/><circle r="1" fill="#fdcebc" transform="matrix(-32.67356 -2.48507 .116 -1.52504 181.2 56.3)"/><path fill="#fff" d="M131 0h2v40h-2z"/><path fill="#eff2f3" d="M105.9 61.9L78.5-15l-.2 80 21.2-2.7z"/><path fill="#a8968c" d="M268.3 60.9l-14 24.2-34.6-20 14-24.2z"/><path d="M7 24L4 6l-20 36z"/><circle r="1" fill="#6f6f6a" transform="matrix(-4.09838 -55.80927 3.21595 -.23616 99.5 26.4)"/><circle r="1" fill="#a4a6a5" transform="rotate(4.8 -70.8 298.3) scale(61.97126 1)"/><path fill="#ddcdc1" d="M234.9 141.1l-.6-64.4L201.8 97l19.2 1.5z"/><path fill="#ab958a" d="M171 39l30 12 6-11z"/><path fill="#ffd5bf" d="M116 59h26v4h-26z"/><ellipse cy="32" fill="#bcbebc" rx="36" ry="2"/><path fill="#0d0900" d="M0 35h35v3H0z"/><ellipse cx="123" cy="83" fill="#eac0ad" rx="31" ry="12"/><ellipse cx="153" cy="1" fill="#fff" rx="4" ry="18"/><ellipse cx="139" cy="57" fill="#0f0000" rx="21" ry="2"/><path fill="#3c3831" d="M133 0h8v30h-8z"/><path fill="#1f1d1e" d="M180 77l21-21-3 20z"/><path fill="#230a09" d="M193 21h20v17h-20z"/><path fill="#ffceb2" d="M129.1 52.1l34 1.8-.2 4-34-1.8z"/><ellipse cx="153" cy="95" rx="6" ry="2"/><path fill="#d3f1f1" d="M164 0h8v14h-8z"/><path fill="#b1b2b1" d="M27.6 32.4l-6.2-50.6 1-.2 6.2 50.6z"/><path fill="#4a4e48" d="M163.4-16l87.2 69-98.2-64.7L163 21.5z"/><path d="M209 98h8v13h-8z"/><path fill="#210e07" d="M172 50.6v1l-50 1.8v-1z"/><path fill="#a6a7a1" d="M45.4 8l2.4-19 24.8 3-2.4 19z"/><circle r="1" fill="#000001" transform="matrix(.32753 -2.64597 30.0401 3.71844 146.3 69)"/><path fill="#73685b" d="M216.8 15.8L193.4 0l-7.9 54 11.8-33.5z"/><path fill="#0b0000" d="M3.8 140.3l1.5-5.8 36.9 9.2-1.5 5.8z"/><ellipse cx="107" cy="142" fill="#f9e7d0" rx="41" ry="3"/><path fill="#c8cac6" d="M104 60h15v16h-15z"/><path fill="#19160e" d="M21.3 33.7l15 2.6 14-.8.3-2.9z"/><path d="M220 11h36v24h-36z"/><ellipse cy="93" fill="#e8c29b" rx="6" ry="40"/><ellipse cx="167" cy="48" fill="#260c0a" rx="21" ry="1"/><path fill="#252323" d="M142.7 65.2l48.9 8.2-41.1 4 30 2.7z"/><path fill="#e1cbbc" d="M201 47h21v36h-21z"/><path fill="#a1adae" d="M3.1-16L8-7.5l3.4 39.8-1.1-1.4z"/><path fill="#090908" d="M62 27h7v7h-7z"/><path fill="#efc5b2" d="M62.3 72.8l105.4 6.7-21.4 43.9 18.6-28.9z"/><path fill="#070000" d="M11 7h8v23h-8z"/><path fill="#ffd3c0" d="M135 49h45v2h-45z"/><path fill="#bd8167" d="M203 106h10v29h-10z"/><path fill="#251d19" d="M105 63.7l-7.4.3 2.3 5.1 4.6 7.6z"/><path fill="#e5e2e3" d="M90.6 19.3L62.4-16l-9 41.1-.2-41.1z"/><path fill="#dac6ba" d="M233.5 115L197 64.7l27 2-7.1 45.7z"/><circle r="1" fill="#c38460" transform="rotate(-97.1 57 38.8) scale(24.73074 22.56049)"/><path fill="#656769" d="M56.9 43.1L51-3.8l-9.6 51.9 13.7 4z"/><circle r="1" fill="#94745b" transform="matrix(2.99333 -.41124 3.94398 28.70713 55.7 127.8)"/><path d="M200 61.6l-80-4.2v-1l80 4.2z"/><path fill="#3e3f35" d="M167 12h39v8h-39z"/><path fill="#165383" d="M150 19h9v20h-9z"/><path fill="#d2c0b5" d="M243.5 89.9l27.5 58.5-74.1-94.3-4.3-11.1z"/><ellipse cx="114" cy="38" fill="#fff" rx="3" ry="37"/><path fill="#f8c8b9" d="M185 81h19v16h-19z"/><path fill="#dee5e6" d="M160 32l24-5-24-3z"/><path fill="#f1c2ad" d="M204.2 115.8L22.6 51.1l41.8.6-22.5 33.6z"/></g></g></svg>