<svg xmlns="http://www.w3.org/2000/svg" viewBox="0 0 1250 833"><defs/><filter id="a"><feGaussianBlur stdDeviation="12"/></filter><rect width="100%" height="100%" fill="#4c3b28"/><g filter="url(#a)"><g fill-opacity=".5" transform="translate(2.4 2.4) scale(4.88281)"><circle r="1" fill="#ffffdc" transform="matrix(110.5044 -27.64134 12.48726 49.92149 60.4 80.6)"/><ellipse cx="115" cy="106" fill="#bf8a6a" rx="150" ry="83"/><circle cx="79" cy="75" r="47" fill="#f9dfbd"/><ellipse cx="161" cy="81" fill="#000012" rx="19" ry="31"/><circle r="1" fill="#0d0600" transform="rotate(171 4.2 54.5) scale(10.6758 40.34258)"/><circle r="1" fill="#fff8db" transform="rotate(152.2 61.8 37.1) scale(32.9881 15.42259)"/><path fill="#001202" d="M208.8-66l79.8 49.8L237.2 66l-79.8-49.8z"/><circle r="1" fill="#0c2209" transform="matrix(3.76074 32.17819 -85.94398 10.04448 73.7 0)"/><path fill="#fadcb7" d="M-16 41l168-18L39 84z"/><circle r="1" fill="#6e341b" transform="matrix(23.82484 32.67202 -53.81374 39.24166 217 134.4)"/><path fill="#dccdb0" d="M213.2 75.5l7.7-13.3-6.8-16.6-50.6 4.4z"/><circle r="1" fill="#8e502d" transform="matrix(-99.61856 29.28398 -9.31452 -31.68622 50.6 161.7)"/><path fill="#ceb08f" d="M30 70h116v45H30z"/><path fill="#13201e" d="M177.2 35.2L169.5-16l-11.1 89.2 28.2 7.6z"/><path fill="#a15e26" d="M95.7 105.8l29-17.1-74.5 19.6 35.2 1.5z"/><path fill="#b39883" d="M172.6 86.2l10.7-3.6 29 1.5-25.1 30.1z"/><path fill="#a36a35" d="M31.8 82.1l94.8-15.2-62.2 16.8-21.1-.3z"/><path fill="#403224" d="M33 133l-23 3 6-76z"/><path fill="#a5aa69" d="M129-11l3 38 13-43z"/><circle r="1" fill="#513b1d" transform="rotate(34.1 -2.4 408) scale(8.3057 35.05922)"/><ellipse cy="54" fill="#e3bc8b" rx="47" ry="17"/><path fill="#423d1f" d="M33 37.2l52.9-7.1 64.3-8.3L-16 12.7z"/><path fill="#cfba9f" d="M151.4 48.4l60 4.2 17 6.4-23.1 4.4z"/><circle r="1" fill="#05130d" transform="matrix(-1.71901 -23.41421 80.99296 -5.9463 220.4 0)"/><path fill="#401500" d="M-16 138l11-49 14 58z"/><path fill="#e5cdb0" d="M58.4 34.8l131.8-19.6-23.4 2.9-5.5 22.5z"/><path fill="#5b3c28" d="M155 168L25 185l2-35z"/><path fill="#a8592f" d="M208 134l-78-18 103-21z"/><circle r="1" fill="#101c28" transform="rotate(106.2 60.4 95.1) scale(9.66319 21.12173)"/><path fill="#c1dee8" d="M248 67l18 30-17-15z"/><circle r="1" fill="#857260" transform="matrix(4.00702 -4.6792 22.74447 19.47713 151.8 83.5)"/><path fill="#b67149" d="M108 116l-46 16 26 38z"/><path fill="#edd8bb" d="M26 89l4 23 76-34z"/><circle cx="199" cy="76" r="7" fill="#17131b"/><path fill="#dbc4a7" d="M137.2 88.9l-22 11.7L88.7 51l22-11.7z"/><path fill="#538a47" d="M258 22l-16 18 8 16z"/><path fill="#0f1614" d="M145 100h26v11h-26z"/><path fill="#b2a28a" d="M162 149l-18 22-1-17z"/><path fill="#fff1d8" d="M35 110h47v4H35z"/><ellipse cx="237" cy="134" fill="#69442f" rx="19" ry="57"/><circle r="1" fill="#dec4a6" transform="rotate(176.9 58.3 29.1) scale(31.22662 12.55483)"/><circle r="1" fill="#cbc5b4" transform="rotate(-98.6 79 38.5) scale(4.89553 17.1718)"/><path fill="#874b18" d="M125 94l-11 8h21z"/><ellipse cx="182" cy="39" fill="#53441f" rx="20" ry="10"/><path fill="#b47a64" d="M162.8 84.2l18.9 28.5L151.9 80l13.9-9.1z"/><path fill="#ac5f38" d="M0 141h25v29H0z"/><path fill="#23303c" d="M146 75l8 28 2-48z"/><ellipse cx="172" cy="77" fill="#071114" rx="5" ry="17"/><circle r="1" fill="#a89e8d" transform="rotate(149.2 51.1 72.5) scale(21.49095 5.42349)"/><path fill="#334521" d="M233.7 39.7l-33.3-2.6 16.7 18.5L271 76.8z"/><path fill="#9e7146" d="M104.7 76.7l-6.6-8.1-7.1 4.5 29.6-1.3z"/><path fill="#05110b" d="M170-16l-32 33 19 3z"/><path fill="#7e3d0c" d="M30 114h31v2H30z"/><circle r="1" fill="#e6d0b3" transform="matrix(-.98245 -4.37605 54.92628 -12.33128 75.4 67.4)"/><path fill="#36401d" d="M123.1 17.9L55.8 7.3 30.5 36.4 167.8 19z"/><circle r="1" fill="#c9bfa8" transform="matrix(6.43257 36.09213 -3.52634 .62849 2.8 104.9)"/><ellipse cx="135" cy="67" fill="#714724" rx="12" ry="3"/><path fill="#1b2616" d="M199.2 31.8L271 45.1l-104.5-47-2.7 35.5z"/><path fill="#a69c8d" d="M64.2 124.8L7.4 147.9l62.4-32.6 76.4-6.5z"/><path fill="#896149" d="M269 131l-71 25h52z"/><ellipse cx="177" cy="169" fill="#573f2d" rx="27" ry="15"/><path fill="#744f33" d="M121 133h70v19h-70z"/><path fill="#d3c4aa" d="M109.5 67.3l37.4 5.9-9.7 5.6 5 22.7z"/><path fill="#9c6842" d="M180.7 124.7L84 140.1l-2.6-16.8 96.8-15.4z"/><path fill="#6a5138" d="M-2 81l23-2-3-14z"/><path fill="#b17745" d="M64.3 100.3l26 1.4-.6 10-26-1.4z"/><path fill="#c0cdd4" d="M163.4 49.1l9.2 5.8 23.9.7-1.7-1.7z"/><path fill="#473d2e" d="M28.9 106.4l5 31.6-22.8 3.6-5-31.6z"/><ellipse cx="24" cy="1" fill="#171c12" rx="106" ry="12"/><path d="M180 73h5v8h-5z"/><path fill="#4a3c31" d="M140 88l22-6-10 22z"/><path fill="#5c2816" d="M207.9 92.6l-10 17.9 26.3-25.7-4.9-21.9z"/><path fill="#222722" d="M28 162h12v8H28z"/><path fill="#dfcdb4" d="M113 75l-6 20-64-9z"/><path fill="#ab9281" d="M176 81l28 2-25 21z"/><path fill="#e8d1b4" d="M161 38l-55-10 57-9z"/><circle r="1" fill="#a56f41" transform="matrix(19.02915 -2.59676 .17906 1.31212 59.3 106)"/><path fill="#5b311d" d="M202 139l51 2-42-18z"/><path fill="#ecc9a0" d="M-16 43.2v2.4l37.8 3.9L23 36.9z"/><path fill="#fcecd1" d="M126.8 89.6l.5.8-38.1 22-.5-.8z"/><path fill="#140e0d" d="M245.1 184.7l-8.4-12.4 28.2-19 8.4 12.4z"/><path fill="#77482e" d="M172 185L53 171l63-22z"/><circle r="1" fill="#839290" transform="matrix(2.39875 7.97974 -3.64891 1.09688 244.9 73.4)"/><path fill="#cdb095" d="M160.5 80.7l3.3-6.7-33.9 8.7-32.4-20.5z"/><path fill="#c47e56" d="M57.4 137.6l6-11.6L86 160.5l3.2-11.5z"/><path fill="#c58c62" d="M146.3 128.9l5.2 7.3 4.2-8.9 9.5-10.8z"/><path fill="#b39676" d="M214.6 58.3l-21.2 9.9 10.5 6.7L170 52.8z"/><path fill="#b46740" d="M225 113.6l-13.8 7.9-23.3-.9 35.6-10.9z"/><path fill="#e4cbad" d="M46.6 75.9l73.2-8.7-101.6-2.5L22.7 83z"/><path fill="#749a81" d="M257.1 52.7l-9.6 2.4 1.6-11L271 74.2z"/><circle r="1" fill="#c09e79" transform="rotate(-67 111.4 -90.8) scale(5.14404 10.91067)"/><path fill="#bbb09e" d="M121.9 116.8l21.8-22.2-15.4 6.8-82.5 20.2z"/><path fill="#090f11" d="M161.5 80.9l15.1 18.2-9.6-50.6 6.3 31.1z"/><path fill="#caa581" d="M209 42l-11 8 14 33z"/><path fill="#0c120c" d="M174-11l61 53 15-58z"/><path fill="#a86833" d="M57 116l-21 3-8-7z"/><path fill="#594532" d="M31 128L19.4 66.6 3.9 91.4l-.8-17.6z"/><path fill="#18191c" d="M163.7 58L151 78.2l27.3-12.7-30.6 4.3z"/><path fill="#cfab82" d="M38 45l10 13-58 18z"/><path fill="#9d4e2b" d="M222.7 122.5l-5.4 4.7.1-31.8 24.2 4.3z"/></g></g></svg>