<svg xmlns="http://www.w3.org/2000/svg" viewBox="0 0 1250 833"><defs/><filter id="a"><feGaussianBlur stdDeviation="12"/></filter><rect width="100%" height="100%" fill="#57423c"/><g filter="url(#a)"><g fill-opacity=".5" transform="translate(2.4 2.4) scale(4.88281)"><path fill="#eae7d1" d="M127.8 142L87 76.5 158.2 32 199 97.4z"/><circle r="1" transform="matrix(-73.7891 31.62605 -13.31947 -31.07666 243 40.1)"/><path fill="#fffff4" d="M251.4 160.7l-68.9-73.9 8-7.5 69 73.9z"/><ellipse cx="63" cy="17" fill="#012501" rx="159" ry="19"/><path fill="#f7f2de" d="M109 36h20v72h-20z"/><ellipse cx="37" cy="64" fill="#2b4133" rx="68" ry="99"/><path fill="#d5d2c4" d="M218.6 92.5l-88.8-7.7L81.9 98l15.5 17.8z"/><path fill="#efffff" d="M165 29h11v30h-11z"/><path fill="#7e6a63" d="M15 118l133 35 71-54z"/><path fill="#ffff8b" d="M42.3-16h53.9L68 23.4l5.3-12z"/><circle r="1" fill="#061705" transform="matrix(49.95009 76.75606 -23.96108 15.59301 247.3 93.5)"/><circle r="1" fill="#989a98" transform="rotate(6.6 -598.5 47.2) scale(13.34168 27.84537)"/><path d="M201 152l-1-30 58 38z"/><circle r="1" fill="#040f0c" transform="matrix(-7.31037 -12.54033 32.47203 -18.92952 188.6 63)"/><path fill="#aa9f8d" d="M176 91l-3.5 33.3 42.4-17.6-1.7-29.3z"/><path fill="#6d8fb2" d="M63.9 115.4l6.3 25.2-32 8-6.4-25.2z"/><path fill="#a8c050" d="M182-16l7 29 82-17z"/><ellipse cx="98" cy="4" fill="#000004" rx="16" ry="61"/><path d="M130 55l18-22-16-49z"/><circle r="1" fill="#111b0d" transform="matrix(16.86514 -18.86263 16.9311 15.13815 34.8 85.5)"/><path fill="#cdbaa3" d="M158 74l-18-16 13-56z"/><path fill="#d8d37c" d="M270.3 101l-33-8.3 2.4-9.7 33 8.3z"/><path fill="#0a1a0b" d="M-28.8 105.5l22-17.3 45.6 58.3-22 17.3z"/><path fill="#081207" d="M200.3 88.1L271 7.2 164.3 26.4l5.2-4.5z"/><path fill="#d5c4ab" d="M150.2 75.9l-34.9-39.5-12.1 23.1 47.5 52.1z"/><path fill="#9b946e" d="M58.4 55.9L-16 44.6l65.4 3.8 11.5-16z"/><path fill="#e6e7e7" d="M78 49h12v6H78z"/><circle r="1" fill="#dbdecc" transform="matrix(-18.69844 -19.77305 4.30635 -4.07231 229.6 130.9)"/><circle r="1" fill="#684e42" transform="matrix(-47.60495 7.72728 -4.56042 -28.0951 145.7 146.3)"/><path fill="#9a958a" d="M23 37L5 49l23 8z"/><path fill="#0c0f04" d="M56.7 28.3l19.7 51-.9-34.3 111.2-57.4z"/><ellipse cx="209" cy="149" fill="#191714" rx="11" ry="31"/><path fill="#1c0e0b" d="M58.9 157.4l-7.3 11.2 50.4-33.9L32.6 151z"/><path fill="#836f6b" d="M92 34.3l11.5-2.7 26 3.1-10.9 7z"/><path fill="#2b2f29" d="M29 54h72v27H29z"/><path fill="#acd9e2" d="M1.6 153.5l7-.4-24.6 31.2L1 144z"/><path fill="#d3d2e8" d="M178 41.6l-10.8 19.2-.4-33.5 7.3 3.1z"/><path fill="#5f5e5f" d="M93.3 97.7l22.7 1.9-49.8-30.5 28.6 44.7z"/><circle r="1" fill="#251c1a" transform="matrix(-2.28624 2.65664 -19.04033 -16.38564 230 116.4)"/><path fill="#b4a594" d="M123.1 46l-35.6 72.6-17.2 8 38.9-5.4z"/><path fill="#d6d2c5" d="M117.3 80l18.9 28 31.1-31.9.2 31.1z"/><path fill="#b09f89" d="M211.2 104.9l-31.6-5 3.2-20.8 31.6 5z"/><path fill="#7f7d48" d="M173.7 7.2l-16.1 22.3.4-11.7 39.9-3.4z"/><path fill="#978873" d="M25.5 115l-4.8 3.6L-1.5 89l4.8-3.6z"/><path fill="#4a4c4e" d="M166 56l-10 9 29 34z"/><path fill="#787275" d="M253.8 161.2l-12.7-25.9 19.3-.3 10.6 41.8z"/><path fill="#a9a799" d="M173 133v-20l10 37z"/><circle r="1" fill="#1d2510" transform="rotate(-58.9 28 -25.8) scale(11.46964 77.25984)"/><path fill="#070b06" d="M173 48h83v27h-83z"/><path d="M160.4 31.9L189.6-16 164.2-2l-3.3 41.8z"/><path fill="#fdffa9" d="M83-14L82 3 64 5z"/><path fill="#feeab2" d="M163.8-5.7l-4.7 29.6-1-.2L163-5.9z"/><path fill="#0f150c" d="M148 28l7-44-53 50z"/><path fill="#4c6225" d="M71 38l13-28L57 0z"/><path fill="#ffdea3" d="M57.3 45.6l5.7 6.9-2.3 2-5.7-7z"/><circle r="1" fill="#212b13" transform="rotate(103.7 102.7 96.4) scale(9.94011 31.9563)"/><path fill="#442f28" d="M70.9 129.9l-8-12.7 81.1 40.5-59-4.4z"/><circle r="1" fill="#1a211a" transform="matrix(-5.91508 -35.73013 9.08139 -1.50341 24.4 88.3)"/><path fill="#b4b1a6" d="M125.4 170.6l10.3-73.3 1 .1-10.4 73.3z"/><path fill="#bfaf98" d="M102 96.4l5-48.2 52.5 16.7-55.2 25.2z"/><path fill="#10150c" d="M246 89.3l23.3-41.1-103-31.6 19.9 36.6z"/><path fill="#262016" d="M219 80.5l49.8 24.3 2.2 48.6-59.2-50.9z"/><path fill="#191510" d="M255.9 164.6l-47.7-46.2-5.6 66.6 9.7-33.4z"/><path fill="#483732" d="M151.5 26.9l19 8.7-5.6 7-17.5-19.8z"/><path fill="#150100" d="M96 96l4-11 3 10z"/><ellipse cx="132" cy="28" fill="#0a1609" rx="4" ry="29"/><path fill="#1a2325" d="M151.8 85.9l2-4.6 6.4 2.8-2 4.6z"/><path fill="#718f9e" d="M234 164h17v6h-17z"/><circle r="1" fill="#c4c777" transform="matrix(-1.86684 -8.39867 4.6381 -1.03095 190.4 1)"/><path fill="#dcd6ce" d="M79.3 62.4l-1 .1-1.6-19h1z"/><path fill="#bfb5be" d="M163.6 40.1l-1.8 21.1 17.9-15.8-5.4-12.2z"/><path fill="#332e2e" d="M179.9 126.7l28-.4.2 15-28 .4z"/><path fill="#c9bca6" d="M136.2 49.3l16.3-18.1 7.5 1-63.5 79.4z"/><path fill="#b7a89a" d="M108.7 40.5l22.1 14.6-33.1-26.7 2.4 5.6z"/><ellipse cx="86" cy="97" fill="#e6d2b4" rx="2" ry="7"/><path fill="#2d3027" d="M18.8 194.3l-25-18.2 29.4-40.4 25 18.2z"/><path fill="#3c472e" d="M47.5 96.7l-19.3-23L30.6 0l18.6 61.4z"/><path fill="#293439" d="M92 95v20l-11 4z"/><path fill="#6f5b4e" d="M197.9 164.9l-81.3-6.2-49.2-9.8 40.3 36.1z"/><path fill="#bfc4ba" d="M187 152l-3 2-3-10z"/><path fill="#d7d3c6" d="M109 85h43v21h-43z"/><path fill="#d4c1aa" d="M163 71h4v10h-4z"/><path fill="#212c3a" d="M91.1 56.7l9 20-19.2 8.6-9-20z"/><circle r="1" fill="#b1a391" transform="matrix(3.24168 -11.38 6.09505 1.73622 207.4 89.7)"/><path fill="#cfc3a6" d="M151 4h3v23h-3z"/><path fill="#182010" d="M17.5 28v16h-15V28z"/><path fill="#cebfa8" d="M71 107l-10 9h5z"/><path fill="#75868e" d="M214 159l13 1-7-7z"/><path fill="#0b1119" d="M94.7 64.2l-1.9-48 14.5 49.5-34.1 2.5z"/><path fill="#52332a" d="M169.7 125.9l9 20-18.4 8.2-9-20z"/><circle r="1" fill="#d9d7c9" transform="rotate(-49 238.2 -182.6) scale(3.68459 17.80907)"/><circle cx="169" cy="29" r="3" fill="#ecf5ff"/><path fill="#6c8190" d="M31.8 121.5l5.2 23.4 13.7-30.5-8.6 2.3z"/><path fill="#090d0a" d="M101.6 42.9l10.4 7.4L95.1-6.3l38 26.7z"/><path fill="#464c4a" d="M182 86l-25-27 15-1z"/><path fill="#ccc9c1" d="M105 52l23 6-1-20z"/><circle r="1" fill="#676c36" transform="matrix(-16.66617 1.35393 -.32559 -4.0078 180 15.3)"/><ellipse cx="56" cy="45" fill="#d8c48c" rx="3" ry="8"/><path fill="#12160e" d="M187.3 63.8l11.5 25.1 19.7-34.4L224-2.6z"/><path fill="#23140e" d="M68 99l-18 8 12 10z"/></g></g></svg>