<svg xmlns="http://www.w3.org/2000/svg" viewBox="0 0 1333 800"><defs/><filter id="a"><feGaussianBlur stdDeviation="12"/></filter><rect width="100%" height="100%" fill="#463830"/><g filter="url(#a)"><g fill-opacity=".5" transform="translate(2.6 2.6) scale(5.20703)"><circle r="1" fill="#fff" transform="matrix(-174.21946 -23.5554 10.35848 -76.61297 148.6 50.6)"/><circle r="1" fill="#faffff" transform="matrix(-136.2879 -32.97151 17.33159 -71.6402 178.6 41.7)"/><circle r="1" transform="matrix(-10.11 23.47515 -184.34254 -79.39044 19.4 132.8)"/><circle cx="196" r="69" fill="#edfefe"/><circle r="1" fill="#7b827c" transform="matrix(-7.01994 -26.00492 54.99867 -14.8467 90.8 100.3)"/><circle cx="53" cy="34" r="51" fill="#b4ceca"/><path fill="#c3bab9" d="M141 133l59-24 10 34z"/><path fill="#12150e" d="M56.8 152l90.7 16-35-47.6 42.1.4z"/><path fill="#717c77" d="M120 35h16v67h-16z"/><path fill="#10140a" d="M134 139h122v14H134z"/><path fill="#747d79" d="M67.3 115.4l-70.7-33L6.7 60.6l70.7 33z"/><circle r="1" transform="rotate(-42.8 208.7 38) scale(23.38674 167.19717)"/><circle r="1" fill="#fdfbfa" transform="rotate(-103.6 154.2 -38.3) scale(9.87015 37.54851)"/><circle r="1" fill="#e2f0ef" transform="rotate(-68.1 70.5 -67) scale(38.80228 19.31725)"/><path fill="#535a54" d="M179 130l-72 6-35-27z"/><circle r="1" fill="#acb3b0" transform="matrix(37.54622 -16.19849 10.09781 23.40556 117.7 85.4)"/><circle r="1" fill="#181b16" transform="matrix(20.96612 8.43602 -9.40109 23.3646 247.8 146.5)"/><path fill="#a2b1ad" d="M-15-12L83-1l-99 90z"/><path fill="#333028" d="M89 119l-55-13-23 18z"/><circle r="1" fill="#eaf2f1" transform="matrix(39.59637 26.56328 -9.43 14.05675 230.7 38.2)"/><path fill="#4f5650" d="M120 38l.6 10.1 17-11.6-2.5 19.7z"/><circle r="1" fill="#acb7b5" transform="rotate(-14.8 370.1 -689) scale(44.16953 7.01279)"/><path fill="#8f9792" d="M121 115l-46 12 23 4z"/><path fill="#8b928c" d="M46 125l16-6-34 1z"/><path fill="#868b87" d="M182.6 139.9l.1-1 68.7 7.2-.1 1z"/><path fill="#070c0d" d="M117 121h24v7h-24z"/><circle r="1" fill="#9aa5a0" transform="matrix(-.15469 1.74058 -44.615 -3.96493 145 133.8)"/><circle r="1" fill="#72706a" transform="matrix(-42.8451 -1.46785 .22742 -6.6381 54.8 96.4)"/><path fill="#0a0803" d="M29 123l-45 44 136-33z"/><circle r="1" fill="#c6cecc" transform="rotate(-111.1 52.8 3) scale(30.8496 23.50556)"/><circle r="1" fill="#dbdfde" transform="matrix(.99975 .02252 -1.05572 46.87092 126.3 68.1)"/><path fill="#cfbbb7" d="M194.8 117l-6.2 14.7-53.4-22.7 6.2-14.7z"/><ellipse cx="131" cy="88" fill="#6d746e" rx="3" ry="34"/><path fill="#34342c" d="M130.3 130.4l-27.6-2.2 11.4-16.1-14.5 6.1z"/><path fill="#e5dfdd" d="M143 85l55 41 21-35z"/><path d="M121.7 84.5l-2.3-10.8 1-.2 2.2 10.8z"/><path fill="#c7cdca" d="M124.5 116.5L126.2-16l.6 137.2-27.4 3.7z"/><path fill="#effcfb" d="M132.4 26.7l13.2 17.6-4 3-13.2-17.6z"/><path fill="#191a15" d="M77 123L1 90l-16 20z"/><path fill="#826d6d" d="M95.5 115.8l-54-20.6-18.7 12.9 60.6 7.8z"/><ellipse cx="228" cy="152" fill="#060200" rx="34" ry="7"/><path fill="#293029" d="M119 43l6 9-3-15z"/><path fill="#6b7370" d="M7 90l-22-36 57 45z"/><path fill="#3c4542" d="M156 132h65v2h-65z"/><path fill="#a7a29e" d="M160 109.8l38.7.6-47.5 14.8-9.8-.8z"/><path fill="#afa4a2" d="M245.1 110.8l25.8 36.5-7.2-53.3-31 40.3z"/><path fill="#484944" d="M156.4 125.2l19 4.2 4.9 3.3-30.4.3z"/><circle r="1" fill="#9daaa6" transform="matrix(-3.12804 7.29826 -29.49243 -12.64047 32.2 73.1)"/><path fill="#98a09e" d="M197 130l-21 5 42 2z"/><path fill="#836a6d" d="M239.5 125.2l-57 8.1L262 128l-18.6 3.6z"/><circle r="1" fill="#ced9d9" transform="matrix(-.7367 10.80625 -17.012 -1.15976 149.4 58.9)"/><ellipse cx="246" cy="124" fill="#180f0b" rx="5" ry="4"/><path fill="#485549" d="M121 78h2v41h-2z"/><circle r="1" fill="#a9b5b1" transform="matrix(34.76905 -15.3385 12.1241 27.48267 27.7 25.1)"/><path fill="#4a402e" d="M53.1 120.7l-46.8-2 115.4-3.9-40.3 10.5z"/><path fill="#222927" d="M121.8 129.2l21.1-.9-8-9-39.1 7.9z"/><path fill="#87938d" d="M126 15h3v24h-3z"/><ellipse cx="193" cy="122" fill="#d6bab8" rx="30" ry="6"/><path fill="#b5a8a7" d="M72 101h47v13H72z"/><path fill="#dde6e5" d="M121 46l1 19-36-37z"/><path fill="#6d736b" d="M131 81h5v36h-5z"/><ellipse cx="75" cy="142" fill="#1d1a13" rx="10" ry="16"/><ellipse cx="8" cy="152" rx="38" ry="27"/><path fill="#edeef0" d="M235 81.3l22.1 9.4-10.1 24-22.1-9.4z"/><path fill="#aeb5b2" d="M162.1 70.6l30.4 19.2-70.4-11.3 9.5-16.4z"/><path fill="#c9c5c0" d="M135 90h17v23h-17z"/><circle r="1" fill="#8c928d" transform="matrix(.20618 -1.88566 9.15022 1.00049 64.5 124.6)"/><path fill="#21281d" d="M136 43l-4 9 5-4z"/><ellipse cx="155" cy="145" fill="#3a2f21" rx="30" ry="9"/><path fill="#3b4640" d="M148 121h15v2h-15z"/><ellipse cx="119" fill="#c4d4d0" rx="49" ry="7"/><path fill="#1f2016" d="M259 151l4-18h-55z"/><path fill="#cdc9c7" d="M177 116h79v5h-79z"/><path fill="#e4efed" d="M106 5h21v27h-21z"/><circle r="1" fill="#cbd3d3" transform="matrix(-15.07115 10.20393 -14.02247 -20.7111 218.8 74.5)"/><path fill="#f6f5f2" d="M154 90h28v7h-28z"/><ellipse cx="126" cy="71" fill="#e6e9e9" rx="1" ry="36"/><path fill="#656a67" d="M25 122h17v3H25z"/><path fill="#070a05" d="M20 96l12 21-48-3z"/><path fill="#bdc7c4" d="M116.4 72l-53.9 9.9 16.3-95.3-52 76.9z"/><path fill="#d7e0df" d="M134 55l6-18 27 5z"/><circle r="1" fill="#ccd6d3" transform="matrix(9.02569 2.62494 -17.30892 59.51565 86.8 20.1)"/><ellipse cx="242" cy="28" fill="#e2eae8" rx="113" ry="33"/><path fill="#848376" d="M132.6 113.6l-2.7 6.2-12.3.6-25.1 1.3z"/><path fill="#9b9d97" d="M128 133h36v3h-36z"/><path fill="#c4c9c8" d="M183.5 98.5l34.9-8.4-48.7-25.3 46.8-8.5z"/><circle r="1" fill="#2b231b" transform="rotate(-162.4 58.4 63.6) scale(56.63746 4.06667)"/><path fill="#8c837e" d="M52.6 92.2l7.3 19.4 26.5 5.3-21-31.4z"/><path fill="#232322" d="M49.4 112.6l-4.5-6.4-17.8 19.1-32.7-6.2z"/><path fill="#bf8c91" d="M183 127h26v5h-26z"/><circle r="1" fill="#a78f90" transform="rotate(-43.8 265.4 -208.7) scale(7.40182 6.86656)"/><path fill="#f5f4f4" d="M202.8 89.1l35.7 17.9 8.6-15.8-28.9 20.4z"/><path fill="#c2c0bd" d="M108 98l12-10-1 19z"/><path fill="#372b1f" d="M117 135h20v18h-20z"/><path fill="#000200" d="M142 125l-1-5h-7z"/><path fill="#fff" d="M126 113h-1l-1-26h1z"/><path fill="#858c87" d="M66.8 93.2l40.4 12.2L86 83 46.3 95.6z"/><path fill="#b8b3b3" d="M118 107l-23 9-2-12z"/><path fill="#8e938f" d="M190 139l13-1-1 4z"/><path fill="#d0ddd9" d="M129 0h23v27h-23z"/></g></g></svg>