<svg xmlns="http://www.w3.org/2000/svg" viewBox="0 0 1400 667"><defs/><filter id="prefix__a"><feGaussianBlur stdDeviation="12"/></filter><rect width="100%" height="100%" fill="#323343"/><g filter="url(#prefix__a)"><g transform="translate(2.7 2.7) scale(5.46875)"><circle r="1" fill="#fff" fill-opacity=".5" transform="rotate(-88 44.3 2.2) scale(24.51383 171.59037)"/><circle r="1" fill="#ffffec" fill-opacity=".5" transform="matrix(-110.49477 -5.59742 .87929 -17.3574 57.5 49.5)"/><circle r="1" fill="#030000" fill-opacity=".5" transform="matrix(254.71006 -12.15666 1.57788 33.0603 123.1 110)"/><circle r="1" fill="#bf6b48" fill-opacity=".5" transform="matrix(-40.5983 13.41182 -5.5994 -16.94969 195 55.7)"/><circle r="1" fill="#897a7b" fill-opacity=".5" transform="matrix(-1.0714 10.83497 -119.57991 -11.82459 88.1 22.4)"/><path fill="#ffffe4" fill-opacity=".5" d="M0 42h124v24H0z"/><circle r="1" fill="#574b3d" fill-opacity=".5" transform="matrix(-5.36143 .17438 -1.3993 -43.02333 129.5 85)"/><ellipse cx="19" cy="109" fill="#100d00" fill-opacity=".5" rx="103" ry="32"/><ellipse cx="48" cy="70" fill="#b87d4a" fill-opacity=".5" rx="111" ry="6"/><ellipse cx="225" cy="108" fill="#0b0300" fill-opacity=".5" rx="82" ry="19"/><path fill="#3c311d" fill-opacity=".5" d="M215 103l47-42-126 13z"/><circle r="1" fill="#d6a497" fill-opacity=".5" transform="rotate(-2.6 690.7 -2019) scale(34.5215 7.96363)"/><path fill="#f9c5a2" fill-opacity=".5" d="M147.8 41.8l48.1 13.5-34.7 8.9-28.8 5.1z"/><circle r="1" fill="#697777" fill-opacity=".5" transform="matrix(66.8115 -12.41418 1.64193 8.83666 4 29.4)"/><circle r="1" fill="#0f1a22" fill-opacity=".5" transform="rotate(17.2 111.2 735) scale(66.86082 21.35833)"/><ellipse cx="65" cy="53" fill="#fff6e1" fill-opacity=".5" rx="57" ry="15"/><path fill="#51525a" fill-opacity=".5" d="M125.5 80.3l3.9-54.9 4.1 52.5L127 109z"/><circle r="1" fill="#62515a" fill-opacity=".5" transform="matrix(69.99717 14.52136 -2.47083 11.9101 156.4 26.1)"/><ellipse cx="36" cy="82" fill="#3a3329" fill-opacity=".5" rx="35" ry="10"/><path fill="#573129" fill-opacity=".5" d="M265.7 61.5L224.2 68l-6-37.6 41.6-6.6z"/><path fill="#ffc383" fill-opacity=".5" d="M-8 50l49 16-50 1z"/><path fill="#354c59" fill-opacity=".5" d="M-16 17l38-33 94 30z"/><ellipse cx="255" cy="95" fill="#130e03" fill-opacity=".5" rx="41" ry="29"/><path fill="#a89066" fill-opacity=".5" d="M119 106h20v3h-20z"/><circle r="1" fill="#a95845" fill-opacity=".5" transform="rotate(-105.5 124 -50.3) scale(6.16663 27.7298)"/><circle r="1" fill="#010300" fill-opacity=".5" transform="matrix(76.45963 -27.963 3.33656 9.12321 36 113.2)"/><ellipse cx="57" cy="65" fill="#eec190" fill-opacity=".5" rx="75" ry="3"/><path fill="#584239" fill-opacity=".5" d="M178.4 76.8l69.4-29.1-43.9 42-59.5-23.5z"/><path fill="#111004" fill-opacity=".5" d="M128 84l27 41 66-32z"/><circle r="1" fill="#504031" fill-opacity=".5" transform="matrix(-40.29417 1.90022 -.26237 -5.56348 103.8 75.4)"/><ellipse cx="94" cy="37" fill="#d7c0bf" fill-opacity=".5" rx="33" ry="7"/><ellipse cx="69" cy="54" fill="#fffaeb" fill-opacity=".5" rx="46" ry="10"/><ellipse cx="128" cy="65" fill="#5c5e69" fill-opacity=".5" rx="3" ry="30"/><path fill="#32303a" fill-opacity=".5" d="M180 31l-32-47 123 54z"/><path fill="#fde6cb" fill-opacity=".5" d="M134 64l-1-17 34 9z"/><ellipse cx="87" cy="22" fill="#877576" fill-opacity=".5" rx="40" ry="5"/><path fill="#fff4d4" fill-opacity=".5" d="M37 57h90v7H37z"/><path fill="#c87e58" fill-opacity=".5" d="M135 64h28v6h-28z"/><circle r="1" fill="#1d1c0d" fill-opacity=".5" transform="rotate(-88.3 106 -7.5) scale(23.1593 16.37599)"/><path fill="#191910" fill-opacity=".5" d="M130.1 98.2l44.3 37.8-43.8-66.5-1.3 20.1z"/><circle r="1" fill="#d7bdb1" fill-opacity=".5" transform="matrix(-63.90675 7.39426 -.49625 -4.28894 30 37.5)"/><path fill="#ae9c9d" fill-opacity=".5" d="M182.5 45.1L92.6 28.3l24.1 13.1 72.7 12.4z"/><circle r="1" fill="#070500" fill-opacity=".5" transform="matrix(100.32088 -9.1567 .60154 6.59045 172.8 120)"/><path fill="#4b4438" fill-opacity=".5" d="M136 118l12-4-13-16z"/><circle cx="212" cy="100" r="2" fill="#f4c95a" fill-opacity=".5"/><path fill="#5a666e" fill-opacity=".5" d="M-16 12.6l109.3 3.2-52.4 5.8-45 8.7z"/><path fill="#84705d" fill-opacity=".5" d="M63 78l12-8-28 7z"/><path fill="#887c84" fill-opacity=".5" d="M131.9 48.7l-5.4-11.9 67.8 10.8-71.6-26.7z"/><path fill="#da8f71" fill-opacity=".5" d="M181 61l23-8-31-6z"/><path fill="#261e16" fill-opacity=".5" d="M1.4 74.4L-16 72.5l43.1 34.7L8.3 71.7z"/><path fill="#352c22" fill-opacity=".5" d="M230 89l1-20-54 4z"/><path fill-opacity=".5" d="M8.6 106l-24.6.5 4.4 15.8 96.2.2z"/><path fill="#633a14" fill-opacity=".5" d="M234 99l-2 9-3-11z"/><path fill="#ada79f" fill-opacity=".5" d="M62.6 26.6h7l-56.4 1.7-20.9 16.6z"/><circle r="1" fill="#91645b" fill-opacity=".5" transform="matrix(-3.3493 6.803 -9.55703 -4.70518 204.4 44.4)"/><path fill="none" stroke="#bdb2a8" stroke-opacity=".5" stroke-width=".5" d="M122 42.5q4.2 16 5.9 51.6"/><path fill="#61310d" fill-opacity=".5" d="M34 102v1l-44 3v-1z"/><path fill="#39332d" fill-opacity=".5" d="M145 135.6l-4.2.4-16.6-38-9.8 9.9z"/><path fill="#aa8064" fill-opacity=".5" d="M142.7 70.5L5.6 71.7-16 57.3l22 8.8z"/><path fill="#67403d" fill-opacity=".5" d="M255.3 51.8l-53.4-17.3 20.1-8 2.9 29.7z"/><ellipse cx="128" cy="45" fill="#363448" fill-opacity=".5" rx="1" ry="23"/><circle r="1" fill="#845b53" fill-opacity=".5" transform="matrix(.82375 3.8557 -30.63492 6.54497 180.2 66.2)"/><path fill="#b78578" fill-opacity=".5" d="M121 25l-41-3 25 10z"/><path fill="#423c38" fill-opacity=".5" d="M47 72.6l11 .8-1 16-11-.8z"/><ellipse cx="73" cy="67" fill="#d8a983" fill-opacity=".5" rx="54" ry="2"/><path fill="#0f100b" fill-opacity=".5" d="M63 83h62v18H63z"/><circle r="1" fill="#493d4a" fill-opacity=".5" transform="matrix(61.42482 17.84556 -1.40784 4.84581 177.9 22.4)"/><path fill="#120f18" fill-opacity=".5" d="M236 43h17v3h-17z"/><path fill="#e1cdc6" fill-opacity=".5" d="M17 34h95v7H17z"/><path fill="#8b867b" fill-opacity=".5" d="M128.2 68l-1.4 28h-1l1.4-28z"/><circle r="1" fill="#b6b6bc" fill-opacity=".5" transform="rotate(-72.7 104.4 -77) scale(4.38457 16.07668)"/><path fill="#fae9c2" fill-opacity=".5" d="M-6 40l45 23-55-10z"/><path fill="#f0e6e0" fill-opacity=".5" d="M127.6 66.5l-7.8-20.3-57.5-8.4L74.9 44z"/><ellipse cx="53" cy="71" fill="#7b6357" fill-opacity=".5" rx="115" ry="2"/><ellipse cx="59" cy="22" fill="#687884" fill-opacity=".5" rx="22" ry="4"/><ellipse cx="132" cy="108" fill="#d8b779" fill-opacity=".5" rx="3" ry="2"/><path fill="#b9b4bc" fill-opacity=".5" d="M110 38h14v7h-14z"/><path fill="#98451b" fill-opacity=".5" d="M194 104h4v3h-4z"/><ellipse cx="129" cy="62" fill="#3b3b44" fill-opacity=".5" rx="1" ry="20"/><path fill="#5d3210" fill-opacity=".5" d="M35 97.4l1.3 1.6-9.3 7.6-1.3-1.6z"/><ellipse cx="207" cy="94" fill="#181416" fill-opacity=".5" rx="40" ry="6"/><path fill="#29231b" fill-opacity=".5" d="M116 72h9v13h-9z"/><path fill="#624322" fill-opacity=".5" d="M221 106l-2 5-6-10z"/><path fill="#e5b58c" fill-opacity=".5" d="M132 61h22v6h-22z"/><path fill="#383127" fill-opacity=".5" d="M89.1 73.2l-13.5-.6-1.4 12.6 26.1-14.1z"/><path fill="#0b0908" fill-opacity=".5" d="M49.1 88.6L6.8 98.9l14.8 9.5-1.8-17.7z"/><path fill="#17202a" fill-opacity=".5" d="M245.7 39.6l19.4-55.3-58.6.8L269 42.6z"/><path fill="#030100" fill-opacity=".5" d="M233 120l-14.4 19.2L193 120l14.4-19.2z"/><path fill="#e7c1a7" fill-opacity=".5" d="M170.1 48.2l-28.4 14.9 19.7 1.4 16.2-14.9z"/><path fill="#4c463e" fill-opacity=".5" d="M138.7 72.1l.2-1L225.3 88l-.2 1z"/><ellipse cx="30" cy="7" fill="#374451" fill-opacity=".5" rx="91" ry="4"/><path fill="#71666c" fill-opacity=".5" d="M120.3 17.9l103.5 29.2L145.5 34l-14.7-12z"/><ellipse cx="93" cy="64" fill="#f8e0b6" fill-opacity=".5" rx="33" ry="3"/><path fill="#191814" fill-opacity=".5" d="M224 69l22 29 17-32z"/><path fill="#030000" fill-opacity=".5" d="M249.3 136h-16.5l29.1-36.9-28.5-1.1z"/><path fill="#67514e" fill-opacity=".5" d="M217.2 66.8l-4.7 3.9-45.3 1.8 28.4-9.2z"/><path fill="#d4b7af" fill-opacity=".5" d="M58 33.8l.2-3 61.8 5.4-.2 3z"/><path fill="#090b07" fill-opacity=".5" d="M130.8 99.7l1.9-10.8 30.5 5.4-1.9 10.8z"/><path fill="#211c14" fill-opacity=".5" d="M129.3 78.8l6.4 11.2 30.9 1.3 1.9-11.4z"/><path fill="#914c3f" fill-opacity=".5" d="M196 61.2l15.8-11.9 9.5 10.4 31.3-11.9z"/></g></g></svg>