<svg xmlns="http://www.w3.org/2000/svg" viewBox="0 0 625 1000"><defs/><filter id="a"><feGaussianBlur stdDeviation="12"/></filter><rect width="100%" height="100%" fill="#5a3231"/><g filter="url(#a)"><g fill-opacity=".5" transform="translate(2 2) scale(3.90625)"><circle r="1" fill="#b5d6d4" transform="rotate(-10.9 1167.9 -408.1) scale(96.74057 158.99999)"/><circle r="1" fill="#fff" transform="matrix(-43.32127 -24.71002 17.82714 -31.2543 159 204.5)"/><circle r="1" fill="#001315" transform="matrix(-15.90304 -9.6692 59.91525 -98.54328 124.2 69.2)"/><circle r="1" fill="#ffffdb" transform="rotate(-70.1 86.9 -20.4) scale(41.69503 19.25317)"/><path fill="#000d13" d="M29.1-56.7l66.3 28.1-62.5 147.3-66.3-28.1z"/><ellipse cx="127" cy="5" rx="138" ry="25"/><circle r="1" fill="#ebead8" transform="matrix(23.17966 .8464 -.8387 22.96883 147.3 130)"/><path fill="#0e0606" d="M96 152h54v16H96z"/><ellipse cx="52" cy="234" fill="#fff" rx="19" ry="10"/><circle cx="88" cy="201" r="29" fill="#3f4451"/><path fill="#1b2028" d="M-7.4 200.5L23.4-5.9-4.8 157.7l57 36.2z"/><path fill="#d0c3a9" d="M83.7-4.9l14.5 105.1-54.5 3.6 26.1-51.3z"/><path fill="#1d0d0a" d="M123 121.8l-69.4.7 20.1-14.9 48.5-22.7z"/><path fill="#e5dfdb" d="M-16 163l35-29 57 15z"/><path fill="#fff1eb" d="M18.4 173.2l80.6-8.4.6 6-80.6 8.4z"/><path fill="#452a23" d="M45 132h84v11H45z"/><path fill="#e2d8bc" d="M84.9 158.3l55.3-40.4-59.1 11.3 66.6 15.4z"/><circle r="1" fill="#436a7a" transform="matrix(11.99743 -12.38039 25.70844 24.91321 138 84.8)"/><path fill="#1d232b" d="M19.8 244l-27.7 6.7 63.7 6.4-27-20z"/><circle r="1" fill="#00181a" transform="matrix(36.61432 54.62963 -25.17147 16.87063 127 25.4)"/><ellipse cx="27" cy="91" fill="#346172" rx="19" ry="33"/><path fill="#d7dee7" d="M107 169h53v39h-53z"/><path fill="#fff" d="M11 231h14v12H11z"/><path fill="#2e2126" d="M101.1 222.5l-1.5 10 11.3 3.5 33.8-.3z"/><path fill="#5d5452" d="M168.6 212.2l-1.3 14-27.9-2.4 1.3-14z"/><path fill="#3c2b26" d="M36 159l74 6-32-17z"/><circle r="1" fill="#000e0b" transform="matrix(-51.40298 37.33373 -13.61133 -18.74077 34 24.8)"/><ellipse cx="79" cy="179" fill="#1c1c1c" rx="26" ry="5"/><path fill="#fff" d="M132 224l12-22-34 14z"/><path fill="#dad1ba" d="M64 175v-16l-56 9z"/><circle r="1" fill="#c0c0b6" transform="matrix(-30.17358 5.25088 -1.10404 -6.34423 39.3 131.4)"/><path fill="#42494b" d="M49.4 213.3l6 .5-2.8 40.9-6-.5z"/><path fill="#eee1d8" d="M105.2 88.1l-50.8 8.7-7.1 19.9 19.1-7.8z"/><path fill="#4f3732" d="M114.7 143.6l-75.9-1.5 134.4-16.2-13.9.5z"/><path fill="#282f3d" d="M116 49l-22 4 4 64z"/><path fill="#f4ffff" d="M38 185h31v5H38z"/><ellipse cx="159" cy="255" fill="#ffd6ad" rx="98" ry="4"/><path fill="#fffffa" d="M75 203h28v3H75z"/><path fill="#dfebed" d="M175 116.3l-11 68.8-13.7-34.3-24.7 3.6z"/><path fill="#202e33" d="M-11.9 249.3l2.9-26.8 20.9 2.2L9 251.5z"/><path fill="#fff" d="M97 233h7v13h-7z"/><path fill="#cbd2d4" d="M118.1 169.2l56.9-9.6-42.9 50.9-30.9-40.2z"/><path fill="#332719" d="M30.6 90.4l-.3-1 65-19.8.4 1z"/><path fill="#2f3036" d="M73 183h43v8H73z"/><circle r="1" fill="#383c36" transform="matrix(98.18021 -31.52222 .3057 .95213 62.6 68.3)"/><path fill="#543b40" d="M0 246h132v6H0z"/><path fill="#dde6da" d="M52.8 58.4l12.3-4.2-1.7-12.7 38.7-5.5z"/><path fill="#202020" d="M101.4 98.7l-18.1 42.5-11.2 11.2-1.1-47.2z"/><path fill="#fff" d="M35 226h12v17H35z"/><ellipse cx="91" cy="142" fill="#dbcbae" rx="4" ry="17"/><path fill="#544e57" d="M49 181l-64-20 45 47z"/><path fill="#fff" d="M55 228h10v19H55z"/><path fill="#9e9b92" d="M130 118l-19-52 36 49z"/><path fill="#7a7257" d="M5.3 26.2L-.4 65.9-16 34.7 4.7 10.4z"/><path fill="#1f2123" d="M119.7 154.4l-21 11.8 54.3-.6.8-9.6z"/><path fill="#636269" d="M62 211l57-9-47 52z"/><path fill="#343a40" d="M35.6 261.7L34 225.9l-8.3 2.7-3.2 23.9z"/><path fill="#fff" d="M24.5 236.5h-13v-9h13z"/><path fill="#ffefea" d="M45.4 147.1l24.9-2.2.3 4-24.9 2.2z"/><path fill="#768e98" d="M5 105h29v44H5z"/><ellipse cx="78" cy="139" fill="#3d312e" rx="36" ry="5"/><circle r="1" fill="#c2b89b" transform="matrix(1.40757 2.96051 -6.0271 2.86557 84.3 12.8)"/><path fill="#b7aba1" d="M4 199l-4 39-16-59z"/><ellipse cx="130" cy="125" fill="#e6e2c3" rx="25" ry="6"/><path fill="#fffefb" d="M134 213l-27 2 50 19z"/><path fill="#23373e" d="M64.6 58.4l32.1-12.9-80.5 22.2 3.4-30z"/><path fill="#f1eede" d="M67.8 95.5l-1.1-.6 30.9-9.3-5.4 15.1z"/><ellipse cx="116" rx="37" ry="17"/><path fill="#504351" d="M156 222l2 20 12-26z"/><path fill="#8c6742" d="M58 143l-25-2-6 9z"/><path fill="#211f1f" d="M17.3 199.2l-38.5-11 3.9-13.4 38.5 11z"/><path fill="#8699aa" d="M143.9 106.8l17.2-5.3 9 29.7-17.2 5.3z"/><path fill="#63574f" d="M51.5 155.5l-12.6 1.2.5 28.1-5.9 14z"/><path fill="#34404a" d="M118 53h32v36h-32z"/><path fill="#737183" d="M117.5 197.6l6.1 17.9-16.2-4.8-18.9-22.2z"/><path fill="#f2efc7" d="M88 145h16v10H88z"/><path fill="#9d5445" d="M112 240h32v12h-32z"/><path fill="#b99991" d="M175 271l-45-46 28 15z"/><path fill="#4a3f3b" d="M36.6 98.7l58.7-11.5 29.8 34.3-3.4-45.1z"/><path fill="#292522" d="M50.6 115.8l27 11.1 23.1-27.5-41.3 14.8z"/><path fill="#fde2e3" d="M1.2 160.4l-.6-4 68.2-10.8.6 4z"/><path fill="#9e908c" d="M104.6 234L-9.1 218.8l51-21.8 18.4 25.2z"/><path fill="#deded5" d="M89 38l11 22-3-31z"/><path fill="#040805" d="M113.4-16L63.5 16.2l77.4.5-73 4z"/><path fill="#413234" d="M82.6 155.4l-18.1 14.1 42.2-9.5-6.8-3.8z"/><circle r="1" fill="#735348" transform="rotate(178.9 60.8 68.3) scale(24.99378 4.05517)"/><path fill="#fffee5" d="M143.4 133.4l-16.5 4.1-.3-1 16.5-4z"/><path fill="#a591a2" d="M98 250.3l.9-23.2-10.8-3.1-4 24.2z"/><path fill="#44575e" d="M2.2 131l8.7-42.3L45 83.9l.2 19.2z"/><ellipse cx="141" cy="144" fill="#eaebdb" rx="24" ry="6"/><path fill="#43342d" d="M96.5 131.6l3 48.7-7.8-68.3 5.5-.1z"/><path fill="#c5cbcf" d="M99.7 171.4l74.2-10.2-23.3 27.4-20.4 10.2z"/><path fill="#ddd3b9" d="M65.6 77.4l31.2-16.3L51.2 72l6.3-17.9z"/><path fill="#ccba9e" d="M4 34l-15 26 6 13z"/><path fill="#030807" d="M0 33l18-49 60 51z"/><path fill="#38363d" d="M119 193l-23.4-6.1 12.3-23.9-21.6 14.3z"/><path fill="#e7e8ed" d="M140.1 226.1l-2.5-42.9-19.1-10.1 2.6 45.3z"/><path fill="#a0b4bd" d="M4 129h28v25H4z"/><path fill="#171d26" d="M120.1 165.3l-1 .2-3.2-22.8 1-.2z"/><path fill="#b29d91" d="M117.5 81.7L108 70.2l4.6-3.9 9.6 11.5z"/></g></g></svg>