<svg xmlns="http://www.w3.org/2000/svg" viewBox="0 0 1280 800"><defs/><filter id="a"><feGaussianBlur stdDeviation="12"/></filter><rect width="100%" height="100%" fill="#5d5c41"/><g filter="url(#a)"><g fill-opacity=".5" transform="matrix(5 0 0 5 2.5 2.5)"><circle cx="78" cy="91" r="210" fill="#b3bbe8"/><ellipse cx="193" cy="112" fill="#5e4d1d" rx="248" ry="23"/><circle r="1" fill="#fff" transform="rotate(-100.4 125.6 -46) scale(42.06972 17.40789)"/><ellipse cx="31" cy="53" fill="#b8c4ff" rx="84" ry="29"/><circle r="1" fill="#2b69d2" transform="rotate(-91.8 46.5 -45) scale(45.46857 85.94866)"/><ellipse cx="33" cy="159" fill="#e1c1a8" rx="117" ry="43"/><ellipse cx="234" cy="86" fill="#172713" rx="20" ry="29"/><circle r="1" fill="#63adff" transform="matrix(-16.77074 26.51357 -106.05354 -67.08248 255 21.3)"/><circle r="1" fill="#3f3f2d" transform="matrix(16.50662 -10.49548 28.03217 44.0872 159 100.1)"/><circle r="1" fill="#ebccbc" transform="rotate(173 103.6 86.1) scale(68.06053 24.61694)"/><path fill="#fff" d="M107.8 88.9l22-.8.4 13-22 .8zm78.2 6.2l5.5-84.5 15.9 62 1.8 29.2z"/><circle r="1" fill="#554816" transform="rotate(94.7 -40.5 58.1) scale(11.69553 78.45259)"/><path fill="#000012" d="M130 153l-12-12-19 8z"/><path d="M36 141l-30-3 19 10z"/><ellipse cx="149" cy="125" fill="#211a29" rx="60" ry="5"/><ellipse cx="55" cy="156" fill="#e6deda" rx="60" ry="12"/><path fill="#f4e7f6" d="M212 111h8v34h-8z"/><ellipse cx="24" cy="50" fill="#c3b8d0" rx="25" ry="39"/><circle r="1" fill="#9e9084" transform="rotate(-166.8 83.5 17.2) scale(27.02813 26.98117)"/><path fill="#6b4b2b" d="M8.6 72.8L20 106.9l-14.5 5.4L-16 64.5z"/><path fill="#fdc" d="M78 85l-23 5 20 9z"/><path fill="#211400" d="M228 175l6-38 3 26z"/><ellipse cx="110" cy="80" fill="#533821" rx="41" ry="3"/><path fill="#c4bba6" d="M224.6 65.5L182.9 7.3l25 47.8-39.8 15.6z"/><circle r="1" fill="#446fb8" transform="matrix(127.62668 -14.88301 1.5815 13.56193 162.5 3.6)"/><circle r="1" fill="#5b534a" transform="matrix(2.5552 4.1159 -28.50531 17.69642 146.2 48.7)"/><path fill="#2a351a" d="M135 103l-57 12-9-16z"/><path fill="#fdedd6" d="M24 113l15 8-39 4z"/><path fill="#0f1b08" d="M264.2 93.3l-2.7 19.8-31.7-4.4 2.7-19.8z"/><path fill="#93795d" d="M10.7 128.2l92.2-18.1-.4 30.5-11.6.2z"/><path fill="#f9e6ed" d="M191 106h3v33h-3z"/><path fill="#9e9a91" d="M190.3 96.1l55.6 24.3-56.4-4.7-26.9-52.4z"/><circle r="1" fill="#89b9e2" transform="matrix(-9.13668 -41.18736 6.56012 -1.45525 250.4 54.9)"/><path fill="#603217" d="M78.6 83.9l-10.3-3.7-32.8 4.9.4 2.4z"/><path fill="#362d3d" d="M210.4 137.3l-15 1.3-1.8-21.9 15-1.3z"/><path fill="#7288bb" d="M56 48L-16-4l156 51z"/><path fill="#bcbfe1" d="M97 63h24v14H97z"/><path fill="#888d8b" d="M109 105h43v13h-43z"/><path fill="#fff" d="M183.8 104l12.3-7.6 17.2.5-13.6-33.2z"/><path fill="#cad0ce" d="M188.4 11.8l78.5 43.6L193 20l-44.2 10z"/><path fill="#f2ebd9" d="M221 50l-9-9 1 28z"/><path fill="#3f4631" d="M171 83l-39 2 49 66z"/><path fill="#fff" d="M250 112h6v7h-6z"/><ellipse cx="35" cy="159" fill="#5d754a" rx="11" ry="5"/><path fill="#ffeaec" d="M261.4 154.3l-3.2 9.5-23.6-8.1 3.2-9.5z"/><path fill="#c8bab9" d="M141 133l-20-5-1 20z"/><path fill="#616f5a" d="M271 65.3l-16.6 2.8-20-22L208 80.4z"/><path fill="#b4a6af" d="M169 114h3v46h-3z"/><path fill="#e7dada" d="M108 154h48v6h-48z"/><path fill="#a39997" d="M206 65l-47-21-29 24z"/><circle r="1" fill="#6c6956" transform="rotate(26.6 40.5 446.6) scale(21.3781 2.35891)"/><path fill="#948639" d="M257.5 122.8l-39.3.9 26.6 12.3.6 13.5z"/><path fill="#39302f" d="M153.1 150.6l20.7-40.7-57.6 18.8 37 4.2z"/><path fill="#d2c3db" d="M6.7 64.2l-24-7.3 12.6-41.1 24 7.3z"/><path fill="#ae9476" d="M39.6 86.8l-8.2 16 119.4-23-99.4 5.9z"/><path fill="#4f4f4b" d="M174.9 33.2l20.7-16.3-27.5 15.8-52.5 39.8z"/><path fill="#3a3847" d="M101.8 145.6l15.9-5.2-15.7 10.5 42.3.6z"/><path fill="#fff" d="M185.3 58.8l.4-18 19 .4-.4 18z"/><path fill="#d7c3a5" d="M25.7 112.5l-30.3 37.3 45.8-38.2-.1 14.8z"/><path fill="#775841" d="M-1.5 124.5h5v25h-5z"/><path fill="#fff" d="M127 142l-7 5 15-1z"/><path fill="#7f8b3e" d="M244.1 161.5L165 175l63.2-20.7 22.1 6.6z"/><path fill="#517fc3" d="M199.6 9.9L79.1 17.8l33.5 39.9 43.5-37.2z"/><path fill="#2e3724" d="M124.1 103.7l4.8 8.4 33.4-27.6v10.1z"/><path fill="#a6b1d5" d="M48 35h35v45H48z"/><path fill="#50493f" d="M89.1 130.3l18.6-14.8 6.2-.7-23.1 26.4z"/><path fill="#1d2519" d="M88 118l-32-15 34 3z"/><ellipse cx="233" cy="120" fill="#36281f" rx="2" ry="42"/><path d="M16 144l-3-4 14 3z"/><path fill="#fff" d="M214 91l-26-27v29z"/><path fill="#ccbcc4" d="M110.2 97.4l19.1 5.3-7.2-19.9-21.7.6z"/><circle cx="227" cy="116" r="3" fill="#fff"/><path fill="#aca07f" d="M213.8 51l-9.7 16.6 5-43.1 28 18.3z"/><ellipse cx="118" cy="78" fill="#45302a" rx="13" ry="3"/><path fill="#ffeee4" d="M29.2 134.2l-1 4-17.4-4.4 1-4z"/><path fill="#f5f5f5" d="M9.9 156.9L-16 140.4 17.6 175l11-28z"/><path fill="#757419" d="M85 72h13v4H85z"/><ellipse cx="125" cy="59" fill="#625441" rx="8" ry="9"/><path fill="#565747" d="M258.7 102.2l-33.9-10.5-4.8 28.2-8.5-39.8z"/><path fill="#b9bbd6" d="M23.1 91.5L-15 34.8l94 21.7 35.7-7z"/><path fill="#695d4d" d="M9 136h4v21H9z"/><path fill="#1e1928" d="M188.5 118v16h-15v-16z"/><path fill="#e4d3d2" d="M221 135h11v20h-11z"/><path fill="#76705f" d="M126.7 103.8l36.4-41.1 16.5 28.4L135 57.7z"/><path fill="#ece2de" d="M64 92l7 7 10-10z"/><path fill="#afafb4" d="M172 33h15v49h-15z"/><path fill="#a3877b" d="M99.1 124.1l-46 2.8 17-19.1 1.8 7.2z"/><path fill="#88b6e8" d="M285 35.4l-34.9 28.3-25.2-31 35-28.4z"/><circle r="1" fill="#867e89" transform="matrix(-92.475 -14.93253 .15941 -.98721 191 159)"/><path fill="#5a662c" d="M107.2 110.6L72.3 102 84 90.5l19.6-2z"/><path fill="#975d5d" d="M36.7 137.4l-13.6 6.7-8.2-10.5-7.7 6.7z"/><path fill="#a4a9ab" d="M140.6 103.1l3.9 3.1-15.1 18.7-3.9-3.1z"/><path fill="#a2a599" d="M188 24l16 7-34 6z"/><path fill="#9f9882" d="M208 64h6v19h-6z"/><path fill="#5889cf" d="M223.7 30.7l26.6-27.9-95 6.2 33.6 2.1z"/><path fill="#c9b6b0" d="M25.5 161.3l78.8-12.6-81.4-18.6 33.2 35.2z"/><path fill="#58655f" d="M241.3 99.7l-15.5-54.2-23.5-18.4 39 22.5z"/><ellipse cx="169" cy="62" fill="#968f8d" rx="33" ry="3"/><ellipse cx="201" cy="150" fill="#c4bec1" rx="22" ry="9"/></g></g></svg>