<svg xmlns="http://www.w3.org/2000/svg" viewBox="0 0 1280 800"><defs/><filter id="a"><feGaussianBlur stdDeviation="12"/></filter><rect width="100%" height="100%" fill="#423d39"/><g filter="url(#a)"><g fill-opacity=".5" transform="matrix(5 0 0 5 2.5 2.5)"><circle r="1" fill="#d5d7ce" transform="rotate(-91.5 103.5 -5.2) scale(68.12384 173.53762)"/><path fill="#d1feff" d="M252 59l-58-11-1 73z"/><circle r="1" fill="#cdcebb" transform="rotate(-169.7 63.5 42.7) scale(77.24919 25.47993)"/><ellipse cx="158" cy="40" fill="#49483f" rx="31" ry="51"/><circle r="1" fill="#fff" transform="matrix(-25.641 -3.0575 .90077 -7.55411 8.8 54.1)"/><ellipse cx="107" cy="159" fill="#666267" rx="147" ry="38"/><ellipse cx="255" cy="127" rx="11" ry="24"/><ellipse cx="125" cy="33" fill="#6c645b" rx="239" ry="16"/><path fill="#513b12" d="M55.8 93.9l.4 19-70 1.2-.4-19z"/><circle r="1" fill="#c3b5ae" transform="matrix(8.70851 -3.26988 23.40046 62.3214 229.8 139.3)"/><circle r="1" fill="#d5e0e7" transform="rotate(-65 137 -52.7) scale(33.97495 7.29258)"/><circle r="1" fill="#b5d9ff" transform="matrix(2.07183 12.99718 -33.42048 5.32741 214.3 69.7)"/><path fill="#fff0d6" d="M149 108h75v9h-75z"/><circle r="1" fill="#c8c4a1" transform="matrix(-4.11165 19.33442 -12.1281 -2.57915 35 129.3)"/><path fill="#455b45" d="M92.9 100.2l31.6-14.8 2.5-11.6-10.9 1z"/><ellipse cx="68" cy="159" fill="#524c4a" rx="60" ry="16"/><path fill="#000400" d="M5 153l18-28-16 5z"/><path fill="#c8d5e0" d="M125.5 69.7L72.8 86.3l43.1-28.7 3.7-19.6z"/><circle r="1" fill="#dad2bb" transform="matrix(-.21462 -40.98882 6.38127 -.03341 62.8 86)"/><path fill="#191620" d="M231.8 116.5l-48 12.8 75.6-12.3 10.5 35.5z"/><path fill="#eae0b6" d="M11.6 158.8l-17.9-40.2 22.6 5.5-32.3 26z"/><path fill="#8cadbf" d="M164 84h87v13h-87z"/><ellipse cx="8" cy="56" fill="#fffffa" rx="19" ry="9"/><path fill="#f2efef" d="M221 122h14v21h-14z"/><ellipse cx="200" cy="101" fill="#b2915d" rx="91" ry="5"/><circle r="1" fill="#5f584f" transform="matrix(81.91761 -19.2136 4.51256 19.2394 88 23.2)"/><path fill="#4f4437" d="M110.4 126.2l-6.5-21-6.7 11.9L69.6 136z"/><path fill="#6e6b7a" d="M139 118h81v42h-81z"/><path fill="#706038" d="M39 49h18v26H39z"/><path fill="#616b42" d="M246 83l-34 11 1-10z"/><path fill="#cfdaec" d="M141.8 67.2l3.3 46.9-11 .7L131 68z"/><path fill="#4f5443" d="M179 85l7-43-63 20z"/><path fill="#201916" d="M251 136l3-81 17 60z"/><path fill="#817f63" d="M-16 10l76 25-76 14z"/><ellipse cx="238" cy="43" fill="#6b6263" rx="66" ry="9"/><path fill="#695635" d="M11.9 97.1l39.6 10-67.5 22.5V96z"/><path fill="#495142" d="M146 63h6v50h-6z"/><path fill="#d5c2a7" d="M123 125l-21-27 55-6z"/><path fill="#abc7f2" d="M248.4 67.8l-52.9-15.5 58.4 5-3.4 50.6z"/><path fill="#fff5da" d="M192 110h43v5h-43z"/><path fill="#bdb6ac" d="M109.5 63.7l-8 25.8-43-13.2 8-25.8z"/><path fill="#565c52" d="M248 84l-13-5 8-15z"/><path fill="#848b74" d="M189.9 116.7l7.4-28.4-1.4-18.3-10.3 1z"/><path fill="#78625a" d="M127 100v17l11-18z"/><circle cx="120" cy="46" r="5" fill="#eff8f7"/><circle r="1" fill="#7e7b84" transform="matrix(9.34218 -15.41339 12.8134 7.7663 171.9 130.2)"/><path fill="#d6eaff" d="M203 89l-12-13 56-15z"/><path fill="#b9defd" d="M141.2 74.3l-21.5 13 22.3 2.2-32.3-24z"/><path fill="#c9d6ea" d="M164.3 87.2l.8-5 28.6 4.6-.8 5z"/><path fill="#2a3123" d="M18 125h6v35h-6z"/><path fill="#2b333b" d="M50 125l7-17-11-6z"/><path fill="#fffffb" d="M161 103h9v10h-9z"/><path fill="#615456" d="M237 113h10v47h-10z"/><path fill="#c0b891" d="M41.6 52.7l-54.5 13.5L36 64.4l6.7 31.5z"/><path fill="#69625c" d="M84.3 15.5L68.7 51.9 171 64.8l-48.8-10.9z"/><ellipse cx="159" cy="94" fill="#88aabd" rx="72" ry="4"/><path fill="#a5a287" d="M17 137l65-34-21 33z"/><path fill="#fff8f4" d="M139 112l-26 8 11 3z"/><path d="M247 114h9v23h-9z"/><ellipse cx="69" cy="94" fill="#737060" rx="2" ry="49"/><path fill="#fde5d8" d="M209 117l-9.3 3.7-6.8-17.8 9.4-3.6z"/><path fill="#fff" d="M-13 41l38 11-41 15z"/><ellipse cy="70" fill="#6b6042" rx="62" ry="3"/><path fill="#0a0f01" d="M8 130h6v21H8z"/><path fill="#bbdcff" d="M101.9 84.6l4.7-3.7 16-20.8-20.2 9.2z"/><path fill="#ded9b8" d="M-16 109l22 22-5 25z"/><path fill="#c9c7ad" d="M18.8 151.3l-1.7-18.5-6.4 23.7-9.9-7.8z"/><path fill="#434d2f" d="M123 78l-11-4-5 16z"/><ellipse cx="53" cy="106" fill="#6c6961" rx="2" ry="58"/><path fill="#414434" d="M148.5 35.4l-22 16-2 4.4 18.9.2z"/><path fill="#a57764" d="M268 112l-64-6 44-8z"/><path fill="#736965" d="M278.5 57l-3 9.6-64-19.6 3-9.6z"/><ellipse cx="84" cy="104" fill="#fffff5" rx="2" ry="12"/><path fill="#62412b" d="M117 101h3v11h-3z"/><path fill="#d3d6c3" d="M54 74h15v32H54z"/><path fill="#b6c1d1" d="M251.3 86.7l-6.3-4.5-13.5 11.5 20.9 4.4z"/><path fill="#494c3b" d="M171.1 64.2L156.5 79l17.5 4.6 24.3-44.5z"/><path fill="#756f60" d="M81 41h2v72h-2z"/><path fill="#a4cdff" d="M209 74l-13-25 53 10z"/><path fill="#6e754b" d="M186 81h13v7h-13z"/><path fill="#777784" d="M110 123h110v18H110z"/><path fill="#5d5553" d="M213 130.1l7.5 13.9-2.4-27.1 13.2-3.8z"/><path fill="#bab7a2" d="M37 139l-23-22 32-1z"/><path fill="#6a665e" d="M29 79h3v81h-3z"/><path fill="#d4c2ba" d="M55.6 47.4l13 .2-.2 13-13-.2z"/><path fill="#655f5e" d="M119 157l121-13-47 27z"/><path fill="#514b64" d="M180 105h2v16h-2z"/><path fill="#74735f" d="M94.8 118.6l-.8 9-46.8-4.2.8-9z"/><path fill="#dad9c1" d="M92 71h4v47h-4z"/><path fill="#95924a" d="M204 93l-11 10-27-3z"/><path fill="#4f5a49" d="M143 71h11v20h-11z"/><path fill="#bfc0a3" d="M21 74h29v8H21z"/><path fill="#9e9086" d="M205 168.2l-21 6.2 57.8-29.3 8.6 5.8z"/><path fill="#e8efe6" d="M219.3 142.2l16.8-2.4.6 4-16.8 2.4z"/><ellipse cx="157" cy="33" fill="#625a5a" rx="113" ry="8"/><path fill="#fffae7" d="M159.9 118.6l-10.4 1 19.2-12-8.6-3z"/><path fill="#9f9a8d" d="M95 69h8v30h-8z"/><circle r="1" fill="#4b4240" transform="rotate(-169.5 78.6 -3.2) scale(141.43815 11.63561)"/><circle r="1" fill="#7f847e" transform="rotate(107.5 58.4 85.8) scale(14.087 4.02452)"/><path fill="#a2b9b9" d="M151.1 87l-1.8-5.6 7.6-2.5 1.8 5.7z"/></g></g></svg>