<svg xmlns="http://www.w3.org/2000/svg" viewBox="0 0 1111 800"><defs/><filter id="a"><feGaussianBlur stdDeviation="12"/></filter><rect width="100%" height="100%" fill="#6f6f36"/><g filter="url(#a)"><g fill-opacity=".5" transform="translate(2.2 2.2) scale(4.33984)"><circle r="1" fill="#fef0ff" transform="matrix(-20.06909 249.43528 -93.17352 -7.49656 135 14.5)"/><circle r="1" fill="#000003" transform="matrix(-17.17474 -68.90969 37.84049 -9.4312 7 69)"/><circle r="1" fill="#714016" transform="matrix(105.07459 13.6141 -3.56097 27.48385 169 99)"/><ellipse cx="136" fill="#d3eaff" rx="112" ry="59"/><circle r="1" fill="#000b20" transform="rotate(2.5 -1902 5729.1) scale(29.07197 69.73444)"/><circle r="1" fill="#727f00" transform="matrix(1.51251 15.69517 -107.43898 10.35366 119.7 179.7)"/><circle r="1" fill="#fff" transform="matrix(4.31598 -15.15595 22.69327 6.4624 189.3 141.5)"/><path fill="#deddbf" d="M28 134h82v35H28z"/><path fill="#fff" d="M48 128l38 13L50 27z"/><path fill="#d37b41" d="M58 35l12 59 180 18z"/><ellipse cx="189" cy="40" fill="#c6d9ff" rx="35" ry="32"/><path fill="#dbe7ff" d="M211.5 89L169 56.3l80.9-46.4L223.7-16z"/><circle r="1" transform="matrix(30.88434 18.82033 -9.57537 15.71327 14.6 110)"/><circle cx="68" cy="6" r="34" fill="#e8efff"/><circle r="1" fill="#655f41" transform="matrix(-13.3376 -26.26962 17.18299 -8.72414 220 113.1)"/><circle r="1" fill="#233912" transform="matrix(-.35903 5.1343 -39.9957 -2.79677 100.9 104.5)"/><path fill="#fdfffd" d="M139 130h70v20h-70z"/><path d="M213 148l58 15-56-36z"/><path fill="#fff" d="M44 155.2l-15.8-.3 19.4 15 32.7-4.6z"/><path fill="#afc0f0" d="M267-11L30-16l134 84z"/><path fill="#eceefd" d="M116.3 33.8l85.3 35-84.3-7.4L13.4-8.3z"/><circle r="1" fill="#aeb24f" transform="matrix(1.49734 -13.57526 30.89775 3.40799 213.3 167.5)"/><path fill="#fff" d="M69 125h36v14H69z"/><path fill="#ad6230" d="M108 51L55 37l16 55z"/><path fill="#fff" d="M141 102h12v11h-12z"/><circle r="1" fill="#d0996d" transform="matrix(-40.58112 .89647 -.44739 -20.25207 133.4 81.2)"/><path fill="#6b744f" d="M53 70L25-10l-1 79z"/><path fill="#857a4d" d="M53 149h34v11H53z"/><ellipse cx="163" cy="111" fill="#001300" rx="10" ry="6"/><ellipse cx="254" cy="119" fill="#010600" rx="15" ry="36"/><ellipse cx="90" cy="183" fill="#5e6518" rx="113" ry="8"/><ellipse cx="3" cy="146" fill="#181b13" rx="7" ry="181"/><path fill="#8a8554" d="M53 126h10v35H53z"/><path fill="#f8fcf7" d="M56 38l-11 64 22 3z"/><path d="M190 74l-21-7 6 8z"/><path fill="#000b00" d="M201 111h15v12h-15z"/><path fill="#fff" d="M182.7 108.2l-.4 8-9-.4.4-8z"/><circle r="1" fill="#1a1b1a" transform="matrix(.85106 -11.31875 30.20667 2.27125 243 72)"/><path fill="#9c9b71" d="M243 136l-17-3 3-31z"/><circle r="1" fill="#959e2e" transform="matrix(53.3601 8.10444 -.75927 4.9991 21.6 167.3)"/><path fill="#261e0c" d="M271 34.8l-37.3-.8-8.1.7 9.4-17.5z"/><path fill="#fff" d="M111 41h15v24h-15z"/><circle r="1" fill="#95a46e" transform="matrix(-.7175 7.88395 -46.58312 -4.2394 131.4 119.6)"/><circle r="1" fill="#9fb3d9" transform="rotate(-179.5 87.1 -.4) scale(51.54937 27.89958)"/><path fill="#050605" d="M0 73h29v59H0z"/><path fill="#6f7574" d="M212 67l17-35 1 29z"/><path fill="#877b5c" d="M47.1 134.5l-19.5-.4-27.1 1.3 29.6 18.1z"/><path fill="#e3e4d0" d="M154 160l63-5-28-10z"/><ellipse cx="113" cy="161" fill="#f4f8e9" rx="33" ry="3"/><ellipse cx="165" cy="183" fill="#918e40" rx="3" ry="59"/><ellipse cx="40" cy="112" fill="#585833" rx="7" ry="25"/><path fill="#505730" d="M243 127l-22-17-48 18z"/><ellipse cx="87" cy="170" fill="#a8aa35" rx="36" ry="4"/><path fill="#d2d9e2" d="M196.8 80.3l33.4-43.5-40.9-4.1 33.1 69.9z"/><path fill="#c4c8a8" d="M73 98.5l14.7 25.1-25.7.5 3.5-39.2z"/><path fill="#0e1400" d="M245.3 193.9l-7-8.6 16.4-13.2 7 8.6z"/><circle cx="223" cy="146" r="9" fill="#000003"/><path fill="#1d240b" d="M128 103.2l-.6 4L68 98.8l.6-4z"/><circle r="1" fill="#b26b3c" transform="matrix(28.65784 16.88076 -3.21181 5.45258 201.4 92.8)"/><circle r="1" fill="#fff" transform="matrix(-11.29342 -5.90405 2.53875 -4.85617 46 161.3)"/><path fill="#9ea07e" d="M22.4-16l8.1 53.9h10.8l-4.4-25z"/><ellipse cx="199" cy="161" fill="#98965b" rx="2" ry="58"/><path fill="#cd9870" d="M128.9 55.5L184.3 78l-2.9-3.1-59.2 13z"/><ellipse cy="13" fill="#2c3225" rx="24" ry="69"/><ellipse cx="85" cy="128" fill="#fff" rx="18" ry="5"/><circle cx="251" cy="12" r="8" fill="#3a3a33"/><path fill="#ffeed7" d="M240.5 134l-.2 1-14.8-3 .2-1z"/><ellipse cx="157" cy="171" fill="#9a9d36" rx="55" ry="10"/><path fill="#373c22" d="M-15.8 42.4l62 17.1-3.6 41.8-18.7-83.9z"/><path fill="#d6dff1" d="M206 76l21-55-87 38z"/><path fill="#717959" d="M221 117l-10-35 31 32z"/><path fill="#bd8356" d="M110.9 52.1L75 46.7l9.4 49.5 38.9 2z"/><path fill="#e9ecf3" d="M91.3 48.2L53.6 37l22.9 74.9L26.5-16z"/><path fill="#a5a782" d="M105 117h31v35h-31z"/><path fill="#d4d3c4" d="M64 133h34v20H64z"/><path fill="#914d27" d="M220 96l-45 1 52 19z"/><path fill="#dbebc9" d="M190 111h10v6h-10z"/><path fill="#030400" d="M9 121h37v11H9z"/><circle cx="131" cy="82" r="4" fill="#ecf9f6"/><path fill="#433a1f" d="M240.9 151.2l30.1 6.4v-37.5l-42.1 19.4z"/><path fill="#8f8c66" d="M36.3 97.2l13.9-14.9-1.1-5.2-5 38.4z"/><path fill="#263112" d="M187 109h4v13h-4z"/><path fill="#29110f" d="M196.2 78l-11.8 2-.6-4 11.8-2z"/><ellipse cx="96" cy="109" fill="#888b54" rx="17" ry="4"/><path fill="#b0bbd0" d="M222 50h7v5h-7z"/><path fill="#8c7d53" d="M70.2 154.7l.6 15.2-.4-8.3 30-4.1z"/><ellipse cx="49" cy="118" fill="#dbdecd" rx="3" ry="42"/><path fill="#f9fcf3" d="M72 162h48v3H72z"/><path fill="#888c39" d="M29.6 199l59.7-31.5-81.4 3.3 23.5-22.9z"/><path fill="#8d9237" d="M180 159h70v21h-70z"/><path fill="#0d1408" d="M271 128.9l-26.8 3.4-11.3-8.4 33.5-50.3z"/><circle r="1" fill="#f9f8ee" transform="matrix(-2.41603 -.5064 3.17123 -15.12978 205.9 147)"/><path fill="#78909a" d="M207 89l10-16v13z"/><circle r="1" fill="#a9bd89" transform="rotate(7 -759.2 1048.3) scale(82.71581 1)"/><path fill="#b7b79d" d="M187 127h4v31h-4z"/><path fill="#dadcbb" d="M139.5 125.1l11.4 33.3 47.2.7-59.8 2.6z"/><path fill="#22270f" d="M32.4 183.3l-1.6 8.8-53.2-9.4 1.6-8.8z"/><path fill="#63694a" d="M14 15l17-8-3 17z"/><path fill="#f1f2ef" d="M142 129h20v13h-20z"/><path fill="#ecf0e8" d="M51 94l13-21v66z"/></g></g></svg>