<svg xmlns="http://www.w3.org/2000/svg" viewBox="0 0 900 600"><defs/><filter id="a"><feGaussianBlur stdDeviation="12"/></filter><rect width="100%" height="100%" fill="#2e325d"/><g filter="url(#a)"><g fill-opacity=".5" transform="translate(1.8 1.8) scale(3.51563)"><circle r="1" fill="#fffbbe" transform="rotate(-51.1 142.5 -44.2) scale(106.27833 255)"/><circle r="1" fill="#fff" transform="matrix(1.8855 -33.72452 81.9538 4.58193 82.1 17.3)"/><circle r="1" fill="#240a00" transform="rotate(177.2 71 38.2) scale(187.29071 27.32759)"/><circle r="1" fill="#000200" transform="matrix(46.86605 -25.21724 18.6617 34.68264 211.6 33.2)"/><circle r="1" fill="#fff" transform="matrix(-3.54504 26.92723 -82.76997 -10.89687 80.1 19.7)"/><circle r="1" fill="#cfbfb6" transform="matrix(7.75896 30.93162 -234.45872 58.8122 196.5 130.2)"/><circle r="1" fill="#dfcab4" transform="matrix(.38041 10.02048 -31.99254 1.21455 104.3 94.6)"/><path fill="#232815" d="M15 31l-19 79L98 73z"/><path fill="#fff" d="M-16 24l165 23 14-63z"/><path fill="#553b32" d="M145 55h79v52h-79z"/><path fill="#fff" d="M-9 18l25 38-32 16z"/><path fill="#f8fff9" d="M229 84h27v13h-27z"/><path fill="#c4d5ca" d="M241 50.8l21 1.5-1 15-21-1.6z"/><circle r="1" fill="#0d1200" transform="matrix(-48.14445 1.2171 -1.12604 -44.54214 215.8 13)"/><path fill="#061609" d="M82.8 44.8l75.6 21 42-26.4L118 51.3z"/><ellipse cx="64" cy="111" fill="#270000" rx="8" ry="10"/><ellipse cx="16" cy="137" fill="#c3c0bf" rx="45" ry="19"/><circle r="1" fill="#fff" transform="rotate(38.1 -8.8 54.5) scale(58.68882 11.00342)"/><circle r="1" fill="#8e552e" transform="matrix(-9.71088 13.53952 -25.45463 -18.25669 113 67.8)"/><circle r="1" fill="#472f15" transform="matrix(-22.5117 -1.57417 .20115 -2.87655 242.3 106.9)"/><path fill="#6e493c" d="M-2 26l48 44 21-18z"/><path fill="#453427" d="M150 90h15v22h-15z"/><path fill="#fffffe" d="M52 0h105v47H52z"/><circle r="1" fill="#dabb90" transform="matrix(-3.68895 -7.37206 3.48683 -1.7448 216.4 78.4)"/><circle r="1" fill="#c2bdbb" transform="matrix(1.04652 24.96914 -50.76613 2.12773 192.3 130.7)"/><path fill="#7e7a65" d="M186.3 31.8l-26.6-19-10.6 27.6-1.2-5.2z"/><path fill="#a88e79" d="M67 80h73v29H67z"/><circle r="1" fill="#feffff" transform="matrix(-9.299 25.14612 -68.28845 -25.25297 28.8 9.6)"/><path fill="#a07f6f" d="M176 147l-60 25 93-11z"/><path fill="#5f4f3c" d="M94 34.1l7.9 6.1-20.8 29.4 39.5 44.8z"/><path fill="#bcb4ac" d="M72 93h36v77H72z"/><path fill="#000529" d="M188 71.7l6-.3 2 35-6 .2z"/><path fill="#c1bfbd" d="M193.1 90.3l5.8-1.8 12 39.2-5.8 1.8z"/><path fill="#a26f58" d="M158 89l25-1 10-29z"/><path fill="#141d12" d="M226.5 78.4L203.7 106 252 70.9l-74.7-37.4z"/><path fill="#040d05" d="M19 68h29v15H19z"/><path fill="#d7d7d3" d="M174 99h12v8h-12z"/><path fill="#cbcbc9" d="M116 104l23-6-23-14z"/><path fill="#5d6662" d="M230 77h26v12h-26z"/><path fill="#fff" d="M9 44l-25-33L3 64z"/><path fill="#070a00" d="M188 30l70-46 13 75z"/><path fill="#1d3620" d="M0 80h33v23H0z"/><path fill="#292525" d="M2.7 37.8l.9-6 25.2 11L55.5 56z"/><path fill="#4b5157" d="M112.5 72.3l5.5 45.4-13.4 2.8 6.5-18.2z"/><ellipse cx="83" cy="58" fill="#844b2d" rx="61" ry="6"/><ellipse cx="176" cy="5" fill="#323a23" rx="18" ry="25"/><path fill="#070e08" d="M134.8 45.1l52.4 6.5-53.7 11.5 16.9 1.2z"/><path fill="#f4f3ef" d="M219 90h37v6h-37z"/><path fill="#fbfbed" d="M156.4-15.1l-4.7 58-2.2 1.9-37.3 5.6z"/><path fill="#a9a39f" d="M-2 107l66 67-7-76z"/><path fill="#a06942" d="M142.8 65.4l6.1 15.6-102.5 19.5 41.7-19.3z"/><ellipse cx="84" cy="70" fill="#312a1a" rx="33" ry="8"/><path fill="#3c6155" d="M143.7 57l.5 4.4-44.4-17.7-12.1 5.2z"/><path fill="#363736" d="M12.5 116.9l-.2-1 45.2-8.8.2 1z"/><path fill="#bac0c1" d="M271 53l-20.2 4.9-.8 12.9 14.4-6.8z"/><path fill="#9f948a" d="M-16 157l114-1-57 29z"/><path fill="#16120a" d="M206.9 67.1l16 11.1-33.5-4.3 5.3-16.6z"/><path fill="#946b53" d="M44 50l-8-11 36 14z"/><path fill="#5d4e43" d="M56.3 73.7l11.2 25.7 6.4 42.9-28.7-76.8z"/><path fill="#a46530" d="M35.1 74.1l-.8 21.4 5.2 41.1-2-43.8z"/><path fill="#984504" d="M89 81v36h-2V81z"/><path fill="#bdc6ca" d="M-7 55.8l34.2 4.3-3.7-.6 7.5-2.9z"/><path fill="#c8c6ba" d="M121.2 128.6l-8.2 3.5-93.4 17.8 105.9 1.8z"/><path fill="#6e7a7a" d="M10.5 72.2l14 4.7-40.5 7.7.9-2.8z"/><path fill="#cc751e" d="M121.1 136l68.2 29-.4 1-68.2-29z"/><path fill="#491d0e" d="M60 105h3v29h-3z"/><path fill="#c9cbbb" d="M211 81l2-7 13 8z"/><path fill="#724d2f" d="M164 56h29v19h-29z"/><path fill="#653f37" d="M120 83l23 15 50-29z"/><path fill="#372425" d="M228 65l-2 26-8 1z"/><ellipse cx="235" cy="100" fill="#8d7e5f" rx="31" ry="4"/><path fill="#21271a" d="M223.9-16l-68.2 65.9 28.5 7.5-26 37.5z"/><path fill="#76787d" d="M-17.7 94.5l85.2-12 .2 1-85.2 12z"/><path fill="#3f444e" d="M8 46h2v22H8z"/><path fill="#362923" d="M212 86h8v20h-8z"/><ellipse cx="205" cy="125" fill="#bbb6b1" rx="32" ry="22"/><path fill="#50524f" d="M175.3 109.5l-28.9 3.8 10.1-6.9 14.4-1.4z"/><circle r="1" fill="#998080" transform="rotate(97.2 63.6 172) scale(2.06743 36.71721)"/><path fill="#ccc8c1" d="M249 177l-33 8-27-26z"/><path fill="#4a4e4b" d="M259.3 50.2L258 55l-17.2-5.2L242 45z"/><path fill="#faf4d9" d="M161.7 34.4l-3.3 10.9-5 2.3L119.9 35z"/><circle r="1" fill="#494e2f" transform="matrix(27.46768 -9.30185 1.20234 3.55041 79.5 80.2)"/><ellipse cx="155" cy="83" fill="#0e0e54" rx="4" ry="9"/><path fill="#322c29" d="M231 55l-2 35-10-41z"/><path fill="#97978f" d="M151.8 14l13.5 10.3-20-40.3 19.1 25.5z"/><path fill="#29231d" d="M209.4 84.2l-4.8 15.2-5.4-7.7L226.7 57z"/><path fill="#98787a" d="M213.7 164.8l19-16.5 21.7-.2-33.5 21.6z"/><path fill="#000100" d="M9.4 91.1l-1 6-13.8-2.2 1-6z"/><path fill="#feffff" d="M117 23L49 43l22 9z"/><path fill="#000e09" d="M29 65v-7L7 64z"/><path fill="#acafb6" d="M5 43l24 9-9-9z"/><path fill="#030001" d="M19.7 46.2l-.4.9-13-5.3.4-.9z"/><path fill="#0a0f07" d="M254.5 70.5l-51-11.3-24.3-47.8 66.2 72z"/><path fill="#fe8b4e" d="M196.4 51l10 11.2-.8.7-10-11.1z"/><path fill="#fdfdff" d="M160 5L99 45l16-61z"/><path fill="#fafaf9" d="M130.7 20.3L27.5.9l103.3-2.2L169.1 29z"/><path fill="#000500" d="M127 51h60v5h-60z"/><circle r="1" fill="#ba7243" transform="matrix(.9991 -.04261 1.81676 42.59636 70.2 107.6)"/><ellipse cx="176" cy="141" fill="#c8c8be" rx="40" ry="8"/><path fill="#5f5949" d="M67.2 106.2l41.4-7.3.2 1-41.4 7.2z"/></g></g></svg>