<svg xmlns="http://www.w3.org/2000/svg" viewBox="0 0 900 600"><defs/><filter id="a"><feGaussianBlur stdDeviation="12"/></filter><rect width="100%" height="100%" fill="#42231d"/><g filter="url(#a)"><g fill-opacity=".5" transform="translate(1.8 1.8) scale(3.51563)"><circle cx="152" cy="74" r="172" fill="#fcffff"/><circle cx="128" cy="103" r="70" fill="#fff"/><circle r="1" fill="#050000" transform="matrix(-4.1738 27.53328 -44.30862 -6.71679 225.5 63.6)"/><ellipse cx="16" cy="60" rx="38" ry="23"/><ellipse cx="95" cy="16" fill="#170400" rx="64" ry="18"/><circle cx="95" cy="70" r="39" fill="#fff"/><path fill="#371c06" d="M51 45l-11 89 40 51z"/><path fill="#fff" d="M55 35h116v37H55z"/><circle cx="152" cy="134" r="63" fill="#e8eede"/><path fill="#290a05" d="M190.1 73.9l26.8-25.6 2.4 69.3-6.8-4.1z"/><circle r="1" fill="#71a0b7" transform="matrix(75.74406 12.81115 -3.58794 21.21318 217.9 25.4)"/><path d="M-6 81l62-10-72-49z"/><circle r="1" transform="rotate(91.8 -51.2 62) scale(5.93492 15.23621)"/><path d="M223 54h33v27h-33z"/><circle r="1" fill="#506e78" transform="matrix(25.89359 -8.35354 13.99777 43.3891 22 8.8)"/><circle r="1" fill="#c0bca3" transform="rotate(-12.1 823.2 -616.2) scale(108.05764 26.27332)"/><circle r="1" fill="#f4f9f5" transform="matrix(-18.26995 -76.09984 14.03042 -3.3684 78.2 107.8)"/><path fill="#402713" d="M91 22h68v13H91z"/><path fill="#5c3b39" d="M224.1 32.7l-8.2 77-49.2-58.9 51.8-21.6z"/><path d="M46 152h19v8H46z"/><path fill="#663112" d="M36 12h77v21H36z"/><ellipse cx="8" cy="158" fill="#321f0f" rx="13" ry="6"/><path fill="#a2c2cf" d="M238.2 20.5l-18.1 17.9 11.1 14.5L271 34.3z"/><path fill="#fff" d="M119 34l-68-2 5 29z"/><circle cx="129" cy="84" r="50" fill="#ebf0f1"/><path fill="#afd5de" d="M173 32l16 3-5 33z"/><circle r="1" fill="#e0eef1" transform="matrix(-.51703 5.2277 -25.84006 -2.55564 251.2 104.6)"/><path fill="#4b3e35" d="M208.9 26.6l13.5 14.2-62.1-19 55.4 3.8z"/><path fill="#11180c" d="M112.7 24l33.2-40h-17.6l-50.6 1.4z"/><path fill="#392a24" d="M62.5 99.5l-35.8 64 21.9-53.8-64.6 15.6z"/><circle cx="57" cy="119" r="6" fill="#e1e2e2"/><path fill="#c52a3f" d="M226.3 46.7l-1.6 20.9-5 1.9L201 43.4z"/><path fill="#7a99a7" d="M36.7 50.8L3.1 21.2 93.7-3.9 39.8-16z"/><path fill="#442000" d="M226 133l1-9-17 9z"/><path d="M64.2 136l3.3 20.8-19.7-24.6 10.4-.4z"/><path fill="#061000" d="M0 53h49v21H0z"/><path fill="#000400" d="M218 117l-13-20 2-31z"/><path fill="#6a8e9d" d="M238-16l-94.6 34.8-18.9-24.3L271 14.6z"/><ellipse cx="97" cy="27" fill="#a78e78" rx="44" ry="2"/><path fill="#7d3a1e" d="M47.9 1.5l3.4 23.9-.6 28.5-13.1-31.3z"/><path fill="#b1b3b7" d="M219 88h26v16h-26z"/><path fill="#bdbaae" d="M42 75h13v12H42z"/><circle cx="88" cy="169" r="25" fill="#c1beaf"/><path fill="#ebeef0" d="M178.6 124.9l-57 12.4 73.3-44.5 22.1 24.1z"/><path fill="#8ebbce" d="M200.7 28.3l13.8 20-7-6.8-55.3-4.1z"/><path fill="#938f89" d="M5 79h43v22H5z"/><path fill="#d6e6e8" d="M82.2 9.9l14-5.8L109.7-16 92.5 9.1z"/><path d="M93.7 3l-13 5.1L76.2-3l13-5z"/><path fill="#080a05" d="M197.1 36.5l-.2 14.2-4.8 10.1-3.4-19.4z"/><path fill="#af9c8d" d="M55-12l10 34 6-28z"/><circle r="1" fill="#bcb8a5" transform="matrix(39.89301 27.41771 -19.5064 28.382 209.5 169)"/><path fill="#747e76" d="M177.5 60.3L201 96.1l10.9-18.9.5 14.4z"/><circle r="1" fill="#131116" transform="rotate(147.5 102.7 49.6) scale(7.62697 5.41462)"/><path fill="#4d372d" d="M34.7 146.8l-6.8-9.9 17.4-11.7 6.8 9.9z"/><path fill="#591600" d="M68.7 132.3L56.3 86l1-.2L69.7 132z"/><path fill="#000100" d="M-14 59.8l5.6-26.4L14 38.2 8.4 64.6z"/><ellipse cx="205" cy="23" fill="#030000" rx="1" ry="21"/><path fill="#8f7d77" d="M-11.9 142.2l10.1 28 50.9-62.4-16.9 53.4z"/><circle r="1" fill="#293432" transform="matrix(.14263 .98978 -31.981 4.60853 178.9 31.3)"/><ellipse cx="67" cy="27" fill="#ffffe2" rx="15" ry="1"/><path fill="#050b05" d="M-16 110l30.7 2.9 14.2 5.6-36.7 2.7z"/><circle cx="42" cy="148" r="5" fill="#daeff4"/><path fill="#482518" d="M44 11l6 24-19-4z"/><path fill="#5d0c00" d="M151 23h30v2h-30z"/><path d="M60 111l-7-11-11 8z"/><path fill="#1f1911" d="M149.9-2l1.2 36h-1L149-2z"/><path fill="#ecefef" d="M71 34h49v106H71z"/><path fill="#cb5a72" d="M220.4 41.3l16.5 14.9-1.9-4.7-28.2-3.5z"/><path fill="#f0e9df" d="M59.3 118.9l1-.4 8.4 24.6-1 .4z"/><path fill="#e8eceb" d="M146.4 51.1L161 40.6l20.6 28.3L167 79.4z"/><path fill="#112a24" d="M175.6 46l5.3 12-4.5 2-5.3-12z"/><path fill="#7b95a1" d="M52.1-13.3L22.3 21.6l5.1 33.8L35.9 23z"/><path fill="#9dc4d5" d="M159 34h30v15h-30z"/><circle cx="9" cy="100" r="11" fill="#b1b6b3"/><path fill="#1a1a16" d="M63.2 101.7l-11.3-16-6.2 12.2 2.5-2.9z"/><path fill="#a4a8a5" d="M-4 171l40-17 38 17z"/><path fill="#322319" d="M80 29h56v5H80z"/><path fill="#fff" d="M87 5h10v2H87z"/><circle r="1" fill="#2a2214" transform="matrix(-10.26746 11.93342 -4.80185 -4.13149 200.4 64)"/><path fill="#99847a" d="M18.6 157.2l36-83.2-31.5 41.4 28.1-6.1z"/><path fill="#160900" d="M47 151h20v8H47z"/><path fill="#928073" d="M56 76.1l-19.9 32.8L42 80.3l39.7-2.8z"/><circle r="1" fill="#dda888" transform="matrix(15.93149 21.2903 -.80065 .59913 138.1 30)"/><path fill="#662121" d="M221.1 50.8L195 70.5l-14.3-21.1 42.7 29.5z"/><path fill="#031607" d="M241.3 65l-2.4-20.8-15.8 27.9 47.9 2.1z"/><path fill="#423b38" d="M56.4 160.3l-23.5-9.1L2 168.5l14.8-15.4z"/><path fill="#a3becb" d="M232.5 32.3L223.4 46l36.1-.3L229 29.9z"/><path fill="#181813" d="M122.9 6.4l27.3 23.2-14.9-3-1.4-16.6z"/><circle r="1" fill="#fb9866" transform="rotate(-102.9 33.3 -9.2) scale(15.5091 1)"/><ellipse cx="226" cy="19" fill="#606a6e" rx="2" ry="33"/><path fill="#c58f69" d="M68.5-17l21.9 51.6-1 .4-21.8-51.6z"/><path fill="#70838d" d="M69-16L25 7l49-1z"/><path fill="#4f3020" d="M52.4 25.9L147 4l-29.9 20.3 11.1 3.6z"/><circle r="1" fill="#b5b0a7" transform="matrix(.06878 .99763 -91.43252 6.30388 106 75)"/><path fill="#ffa364" d="M60 8l1-.4 9 26.5-1 .3z"/><path fill="#6c422c" d="M39.8-10.8l10.3 73.5 10.1 34.6-1.3-16.7z"/><path fill="#6c3308" d="M39.3 36l4.4 62h-1l-4.4-61.8z"/><path fill="#eaeded" d="M175.3 59.1l-130-26.5L157.2 36l50.2 83.8z"/><path fill="#a0cde2" d="M162 26h31v3h-31z"/><path fill="#1f2118" d="M105-9L69 19l11-35z"/></g></g></svg>