<svg xmlns="http://www.w3.org/2000/svg" viewBox="0 0 1000 600"><defs/><filter id="a"><feGaussianBlur stdDeviation="12"/></filter><rect width="100%" height="100%" fill="#3e5636"/><g filter="url(#a)"><g fill-opacity=".5" transform="translate(2 2) scale(3.90625)"><circle cx="76" cy="152" r="164" fill="#f1c9d2"/><circle r="1" transform="matrix(111.3804 -.11214 .01967 19.53925 34.8 91)"/><circle r="1" fill="#fff1d6" transform="matrix(1.9736 26.87525 -80.26912 5.8946 204.4 134.8)"/><circle r="1" transform="matrix(45.80192 -18.17127 14.3376 36.1389 218.1 32.7)"/><circle cx="115" cy="16" r="58" fill="#ced9eb"/><path d="M224.5 107.3l-1-54 36-.6 1 54z"/><ellipse cx="37" cy="151" fill="#fffef3" rx="88" ry="11"/><path fill="#8b5931" d="M135.3 131.3l11-40.5 44.4 11.9-11 40.5z"/><path d="M172 16l99-10-91 77z"/><path fill="#0b0000" d="M132.8 147.1l-15.9-7.4L9.1 126.6l42.6 12.9z"/><ellipse cx="63" cy="88" fill="#111600" rx="67" ry="18"/><ellipse cx="160" cy="115" fill="#ffffe8" rx="108" ry="4"/><circle r="1" fill="#a9c2d9" transform="rotate(-96 33.3 17.7) scale(24.9667 50.96307)"/><path fill="#ffe9ed" d="M268.1 106.6L252.3 168h-60l53.5-59.1z"/><path fill="#97b4d5" d="M-24.4-51.4l200 53.6-13.2 49.2-200-53.6z"/><path fill="#eeb989" d="M186 68h38v41h-38z"/><circle r="1" fill="#d8a775" transform="matrix(-5.65022 13.0041 -71.24845 -30.95711 121.1 65)"/><path d="M224 18h32v91h-32zm-39.3 125l-46.2-13.2.8-2.9 46.2 13.3z"/><ellipse cx="70" cy="126" fill="#935f2d" rx="57" ry="11"/><ellipse cx="74" cy="112" fill="#fff" rx="39" ry="2"/><path fill="#dfd9d1" d="M175 83l-71-40 59-14z"/><path fill="#0b0f0a" d="M176-3.6l2.3 45.4-7.8 35.3 71.7-20z"/><path fill="#261109" d="M33.7 22.5l9.6 4.1L9.7 7.5 30 36.9z"/><path fill="#fffaee" d="M-19.6 137.5l.6-6 84.6 9-.6 6z"/><ellipse cx="132" cy="152" fill="#fff8de" rx="7" ry="39"/><circle r="1" fill="#735336" transform="matrix(5.59352 -10.33027 32.47679 17.58517 149 91)"/><path fill="#160f07" d="M174.1 140.5l57.5-12.2-37.3 11.2-15.6 1.6z"/><circle r="1" fill="#fff8ef" transform="rotate(-36.9 222.8 -224.4) scale(3.13469 35.27718)"/><path fill="#fff1ea" d="M214.4 133.3l5.8 25.3-52.6 12.1-5.8-25.3z"/><path fill="#1f1d01" d="M73 74h50v31H73z"/><path fill="#c39976" d="M155.3 83.8l-13.5 13.5-31-31.1 13.4-13.5z"/><path fill="#fff5e8" d="M123.7 105l-3.3 3.4 36.6-.5-.8 10.4z"/><path fill="#fff4dd" d="M165 113.4l18.9 17.4 1.9-10 55.4-11.7z"/><path fill="#ddd8db" d="M-3.7 118.3l31-1.6.4 9-31 1.6z"/><path fill="#cb8f52" d="M209 116h26v14h-26z"/><path fill="#2b1f12" d="M111.8 102.7l102.2 1.6-95.5 1.5L134 90.7z"/><circle r="1" fill="#adb5ba" transform="matrix(-8.45523 .2198 -1.06214 -40.85949 53 39.6)"/><circle r="1" fill="#070d09" transform="matrix(-6.96382 -9.1732 3.21754 -2.4426 177.3 72.8)"/><path fill="#fffbda" d="M51.2 113.2l4.2.9 34.6 2.3 10-10.6z"/><path fill="#fff3eb" d="M170 141l-71 25 41-33z"/><path fill="#281306" d="M155 106h37v5h-37z"/><path fill="#92b0ce" d="M-29.5 19.7L-9-2.3l58.5 54.6-20.5 22z"/><circle r="1" fill="#221d0e" transform="matrix(.5871 -3.29595 28.35814 5.05135 82.5 139)"/><path fill="#623408" d="M110 133h17v13h-17z"/><path fill="#adbece" d="M164.2 55.8l12.2-23.6L152.3-16l-34.5 56.4z"/><circle r="1" fill="#1d2e18" transform="matrix(-7.99565 -13.96118 21.30351 -12.20064 17.8 93.5)"/><ellipse cx="28" cy="89" fill="#696357" rx="46" ry="3"/><path fill="#3b4947" d="M188.9 60.2L166 13.9l13.6-7.7-6.8 59.9z"/><circle r="1" fill="#91a3b7" transform="matrix(5.41967 28.32632 -53.32662 10.20297 79.9 0)"/><path fill="#4c412d" d="M37 69h46v6H37z"/><path fill="#dac4a9" d="M162.3 53.3l-.7 16.7L34.3 36.9l.6-11.7z"/><ellipse cx="127" cy="111" fill="#54280e" rx="13" ry="2"/><path fill="#000004" d="M26.5 130.8l67.4 9.4-.4 3-67.4-9.4z"/><path fill="#d2e7fe" d="M82 70l14-1-30-14z"/><path fill="#c9a788" d="M185 69h38v14h-38z"/><path fill="#e4d6d0" d="M233 108h23v40h-23z"/><path fill="#b94e00" d="M74 50h2v61h-2z"/><ellipse cx="7" cy="130" fill="#010c1a" rx="15" ry="2"/><path fill="#c2824b" d="M141.2 127.8L135 109l42.5 16.5 8.4 15z"/><path fill="#090d07" d="M220 64l45-77-93 84z"/><path fill="#c84800" d="M61 63h2v46h-2z"/><path fill="#4e5552" d="M32.1 66.2l-59.8 11.6-.4-2 59.8-11.6z"/><path fill="#ffe" d="M132.1 119.8l-52.7-5.6.5-4 52.7 5.6z"/><path fill="#3d3a22" d="M93 72h21v35H93z"/><path fill="#624633" d="M67.8 52.8L17.2 25.3l14.4-5.7L28.4 34z"/><path fill="#a97b50" d="M80 118h44v21H80z"/><circle r="1" fill="#ebd9cb" transform="matrix(-51.74335 -8.3806 .52639 -3.25002 80.7 145.5)"/><path fill="#d6cdc4" d="M162.2 61.8l43.1 64.6-40.1-49.1 14.7-29.4z"/><path fill="#fff4dc" d="M177.1 121.7l45.4-6.8-77.4-3.2-8.5 2z"/><circle r="1" fill="#050105" transform="rotate(-47.3 218.2 -246.3) scale(33.06323 21.25612)"/><path fill="#836348" d="M196 100h24v7h-24z"/><path fill="#b48f6d" d="M49.1 44.4l127.1 31.1-85.6-2.4 9.7-4.6z"/><circle r="1" fill="#26231a" transform="matrix(-17.92568 4.24927 -.23066 -.97304 188.2 138.4)"/><ellipse cx="49" cy="108" fill="#8d8561" rx="42" ry="2"/><path fill="#312214" d="M148 133.2l1.8-4.7 28.2 10.3-1.8 4.7z"/><path fill="#1c2116" d="M170 6h86v18h-86z"/><path fill="#000505" d="M218.3 132.2l-.2-1 15.6-3.4.2 1z"/><path fill="#e3d0bf" d="M173.8 72.4l28.3 48.5-52.2-59.4 5.5-5.4z"/><path fill="#dad1c6" d="M21.9 150.3l28.8-4.4-32.5-15-34.2 6.5z"/><path fill="#1f1e0e" d="M112 79.5l29.3 15.6-25.5 7.4-54.5-36.8z"/><ellipse cx="192" fill="#91a4b9" rx="3" ry="7"/><path fill="#bad0e5" d="M35 62h33v6H35z"/><path fill="#aebaca" d="M152 50l31-66-46 5z"/><path fill="#58402c" d="M127 143l8-7-4 1z"/><path fill="#0b100d" d="M16 76h35v12H16z"/><path fill="#e3b788" d="M180 138l2-18 57-7z"/><path fill="#807c77" d="M6 98h43v2H6z"/><path d="M171 67l10 14 6-17z"/><circle r="1" fill="#7a7d7c" transform="rotate(-82.4 42.2 15.5) scale(1 52.62828)"/><ellipse cx="2" cy="98" fill="#040a00" rx="15" ry="9"/><path fill="#caa789" d="M217 66h6v33h-6z"/><path fill="#ecd4c9" d="M184 141l-4 27-82-21z"/><path fill="#baced8" d="M19 71.9v5L-3 76v-5z"/><path fill="#a27d55" d="M78 114.4L31.2 116l28.1 19.4 25.5 1.9z"/><path fill="#828145" d="M64 104h49v4H64z"/><path fill="#513b28" d="M166.3 112.2l-10.1-1.4 3.6-12.6 34.6 13z"/><path fill="#c3908c" d="M232 148h24v5h-24z"/><path fill="#9e1b00" d="M61.5 79.5v-33h1v33z"/><path fill="#bcd1e2" d="M70.8 63.3l25.3 11.6 1.7-4.2-1.8-3.2z"/></g></g></svg>