<svg xmlns="http://www.w3.org/2000/svg" viewBox="0 0 600 896"><defs/><filter id="a"><feGaussianBlur stdDeviation="12"/></filter><rect width="100%" height="100%" fill="#543835"/><g filter="url(#a)"><g fill-opacity=".5" transform="matrix(3.5 0 0 3.5 1.8 1.8)"><circle r="1" fill="#fff" transform="matrix(-169.85276 -7.07395 3.3292 -79.93772 72.2 47.4)"/><circle r="1" fill="#fff" transform="matrix(13.41752 -49.72754 161.82339 43.6633 111.8 39.1)"/><circle r="1" fill="#869d9b" transform="matrix(23.0816 67.4158 -132.14218 45.2424 55.5 213.9)"/><ellipse cx="65" cy="74" rx="20" ry="18"/><path fill="#fff" d="M-32.2 95.2L25 19.3l39.2 29.5L7 124.7z"/><circle r="1" fill="#1f1b1b" transform="matrix(-29.33913 -5.95459 4.33383 -21.3534 106.5 114)"/><path fill="#ecffff" d="M170-16L11 11l162 117z"/><circle r="1" fill="#bfb09e" transform="rotate(-57.9 222 -21.6) scale(19.3588 66.49731)"/><ellipse cx="19" cy="137" rx="43" ry="10"/><circle cx="5" cy="66" r="39" fill="#feffff"/><path fill="#263134" d="M34 82.5l33.9-30.9 35.1 49.3-12.8-3.7z"/><path fill="#0d0705" d="M126 82l-22 69 29-37z"/><circle r="1" fill="#b1ada8" transform="matrix(-23.5681 -27.3039 6.7232 -5.80332 148.8 149.7)"/><path fill="#f0f6ff" d="M117.7 93.1L186 35.5l-91.1-3.6L106.2 140z"/><path fill="#4b4b4b" d="M27 271l64-95-48-94z"/><path d="M194 143l-12 17.2-36-25.2 12-17.2z"/><path fill="#a1a29b" d="M91 130l10 57-65-81z"/><path fill="#adafa5" d="M1 166l31-21-32 2z"/><path fill="#333c3d" d="M52 168l77 90 57 1z"/><path fill="#53433d" d="M97 86l-24 36 60 49z"/><path fill="#202728" d="M47.4 80.2l-8.7 8.9 27.8 1.1L43.2 58z"/><circle r="1" fill="#eef5ff" transform="matrix(6.24224 1.01102 -4.6352 28.6186 144.6 98.9)"/><path fill="#dbeaf9" d="M0 6h57v68H0z"/><circle r="1" fill="#000500" transform="matrix(-1.08861 10.61327 -27.11579 -2.7813 29.3 135.7)"/><path fill="#e9f2ff" d="M90 19L71 70l34-23z"/><circle r="1" fill="#363d49" transform="matrix(-24.72978 18.24947 -8.05473 -10.91494 9.5 247.2)"/><ellipse cx="89" cy="106" fill="#140000" rx="7" ry="19"/><path fill="#9c9fa0" d="M107.7 137.4l8.6-18.8-21.2-22.8 9.7 40.4z"/><path fill="#4b3d36" d="M70 162l-50-14-36 46z"/><path fill="#5a6160" d="M43.2 87.2l17.3 32.1-46.6-14.5L60.8 85z"/><path fill="#45261f" d="M118 137h24v13h-24z"/><circle r="1" fill="#fff" transform="rotate(-151.5 14.4 36.6) scale(31.07873 24.74631)"/><path fill="#afa59a" d="M161 219l25-46-37-35z"/><path d="M53.6 71.3L42 65.6l.5-.9L54 70.4z"/><ellipse cx="98" cy="73" fill="#e7f0fa" rx="30" ry="4"/><circle r="1" fill="#5e6771" transform="rotate(-71.7 200.4 66) scale(32.60475 53.74171)"/><path fill="#0d120b" d="M37 77l45 13-15-17z"/><path fill="#8e8e8a" d="M0 114h29v11H0z"/><path fill="#2f1d11" d="M54 162l18 1 19 38z"/><path fill="#eff2fb" d="M186 105.4L104.1 8.6l60 108.9-1.5 11.9z"/><path fill="#252e28" d="M64 84l-8-28 20-2z"/><path fill="#000b05" d="M144.7 129.9l16.8 22.4 21-18-36.9-15.2z"/><path fill="#251a1c" d="M130 87.8l-6.1 24.3-7.8-2 6-24.2z"/><path fill="#9ba09c" d="M85.8 92.5l-40.6-3.7 37.2 68-.1-59.7z"/><path fill="#dbdcdb" d="M50 125l-39-17 36 4z"/><ellipse cx="101" cy="6" fill="#c1d3e6" rx="170" ry="12"/><path fill="#221d1a" d="M27 108h4v20h-4z"/><path fill="#f3f9ff" d="M90 54h52v33H90z"/><circle r="1" fill="#161e1b" transform="matrix(3.11471 -4.28875 35.52004 25.7965 170 255)"/><path fill="#c5cdd3" d="M129.1 133.9l18.6 4.8-20.2-46.9 35.2 16.4z"/><path fill="#827b76" d="M90.1 183.4l-22.9-23.9-19.1-2.8 22.4-23z"/><path fill="#dce7f5" d="M73.7 46.6l-5.5 14.1L45.8 1.5 186 23.8z"/><path fill="#2a2d2c" d="M51 71L38 91l51-13z"/><path fill="#302b29" d="M135.9 105.4l-8.5 3.2 12.5 27.8-3.8-13.3z"/><path fill="#f5faff" d="M30.7 58.1L-16 53.4l22.7 70.7 2.7.8z"/><path fill="#422822" d="M101 148l-14-45 26 39z"/><path fill="#afbbc1" d="M130.2 131l-4.2-14.4 5.8-1.6 4.2 14.4z"/><path fill="#e7eef7" d="M152 91h3v34h-3z"/><path fill="#1a100d" d="M119 99l-6 11 16 21z"/><path fill="#030b00" d="M-16 131.9l74 14.3 5.6-3.8-50.1-17.7z"/><path fill="#a4998d" d="M138 159l-51 23 93 42z"/><path fill="#676e7a" d="M7.7 219.2L-7.9 196l52.2-35.2L59.9 184z"/><path fill="#4b3a38" d="M101.8 131.1l-8.6-34-15.6 15.5-12.8-22.9z"/><path fill="#eef4f9" d="M101 65h21v30h-21z"/><ellipse cx="19" cy="148" fill="#a6a2a0" rx="44" ry="2"/><path fill="#8d7a69" d="M110 145.5l26.3.4-42.7 32 13.5-32.6z"/><path fill="#5f5c63" d="M138.4 94.6l1-.1 2.2 25h-1z"/><path d="M91.1 202.3l64.3 38.6-.5.8-64.3-38.6z"/><path fill="#fcffff" d="M138 108l-12-14 12-7z"/><path fill="#05080d" d="M150 101h1v32h-1z"/><path fill="#6d757a" d="M57 71h25v6H57z"/><path fill="#392416" d="M151 169l-4-12-13-2z"/><path fill="#5f554f" d="M20.8 126.7l49.3-1-60.2-5.1 10.6-9.6z"/><path fill="#5f6459" d="M125.7 200.1l77.8 43.2-9.2 16.6-77.8-43.2z"/><path fill="#20181c" d="M5 185l-10-4 21-12z"/><path fill="#111f23" d="M85 66.3l-.2 1-7.8-1.6.2-1z"/><path fill="#504148" d="M40.3 237.4l-10.2-37.7 8.8-1.2L59.7 223z"/><path fill="#181e16" d="M59 88l4-36 7 35z"/><path fill="#5c6061" d="M17 106l7-7 23 12z"/><path fill="#605d57" d="M50 129l2-29 14 25z"/><path fill="#7e766b" d="M86.3 174.5l-19.4-18 30.4 46.9 44.1 28.1z"/><path fill="#979daa" d="M61.2 81.1l-9.8 8.5-.6-.7 9.8-8.5z"/><circle cx="86" cy="79" r="3" fill="#301012"/><path fill="#dfeaf4" d="M71.9 73l-2.5-1.8L84.1 51l2.5 1.8z"/><path fill="#8d8886" d="M101.8 134.9l15.5-31.4-21.4 4.6 11.9 32.7z"/><path fill="#e5e6eb" d="M125 103h4v3h-4z"/><path fill="#f2f6fb" d="M-10 120.9l52.2-58.4 16.5 5.2-13.9-33.4z"/><ellipse cx="153" cy="67" fill="#f2f4fa" rx="35" ry="29"/><path fill="#604b34" d="M-1 152l46 12 7-16z"/><path fill="#a2a5a8" d="M159.9 160l17-17 9.1 35.2-45.2-50.1z"/><path fill="#7e8489" d="M67 224l-3-26-19 3z"/><path fill="#a9a099" d="M0 157h17v9H0z"/><path fill="#3e363d" d="M-10 235.5l-3 19.8 53.7-26.5-4.2-2.5z"/><path fill="#8b867f" d="M71.1 121.5L94 129l-3.1 9.5L68 131z"/><path fill="#bcbfc0" d="M56 90h9v19h-9z"/><path fill="#2a1f24" d="M122 90h4v72h-4z"/><path fill="#3c4242" d="M76.2 73.9l-33.4-8.8 25.8 7.5 16.8-9.5z"/><path fill="#11171e" d="M1.5 129.5h-1v-21h1z"/><path fill="#f6fbff" d="M41 80l-51-1 47 15z"/><circle r="1" fill="#3b1c16" transform="matrix(2.80571 3.77544 -8.5976 6.3893 90.5 96.7)"/></g></g></svg>