<svg xmlns="http://www.w3.org/2000/svg" viewBox="0 0 896 600"><defs/><filter id="a"><feGaussianBlur stdDeviation="12"/></filter><rect width="100%" height="100%" fill="#2c6444"/><g filter="url(#a)"><g fill-opacity=".5" transform="matrix(3.5 0 0 3.5 1.8 1.8)"><circle r="1" fill="#fff" transform="rotate(142 73 82) scale(199.40027 34.37343)"/><circle r="1" fill="#ffb5a4" transform="rotate(132.1 44 91.5) scale(65.64896 49.70403)"/><path d="M193 49l-59 19 15 41z"/><circle r="1" fill="#280004" transform="matrix(-81.727 4.60055 -3.04937 -54.17085 5.2 111.1)"/><circle r="1" fill="#f9c3b8" transform="matrix(26.13656 23.48058 -56.44276 62.82722 230.8 60.4)"/><circle r="1" fill="#e68e98" transform="matrix(10.66747 .65245 -2.01791 32.99258 155.8 33)"/><circle cx="65" cy="21" r="53" fill="#774c6c"/><ellipse cx="248" cy="138" fill="#1c0000" rx="53" ry="23"/><circle r="1" fill="#836380" transform="matrix(-6.41113 -18.46921 43.18917 -14.99205 211.3 16.3)"/><circle r="1" fill="#fcead5" transform="matrix(-11.16928 -19.40292 89.55657 -51.5532 131.4 149.3)"/><path fill="#d0bd7b" d="M162 160h94v11h-94z"/><path fill="#0f000f" d="M97 100l49-63-162 79z"/><path fill="#63482b" d="M0 133h92v25H0z"/><circle r="1" fill="#2a000c" transform="matrix(-14.95569 -2.04867 8.06035 -58.84201 132.5 13)"/><path fill="#1e181f" d="M-16 33.5l4-25.1 57.7 6.8 101.5 31.2z"/><path d="M150 62h17v32h-17z"/><circle r="1" fill="#939097" transform="rotate(-174.9 22.8 2) scale(69.27346 8.7713)"/><path fill="#ffbca8" d="M92 101.3l67-50.6 3 4-67 50.6z"/><path fill="#d8a585" d="M170 97l-49-8-59 64z"/><path fill="#231906" d="M255 160l-85-5 18-18z"/><path fill="#040004" d="M92.8 112.1l21.1-9.5-45.5-8.4 42.3-17.3z"/><path fill="#fff" d="M190.4 77.5l-5.1 6.9L221 24.2l-28.2 27.4z"/><path fill="#000a10" d="M226 0h16v16h-16z"/><path fill="#84a0bc" d="M55 81h24v6H55z"/><path fill="#ad967b" d="M158 101l49-41-36 7z"/><path d="M82 144l-1 13 14-18z"/><circle r="1" fill="#acada8" transform="matrix(64.97483 -7.19386 .42012 3.79447 209 23.7)"/><path fill="#160006" d="M167 44h21v19h-21z"/><ellipse cx="105" cy="128" fill="#000f1a" rx="12" ry="3"/><path fill="#ffe4db" d="M93.8 110.6l30.2-7 2.2 9.8-30.2 7z"/><circle r="1" fill="#382e16" transform="matrix(.59909 17.15568 -29.73686 1.03843 33.3 161.3)"/><path fill="#edc8c4" d="M115.2 73l-25.1 44.9 22-32.7 20-15.4z"/><path fill="#2b0b1e" d="M189.9-14.6l4.8 30.6-28.6 4.6-4.8-30.6z"/><ellipse cx="10" cy="48" fill="#77757a" rx="107" ry="9"/><circle r="1" transform="matrix(1.10069 -14.22265 33.78515 2.61463 249.6 147)"/><path fill="#472929" d="M130 83.4l-13.3-1.2 1.2 18.1-52.4 25z"/><path fill="#403529" d="M295.3 89.5l-93 67.6-13.6-18.6 93-67.6z"/><circle r="1" fill="#040607" transform="rotate(-135.5 28.7 51.7) scale(22.33991 25.92816)"/><ellipse cx="17" cy="17" fill="#838a8c" rx="4" ry="32"/><path fill="#ac805d" d="M196 70l20-39 24-2z"/><ellipse cx="38" cy="28" fill="#8f9b9c" rx="4" ry="17"/><path d="M143 81h19v14h-19z"/><path fill="#00000b" d="M151.2-.2l-4.9 28.1 6.9-2.7-4.5-41.2z"/><circle r="1" fill="#e0cebe" transform="matrix(48.81723 -35.59814 14.04965 19.26688 183.4 108)"/><path fill="#323e2f" d="M59 88l-75-43L96 62z"/><path fill="#79797f" d="M105 0h10v64h-10z"/><path d="M96 24h9v19h-9z"/><path fill="#fffff6" d="M69.5 159.6l-4.3 1.5-12.8 24.4 38.5-28.4z"/><path fill="#869091" d="M59.7 1.9l1.6 44-7 .2-1.6-44z"/><path d="M42 16h11v23H42z"/><ellipse cx="17" cy="136" fill="#7c7051" rx="31" ry="6"/><ellipse cx="75" cy="20" fill="#747d84" rx="4" ry="70"/><path fill="#eedfc9" d="M125.4 144.5l-25.7 42.9-23.1-14 25.7-42.8z"/><circle r="1" fill="#190e0e" transform="rotate(-109.9 82 -9.6) scale(8.69077 32.79976)"/><path d="M79 20h10v23H79z"/><path fill="#050000" d="M241.8 97.8l26.6-17.7 1.7 30.2-29.7-6.1z"/><path fill="#141c21" d="M46 87h38v53H46z"/><path fill="#c28e78" d="M114.3 71.3l35.8 28.8-15.5 25-22-21.2z"/><path d="M23 14h10v22H23z"/><path fill="#ffdff2" d="M203 170l68 16-21-18z"/><ellipse cx="163" cy="19" fill="#ae9a8d" rx="3" ry="44"/><path fill="#704c2e" d="M186 61.9l-24.4 32 32.5-29-15.9 1.7z"/><path fill="#ffd5ca" d="M83 104l18-2 15-12z"/><path fill="#483232" d="M185.4 64.4l22.3-38.3-35.3 7.7-8.8 2.1z"/><path fill="#cf9783" d="M152 71.3l-43.1 7.2L158 57.8l-24.7 30.9z"/><path fill="#6c7381" d="M45.1 140.9l-5 .2-1.2-36 5-.2z"/><path fill="#fff" d="M218 34l-22 11-12 23z"/><path fill="#cab9ac" d="M157.4 24.1l-23.3 14 34.2-8-5.1 3.3z"/><path fill="#ece7d4" d="M139 102l-40 25 27-5z"/><path fill="#7d8589" d="M89 0h6v59h-6z"/><path fill="#7c869e" d="M190.1-1.5l19.3-1.1-4.9 32.7-10.4-11.6z"/><path d="M61 18h9v22h-9z"/><circle r="1" fill="#364626" transform="matrix(-28.90776 10.85941 -2.19262 -5.83677 196.6 146.2)"/><ellipse cx="92" cy="121" fill="#da8e6e" rx="10" ry="8"/><path fill="#795f47" d="M53 150h33v9H53z"/><circle r="1" fill="#0a0b0a" transform="matrix(8.3046 6.14508 -13.4875 18.2273 95.6 84.7)"/><path fill="#97816d" d="M113.6 142.7l32.2-29.5-32.7-22.5 19.1 23.7z"/><path fill="#070009" d="M12.8 13.3l.4 19-24 .4-.4-19z"/><path fill="#ecb8af" d="M140 80l-12 4-12-13z"/><path fill="#000009" d="M79.6 107.4l30.7-3.8.1 1-30.7 3.8z"/><path fill="#d3baaa" d="M254.9 88.3L199 130.7l-29.8-64.9L271 85.4z"/><path fill="#84995a" d="M115.5 179.5l73.2 6.2 26.6-28.7-32.4 2.2z"/><path fill="#9699a2" d="M159 4.5l1.8 32.1L147.3-16l60.8 6.9z"/><path fill="#645758" d="M142.4 26.9l-18.3 7.2 24.6 9.4-6.1-59.5z"/><circle r="1" fill="#2d311d" transform="matrix(5.83957 -30.61209 22.82506 4.35411 16.9 170)"/><path fill="#693926" d="M148 36l11-2 8 22z"/><path fill="#fff" d="M256 12.5l.6.8L234 31.5l-.6-.8z"/><path fill="#4d543e" d="M271 118l-35-16-32 37z"/><path fill="#e7d5c3" d="M101 150l46 24 30-93z"/><path fill="#000003" d="M169.2 62l-2.5 18-13.9-2 2.5-17.8z"/><path fill="#ffb48f" d="M153.4 51.7l11.5 6.1-2.3 4.5-11.5-6.1z"/><path fill="#f3d6d2" d="M141 64.4l15.3-14-12.5 15.9-9 .5z"/><circle r="1" fill="#475e2d" transform="matrix(.03801 4.46518 -27.6611 .2355 40.1 160)"/><path fill="#f3efda" d="M120.5 117l-7.5 20 30.5-45.4-25 45.6z"/><path fill="#151a19" d="M44 60h58v4H44z"/><path fill="#091115" d="M199 14h46v2h-46z"/><path fill="#6b6f74" d="M-43.4 44.1l1.4-14L69.4 42 68 56z"/><path fill="#807d81" d="M183 40h9v12h-9z"/><ellipse cx="106" cy="117" fill="#fff" rx="3" ry="11"/><path fill="#8f7d6d" d="M84.2 166.3l43-37.4.6.8-43 37.4z"/></g></g></svg>