<svg xmlns="http://www.w3.org/2000/svg" viewBox="0 0 1200 785"><defs/><filter id="a"><feGaussianBlur stdDeviation="12"/></filter><rect width="100%" height="100%" fill="#241b1e"/><g filter="url(#a)"><g fill-opacity=".5" transform="translate(2.3 2.3) scale(4.6875)"><circle r="1" fill="#fff" transform="rotate(179.8 71.9 41.4) scale(184.28611 134.57889)"/><circle r="1" fill="#f5fcf6" transform="matrix(5.02376 62.4394 -254.17862 20.45073 129.6 49.6)"/><circle r="1" transform="matrix(3.7392 13.132 -40.5815 11.55514 122.7 124.6)"/><circle r="1" transform="matrix(2.2388 -19.56077 42.15886 4.82524 255 130)"/><circle r="1" fill="#e0e8e9" transform="matrix(-87.14853 102.39917 -14.00125 -11.916 189 132.9)"/><circle r="1" fill="#f5ffff" transform="matrix(-16.05485 39.34584 -19.893 -8.11723 16.1 96.8)"/><ellipse cx="61" cy="107" fill="#8a878b" rx="21" ry="72"/><ellipse cx="99" cy="131" rx="18" ry="14"/><ellipse cx="251" cy="84" fill="#fff" rx="45" ry="23"/><circle r="1" fill="#dcddce" transform="matrix(-9.93754 20.64654 -27.74451 -13.35392 219 166)"/><path fill="#e3e0dd" d="M123.2 150.3l-5.1-30.2 20.7 14.7-15.4 2.3z"/><circle r="1" fill="#9b9e9f" transform="matrix(-15.04463 22.38878 -96.46431 -64.82133 234.9 16.7)"/><path fill="#fff" d="M162 28l-7 67 28-15z"/><path fill="#4d4f4a" d="M165 87l18 11-19 26z"/><path fill="#d3c286" d="M160 107l-85 13 55-32z"/><path d="M153 113v16h-26v-16z"/><ellipse cx="250" cy="128" fill="#2a0c16" rx="38" ry="17"/><ellipse cx="77" cy="114" fill="#352a11" rx="7" ry="9"/><ellipse cx="38" cy="5" fill="#fff" rx="6" ry="34"/><circle r="1" fill="#6c666d" transform="matrix(98.17337 -9.99294 1.30033 12.77476 23.6 166)"/><circle r="1" fill="#9da8ca" transform="rotate(67.1 -11.5 15.5) scale(43.93745 26.68498)"/><path fill="#dadcd5" d="M87 131.1l-26.3 6.6-1.6-6.8 26.2-6.6z"/><path d="M86 121h34v19H86z"/><circle cx="107" cy="52" r="41" fill="#d9d5cd"/><path fill="#eef4f4" d="M40.5 55.6l1.9 53.2-14.1 5.3-43.9 37.4z"/><path fill="#a7a7a0" d="M41 56.7l2.2-13.8L147 59.3l-2.1 13.8z"/><path fill="#a9a597" d="M119 93h11v49h-11z"/><path fill="#9fa4ac" d="M152 108l75 15 1-31z"/><path fill="#222f3a" d="M121.6 101.6l-7.8 1.7-1.4-6.9 7.8-1.7z"/><path fill="#b4b3ad" d="M155 123h58v44h-58z"/><circle r="1" fill="#989699" transform="matrix(5.68803 85.63737 -13.61394 .90424 56.3 107.9)"/><path fill="#fff" d="M259.3 94.2l-48-2.5 1.4-26 48 2.6z"/><path fill="#ffffe5" d="M104 115l-22 3 2-10z"/><path d="M158.6 118.3l-41.4 5.2 28.5 9.5-2.6-1.3z"/><path fill="#949394" d="M178 154l-17-29-60 18z"/><path fill="#faffff" d="M157 54h20v34h-20z"/><path fill="#f3f4ee" d="M89.5 95.4L71.7 51.1l3.1 27.2 47.7 1.9z"/><path fill="#130000" d="M266.8 127l4.2 38.2-21.8-16.9-13.2-4.5z"/><circle r="1" fill="#c9daf3" transform="matrix(-7.96651 -42.80125 21.79206 -4.05611 0 78.7)"/><path fill="#b3aec5" d="M-16 159.9l61.7-39.2L27.8 110l-13.7 13.2z"/><circle r="1" transform="matrix(-14.19169 13.5126 -4.72063 -4.95787 105.8 131.4)"/><ellipse cx="76" cy="138" fill="#d5d8d7" rx="6" ry="13"/><path fill="#3b3331" d="M181 99l-20-1 20 10z"/><path fill="#bec9d9" d="M207.6 83.2l54.4 25.9-58.4-4.2L172.9 85z"/><path d="M77 122h39v4H77z"/><path fill="#7c7d8e" d="M220.7 124.7l50.3 10.9-73.1-24.8 27.8-4.4z"/><path fill="#a1a8af" d="M182.8 45.2L205 77l-13.9 9.7L169 55z"/><path fill="#7e7f71" d="M140 66h5v39h-5z"/><path fill="#fbf1d1" d="M134 103h41v4h-41z"/><path fill="#765f5b" d="M11 146h31v21H11z"/><ellipse cx="121" cy="123" fill="#fff" rx="2" ry="4"/><circle r="1" fill="#c4b7a5" transform="matrix(-10.86274 -1.01953 3.8666 -41.19745 61.7 25.6)"/><path fill="#27151d" d="M231 109h25v15h-25z"/><circle r="1" fill="#ffffe7" transform="rotate(112.2 19.4 17.6) scale(8.07723 12.95556)"/><path fill="#6f775f" d="M42 76v4l-10-1z"/><path fill="#5e5439" d="M88 122l20-10 24 4z"/><circle r="1" fill="#9d9da4" transform="matrix(-8.52008 -8.54521 19.83123 -19.77291 8.5 11.7)"/><path fill="#58554f" d="M110 65h3v16h-3z"/><circle r="1" fill="#dad7d1" transform="matrix(-51.72825 3.01868 -.83345 -14.28206 124 39)"/><path fill="#9da2a5" d="M123.7 101.7l-1.2-11.9 33.8-3.5 1.2 11.9z"/><circle r="1" fill="#9c9a99" transform="matrix(66.62005 17.22045 -4.54212 17.57192 250.7 0)"/><path fill="#f2fcff" d="M-16 155l48-53-35 10z"/><path fill="#fff7a4" d="M128 106h13v6h-13z"/><circle cx="163" cy="116" r="8" fill="#716f64"/><path fill="#eff2f0" d="M105 80h78v6h-78z"/><path fill="#7f857e" d="M153 47h4v26h-4z"/><path fill="#c2bbb1" d="M239 35l-63-51L48 0z"/><path fill="#000001" d="M138.5 132.3l-11.7-6.3 6.6-11.1 25.4-.9z"/><path fill="#7c7e74" d="M126.9 94.3l-2.3 9-12.2 3.8.8-11.7z"/><path fill="#7d7f78" d="M177 39h5v29h-5z"/><path fill="#fff" d="M42-16l-1 62-16-62z"/><path fill="#aabbde" d="M38 34l-54 23 58 5z"/><circle r="1" fill="#424548" transform="matrix(4.37803 1.2195 -.33057 1.18677 198 65.2)"/><path fill="#fff" d="M129.3 120.8l-5-.6.4-3 5 .6z"/><path fill="#898787" d="M68 152l98 3-27-22z"/><circle r="1" fill="#bdc0c6" transform="matrix(-17.94407 17.81923 -8.81024 -8.87196 194.2 110.6)"/><path fill="#bdbbab" d="M127 156h127v11H127z"/><path d="M114.5 139.6l-24.1 7.1-4-17.3 35.3-13z"/><path fill="#d1d9df" d="M158.6 37l18.3 9 1.6 21.6-22.7-10.7z"/><path fill="#e9e8df" d="M116.5 58.3l-7.7 50.5-19.1-6.8 35.7-10.5z"/><circle r="1" fill="#8a897c" transform="matrix(-.1132 .99357 -38.5408 -4.39117 102.3 57.3)"/><path fill="#bac2ca" d="M214 19l50 46-84-8z"/><path fill="#e4e3d7" d="M66.8 128.8l.5-4 19.9 2.4-.5 4z"/><path fill="#8a8b96" d="M44 97h26v70H44z"/><path fill="#fffeb2" d="M79 117l14-7 16 5z"/><path fill="#2f2817" d="M77.7 109.4l8.2-3.7.4 1-8.2 3.6z"/><path fill="#9eabb2" d="M176 105l-2-12 8-5z"/><path fill="#deccb3" d="M42 2h18v27H42z"/><path fill="#987e40" d="M90.3 103.8l20 11.5-.6.9-20-11.5z"/><path fill="#abac9c" d="M217 137l-12 10 34-3z"/><path fill="#f3f7f1" d="M74 95l20-9 1-18z"/><path fill="#c8c7bd" d="M149.9 88.6l-20.5-28-16.2 60 15.3-36.2z"/><path fill="#acafb7" d="M175 121l-43 13 55 3z"/><ellipse cx="160" cy="84" fill="#fff" rx="4" ry="22"/><path fill="#fff" d="M266 83.3l-40.3 11.6-5.8-20.2 40.4-11.6z"/><circle r="1" fill="#bcad97" transform="matrix(-9.61752 1.02782 -1.49288 -13.96922 33.7 126.2)"/><path fill="#705a29" d="M152.2 103.9l-.4-3 6-.8.4 3z"/><path fill="#02060b" d="M81.4 133.7l22.6 9.5-22.5-22.1 14.7 1.8z"/><path fill="#110500" d="M168 97l7 3-7 2z"/><path fill="#000105" d="M131.7 114l.3.9-19.7 7.2-.3-1z"/></g></g></svg>