<svg xmlns="http://www.w3.org/2000/svg" viewBox="0 0 1067 800"><defs/><filter id="a"><feGaussianBlur stdDeviation="12"/></filter><rect width="100%" height="100%" fill="#433b29"/><g filter="url(#a)"><g fill-opacity=".5" transform="translate(2 2) scale(4.16797)"><circle r="1" fill="#fff" transform="matrix(-35.39595 -132.53484 245.915 -65.67628 156.4 76)"/><circle r="1" fill="#ffffda" transform="matrix(60.05493 .56555 -1.78486 189.53212 105.6 27.2)"/><circle r="1" fill="#fff" transform="rotate(-94.9 43.2 -24.7) scale(31.7482 126.62464)"/><ellipse cx="32" cy="88" fill="#271e00" rx="24" ry="40"/><circle cx="217" cy="113" r="121" fill="#e0b579"/><circle r="1" fill="#ffdd67" transform="matrix(34.6921 -3.52388 4.66457 45.92207 32 174)"/><circle r="1" fill="#fff" transform="matrix(-23.8323 -.43445 .6565 -36.0132 255 74.5)"/><circle r="1" fill="#fff" transform="matrix(-3.01957 -20.83496 47.06343 -6.82082 94.6 110.1)"/><ellipse cx="255" cy="187" fill="#9f671c" rx="62" ry="34"/><circle r="1" fill="#a78762" transform="matrix(.2742 -17.16348 83.58855 1.3354 154.4 64.9)"/><ellipse cx="27" cy="14" fill="#fffffd" rx="59" ry="35"/><path fill="#5c5538" d="M11 50h44v80H11z"/><path fill="#fff" d="M82 204l62-50-79 14z"/><path fill="#e4dbc6" d="M263 86l-139 27 41-47z"/><path fill="#fffeb5" d="M9 95h21v11H9z"/><path fill="#fff4d8" d="M12.4 67.9l15.2-1.4 3.8 7.9-10.3 4.9z"/><ellipse cx="212" cy="122" fill="#ab8d57" rx="74" ry="18"/><ellipse cx="201" cy="60" fill="#785129" rx="29" ry="9"/><ellipse cx="59" cy="84" fill="#fffff7" rx="5" ry="79"/><path fill="#000300" d="M31 66h15v37H31z"/><path fill="#e4af46" d="M192 156l-90 17 102 33z"/><path fill="#f0e8c2" d="M113.6 164.1l122.3-2.3-16.5-1.9-27.5-19.6z"/><circle r="1" fill="#e2cdc2" transform="rotate(75.4 61 110) scale(22.84848 60.07794)"/><ellipse cx="246" cy="75" fill="#fffffb" rx="12" ry="29"/><circle r="1" fill="#8e7364" transform="matrix(28.07253 -6.39792 4.09374 17.96236 255 11.8)"/><path fill="#cb9c44" d="M113.2 132.6l1.5 7.9-56 10.9-1.4-7.9z"/><path fill="#fefdfc" d="M60.8 164l79-12.5-4.4-11.3-66.7 9.4z"/><ellipse cx="248" cy="178" fill="#e7ebdc" rx="12" ry="6"/><path fill="#d0a068" d="M61 46h174v9H61z"/><path fill="#23280f" d="M9 49h4v86H9z"/><path fill="#fffbf3" d="M124 103L55 89v62z"/><path fill="#a2957f" d="M85 71h68v19H85z"/><circle r="1" fill="#715827" transform="matrix(-56.3049 9.33786 -.16361 -.98653 125.3 139.5)"/><path fill="#6f4314" d="M193 105h32v7h-32z"/><path fill="#ffeed9" d="M55 53h26v33H55z"/><path fill="#6e4439" d="M144 159h6v25h-6z"/><path fill="#b29a6a" d="M4.8 139.2l48.4 8.9-3.5-53-8.8 20.4z"/><ellipse cy="95" fill="#9b8e64" rx="4" ry="80"/><path fill="#c4a774" d="M130 110h75v28h-75z"/><path fill="#dcd3ba" d="M151 57h19v41h-19z"/><circle cx="17" cy="55" r="7" fill="#382c18"/><circle r="1" fill="#ecc373" transform="matrix(-18.42593 16.33006 -25.4256 -28.68885 37.7 172.2)"/><circle cx="34" cy="18" r="32" fill="#fef5ec"/><path fill="#785c37" d="M78 52.5l.1-2 131.9 7-.1 2z"/><circle r="1" fill="#a57737" transform="matrix(63.15136 32.94183 -3.25362 6.23737 242 190)"/><circle r="1" fill="#efcc84" transform="matrix(39.08995 -3.60986 .58654 6.3515 87.8 137.3)"/><path d="M13 79h8v10h-8z"/><path fill="#ead9bf" d="M194.6 106.3l-1.8-18.6-129 2.8 117.8 17.1z"/><path fill="#a58f64" d="M169 60h15v28h-15z"/><path fill="#f1efdd" d="M227 153l9 4v-17z"/><path fill="#fffbf7" d="M104.6 183.9l21.5 9.6-34.3-30.7L65.6 206z"/><path fill="#ddc59c" d="M90 38l16 54-42-25z"/><path fill="#b28137" d="M157 120l10 30-14-4z"/><circle r="1" fill="#3e3841" transform="matrix(3.7427 -.08493 .07006 3.08749 203.7 95.9)"/><path fill="#877a52" d="M147.4 150.6l.1 1-134.9 23.8-.1-1z"/><path fill="#eed898" d="M32 173l33-8-38-16z"/><path fill="#5e5b48" d="M56.2 68.3l-40.4-3.6 4.7-16.1 30.3 2.3z"/><path fill="#fdffff" d="M-9 243.8l-1-.2L9 136.2l1 .2z"/><path fill="#553612" d="M266.9 149.2l4.1 10.9-40.9.4 15.4-3.1z"/><path fill="#cdb49d" d="M198 52l-56-5 80-60z"/><path fill="#e7deab" d="M165.3 177.8l7.9-31.8-53.7 24.4 27.1-7.6z"/><path fill="#f4f8ef" d="M7 28h2v111H7z"/><circle r="1" fill="#e9e2d2" transform="matrix(-18.38411 -6.22268 1.61545 -4.77264 200 155.5)"/><circle r="1" fill="#d5c7ae" transform="matrix(-46.33413 -18.09812 2.09754 -5.37004 221.7 96)"/><path fill="#8f642d" d="M157 108h78v3h-78z"/><path fill="#1f1100" d="M89.3 144L71 149l-.3-1 18.3-5z"/><path fill="#e7e5cd" d="M245 164h11v5h-11z"/><path fill="#af9768" d="M227.1 144.2l34.9 3.1-47.4-63.2 9.8 88.8z"/><path fill="#7c643d" d="M105 185h7v6h-7z"/><ellipse cx="108" fill="#f1e5dc" rx="67" ry="32"/><path fill="#865318" d="M223 156l30 3-39 7z"/><path fill="#f5f2e6" d="M235.4 105.7l27.1-6.5L232 44.4l16.1-6.9z"/><path fill="#f0c767" d="M207 206l-98-34 20 30z"/><path fill="#f5f0ea" d="M53 136l12 36 5-15z"/><path fill="#f4c97f" d="M57 87h67v4H57z"/><path fill="#ffe39e" d="M15.6 105.4l-1.8-7.8 12.6-3 1.8 7.8z"/><path fill="#e6ceb4" d="M155 32l-1.2 18.9L84.9 46l1.3-19z"/><path fill="#c8c8b4" d="M10 69h22v6H10z"/><path fill="#5a533d" d="M44.7 94.3L22.5 81.8l25.3 44.8-41.4-6.3z"/><ellipse cx="183" cy="183" fill="#d4a758" rx="20" ry="28"/><ellipse cx="135" cy="138" fill="#503d1d" rx="7" ry="2"/><path fill="#744518" d="M211 65h18v4h-18z"/><path fill="#c7ab6c" d="M150.5 124.5l56 21.5-20.4-.6-83-15.4z"/><ellipse cx="107" cy="69" fill="#f4cb85" rx="52" ry="2"/><circle r="1" fill="#d2d1c2" transform="matrix(-26.36821 2.75603 -.2391 -2.28755 39.6 132.2)"/><path fill="#e0d7ba" d="M238.1 151.1l19.6 2.7 13.3-5.3-58.3-4.3z"/><path d="M17 76h4v16h-4z"/><path fill="#66431b" d="M248.5 206l-6.7-22.3-11.3-5.1 40.5 15.7z"/><path fill="#fbf6ee" d="M75.2 206l-4-40.5 74.4-2.3-33.2 7z"/><path fill="#fdc483" d="M20 69h4v15h-4z"/><ellipse cx="167" cy="127" fill="#8b6c4a" rx="17" ry="3"/><path fill="#a9b190" d="M10 66h1v61h-1z"/><path fill="#ede8d5" d="M113 111.4l-19.8 15.2 19.9 2.8 35.7-7.7z"/><path fill="#735c42" d="M97 75.4v-4l24-.8v4z"/><path fill="#e1e0c6" d="M153.5 160.1l-1.3-26.4-48.8 23.7 48.2-9.7z"/><path fill="#b0a48e" d="M28 65h3v26h-3z"/><path fill="#cdba9c" d="M232 40h5v97h-5z"/><path fill="#382508" d="M118 139h13v2h-13z"/><path fill="#cd9828" d="M207 120h23v7h-23z"/><circle r="1" fill="#d5caae" transform="matrix(10.78246 2.8965 -1.38278 5.14753 255.7 182.6)"/></g></g></svg>