<svg xmlns="http://www.w3.org/2000/svg" viewBox="0 0 1067 800"><defs/><filter id="a"><feGaussianBlur stdDeviation="12"/></filter><rect width="100%" height="100%" fill="#413735"/><g filter="url(#a)"><g fill-opacity=".5" transform="translate(2 2) scale(4.16797)"><circle cx="157" cy="120" r="224" fill="#fff"/><circle cx="237" cy="130" r="242" fill="#fff8bd"/><ellipse cx="128" cy="73" fill="#b6895d" rx="55" ry="44"/><ellipse cx="220" cy="78" fill="#fff2d3" rx="38" ry="59"/><circle cx="92" cy="190" r="72" fill="#fbecdb"/><path fill="#fff" d="M23 18h33v52H23z"/><ellipse cx="55" cy="86" fill="#aa7c49" rx="30" ry="13"/><circle r="1" fill="#edcb7d" transform="matrix(23.45558 32.28384 -41.70546 30.30079 207.8 164.3)"/><ellipse cx="172" cy="142" fill="#957f62" rx="12" ry="22"/><ellipse cx="121" cy="101" fill="#e3c492" rx="59" ry="29"/><path fill="#3e3d5f" d="M-6.2 45.3l15-.6 1.4 38-15 .6z"/><ellipse cx="15" cy="14" fill="#eecfaa" rx="17" ry="37"/><path fill="#967859" d="M174 80l-3-41-90 27z"/><path fill="#e1a441" d="M227 53h19v32h-19z"/><path fill="#fff" d="M202 26h23v82h-23z"/><path fill="#fffffa" d="M64 22h18v41H64z"/><path fill="#fffdee" d="M128.2 169.7l.6-36 31 .6-.6 36z"/><path fill="#dac9ab" d="M4 102h115v58H4z"/><path fill="#3c3729" d="M165.4 133.1l-15-.7-29.8-8.1-1-4.4z"/><path fill="#fffefc" d="M201 121l-17 25-1-55z"/><ellipse cx="58" cy="190" fill="#f7f2e5" rx="96" ry="20"/><circle r="1" fill="#c7a794" transform="matrix(-78.24354 -1.7756 .2804 -12.35627 67.3 8)"/><path fill="#826552" d="M65 72l-8-23 2 44z"/><circle cx="236" cy="111" r="26" fill="#f7e2a8"/><path fill="#fffff9" d="M29 14l27 30-21 45z"/><circle r="1" fill="#f7bd5e" transform="matrix(30.03037 2.5577 -.95254 11.18393 142.9 109)"/><path fill="#fff" d="M67.4 104.7l102.1 22.8-16.4 1.4-52.9-14.3z"/><path fill="#7f6c5a" d="M154 71h45v6h-45z"/><path fill="#bcad89" d="M100.4 119.3l18 .4-.8 41-18-.4z"/><circle r="1" fill="#e6c9be" transform="rotate(-31.8 113.9 -319.2) scale(48.69353 24.68314)"/><path fill="#fff" d="M254 94h2v97h-2z"/><path fill="#ae8d6a" d="M166.9 39.8L134.7 31l38.5-2.8-2.5 15.1z"/><path fill="#c29251" d="M55 86l52.8 26.1-72.4-17.8-26.9-5.9z"/><circle r="1" fill="#af9680" transform="rotate(24.5 -59.1 275.7) scale(27.85154 12.94212)"/><path fill="ivory" d="M67.6 118.9l19.4 1.9 10.8 19.5-16.1 1.5z"/><path fill="#fcf2e8" d="M224 25h28v25h-28z"/><path fill="#eddbc5" d="M212 120l-36-48-5 40z"/><path fill="#6c5c47" d="M103.8 62.7L116.5 43 92.1 70.9l36.3 2z"/><path fill="#85755b" d="M89.1 79.9l-7.2 18.3-6.2-30.4-4.8 8.9z"/><path fill="#ca8300" d="M209 67h6v7h-6z"/><path fill="#d6c8b5" d="M96 74h35v24H96z"/><circle cx="180" cy="72" r="3" fill="#000100"/><circle r="1" fill="#baa799" transform="matrix(-.98793 44.8014 -3.33374 -.07351 252.9 46)"/><circle r="1" fill="#e5d7bf" transform="matrix(-.26515 -32.04444 20.6464 -.17084 16.5 170.8)"/><path fill="#e3d0c1" d="M8 76l30 9-24-73z"/><path fill="#af9e7e" d="M184 122.5l-23 78.3-1.4-55.9 21.8-38.9z"/><path fill="#d8caad" d="M84.1 97.4L62.7 64.9l18.6 105.7L.6 135z"/><path fill="#bd8639" d="M231 68l19 13-24-3z"/><path fill="#a99184" d="M56 8h8v69h-8z"/><path fill="#debb82" d="M228 32h24v8h-24z"/><path fill="#06104e" d="M-16 16L5 47l-21 27z"/><path fill="#8f724b" d="M41.5 79h23v10h-23z"/><path fill="#cba45d" d="M254 186l-11-26 7-27z"/><path fill="#fdfef3" d="M96 101l-4-7-15 4z"/><path fill="#12194a" d="M5 70.6l5-21.4 1 .2-5 21.4z"/><path fill="#fffcf2" d="M65 19h6v59h-6z"/><path fill="#c3b390" d="M210.7 77.4l.1.8 29.6 6-33.2-.9z"/><path fill="#e6d2c7" d="M175 64l27-31-17 39z"/><path fill="#be883c" d="M93.5 97.2l1-3.8 26 7.4-1 3.8z"/><circle r="1" fill="#edd5c5" transform="rotate(-94.6 81.8 -53.2) scale(6.91795 74.01224)"/><path fill="#fff" d="M202 26h6v88h-6zm-43.4 104.4l20.1-19.5.7.7-20.1 19.5z"/><path fill="#a18158" d="M150 80.5L109.7 32l-1 25.1L140 44.6z"/><path fill="#382e15" d="M126.3 124.6l.6-2 30.8 8.8-.6 2z"/><path fill="#f9f0db" d="M64 120l-15 16-1-30z"/><path fill="#917e71" d="M180.5 41.1l7-1 2 12.8-7 1z"/><circle cx="250" cy="7" r="17" fill="#c2a391"/><path fill="#feffea" d="M109.1 87.4l-1.8 21-11-4.9 8.1-2.7z"/><path fill="#b8a98a" d="M125 88l2-34 47 47z"/><circle cx="100" cy="149" r="8" fill="#b5a47f"/><path fill="#fffdce" d="M1.7 78.4l-1-.2 3.6-14.6 1 .2z"/><circle r="1" fill="#f2ebd3" transform="rotate(165.9 45.7 77.7) scale(2.19382 17.36821)"/><ellipse cx="91" cy="172" fill="#fff" rx="2" ry="27"/><path fill="#d9bfa9" d="M117 35h36v11h-36z"/><path fill="#fbefcf" d="M103 93h39v4h-39z"/><circle r="1" fill="#faead6" transform="matrix(-17.87757 4.89398 -5.62656 -20.55368 141.6 151.7)"/><path fill="#d5c6af" d="M34 21.2L12.2 57.7l-17.8-37L53.6 5.2z"/><path fill="#e8cf8f" d="M166 159l82-30 5 77z"/><path fill="#b4a282" d="M73.7 108.5l37.5 16.6-2.9 6.4L70.8 115z"/><path fill="#4a4b43" d="M71 73h5v9h-5z"/><path fill="#d0b696" d="M184.8 64.8l-35.9-.6 4.5 3.1-14.7-14.7z"/><path fill="#feffff" d="M255 37h1v154h-1z"/><path fill="#fff" d="M78 89l-7-4 5-4z"/><path fill="#f8e2b4" d="M246 74l5-24-24-1z"/><circle r="1" fill="#b9ab96" transform="rotate(39 -60.5 159.4) scale(19.67999 9.65204)"/><path fill="#b9b0a3" d="M251 53h4v73h-4z"/><path fill="#fff" d="M214 26h38v5h-38z"/><path fill="#fbfbf2" d="M54.5 28v42h-25V28z"/><path fill="#fff" d="M103 36h3v6h-3z"/><path fill="#a69985" d="M43.9 82.7l-1.6-10.9 17.8-2.5 1.6 10.9z"/><path fill="#bd8f52" d="M71 97.3l17.9-1.6 6.1.4-9.4-7.9z"/><path d="M121.8 65l-2.5-5.5 1-.4 2.4 5.4z"/><path fill="#fffff4" d="M60 137h3v34h-3z"/><path fill="#c2b38f" d="M39 138h20v14H39z"/><path fill="#d8c8b6" d="M170.5-16l2.3 33-2 63.6 13.4-20.4z"/><ellipse cx="78" cy="41" fill="#ebd3bc" rx="6" ry="23"/><path fill="#6d5b41" d="M166.1 65.5l-.5-.8 10.3-6.2.5.8z"/><ellipse cx="113" cy="34" fill="#947861" rx="19" ry="2"/><path fill="#2f2214" d="M100 69h18v2h-18z"/><path fill="#f5cb7c" d="M161 123l-57-12 82-9z"/></g></g></svg>