<svg xmlns="http://www.w3.org/2000/svg" viewBox="0 0 1200 792"><defs/><filter id="a"><feGaussianBlur stdDeviation="12"/></filter><rect width="100%" height="100%" fill="#465b2c"/><g filter="url(#a)"><g fill-opacity=".5" transform="translate(2.3 2.3) scale(4.6875)"><circle r="1" fill="#fff" transform="matrix(249.67254 -51.8519 16.27477 78.36478 124.4 49.6)"/><circle cx="235" cy="56" r="118" fill="#f2edff"/><circle r="1" fill="#1a070c" transform="matrix(5.39871 -39.92973 58.55707 7.91723 123 149.4)"/><circle r="1" fill="#b2f0e4" transform="rotate(111.6 -15.8 65.5) scale(110.84489 33.82398)"/><circle r="1" fill="#fff" transform="rotate(154.4 78 105.6) scale(55.75158 24.32288)"/><circle r="1" fill="#001400" transform="matrix(-28.87725 12.4365 -5.8788 -13.6504 219.9 116.9)"/><path fill="#141900" d="M88 56h21v73H88z"/><path d="M164.9 91.2l-26-.4.2-16 26 .4z"/><ellipse cx="120" cy="27" fill="#dcdfe3" rx="117" ry="29"/><circle r="1" fill="#fffffc" transform="rotate(39.7 17.3 354.6) scale(20.34009 46.26795)"/><path d="M246 130h10v21h-10z"/><ellipse cx="129" cy="142" fill="#00000e" rx="20" ry="33"/><path fill="#fffeff" d="M110 64h31v36h-31z"/><circle r="1" fill="#e9ebff" transform="rotate(-146.7 137.4 49.9) scale(50.28099 23.26025)"/><path fill="#6cff91" d="M-16 171l53 4 54-72z"/><circle r="1" fill="#a2c0ba" transform="matrix(-54.4182 -7.19964 15.1846 -114.7722 35.6 40.6)"/><ellipse cx="215" cy="126" fill="#253800" rx="33" ry="8"/><path fill="#dbd4d6" d="M160 138l30 45-31-13z"/><path fill="#524914" d="M111 145L96 73 60 182z"/><path fill="#fafffe" d="M148.7 124.9l-9.5-12.7 21.7-9.5-12.1 25.2z"/><circle r="1" fill="#f9f3eb" transform="matrix(-9.1713 .48405 -3.06891 -58.14652 111.3 12.9)"/><path fill="#fff" d="M271.4 80.2l-5.4 25.4-27.4-5.8 5.4-25.4z"/><path fill="#1a2113" d="M221 93l4 14 46 3z"/><path fill="#01010a" d="M110 140h49v28h-49z"/><ellipse cx="179" cy="116" fill="#787e76" rx="26" ry="5"/><path fill="#fdffff" d="M211.5 76.9l59.5 1.8-83.1 32.7-19.7-.5z"/><circle r="1" fill="#a2ae93" transform="matrix(.28213 9.14398 -40.5098 1.24991 171.7 55.3)"/><path fill="#7986c5" d="M233 117.7l-1.9-5.1 39.9-8.8v38.4z"/><circle r="1" fill="#79af94" transform="rotate(-85.2 80.7 66.3) scale(31.5683 20.43259)"/><path fill="#101430" d="M141 74h26v16h-26z"/><ellipse cx="41" cy="69" fill="#c2d1d0" rx="30" ry="40"/><ellipse cx="109" cy="160" fill="#b3c8ac" rx="2" ry="59"/><path fill="#4e5c41" d="M181.6 141.9L152 112.3l17 46.8 10.1 2.2z"/><path fill="#b5ad66" d="M95 66h15v25H95z"/><path d="M90 54h4v54h-4z"/><path fill="#6ce68b" d="M90.1 104.9L88 74.5 22.4 183l29.9-27.6z"/><path fill="#729a7f" d="M119 98h35v8h-35z"/><path fill="#eef3ff" d="M229 133h16v35h-16z"/><path fill="#453516" d="M43 168l63-78 3 93z"/><ellipse cx="190" cy="19" fill="#dddcde" rx="90" ry="32"/><path fill="#fff" d="M183 64l-46 4 57 11z"/><path d="M244 126l27 10v33z"/><circle r="1" fill="#dcdada" transform="matrix(-2.45408 3.80034 -16.12865 -10.41513 184.6 133)"/><path fill="#e2e6ea" d="M110 70h14v40h-14z"/><path fill="#324014" d="M230 105l-51 21 42 9z"/><path fill="#679c40" d="M209.1 49l-5.8 7 7.9 14-.3-14.4z"/><path fill="#5e9060" d="M124 53h28v6h-28z"/><circle r="1" fill="#65bb76" transform="matrix(3.78005 -6.19272 4.04787 2.47083 192.3 86.5)"/><circle r="1" fill="#3e482c" transform="matrix(-5.05782 9.35424 -1.84037 -.99508 189.3 118.2)"/><path fill="#d3d5ce" d="M161.6 143.7l-24.4-53-18-2.9 24.2 31.6z"/><path fill="#fff" d="M195 104h7v12h-7z"/><path fill="#d8d9d3" d="M152.4-16l16.1 66.3-65.8 6.3h-28z"/><path fill="#043900" d="M92 65l-6-10 26 11z"/><path fill="#2f2f2f" d="M157 139l-52 7 32-34z"/><path fill="#fffff9" d="M271 50.4l-62.7 28 5.3-29.3 22.3 1.7z"/><path fill="#fff" d="M176 100h5v21h-5z"/><path fill="#ccd5f6" d="M228 110h28v2h-28z"/><path fill="#ecf2f9" d="M160 101h61v7h-61z"/><circle r="1" fill="#a3beb7" transform="rotate(123.5 7.8 22) scale(203.16509 23.89535)"/><path fill="#242e07" d="M65 183l9-55-38 51z"/><circle r="1" fill="#3a7e46" transform="matrix(2.78262 2.44294 -2.39824 2.7317 179.4 62.6)"/><path fill="#cfcfe4" d="M271 153.3l-119.6 15.8 117.3 5.3 2.3-23.8z"/><ellipse cx="114" cy="152" fill="#0c120a" rx="5" ry="43"/><circle r="1" fill="#545027" transform="matrix(-19.67754 26.44127 -10.7589 -8.00675 87 130.8)"/><path fill="#5f7a3f" d="M223 95.3l-2.2 17 32 30.7-11.5-23.7z"/><path fill="#fff" d="M271 110.2l-46.6-20.4 11.5 8.5L271 58z"/><circle r="1" fill="#4e5647" transform="rotate(163.9 77.4 71) scale(4.00495 3.35963)"/><path fill="#002502" d="M126 100h3v8h-3z"/><path fill="#475271" d="M254.6 111.4l-8.7 21.2 13.1-4.4 12 54.8z"/><ellipse cx="100" cy="99" fill="#284303" rx="9" ry="11"/><path fill="#97a492" d="M205.3 135l-44.4-12.7 59.5 18.8 11.7-8.8z"/><path fill="#657171" d="M185.7 90.2L187 95l-10.7 2.8L175 93z"/><ellipse cx="107" fill="ivory" rx="4" ry="42"/><circle r="1" fill="#3a7049" transform="matrix(-3.16831 -2.52245 1.24152 -1.5594 150.5 98.4)"/><path fill="#b2b1a4" d="M144.3 67.6l-33.6-5.3 1-6 33.6 5.4z"/><path fill="#20441e" d="M168.4 129.1l2.8 14.9-18.1-21.4-1-6.5z"/><path fill="#67635a" d="M172 137h10v26h-10z"/><path fill="#dddedb" d="M109 66h33v30h-33z"/><path fill="#e4e5e9" d="M116 90h54v5h-54z"/><path fill="#d3dcdf" d="M114 106h21v4h-21z"/><circle cy="8" r="26" fill="#8daaa8"/><path fill="#fcfeff" d="M192.6 106.7l-36.1 6 61-32-42.7 36.8z"/><path fill="#a4a3ad" d="M184 162h37v3h-37z"/><path fill="#0a0a0c" d="M110 143h48v25h-48z"/><path fill="#799b82" d="M82 56h7v30h-7z"/><path fill="#babdc2" d="M192 119h5v4h-5z"/><path fill="#eeeaea" d="M167 72l-1 20 37-40z"/><path fill="#e2e0df" d="M136.5 18.9l25.6 54.8V45.5L271 47.3z"/><path fill="#5aff72" d="M63.9 128.4L28.5 183l21.6-25.5 26.3-34z"/><path fill="#c5c7c5" d="M257.2 40.9L271 29.8 260.6-9.5l-30.5 53z"/><path fill="#656c89" d="M271 154.1l-27.5-1.4-.4 2 1.4-13.2z"/><path fill="#aba199" d="M178 161l-18-4 1-18z"/><circle r="1" fill="#88cc9f" transform="matrix(6.6979 8.16095 -28.88746 23.70868 39.8 138.7)"/><circle r="1" fill="#363633" transform="rotate(28.2 -184.2 318.3) scale(10.2501 16.6534)"/><path fill="#a3c5b6" d="M64 55h20v60H64z"/><path fill="#dfddee" d="M242 111l15 2 14-9z"/><path fill="#e3e0e7" d="M192.6 128.8l2.7 12.7-7.9 1.7-2.7-12.7z"/><path fill="#cbd0c0" d="M271 62.4L251.5 50 271 72.8l-105.4 9.3z"/><path fill="#c2b9b6" d="M36-16l51 62 12-62z"/><circle r="1" fill="#61654e" transform="matrix(1.78469 -1.40097 3.81653 4.86187 193.5 132)"/></g></g></svg>