<svg xmlns="http://www.w3.org/2000/svg" viewBox="0 0 1400 875"><defs/><filter id="prefix__a"><feGaussianBlur stdDeviation="12"/></filter><rect width="100%" height="100%" fill="#604934"/><g filter="url(#prefix__a)"><g transform="translate(2.7 2.7) scale(5.46875)"><circle r="1" fill="#fffff9" fill-opacity=".5" transform="matrix(106.03557 -10.9272 13.29214 128.98461 109.9 37.2)"/><circle r="1" fill="#dde4db" fill-opacity=".5" transform="matrix(6.0428 -54.36442 134.99061 15.0047 102.4 20.6)"/><circle r="1" fill="#6a5b26" fill-opacity=".5" transform="matrix(6.059 -26.66882 95.3013 21.65192 60 108)"/><circle r="1" fill="#fffdb0" fill-opacity=".5" transform="matrix(30.28845 -39.90356 12.63593 9.5912 196.6 159)"/><path fill="#3f423b" fill-opacity=".5" d="M201 31h55v111h-55z"/><ellipse cx="11" cy="85" fill="#434935" fill-opacity=".5" rx="25" ry="51"/><ellipse cx="55" cy="159" fill="#c3ac6b" fill-opacity=".5" rx="31" ry="64"/><circle r="1" fill="#f8f8ed" fill-opacity=".5" transform="rotate(-170.8 43.7 5.9) scale(59.35317 23.62152)"/><circle r="1" fill-opacity=".5" transform="rotate(29.3 -168.6 541.8) scale(23.58221 61.26891)"/><path fill="#8b887e" fill-opacity=".5" d="M254-16l-37 146-17-141z"/><path fill="#796836" fill-opacity=".5" d="M206.3 88.8l2 12.5-61.1 26.3 8.6-35.7z"/><circle r="1" fill="#ffffb9" fill-opacity=".5" transform="rotate(106.6 42 152.6) scale(19.81331 15.30567)"/><path fill="#fff" fill-opacity=".5" d="M178 53h23v30h-23z"/><path fill="#0d0000" fill-opacity=".5" d="M219.6 75.4l-6.5 30.3-14.7-3.1 6.5-30.3z"/><path fill="#ffffb9" fill-opacity=".5" d="M232 128l-12-17-6 20z"/><path fill-opacity=".5" d="M158.3 159.6l28.3-28.3 7 7-28.2 28.4zm-137 7.4l-19 6.2-17.6-54.2 19-6.2z"/><ellipse cx="198" cy="45" fill="#9c9580" fill-opacity=".5" rx="103" ry="4"/><path fill="#d1dcc6" fill-opacity=".5" d="M206 116l-39 32.8-9-10.8 39-32.8z"/><path fill="#94907e" fill-opacity=".5" d="M106 53h51v21h-51z"/><path fill="#001700" fill-opacity=".5" d="M110.9 164.9L69 175l49-20.2 21.1-5.6z"/><circle r="1" fill="#0f0c00" fill-opacity=".5" transform="matrix(-38.62634 28.41104 -.95803 -1.3025 154.8 151.4)"/><path fill="#282419" fill-opacity=".5" d="M251 34.7l.5 4-82.6 8.6-.4-4z"/><path fill="#240c00" fill-opacity=".5" d="M55.3 96.6l-1.5-18.3 22.7 22.1 1.9 1.8z"/><path fill="#dcdac0" fill-opacity=".5" d="M39 50h68v31H39z"/><path fill="#f5f8c7" fill-opacity=".5" d="M81.2 139l-42.8 36 109.7-20.8L80 172.1z"/><circle r="1" fill="#eef8ea" fill-opacity=".5" transform="matrix(50.30162 -32.66626 1.86851 2.87726 151.8 144.6)"/><ellipse cx="195" cy="47" fill="#e2d9c2" fill-opacity=".5" rx="40" ry="4"/><path fill="#c1bca5" fill-opacity=".5" d="M-16 19.1l53.4 49.7 17.7 49.6-3-78.4z"/><path fill="#0f131b" fill-opacity=".5" d="M246.4 134.1l-27.3-21.5 10-28.7 14.6-2.3z"/><path fill="#fff" fill-opacity=".5" d="M190 4l-63 11 61-31z"/><path fill="#fff7b6" fill-opacity=".5" d="M203.9 130.5l-20.4 19.2-18 15.7 32.6-11.6z"/><circle r="1" fill="#d4cac2" fill-opacity=".5" transform="matrix(-28.13667 -2.33612 .3667 -4.41659 62 105.5)"/><path fill="#b0ab97" fill-opacity=".5" d="M6.4 66l89.7-41.7L.9 51.4l7 27.2z"/><ellipse cx="248" cy="100" fill="#b3aea0" fill-opacity=".5" rx="4" ry="13"/><circle r="1" fill="#6f6563" fill-opacity=".5" transform="rotate(76.4 97 129) scale(2.19734 68.17616)"/><path fill="#c4bc9f" fill-opacity=".5" d="M218 110l12-38-13 1z"/><path fill="#e2e2e2" fill-opacity=".5" d="M248.2 16.7l-72 29.9 54.5-15.2L111.2 38z"/><path fill="#2d3721" fill-opacity=".5" d="M-16 80.3L.4 97.7l36.7-29.2-51-1.8z"/><path fill="#e4ddab" fill-opacity=".5" d="M176.5 84.7l20 3.8-71.4 8.4-15.5-11.7z"/><path fill="#a28e6e" fill-opacity=".5" d="M3 0h17v25H3z"/><ellipse cx="135" cy="47" fill="#040100" fill-opacity=".5" rx="22" ry="1"/><path fill="#492002" fill-opacity=".5" d="M208 137l28 10-7-19z"/><ellipse cx="64" cy="110" fill="#50331c" fill-opacity=".5" rx="61" ry="2"/><path fill="#594d32" fill-opacity=".5" d="M44.4 125.9L1.3 66.6l13.9 84.2 40.9-39.6z"/><path fill="#040100" fill-opacity=".5" d="M159.5 175h-24l38.2-31.7 34.2-21.2z"/><path fill="#eff6eb" fill-opacity=".5" d="M150 74h53v6h-53z"/><ellipse cx="110" cy="52" fill="#fff" fill-opacity=".5" rx="23" ry="3"/><circle r="1" fill="#928764" fill-opacity=".5" transform="matrix(3.45276 -26.1905 29.1991 3.8494 125.1 126.2)"/><path fill="#2b231b" fill-opacity=".5" d="M156.9 81.7l64.7 7.3-6.9-20.5-8.8 17.3z"/><path fill="#4a4736" fill-opacity=".5" d="M66.6 75l.2-2 112.6 10-.2 2z"/><ellipse cx="82" cy="65" fill="#d6d3c1" fill-opacity=".5" rx="12" ry="29"/><path fill="none" stroke="#333334" stroke-opacity=".5" stroke-width=".5" d="M55.8 20.6q0-1 54.4-18.3"/><path fill="#82744d" fill-opacity=".5" d="M122 96l-44 75 13-88z"/><path fill="#0c0d05" fill-opacity=".5" d="M204 57h44v3h-44z"/><path fill="#fffffe" fill-opacity=".5" d="M16 27h54v6H16z"/><ellipse cy="53" fill-opacity=".5" rx="2" ry="20"/><circle cx="201" cy="21" r="6" fill="#5d5359" fill-opacity=".5"/><path fill="#b89958" fill-opacity=".5" d="M66.3 146.4l27-29.3-54.7 14.4-15.3 21.1z"/><path fill="#2a2c25" fill-opacity=".5" d="M21.5 164.2l-.8-7 31.8-3.4.8 7z"/><circle r="1" fill="#75828a" fill-opacity=".5" transform="rotate(173.6 75.3 24) scale(102.37153 1)"/><path fill="#afaaa4" fill-opacity=".5" d="M124.3 1.4l24.4.2-49.8 24.1 49.4-.7z"/><path fill="#fff" fill-opacity=".5" d="M93.3 48.4l-.1-1 73.5-7.8.1 1z"/><path fill-opacity=".5" d="M224 35h17v5h-17z"/><path fill="#805525" fill-opacity=".5" d="M114.9 111.3l-38.7-7.8-27.8-7.1 46.6 2z"/><path fill="#4e5152" fill-opacity=".5" d="M220.7 29.5L271 18.9 242-16l-9.2 47.3z"/><path fill="#fff" fill-opacity=".5" d="M160 54h11v13h-11z"/><path fill="#553d29" fill-opacity=".5" d="M110.4 112.7L171 94.9l-56.8 12.9-4.1 7.5z"/><path fill="#ab9d7e" fill-opacity=".5" d="M78.6 16.4l44.2-12.7.6 2-44.2 12.6z"/><path fill="#fff" fill-opacity=".5" d="M167.5 144.5l.7.7-25.7 22.3-.7-.7z"/><circle r="1" fill="#06070e" fill-opacity=".5" transform="matrix(13.79366 16.3788 -12.62108 10.62903 251.4 149.7)"/><path fill="#d0cfba" fill-opacity=".5" d="M97.2 41.7L49.7 86.3 23.4 75l60.7-.2z"/><ellipse cx="75" cy="114" fill="#3c3e1a" fill-opacity=".5" rx="8" ry="5"/><path fill="#eef1f1" fill-opacity=".5" d="M149.1 18.8l3.5-34.8 4.8 45.8-15.5 11.5z"/><path fill="#2d2215" fill-opacity=".5" d="M203 125l10-39 2 51z"/><path fill="#a89d78" fill-opacity=".5" d="M41 89l-25 2 4-14z"/><path fill="#c6b993" fill-opacity=".5" d="M151.2 103.5l54.2-20.8 1.4 3.8-54.2 20.8z"/><path fill="#fcfdfa" fill-opacity=".5" d="M83.8 16.1l-19.6 14L149.6 8l-29 1z"/><path fill="#a69e8b" fill-opacity=".5" d="M145 42l31 14 30-20z"/><path fill="#cbc08c" fill-opacity=".5" d="M148 117l1 28 16-17z"/><path fill="#ffffed" fill-opacity=".5" d="M36 55h26v6H36z"/><path fill="#301207" fill-opacity=".5" d="M246 57h10v29h-10z"/><path fill="#556846" fill-opacity=".5" d="M1 65h41v10H1z"/><path fill="#ccbeab" fill-opacity=".5" d="M47 106h50v4H47z"/><path fill="#544e3f" fill-opacity=".5" d="M97 49l55.8-5 .1 1-55.7 5z"/><circle r="1" fill="#e7ece1" fill-opacity=".5" transform="rotate(94 31.4 107) scale(1 32.74709)"/><circle r="1" fill="#160c00" fill-opacity=".5" transform="matrix(1.07054 1.06773 -14.90272 14.94193 194 136.7)"/><path fill="#151610" fill-opacity=".5" d="M11.3 109.6l-24.5-26 32.7-3.5L-5.2 68z"/><path fill="#535241" fill-opacity=".5" d="M150.1 157.6l-9.3 1 36.4-27 40.9-26.2z"/><path fill="#f5eaad" fill-opacity=".5" d="M194 159l12-31-35 32z"/><path fill="#385e9e" fill-opacity=".5" d="M161 23.1l-.7-3.9 14.8-2.3.6 3.9z"/><path fill="#24190c" fill-opacity=".5" d="M204 71h30v3h-30z"/><path fill="#f4e4a7" fill-opacity=".5" d="M214 130l20-7-17-7z"/><path fill="#7a643f" fill-opacity=".5" d="M170.4 101l7 14.4-19.8 9.6-7-14.4z"/><path fill="#aaa9b2" fill-opacity=".5" d="M234.1 8.4L198 16l30.7-17.7-7-3.5z"/><path fill="#ffffd5" fill-opacity=".5" d="M56.6 112.4l6.6 2.5-1.8 4.7-6.6-2.5z"/><ellipse cx="57" cy="88" fill="#000300" fill-opacity=".5" rx="4" ry="8"/><path fill="#fefcea" fill-opacity=".5" d="M37 23l-1-33 99 2z"/><path fill="#696545" fill-opacity=".5" d="M72.6 79.4l.1-1 58.7 6.2-.1 1z"/><path fill="#6c5e47" fill-opacity=".5" d="M112 96l15-2-14 50z"/></g></g></svg>