<svg xmlns="http://www.w3.org/2000/svg" viewBox="0 0 545 900"><defs/><filter id="a"><feGaussianBlur stdDeviation="12"/></filter><rect width="100%" height="100%" fill="#5b3c31"/><g filter="url(#a)"><g fill-opacity=".5" transform="translate(1.8 1.8) scale(3.51563)"><ellipse cx="33" cy="8" fill="#8fafcd" rx="122" ry="255"/><circle r="1" fill="#6abbff" transform="matrix(-106.26882 111.45823 -32.4292 -30.91932 30.6 45.3)"/><path fill="#231108" d="M96.8 36.2l75.3 61-40.9 50.6-75.3-61z"/><ellipse cx="64" cy="214" fill="#a5703a" rx="77" ry="110"/><circle r="1" fill="#61a5ff" transform="matrix(7.71059 -30.47196 74.94154 18.96312 131.5 20)"/><ellipse cx="82" cy="219" fill="#c1a37f" rx="29" ry="105"/><path fill="#13040c" d="M170 179l-70 4 20-44z"/><circle r="1" fill="#42312e" transform="matrix(-15.2886 -7.4898 46.54664 -95.01352 25.5 162.5)"/><path fill="#9fbdf9" d="M-16 93.7l19.3 85L9 133.6l71.5-79.5z"/><path fill="#ffdc97" d="M131 178h9v60h-9z"/><path fill="#a0968c" d="M77 71l29 1-71 59z"/><path fill="#ffe0a0" d="M97 185h15v49H97z"/><ellipse cx="111" cy="72" rx="10" ry="20"/><circle r="1" fill="#050100" transform="matrix(4.59902 4.6872 -18.50926 18.16109 87.2 59.2)"/><path fill="#340700" d="M93.9 104L65 127.1 39.9 134l46.9-38.6z"/><ellipse cx="149" cy="158" fill="#1a1a1c" rx="10" ry="101"/><path fill="#ffffc5" d="M58 197h23v15H58z"/><circle r="1" fill="#673f22" transform="matrix(41.2391 -9.5208 1.47513 6.38947 77.5 187.3)"/><path fill="#0a1927" d="M113 217h17v39h-17z"/><path fill="#c2c5ae" d="M95 105.6l8.2 11.3L57 150.4l-8.3-11.3z"/><path fill="#321c06" d="M-5.9 271l12.2-90.9L19.4 228l-2.7-9.1z"/><path fill="#928c91" d="M102 54l2 80-20-64z"/><ellipse cx="48" cy="215" fill="#341606" rx="6" ry="20"/><ellipse cx="13" cy="192" fill="#fed198" rx="14" ry="4"/><ellipse cx="123" cy="26" fill="#6da1ea" rx="14" ry="35"/><circle cx="27" cy="36" r="53" fill="#6793e0"/><path fill="#1c150e" d="M39.5 100.8L5 147.4 56.2 98l34.4-49.2z"/><path fill="#002260" d="M92 189h4v50h-4z"/><path fill="#cb8d50" d="M-9.5 250.3l8.9 14.1 43-61.8 14.9 67.8z"/><path fill="#fffbee" d="M9 161l-25 14 17-52z"/><path fill="#c79f9a" d="M132 189h23v12h-23z"/><path fill="#70646f" d="M127 52h14v102h-14z"/><circle r="1" fill="#5f454a" transform="matrix(26.75891 -14.26665 2.5996 4.87588 76.7 145.9)"/><path fill="#3b2d21" d="M18.8 104.8l3-.4 3.4 24.8-3 .4z"/><ellipse cx="120" cy="146" fill="#34211e" rx="8" ry="49"/><path fill="#1d130b" d="M150.6 81l-3.9-29.7-9.8.3 8.2 16.3z"/><path fill="#6da4ef" d="M148 0h7v63h-7z"/><path fill="#7b5038" d="M98.4 232.6L78.2 249l-12.6-15.6L85.8 217z"/><path fill="#1f0000" d="M93.7 73l.7.7L42.3 119l-.7-.7z"/><path fill="#ffffb5" d="M58 197h4v37h-4z"/><path fill="#ddb391" d="M41.8 231.7l.6-33.2 10.9-10.2-18.8 8.2z"/><path fill="#816e6f" d="M123 157l1-22-70 37z"/><path fill="#ffdc8e" d="M90 192l-3 18-19-15z"/><path fill="#8e5a2f" d="M41 158L2 241l27-6z"/><circle r="1" fill="#221200" transform="matrix(-3.40321 -3.75322 23.52337 -21.32969 61.1 85.9)"/><path fill="#000410" d="M69.6 223.9l.8 14-4 .2-.8-14z"/><path fill="#101302" d="M90.7 144.5l-45 22-.4-1 45-22z"/><path fill="#453132" d="M-10.1 172.6l27.8-13.1 9.1 30.7-15.3-13.4z"/><path fill="#1d0300" d="M141 63l-7 16-9-3z"/><path fill="#ffb96a" d="M140 222h15v3h-15z"/><ellipse cx="100" cy="202" fill="#fdb" rx="4" ry="24"/><path fill="#5c3624" d="M112.1 191.5l.6 49.2 11.3-74.1-23.8-2.5z"/><path fill="#9093a3" d="M124 102V66l8 20z"/><path fill="#000307" d="M119.8 59.6l-7.8 6.3-15.8-19.5 7.8-6.3z"/><ellipse cx="66" cy="12" fill="#6791ce" rx="146" ry="31"/><ellipse cx="39" cy="153" fill="#958697" rx="3" ry="25"/><circle r="1" fill="#020806" transform="matrix(-9.63065 17.66387 -9.62147 -5.2458 154 244)"/><path fill="#564a51" d="M39.3 101.6l-2.8 75.2L5.2 138l19.9-17.2z"/><path fill="#261a0d" d="M10.8 259.5l-20.3-55.2L28 234.7l-44-9.5z"/><ellipse cx="80" cy="144" fill="#131a27" rx="1" ry="32"/><path fill="#a2bff1" d="M15 131l-31-5 38-27z"/><path fill="#77a5e6" d="M112.5 49.9l35.3 1.1-7.7-16.6-15.3 30.9z"/><path fill="#8d8b90" d="M37.3 122.1l5.8-14.2L69.3 85l11.9-4.1z"/><path fill="#7e6470" d="M112.6 135l-18.9 26.7-2.2-66.1 10 17.2z"/><path fill="#d7d1b6" d="M61 134.6l1.8 10.9-11.9 1.9-1.7-10.9z"/><circle r="1" fill="#200d08" transform="rotate(75 -123.6 123.6) scale(3.17311 5.51799)"/><path fill="#d0965a" d="M41.9 241.5L6.7 262.8l.6-25.1-22.6-7z"/><path fill="#452b2a" d="M45 124h5v62h-5z"/><path fill="#e8b782" d="M72.4 216.7l5-.3 2.2 32.9-5 .3z"/><path fill="#ff9d68" d="M20.9 208.4l.2-17 6 .2-.2 17z"/><path fill="#f3e393" d="M54 199h9v34h-9z"/><path fill="#a27d75" d="M112.5 174L92 134.2l-47.4 28.4 66.8-28.3z"/><path fill="#7da4d9" d="M35.3 117.3l-3.8-12.1 81.3-80.5L-2 84.1z"/><path fill="#442e22" d="M21.7 201.9L2 213.5l4.3-46.1-2.7 19.5z"/><path d="M145 128h5v27h-5z"/><path fill="#2d211e" d="M65.4 212.5l.1 1-23 2v-1z"/><path fill="#291e0f" d="M90 190l-9-4-11 7z"/><ellipse cx="75" cy="158" fill="#2f3033" rx="1" ry="35"/><path fill="#110a0f" d="M103.9 43.2L119 62l2.6-3.1-17.2 48.2z"/><path fill="#e2a858" d="M16 205h3v43h-3z"/><path fill="#130d15" d="M82 192h1v46h-1z"/><path fill="#df9e64" d="M135.5 251.8l-2.7-14.5-3.8-52 11.8-.5z"/><ellipse cx="95" cy="205" fill="#4668b4" rx="2" ry="20"/><path fill="#2f292d" d="M129.4 101.8l1.2-26.8.6 44.5 20.9-10.7z"/><circle cx="14" cy="191" r="4" fill="#ffecb5"/><path fill="#8d8ab2" d="M149.7 149.4l1.6-23 1 .2-1.6 23z"/><path fill="#b17954" d="M101 218h11v38h-11z"/><path fill="#3f1a00" d="M88 108l-9-7-24 29z"/><path fill="#896d74" d="M128 120h12v35h-12z"/><path fill="#1f2d3d" d="M63.6 155h1l-2.2 32h-1z"/><path fill="#4a3c30" d="M72 192h2v18h-2z"/><circle r="1" fill="#beb4a2" transform="rotate(-130.7 60.4 28) scale(1 32.29692)"/><path fill="#261814" d="M115.2 187.1l-4.5-11.1 62.1-25.1 4.5 11.1z"/><path fill="#6790cc" d="M134 78l6 10-9 5z"/><path fill="#31211a" d="M116.3 123l-11.6-4.9 62.4-43.4-66.7 37.3z"/><path fill="#ffed9c" d="M33 213v13l-3-5z"/><path fill="#ad8255" d="M20.7 194.9l81-15.3-36.8 11.9-6.8 3.2z"/><circle r="1" fill="#695c54" transform="rotate(-29.9 282.1 -74.6) scale(53.65095 1)"/><ellipse cx="99" cy="127" fill="#a18987" rx="3" ry="60"/><path fill="#452e18" d="M42.7 198.7l46-13.3.6 2-46 13.2z"/></g></g></svg>