<svg xmlns="http://www.w3.org/2000/svg" viewBox="0 0 1400 875"><defs/><filter id="a"><feGaussianBlur stdDeviation="12"/></filter><rect width="100%" height="100%" fill="#35475e"/><g filter="url(#a)"><g fill-opacity=".5" transform="translate(2.7 2.7) scale(5.46875)"><circle r="1" fill="#ffe18b" transform="matrix(-51.55858 -85.97822 120.71833 -72.3912 103.5 52.2)"/><circle r="1" fill="#fffde9" transform="matrix(31.62588 4.6701 -10.71814 72.5831 114 34.3)"/><circle cx="156" cy="132" r="40" fill="#561b00"/><ellipse cy="113" fill="#230600" rx="32" ry="46"/><path fill="#ffffe7" d="M31.3 154l4.2-29.7 83.2 11.7-4.2 29.7z"/><circle r="1" fill="#714811" transform="rotate(109.1 94.2 137) scale(104.51559 68.68623)"/><circle r="1" fill="#260a00" transform="matrix(76.4919 -11.14393 4.23846 29.09277 246 141.1)"/><ellipse cx="235" cy="27" fill="#877c6a" rx="115" ry="30"/><circle r="1" fill="#ece1be" transform="rotate(-170.5 52.4 34) scale(49.34501 18.87426)"/><path fill="#e7d48e" d="M157 81h59v17h-59z"/><path fill="#ffffe6" d="M118.1 157.7l-67-2.4.8-19 67 2.4z"/><ellipse cx="127" cy="105" rx="9" ry="12"/><ellipse cx="56" cy="101" fill="#3e230a" rx="8" ry="20"/><circle r="1" fill="#e2e0d9" transform="matrix(-11.36538 10.15365 -19.6983 -22.04907 137.2 8.5)"/><ellipse cx="119" cy="159" fill="#ad691c" rx="71" ry="5"/><path fill="#616b49" d="M36-16l65 77-117-77z"/><path fill="#753704" d="M100 98l-14 33 25-4z"/><circle r="1" fill="#a1a07f" transform="rotate(139.6 102.3 88) scale(6.43345 21.07217)"/><path fill="#f2ddc1" d="M41 95l-20 23 23 9z"/><path fill="#1b0e00" d="M-6.8 161.9l11.3-29.6 15.9-33L5.6 67.1z"/><path fill="#e0ded3" d="M59 19L159-5 51-16z"/><path fill="#fbf9fc" d="M43.8 43.5L20.3 34l-16-16.3 27 16.3z"/><path fill="#867046" d="M184 41h32v86h-32z"/><circle cx="158" cy="50" r="10" fill="#34361a"/><circle r="1" fill="#86622f" transform="matrix(2.5 13.70223 -30.89004 5.63595 11.8 142.7)"/><circle cx="67" cy="141" r="17" fill="#ffffcd"/><path fill="#00020f" d="M.8 14.9l43.5 25.4-55.1-37.8-5.2 6.9z"/><path fill="#7e3000" d="M87 136l-42 3v-1l42-3z"/><path fill="#899876" d="M43.2 8.6l47.3 7 8.9 59.6L70.6 57z"/><circle r="1" fill="#5b3c1b" transform="matrix(-15.30261 -43.45412 37.38599 -13.16568 175.3 146.1)"/><circle r="1" fill="#080701" transform="matrix(-39.64865 77.41364 -18.72768 -9.59169 255 146.7)"/><path fill="#af7a3f" d="M44 112h77v16H44z"/><circle r="1" fill="#f6eaaf" transform="matrix(27.12343 -.0172 .0028 4.40498 160.5 89.3)"/><path d="M166.5 53.7l62.4-56.2.6.8-62.4 56.2z"/><path fill="#d0c199" d="M44 46h21v38H44z"/><path fill="#efe7c6" d="M105.3 92.8l-3.6 24.6 15.2-10.1-21-118.5z"/><path fill="#85866d" d="M239 69h13v44h-13z"/><path fill="#ffffd2" d="M60.8 152.4l5 4.5 48-.1.5-28.8z"/><path fill="#776a43" d="M71.2 78.9l-81.5-26.1 46.5 51.5L-16 36.2z"/><path fill="#986327" d="M76.7 137.5l61.3-3.7-5.2 41.2-16.5-36.7z"/><circle r="1" fill="#1a1c0d" transform="matrix(1.096 2.14285 -42.41315 21.6929 235.7 37)"/><path fill="#a3966e" d="M153 107.9l15.5 23.5 17.7-8-36.9 4.2z"/><path fill="#2b2922" d="M193.4 72.4L271 43.1l-2.5 19.8-50.9 11.8z"/><path fill="#2e1d0c" d="M224.2 128.3l9.8-50.9 9.3 51.1-68.5-20.1z"/><path fill="#c0a974" d="M20.4 77.2L6.1 84.3l23.5 3.5 8.8-58.3z"/><path fill="#806f42" d="M19 84h14v66H19z"/><path fill="#b9ac99" d="M184.7 39.6l60.2-52.2-9.6 35L267.5-16z"/><circle r="1" fill="#cbd0d6" transform="matrix(-8.05203 -8.14399 4.1646 -4.11758 24 18.2)"/><circle r="1" fill="#998d68" transform="matrix(-52.45718 23.21654 -2.62119 -5.92251 215.4 57)"/><path fill="#ebe7d2" d="M117 14.1l10.8 50.2-50.9-32.2 5.7 2.9z"/><ellipse cx="62" cy="41" fill="#516644" rx="13" ry="10"/><path fill="#844e19" d="M3 157h156v3H3z"/><path fill="#485d3d" d="M130 38.3l-8.1-4 6.1-12.6 8.1 4z"/><path fill="#e7debc" d="M109 80L67 93l-5-41z"/><path fill="#515340" d="M6-16l72 4-36 29z"/><path fill="#050a03" d="M127.7 97.7l4.4 20.5-9.8 2.1-4.4-20.5z"/><path fill="#ada398" d="M161 36L137 6l38-5z"/><path fill="#66583f" d="M179.4 32l-42.3 5 10.5 10.1 65.2-54.7z"/><path fill="#ffffdc" d="M49 124h29v11H49z"/><path fill="#aea284" d="M222.6 70.3l2 .6-.8 35.4 10.8-27.1z"/><path fill="#4c4530" d="M154 39h3v68h-3z"/><path fill="#664e25" d="M35 77h7v22h-7z"/><circle r="1" fill="#401c04" transform="matrix(-26.14581 -.96623 .3412 -9.23301 156.4 144.7)"/><path fill="#fff3b2" d="M44 69l6 19-8 11z"/><ellipse cx="125" cy="1" fill="#fffcfb" rx="26" ry="7"/><circle r="1" fill="#bbb6a5" transform="matrix(-.87812 -1.05966 63.15212 -52.33311 216.4 14.7)"/><path fill="#3a431f" d="M138.7 68.6l10.6-2.9 2 7.7-10.6 2.9z"/><path fill="#b18649" d="M43 97h6v53h-6z"/><path fill="#9d834d" d="M210.5 116.7l3.9-34.5L177 63.1l15.2 50.6z"/><path fill="#baae83" d="M134.3 104.6l8-54.5-29.1 54.3 32.1-17.6z"/><path fill="#546d4f" d="M70.2 16.4l3.8-6 17.8 11.2-3.8 6z"/><path fill="#16221e" d="M76.3 59l-.6 1-56-35 .6-1z"/><path fill="#f4e3a4" d="M158 63h8v31h-8z"/><path fill="#31282a" d="M49 111l5-15 7 31z"/><path fill="#d5ccaa" d="M119 59l13-29 22 34z"/><path fill="#dccf9a" d="M48.8 135.9l-10.5 24.8-3.1-24.7-22.6 17.6z"/><path fill="#1f2934" d="M216.5 92.6l2.9 35.7 5.5-29.6-9-42.4z"/><path fill="#c8c1b2" d="M106.7 70.7l-25.2 3-8.1-25.6 2.7-4.6z"/><path fill="#7c756c" d="M136.7 9.8L158.4-.7 182-9.9l-38.4 24.4z"/><path fill="#3c2710" d="M14 145l6-65-35 54z"/><path fill="#c8baab" d="M23.2 122.6L19.9 102l3-.5L26 122z"/><path fill="#000401" d="M99 111l3-11-6 3z"/><circle r="1" fill="#c4b97d" transform="matrix(.99987 .01631 -.27256 16.70666 172.8 109)"/><path fill="#a07c4d" d="M54 92l10 31 71-2z"/><path fill="#463c15" d="M60 71l6 5 9 1z"/><path d="M4 73h16v6H4z"/><path fill="#7c4c22" d="M86 118h25v13H86z"/><path fill="#a2907e" d="M-5.5-16l51.2 53L34.8 6.3-16 9.4z"/><path fill="#000e17" d="M179.1 100l5.9 1.5-4.1 16.5-5.9-1.5z"/><circle r="1" fill="#d7ab59" transform="matrix(-21.07407 -3.6011 .16844 -.98571 145 124.4)"/><path fill="#ffffd6" d="M107 99l13 1-15 10z"/><circle r="1" fill="#e0dcc3" transform="rotate(130.6 71.4 43) scale(15.46795 5.07436)"/><ellipse cx="37" cy="58" fill="#604e33" rx="2" ry="36"/><path fill="#88795d" d="M259 21l1-37-98 77z"/><path fill="#e9e0db" d="M31 120h14l-8-23z"/><path fill="#c1aa78" d="M77 112h45v6H77z"/><path fill="#85734a" d="M49.9 92.8v4.1L58.7 53l-5.2 11.5z"/><path fill="#b7b297" d="M56.4 10.4l10.2 76.9L61-.7 41.2-12z"/><path fill="#cabb96" d="M190 30l11-21-35 34z"/><path fill="#ffffda" d="M51 132h69v3H51z"/></g></g></svg>