<svg xmlns="http://www.w3.org/2000/svg" viewBox="0 0 1400 875"><defs/><filter id="prefix__a"><feGaussianBlur stdDeviation="12"/></filter><rect width="100%" height="100%" fill="#746642"/><g filter="url(#prefix__a)"><g transform="translate(2.7 2.7) scale(5.46875)"><circle r="1" fill="#f6fff5" fill-opacity=".5" transform="matrix(89.7639 -59.65968 64.78883 97.4812 101.7 36)"/><circle r="1" fill="#fff8ec" fill-opacity=".5" transform="matrix(-82.39954 -25.48286 12.24273 -39.5872 111.4 1.4)"/><circle r="1" fill-opacity=".5" transform="matrix(-4.3597 -57.31665 15.8101 -1.20257 14 145.7)"/><circle cx="77" cy="126" r="49" fill="#838363" fill-opacity=".5"/><circle r="1" fill="#1c0000" fill-opacity=".5" transform="rotate(28.8 -135.6 564) scale(25.63376 55.60212)"/><path fill="#9d9170" fill-opacity=".5" d="M144 167l57-182 40 64z"/><circle r="1" fill="#cbe1f1" fill-opacity=".5" transform="matrix(49.27045 14.12807 -5.62135 19.60397 13.4 47.9)"/><path fill="#c2f7ff" fill-opacity=".5" d="M52 123h16v31H52z"/><circle r="1" fill="#77562b" fill-opacity=".5" transform="matrix(6.71138 13.51999 -33.79085 16.77392 94.3 149)"/><ellipse cx="14" cy="72" fill="#131200" fill-opacity=".5" rx="21" ry="3"/><circle r="1" fill="#393425" fill-opacity=".5" transform="matrix(-.5034 1.40518 -116.55966 -41.75789 26.1 22.9)"/><path fill="#121219" fill-opacity=".5" d="M228 80l-4 28-42-5z"/><path fill="#ffface" fill-opacity=".5" d="M132 97l14 51 19-1z"/><circle r="1" fill-opacity=".5" transform="rotate(46.5 -170.8 87.3) scale(32.20988 18.8328)"/><path fill="#7b7b56" fill-opacity=".5" d="M4 89h92v20H4z"/><path fill="#ebdca7" fill-opacity=".5" d="M212 67h26v12h-26z"/><path fill="#555d40" fill-opacity=".5" d="M186.3 71l-19.4 20.6 1.3 83.3-8.5-96.3z"/><circle cx="126" cy="153" r="6" fill="#fff1c7" fill-opacity=".5"/><circle r="1" fill="#6f827c" fill-opacity=".5" transform="matrix(-25.8775 -7.05503 1.715 -6.2905 70.8 56)"/><ellipse cx="193" cy="105" fill="#321302" fill-opacity=".5" rx="3" ry="31"/><path fill="#cbc6ab" fill-opacity=".5" d="M68.8 102.5l45.3 29.8 5.3-26.5-89.9 36.5z"/><path fill="#4c210b" fill-opacity=".5" d="M136 152h82v8h-82z"/><path fill="#e4debf" fill-opacity=".5" d="M108 57h84v14h-84z"/><path fill="#211005" fill-opacity=".5" d="M70 128h8v28h-8z"/><circle r="1" fill="#222313" fill-opacity=".5" transform="matrix(.60498 3.15738 -39.22438 7.5157 245.1 59.6)"/><ellipse cx="242" cy="8" fill="#5d5441" fill-opacity=".5" rx="48" ry="31"/><path fill="#dadbc0" fill-opacity=".5" d="M148.4 95.8l55.8 1.6-52.9-18-63.8-15.9z"/><path fill="#d8c1af" fill-opacity=".5" d="M210 121l-9-18 20 9z"/><path fill="#13a7ff" fill-opacity=".5" d="M-11.6 24.5L33 39.8l-1.3 3.7L-13 28.2z"/><path fill="#a99b73" fill-opacity=".5" d="M243 58L206 4l-21 62z"/><ellipse cx="255" cy="135" fill-opacity=".5" rx="6" ry="41"/><path fill="#d0c9aa" fill-opacity=".5" d="M23 80h64v14H23z"/><path fill="#302f11" fill-opacity=".5" d="M114 118h11v17h-11z"/><circle r="1" fill="#97917a" fill-opacity=".5" transform="rotate(-152.7 28.8 -3.8) scale(114.32286 1.68708)"/><path fill="#454c30" fill-opacity=".5" d="M96 138l-3-29-10 38z"/><path fill="#3a552e" fill-opacity=".5" d="M178.6 77.4l-19.2-5.8 22.7 21.3L178 81z"/><circle r="1" fill="#514b38" fill-opacity=".5" transform="matrix(-76.59765 -29.3346 .7175 -1.8735 19 18.5)"/><path fill="#e6dfcc" fill-opacity=".5" d="M187 51l8-50L6-5z"/><path fill="#868d77" fill-opacity=".5" d="M65 75L9 121l75-13z"/><path fill="#c19546" fill-opacity=".5" d="M153 150l-17-20-25 8z"/><path fill="#e2e3c0" fill-opacity=".5" d="M108 85h7v51h-7z"/><path fill="#3e3720" fill-opacity=".5" d="M29 74h29v3H29z"/><path fill="#808162" fill-opacity=".5" d="M120.2 93l35.9 13.2 63.1 44.8-47-25z"/><path fill="#fffed6" fill-opacity=".5" d="M136 110l-13 14 41-7z"/><path fill="#6c341b" fill-opacity=".5" d="M217.1 120.5l16.6-15.1 1.7-16.2 14.8 85.8z"/><path fill="#e4ffff" fill-opacity=".5" d="M15.1 44.6l3.3-16.7 28.5 5.5-3.3 16.7z"/><path fill="#f2ebd3" fill-opacity=".5" d="M16.2 70.5L-16 53.2l99.5 19.2 67.6 12z"/><circle r="1" fill="#929a61" fill-opacity=".5" transform="rotate(-26.4 181 20) scale(6.26477 20.03693)"/><path fill="#a3966f" fill-opacity=".5" d="M195 63h9v37h-9z"/><path fill="#849365" fill-opacity=".5" d="M113 82h20v22h-20z"/><circle r="1" fill="#72624a" fill-opacity=".5" transform="rotate(102.9 -9.7 30.4) scale(1 28.86324)"/><path fill="#a17b53" fill-opacity=".5" d="M228.8 149.9l-1.7-20.5 6.2.4-70.8 3.3z"/><path fill="#1b1210" fill-opacity=".5" d="M90.6 175l-72.9-36-10.6 5 59.2 13.1z"/><path fill="#e0dbc6" fill-opacity=".5" d="M169 89h12v30h-12z"/><path fill="#cbdded" fill-opacity=".5" d="M90.7 28.3L40.2-1l-55.7-12.4 60.7 31.1z"/><path fill="#999f9b" fill-opacity=".5" d="M42 11l28 24 42 6z"/><path fill="#5d2301" fill-opacity=".5" d="M190 144h23v16h-23z"/><path fill="#413c2a" fill-opacity=".5" d="M235.2-7l20.5-4.8 19 82.8-20.4 4.8z"/><path fill="#d6bb86" fill-opacity=".5" d="M35.3 127.6l11.6-3.3 5.8 20.1-11.6 3.3z"/><circle r="1" fill="#d2c8b1" fill-opacity=".5" transform="rotate(61.9 76.7 156.5) scale(29.04846 13.95772)"/><path fill="#7b8387" fill-opacity=".5" d="M99.4-6.6l-3.8-9.3L93-16l60.2 55.1z"/><path fill="#94824f" fill-opacity=".5" d="M241.5 117.2l-11.8-54.9 25.7 22.1-7.6 29.5z"/><path fill="#6c7757" fill-opacity=".5" d="M161.6 111.2l3.4-26.7-14.2 2 25.3-17.1z"/><path fill="#3f5241" fill-opacity=".5" d="M27.6 128l76.6-15 .2 1-76.6 15z"/><path fill="none" stroke="#32414a" stroke-opacity=".5" stroke-width=".5" d="M53.8 64.9Q85.6 72 123.3 78"/><path fill="#3e3113" fill-opacity=".5" d="M16.6 59l-21.4-5 .2-1 21.4 5z"/><path fill="#e8e6d3" fill-opacity=".5" d="M184 31h4v63h-4z"/><path fill="#ede2c1" fill-opacity=".5" d="M84.8 133.7l6.5-16.5-52.4 11.2 41-1.8z"/><path fill="#958f67" fill-opacity=".5" d="M151.2 71.1l3.6 8.1-100.2-24L155.5 72z"/><path fill="#e6e0bc" fill-opacity=".5" d="M163.9 89.6l-12.2 11.8-20.1-8.9L20.2 77.6z"/><path fill="#f8f4e3" fill-opacity=".5" d="M97.1 27.4l56.1 20.2-51.4-43.4-15.3-5.4z"/><path fill="#38373b" fill-opacity=".5" d="M187 41h10v8h-10z"/><path fill="#0c0600" fill-opacity=".5" d="M191 88h3v41h-3z"/><path fill-opacity=".5" d="M95 91l-4 3-2-7z"/><path fill="#eedac1" fill-opacity=".5" d="M83 146.7l.3-2 15.8 2.6-.4 2z"/><circle r="1" fill="#6d8d64" fill-opacity=".5" transform="matrix(-22.22153 9.2469 -1.61778 -3.88773 111.2 97.7)"/><path fill="#63b8f2" fill-opacity=".5" d="M36.4 40.4l-1.3 5.4L-16 28.9V20z"/><circle r="1" fill="#f9f5e1" fill-opacity=".5" transform="matrix(-1.27943 3.63238 -8.16827 -2.8771 26.2 80)"/><path fill="#888472" fill-opacity=".5" d="M74.1 18.9l28.2 5.7-10.4 3.7L58.1 6.2z"/><path fill="#845b28" fill-opacity=".5" d="M139.1 141.6l-.3-8L12 175l99.1-28.8z"/><path fill="#7e7254" fill-opacity=".5" d="M212.5 59.3l-11.3 30.9-8.9-11.9 1.2-11.4z"/><path fill="#8d7f5f" fill-opacity=".5" d="M206.3 43.9l-12-20.8 29.4-17 12 20.8z"/><path fill="#605343" fill-opacity=".5" d="M86 106l-15-2-2-20z"/><path fill="#52462c" fill-opacity=".5" d="M32.7 110.3l-44.9-27 11.4 44.2 54.9-35.9z"/><ellipse cx="61" cy="145" fill="#8dc4ed" fill-opacity=".5" rx="8" ry="10"/><path fill-opacity=".5" d="M203 90h14v11h-14z"/><path fill="#cebd99" fill-opacity=".5" d="M133.8 146.7l-21.6-14.9 12.5 20.4-18.5 3.3z"/><circle cx="214" cy="51" r="11" fill="#c9b887" fill-opacity=".5"/><ellipse cx="21" cy="72" fill="#0a0500" fill-opacity=".5" rx="12" ry="2"/><path fill="#cccfbc" fill-opacity=".5" d="M145 105l-52 24 15-25z"/><path fill="#fffcdd" fill-opacity=".5" d="M164 66l-11 20 1-21z"/><path fill="#857d60" fill-opacity=".5" d="M98 49.6l47.4 17 10.7-1.5-25.9-5.7z"/><ellipse cx="89" cy="157" fill="#c09367" fill-opacity=".5" rx="17" ry="3"/><circle r="1" fill="#ab9771" fill-opacity=".5" transform="matrix(-.213 2.49647 -20.2255 -1.7256 148.4 47.7)"/><path fill="#875b2c" fill-opacity=".5" d="M185 93h4v66h-4z"/><path fill="none" stroke="#555f67" stroke-opacity=".5" stroke-width=".5" d="M89.6-16Q126 17 151 34.3"/><path fill="#39404c" fill-opacity=".5" d="M193 64.1l9-64.4 1 .2-9 64.4z"/><path fill="#290e00" fill-opacity=".5" d="M131 149h17v5h-17z"/><path fill="#fcf3c6" fill-opacity=".5" d="M196 99l-1-14 8 12z"/><path fill="#ebdcb3" fill-opacity=".5" d="M163.7 139.5l-29.4-6 29.3 19.5-1.4-2.5z"/></g></g></svg>