<svg xmlns="http://www.w3.org/2000/svg" viewBox="0 0 746 600"><defs/><filter id="a"><feGaussianBlur stdDeviation="12"/></filter><rect width="100%" height="100%" fill="#326d49"/><g filter="url(#a)"><g fill-opacity=".5" transform="translate(1.5 1.5) scale(2.91406)"><circle cx="124" cy="98" r="170" fill="#fff"/><circle cx="95" cy="93" r="204" fill="#fff"/><circle cx="133" cy="76" r="204" fill="#fffaff"/><circle r="1" fill="#695f93" transform="rotate(-172 79.6 62.9) scale(10.54895 53.94575)"/><path fill="#4f9533" d="M227 50h11v120h-11z"/><path fill="#70799b" d="M160 16h27v52h-27z"/><circle r="1" fill="#5d548e" transform="rotate(-116.1 86.2 50.1) scale(46.77505 7.9023)"/><circle r="1" fill="#fff" transform="rotate(-97.3 72.2 53.5) scale(189.74787 32.57248)"/><ellipse cx="194" cy="176" fill="#fff" rx="33" ry="99"/><path fill="#149fff" d="M227 124h12v44h-12z"/><path fill="#ffb100" d="M227 55h12v52h-12z"/><ellipse cx="59" cy="78" fill="#8a998b" rx="7" ry="45"/><ellipse cx="137" cy="61" fill="#bdcfce" rx="48" ry="46"/><path fill="#6b647c" d="M79 156h80v9H79z"/><circle cx="226" cy="13" r="42" fill="#fff"/><ellipse cx="215" cy="193" fill="#fff" rx="71" ry="26"/><ellipse cx="120" cy="126" fill="#000253" rx="1" ry="71"/><ellipse cx="115" fill="#fff" rx="171" ry="17"/><path fill="#51ff69" d="M239 130h-12V96h12z"/><path fill="#7ab299" d="M136 35.9l8.5-9.6 37.8-7.8-90.4.9z"/><ellipse cx="23" cy="149" fill="#fff" rx="36" ry="115"/><path fill="#2e1996" d="M102 81h2v68h-2z"/><ellipse cx="118" cy="193" fill="#6b5d92" rx="27" ry="3"/><ellipse cx="251" cy="104" fill="#fff" rx="10" ry="204"/><path fill="#ff001b" d="M227 54h12v17h-12z"/><circle r="1" fill="#293037" transform="matrix(1.3517 -3.3795 9.61754 3.84674 180 25.8)"/><circle r="1" fill="#857ab1" transform="matrix(26.61851 -44.76577 1.44315 .85812 139.4 102)"/><path fill="#fff" d="M186 0h31v202h-31z"/><path fill="#9ab590" d="M119.1 131.1L74.7 85.5l-7.5-10.4-13.8-29.3z"/><path fill="#5100ff" d="M226 162h15v7h-15z"/><path fill="#786ea7" d="M132.1 169.2L97 67.1l1-.3 35 102.1z"/><path fill="#70639b" d="M58 132h104v4H58z"/><path fill="#6effff" d="M227 119h12v27h-12z"/><path fill="#9d9d61" d="M52.2 61.6l1-39.4 2-7 6.7 43.5z"/><path fill="#bed69d" d="M95 14l33 59-59-54z"/><path fill="#f5fdfb" d="M149.4 86.1l26.1-71.3-50.4 46.7 5.1 17.3z"/><circle cx="59" cy="200" r="35" fill="#fff"/><ellipse cx="153" cy="118" fill="#5e5394" rx="3" ry="60"/><path fill="#62539d" d="M148.1 162.5L177 91.1l.9.4-28.9 71.4z"/><path fill="#fff" d="M56 58h6v26h-6zm53.1 67.2l10.7 64.9-25.1-21.9 2.8 26z"/><path fill="#344c72" d="M174.4 65.7l-.3 2-30.5-5.4.3-2z"/><path fill="#fdfcfb" d="M134 134h18v16h-18z"/><path fill="#fff" d="M120 26l13 20.2-15 9.8-13-20.2z"/><circle r="1" fill="#fbf9ef" transform="rotate(-130 55.9 7.2) scale(33.11016 19.6414)"/><path fill="#1f754e" d="M65.5 138.5h-1l-2-59h1z"/><ellipse cx="17" cy="89" fill="#fff" rx="31" ry="202"/><path fill="#f1f0f4" d="M168.8 75.8l-46.7-14 30.2 17.8 10 51.5z"/><path fill="#548b85" d="M93.7 28l11.6 65.9-1 .2-11.6-66z"/><path fill="#65618e" d="M157.4 94.3l19.3-55.5-4.3-27.9 11.9 14.2z"/><ellipse cx="112" cy="84" fill="#9692bb" rx="39" ry="3"/><path fill="#faf6ff" d="M167.8 83l8.7-54.2-3.1 18.6 13 16.8z"/><path fill="#757974" d="M91 53.1v-1L191 47v1z"/><circle r="1" fill="#30264a" transform="matrix(.15546 2.27534 -7.03488 .48066 152.1 89.7)"/><path fill="#211949" d="M102 160h48v2h-48z"/><path fill="#4f4a5a" d="M181 72h15v3h-15z"/><ellipse cx="240" cy="113" fill="#86847f" rx="1" ry="66"/><circle r="1" fill="#eeff3e" transform="matrix(.09098 17.3765 -5.70155 .02985 232.6 91.2)"/><path fill="#79d28b" d="M118 62l2 25 12-42z"/><path fill="#70698a" d="M90 188l10 10-8-35z"/><circle r="1" fill="#fdfdff" transform="rotate(-175.4 41.4 53.9) scale(18.65088 11.03608)"/><circle r="1" fill="#fff" transform="rotate(-75.6 191.4 -42.7) scale(86.31256 25.2258)"/><path fill="#bea885" d="M119.8 58.2l.5-4.6-24.5 10.2-39.1-5.2z"/><path fill="#647d74" d="M142.9 38.5l-10.4-.7 2.9-15.2-9.6-5.2z"/><ellipse cx="135" fill="#fff" rx="87" ry="18"/><path fill="#546a83" d="M62.1 122.9l4.4-15.2-18.1-12.2 17.5-.2z"/><circle r="1" fill="#3918ff" transform="rotate(176.7 114 83.5) scale(5.88809 7.50398)"/><circle r="1" fill="#f2ffff" transform="rotate(82.5 49.1 104.4) scale(41.12738 4.89541)"/><path fill="#616c88" d="M178.7 12.4l6.2 65.3 1.6-31.8-11.7-6z"/><path fill="#4d958c" d="M104 20h79v3h-79z"/><path fill="#45388f" d="M72.5 124.6L50.7 81.8l.8-.4 21.8 42.8z"/><path fill="#fff" d="M190 0h50v55h-50z"/><path fill="#433e53" d="M166.6 139.1l-15 .8-.2-3 15-.8z"/><path fill="#f9fff9" d="M109.4 112.1l11.8-37.7L86.3 86l24-41z"/><path fill="#1c1639" d="M152 157h4v15h-4z"/><ellipse cx="218" cy="127" fill="#807d7e" rx="1" ry="51"/><circle r="1" fill="#51a59a" transform="matrix(-21.1496 -34.7471 .8542 -.51993 135.5 89.1)"/><path fill="#484547" d="M51 120h30v2H51z"/><path fill="#676778" d="M106 105h51v2h-51z"/><path fill="#fff" d="M-16 202l115-20-57-32z"/><ellipse cx="127" cy="204" fill="#fff" rx="255" ry="7"/><path fill="#34f622" d="M91 27h24v2H91z"/><path fill="#fff" d="M241 16h15v189h-15z"/><path fill="#fffbfa" d="M122.8 124.4L120.9 85l19.2 12.4-9.4 19.2z"/><path fill="#fff" d="M99.3 158.5l2.3-19.9-18.4 1.7 4.4 14.2z"/><path fill="#4a475c" d="M134 129h12v5h-12z"/><path fill="#5f529a" d="M76.1 148.1l.7-.7 47 50.5-.6.7z"/><path fill="#fff" d="M141 172h14v7h-14z"/><ellipse cx="131" cy="95" fill="#7b7f88" rx="49" ry="1"/><path fill="#6c80bf" d="M114 116l3.9 13.8-15.1-18.1 24 34.9z"/><path fill="#fff" d="M92 18L58 51l31 7z"/><path fill="#6784a3" d="M155 33h24v3h-24z"/><path fill="#f8000f" d="M227 55h11v6h-11z"/><path fill="#65ff35" d="M227 97h11v21h-11z"/><path fill="#7b788f" d="M129.8 159.6l16.3 44.2L140 165l21.3-4.4z"/><path fill="#fa5409" d="M52 19h35v1H52z"/><path fill="#fff" d="M113 28h12v28h-12z"/><ellipse cx="123" cy="140" fill="#5d5563" rx="8" ry="2"/><path fill="#fdfff6" d="M238 52h2v150h-2z"/><path fill="#f8f5fd" d="M126.2 146.4l16.5-20-15.1 30.1 25.1-3z"/></g></g></svg>