<svg xmlns="http://www.w3.org/2000/svg" viewBox="0 0 540 720"><defs/><filter id="a"><feGaussianBlur stdDeviation="12"/></filter><rect width="100%" height="100%" fill="#544633"/><g filter="url(#a)"><g fill-opacity=".5" transform="translate(1.4 1.4) scale(2.8125)"><circle r="1" fill="#fff" transform="rotate(-152 35 12.5) scale(85.45101 118.93377)"/><circle r="1" fill="#fff" transform="rotate(137.1 23.5 33.3) scale(130.47112 66.60202)"/><path fill="#fff" d="M0 0h123v125H0z"/><ellipse cx="167" cy="166" rx="63" ry="33"/><circle r="1" fill="#dfffff" transform="rotate(-5.2 1363.2 -1811.1) scale(24.27531 9.12453)"/><path fill="#1c361e" d="M41.6 271L-16 225.7l67.8-108 33.5 11.9z"/><circle r="1" fill="#feffff" transform="matrix(53.87 20.87273 -4.43013 11.43362 189 7.8)"/><path fill="#fff" d="M139-16L-16 22l127 110z"/><ellipse cx="163" cy="86" fill="#98c7e2" rx="7" ry="39"/><path fill="#273f46" d="M126 91l81-20-54-68z"/><path fill="#d3faff" d="M149.7 207l51.7-13.7-23.3 16.6-17.7-1.5z"/><circle r="1" fill="#6bafdf" transform="rotate(37.8 -208.7 101) scale(30.65128 8.48288)"/><circle r="1" fill="#000600" transform="matrix(15.30772 19.87749 -45.93607 35.37553 172 165.3)"/><circle r="1" fill="#c7e9ff" transform="rotate(-44.1 180.9 -75.3) scale(20.87688 28.38568)"/><ellipse cy="61" fill="#fcffff" rx="109" ry="73"/><path fill="#d2ffff" d="M149 111h35v13h-35z"/><ellipse cx="83" cy="146" fill="#5d4330" rx="48" ry="22"/><circle r="1" fill="#223313" transform="matrix(49.74563 21.61721 -9.49876 21.8586 104.2 203.4)"/><path fill="#40342a" d="M125 65h25v76h-25z"/><circle r="1" fill="#001614" transform="matrix(-18.4147 16.31142 -12.958 -14.62888 4.5 173.4)"/><path fill="#4a7834" d="M145 271L16 225l178-6z"/><path fill="#8e7255" d="M67.5 173.8l-9.3-28.5 34.3-11.1 9.3 28.5z"/><path fill="#feffff" d="M-16 42.9l223-46L188.6 25 181-16z"/><path fill="#0e120d" d="M52 126l-17 23 37 39z"/><path fill="#96d3fe" d="M-16 153l80-54-26 40z"/><path fill="#8f9ca7" d="M155.8 55.9l17.5-17.6 8.5 16.9 25.2 6.6z"/><path fill="#fff" d="M-16 117L1-16l158 43z"/><path fill="#add0e5" d="M147.9 107l14.9-23.1 41.6 11.2-34.9-4.8z"/><path fill="#242f26" d="M149.1 78.2l-10.5-43.8-11.3 12.2 41.9-18.3z"/><path fill="#baebff" d="M148.8 118.7l34.4-11.3-1.9 8.7-36.2 17.3z"/><circle r="1" fill="#173a13" transform="matrix(-9.91343 -1.71308 9.63299 -55.74532 180.4 255)"/><path fill="#fbffff" d="M135.1 68.2l-18.6-3.9 4.4-20.5 18.6 3.9z"/><ellipse cx="126" cy="88" fill="#76676a" rx="5" ry="29"/><path fill="#abc9eb" d="M109 62h15v68h-15z"/><path fill="#82a4bc" d="M141 5h17v27h-17z"/><path fill="#698ba0" d="M31.6 141.8l25.2 62.7-31.6-50.2-15.9-8.8z"/><circle r="1" fill="#1d3414" transform="matrix(17.23877 -16.79932 52.03539 53.39656 26.4 255)"/><path fill="#1a353d" d="M156.7 26.8l43.5 29.3 6.8-10.6-35.7-42z"/><path fill="#212015" d="M140 64l23-7-15 64z"/><circle cx="164" cy="71" r="5" fill="#d9e6f2"/><path fill="#122623" d="M170.9 112.6l5.8-41.3-17.2-11.5 47.5-.9z"/><circle r="1" fill="#1d1a0e" transform="matrix(-3.42775 8.44154 -22.07951 -8.96556 127.3 140.3)"/><circle r="1" fill="#bbd9ed" transform="matrix(-10.15126 38.87602 -8.09772 -2.11447 47.2 101.2)"/><path fill="#edfdff" d="M153.3-14.7l-53.2 122 19.5 22.6-73-12.6z"/><path fill="#728e53" d="M51 218h30v16H51z"/><path fill="#234245" d="M162 93h30v13h-30z"/><path fill="#0d2720" d="M167 122l18 3-43 29z"/><path fill="#59819b" d="M184 121l8-36 15 42z"/><path fill="#a7ac7b" d="M166 238v-13l-13 3z"/><circle r="1" fill="#412f1a" transform="rotate(124.9 9.9 120) scale(36.44056 15.51882)"/><path fill="#d4ebf5" d="M168.9 209.2l-1.8-3.6 18-8.8 1.8 3.6z"/><path fill="#364c27" d="M45 207l137 1-52 37z"/><path fill="#e3f7ff" d="M171.3 85.1L158.7 102l-4-3 12.6-17z"/><path fill="#fff" d="M131 65l-13-25 25 9z"/><path fill="#becddd" d="M161.5 51.6l31-2.2v1l-31 2.2z"/><path fill="#73a2c5" d="M38 156L1.2 141.7-4.6 158l36.7-19.7z"/><path fill="#49534b" d="M156.9 49.3l-23.1-11.2 15.5 27.6L125.4 78z"/><path fill="#796254" d="M125 112l1-50 18 57z"/><circle cx="146" cy="35" r="4" fill="#fff"/><path fill="#1f2821" d="M171 54l-12-17 8-30z"/><path fill="#9c7261" d="M78.7 128.8l-29.9-2.6.5-5 29.9 2.6z"/><circle r="1" fill="#e8ffff" transform="matrix(-8.49938 -11.88968 30.33921 -21.6881 9.7 120)"/><path fill="#fff" d="M165.3 52.2l-1.8 1-2.8-5.4 1.8-1z"/><path fill="#efffff" d="M193.8-1.2l-8.6 22.8 19.9-7.9-25.5-1.3z"/><path fill="#74868f" d="M15 165h23v4H15z"/><path fill="#272112" d="M108 172.3l4.2 11.2-68.1 26.2-4.3-11.2z"/><path fill="#364545" d="M207 69.4l-1.7 53.2-53.8-36 37.7 13.8z"/><path fill="#445e39" d="M58 190.1l-14.5-9.2-35.4 6.5-24.1 28.5z"/><path fill="#352c1d" d="M157.6 86.7l-26.8 101.8-26.4-62.3 27.9 5.5z"/><path fill="#030a03" d="M140 144h33v57h-33z"/><path fill="#96a6b7" d="M170 64l-14 6 20 1z"/><path fill="#131609" d="M157 81l43-26 5 17z"/><path fill="#3c5656" d="M157 138l11-6-23-10z"/><path fill="#bdcfd7" d="M163.4 90.7l15.2-3.7-2 5.3L157 77.2z"/><path fill="#f7ffff" d="M189.2 113.8l1-.2 2.6 8.6-1 .2z"/><circle r="1" fill="#fff" transform="matrix(46.27794 -1.82134 .14797 3.7598 155.9 0)"/><path fill="#0c110c" d="M14.5 158.1l4.8 30.6L-.5 192l-4.8-30.6z"/><path fill="#282a23" d="M55.1 194.9l-.3-72.9-16.9 16.8-3.7 6.7z"/><path fill="#94a59e" d="M148 203h24v6h-24z"/><path fill="#957679" d="M53 104h2v20h-2z"/><path fill="#788c95" d="M155.9 35.1L131 45.6l40.9-40.7-47.2 40.3z"/><path fill="#bacede" d="M175 41l4 14-11-14z"/><path fill="#6c5841" d="M69 128h38v47H69z"/><path d="M186 201h6v17h-6z"/><path fill="#1a3025" d="M187 115l-16 29 25-6z"/><path fill="#252e23" d="M202.3-16L185.5 99.4l-16.2-50.1 35.8 34.3z"/><path fill="#68787d" d="M199.5 39.5l-20.2-11.7-55-14.9 21.4 2.7z"/><ellipse cx="179" cy="35" fill="#19211c" rx="3" ry="21"/><path fill="#33413e" d="M158.6 110.8L137 92.6l37 17.2 3.2-23.3z"/><path fill="#fff" d="M-16 2.6L105-16l36.8 5.5-18.6 73.3z"/><path fill="#bae6ff" d="M163.5 125.5l-6.4 2.7-6.6-15.7 6.4-2.7z"/><path fill="#15415e" d="M185 7l-3 1-1-5z"/><path fill="#9da6ac" d="M161 50l-11.7 3-.2-1 11.6-3z"/><path fill="#473e30" d="M130 85l20 41-12-67z"/><path fill="#cbf3ff" d="M177.7 105.6l7.5 5.8 2.9 1.8-29.5 11z"/><path fill="#ada180" d="M48 218h7v5h-7z"/><path fill="#daeef7" d="M157.7-9.8l-38.1 33.7 12-24.1L147.7 20z"/><path fill="#2c3733" d="M160 10h10v35h-10z"/><path fill="#caf6ff" d="M187.7 109.5l-6.1 8.3-.9 8-15.9-9.4z"/><path fill="#b1c2d1" d="M155.4 26.7l-14.8-5.5.5 8.8 19.8-16.6z"/></g></g></svg>