<svg xmlns="http://www.w3.org/2000/svg" viewBox="0 0 600 900"><defs/><filter id="prefix__a"><feGaussianBlur stdDeviation="12"/></filter><rect width="100%" height="100%" fill="#493b2d"/><g filter="url(#prefix__a)"><g transform="translate(1.8 1.8) scale(3.51563)"><path fill="#a6e3ff" fill-opacity=".5" d="M48.4-22.1L193-1.8l-15.4 110L33 87.7z"/><circle r="1" fill="#fff" fill-opacity=".5" transform="matrix(-71.53555 14.54788 -2.07126 -10.18492 89.6 180)"/><circle r="1" fill="#caac8d" fill-opacity=".5" transform="rotate(72.9 -101 210.6) scale(34.13999 137.73419)"/><circle r="1" fill="#a3caff" fill-opacity=".5" transform="matrix(-58.44717 18.18864 -7.82588 -25.1476 147.4 27.5)"/><path fill="#6fabfd" fill-opacity=".5" d="M153-16L72 27 4 2z"/><path fill="#131600" fill-opacity=".5" d="M43.7 15.1l21.2 29.2-14.6 10.6-21.2-29.2z"/><ellipse cx="149" cy="200" fill="#baa488" fill-opacity=".5" rx="25" ry="15"/><circle r="1" fill="#526673" fill-opacity=".5" transform="matrix(83.29936 -16.7961 5.68509 28.19488 129.5 88.6)"/><circle r="1" fill="#ebefe4" fill-opacity=".5" transform="matrix(-2.71242 -8.8452 45.34048 -13.90388 84.7 182.8)"/><circle r="1" fill="#6b6e61" fill-opacity=".5" transform="matrix(81.97456 -12.5739 2.89062 18.84516 38.6 163.6)"/><path fill-opacity=".5" d="M103 240.1l-24.5 5.2L73 220l24.4-5.2z"/><path fill="#25261d" fill-opacity=".5" d="M13 108h25v136H13z"/><path fill="#aeaebb" fill-opacity=".5" d="M13 82l25-32 70 30z"/><path fill="#bfa68d" fill-opacity=".5" d="M0 246h116v10H0z"/><circle r="1" fill="#fffdef" fill-opacity=".5" transform="matrix(23.58994 -2.184 .16298 1.76043 54.5 104.8)"/><path fill="#dfd6ca" fill-opacity=".5" d="M128.4 103.2l24.6-4.1-38.7.3-110.4 7.1z"/><path fill="#ebf0e4" fill-opacity=".5" d="M126.1 155.2l32.2 13.8-46.3 14.9 23.9-27z"/><path fill="#a2aeb1" fill-opacity=".5" d="M11 149l-9 41-18-56z"/><path fill="#200a01" fill-opacity=".5" d="M118 5.7l2 3.5-56 31-2-3.4z"/><path fill="#573636" fill-opacity=".5" d="M104 7h3v80h-3z"/><ellipse cx="55" cy="147" fill="#e7e4df" fill-opacity=".5" rx="11" ry="4"/><circle cx="26" cy="31" r="25" fill="#36463b" fill-opacity=".5"/><path fill="#001300" fill-opacity=".5" d="M19 69.4l-18-.9 2-40 18 1z"/><path fill="#f3e4df" fill-opacity=".5" d="M105.6 51.6l-1.2 14-14-1.2 1.2-14z"/><ellipse cx="160" cy="100" fill="#1f0000" fill-opacity=".5" rx="2" ry="27"/><path fill="#243d27" fill-opacity=".5" d="M182 116l-101-6 104 75z"/><path fill="#180000" fill-opacity=".5" d="M27.2 76.7l53.2-20.4.4 1-53.2 20.4z"/><path fill="#070a08" fill-opacity=".5" d="M37 244.2l6-52.1 3.1 10.2L26.4 183z"/><path fill="#473c27" fill-opacity=".5" d="M49 180l43-30 32 12z"/><circle r="1" fill="#817d5d" fill-opacity=".5" transform="matrix(6.68674 6.12727 -29.23731 31.90693 150.3 187.4)"/><path fill="#ac9981" fill-opacity=".5" d="M10 231.3l11.7 22L4 262.7l-11.7-22z"/><ellipse cx="136" cy="50" fill="#d0d5e0" fill-opacity=".5" rx="49" ry="5"/><path fill="#91aedb" fill-opacity=".5" d="M94.9 48.4l-41.6 13 12-19-15.5-27.6z"/><path fill="#1e1c13" fill-opacity=".5" d="M105.7 194.5l36.7-19.3-54.3 16.7-13.9 68.7z"/><circle r="1" fill="#6ea0df" fill-opacity=".5" transform="rotate(158.5 77.6 18) scale(53.11505 18.49072)"/><path fill="#d7d1bf" fill-opacity=".5" d="M48 159h6v42h-6z"/><ellipse cx="158" cy="36" fill="#5b2d28" fill-opacity=".5" rx="2" ry="21"/><ellipse cx="19" fill="#75b1f0" fill-opacity=".5" rx="7" ry="13"/><path fill="#e5e3f2" fill-opacity=".5" d="M79 125l-7-3 4-10z"/><path fill="#929191" fill-opacity=".5" d="M39.1 32.2l-2 33.8-29.8 6.2 15.6 15.7z"/><path fill="#a7a698" fill-opacity=".5" d="M96.1 141.2l17.5-4.1 2.3 9.7-17.5 4.1z"/><path fill="#cbced7" fill-opacity=".5" d="M51 87L31 75l53-16z"/><path fill="#361c00" fill-opacity=".5" d="M156.8 53.2l.2 1-91.8 24.6-.2-1z"/><path fill="#475334" fill-opacity=".5" d="M66.9 96.4l8.7-3.7L-16 72.8v49.4z"/><path fill="#60605b" fill-opacity=".5" d="M4 173h23v32H4z"/><path fill="#542f27" fill-opacity=".5" d="M131 27h2v30h-2z"/><path fill="#78905c" fill-opacity=".5" d="M122 153h29v8h-29z"/><path fill="#272e11" fill-opacity=".5" d="M49 130l34-24-68 4z"/><path fill="#584538" fill-opacity=".5" d="M109.9 203.7l-17.2 16.5 25 3.3-6.3-73.5z"/><path fill="#e3d0c1" fill-opacity=".5" d="M60.2 149v-1l35.6-5v1z"/><circle r="1" fill="#aa8b6f" fill-opacity=".5" transform="matrix(-73.65774 24.33066 -3.60718 -10.92023 122.3 244.3)"/><path fill="#e0d6c5" fill-opacity=".5" d="M42 196l-13-13 12-1z"/><path fill="#a49fa1" fill-opacity=".5" d="M2 104h28v4H2z"/><path fill="#aea28c" fill-opacity=".5" d="M85 209l-12-2-18 13z"/><path fill="#001b0e" fill-opacity=".5" d="M4-6l20 35-37-23z"/><ellipse cx="169" cy="109" fill="#4c6977" fill-opacity=".5" rx="28" ry="10"/><circle r="1" fill="#597ca2" fill-opacity=".5" transform="matrix(43.4564 -7.52217 1.97353 11.40129 109.6 81)"/><circle r="1" fill="#312811" fill-opacity=".5" transform="matrix(.51206 .93919 -54.71773 29.83307 61.7 39)"/><circle r="1" fill="#7c4c3e" fill-opacity=".5" transform="matrix(-11.56014 -166.72242 1.47523 -.10229 33 53.7)"/><path fill="#272e2b" fill-opacity=".5" d="M6 215l15 37 95-71z"/><path fill="#e1e3d9" fill-opacity=".5" d="M44 183l63-15-52 32z"/><path fill="#5f6263" fill-opacity=".5" d="M-16 35.9L31.4 2l9.2 40.5-19.1-24.8z"/><ellipse cx="133" cy="97" fill="#443021" fill-opacity=".5" rx="2" ry="38"/><path fill="#ffc899" fill-opacity=".5" d="M73 166l8 5 4-5z"/><path fill="#cdd0d7" fill-opacity=".5" d="M177.9 31.1l-55 19.8-14.4 10.5L185 49.9z"/><path fill="none" stroke="#d4d5d2" stroke-opacity=".5" stroke-width=".5" d="M-15.2 106.8l173.7-7"/><path fill="#4a1108" fill-opacity=".5" d="M108.9 61.3l-1 .1-4.8-38.7 1-.1z"/><path fill="#b79e7f" fill-opacity=".5" d="M86.1 212.8l-7.8 26.9-25.8 3.9L81.1 231z"/><path fill="#1f2411" fill-opacity=".5" d="M59 149h37v6H59z"/><path fill="#0b0908" fill-opacity=".5" d="M27.5 185.8l-.3-1 47.3-12.6.3 1z"/><path fill="#0a120f" fill-opacity=".5" d="M85.4 239.5l-.3 2.5-11.4 7.9-7-6.3z"/><path fill="#7ba6dc" fill-opacity=".5" d="M102.9 4l-73.3 7.1 9.8-18.4 16.4 41.4z"/><circle r="1" fill="#000e11" fill-opacity=".5" transform="matrix(-5.48236 8.17665 -10.93042 -7.32872 0 220)"/><path fill="#a19078" fill-opacity=".5" d="M70.1 217.4l-15.8.3L84 206.5v2.4z"/><path fill="#2d3821" fill-opacity=".5" d="M86 105h21v37H86z"/><path fill="#0e0500" fill-opacity=".5" d="M23 106h8v36h-8z"/><ellipse cx="159" cy="87" fill="#412523" fill-opacity=".5" rx="2" ry="49"/><path fill="#777c7c" fill-opacity=".5" d="M23 46h29v12H23z"/><ellipse cx="7" cy="73" fill="#c5bea0" fill-opacity=".5" rx="25" ry="2"/><path fill="#6e6058" fill-opacity=".5" d="M110 177l18 37 29 12z"/><path fill="#9eafb3" fill-opacity=".5" d="M3.6 164.8L-16 133l25.4 54.1-21.9.3z"/><path fill="#646847" fill-opacity=".5" d="M-16 118.2l19.5 47.1 29.7-23.8 2.3 10.9z"/><path fill="#5c4648" fill-opacity=".5" d="M94.1 53.1l-9.3.9 8.4-36.3-13 42.8z"/><path fill="#423c35" fill-opacity=".5" d="M93.8 225.8l-29 11.2 1.1-23.9 86.4-.6z"/><circle r="1" fill="#7f7360" fill-opacity=".5" transform="matrix(-12.21208 3.59783 -.61226 -2.0782 19.7 228.3)"/><path fill="#d8c1a8" fill-opacity=".5" d="M0 252h29v4H0z"/><path fill="#606650" fill-opacity=".5" d="M59.8 116.2L75.1 136l-40.9-8.1 47-2.5z"/><path fill="#16200b" fill-opacity=".5" d="M-16 83l38.8-61.6L-16 55.1 31.7.7z"/><path fill="#2e3318" fill-opacity=".5" d="M39 52l14-9L41 8z"/><path fill="#b6a99a" fill-opacity=".5" d="M97.9 161.4l-1.6 43.4-3.7-21.9.6-27.4z"/><path fill="#d4d5cd" fill-opacity=".5" d="M122 162.6l-7.7 14.8 53.3-7.9-30-8.3z"/><path fill="#4b4d2e" fill-opacity=".5" d="M185 199.6l-50.2-28.8-1.4 49.7 7-37.7z"/><path fill="#897958" fill-opacity=".5" d="M45.9 161.1l-3-19L63.5 171l-6.7 10.1z"/><circle r="1" fill="#afadb2" fill-opacity=".5" transform="matrix(30.39437 -7.97381 1.71288 6.5291 85.2 64.4)"/><path fill="#a78e78" fill-opacity=".5" d="M100 220h37v14h-37z"/><path fill="#7a3a27" fill-opacity=".5" d="M111 122.9l-7-79.7h1l7 79.6z"/><path fill="#724238" fill-opacity=".5" d="M88 100.9h-1l-5-71.8h1z"/><ellipse cx="65" cy="101" fill="#bbc1b2" fill-opacity=".5" rx="10" ry="3"/><path fill="#d0cec3" fill-opacity=".5" d="M45.7 208.5l-1.2-26.9 51.6-9.2L52 195.2z"/><path fill="#8bbaee" fill-opacity=".5" d="M73 43.7l5.8 4.4 2.8-18.9L68 37.5z"/></g></g></svg>