<svg xmlns="http://www.w3.org/2000/svg" viewBox="0 0 1400 497"><defs/><filter id="prefix__a"><feGaussianBlur stdDeviation="12"/></filter><rect width="100%" height="100%" fill="#523629"/><g filter="url(#prefix__a)"><g transform="translate(2.7 2.7) scale(5.46875)"><ellipse cx="156" cy="24" fill="#fff" fill-opacity=".5" rx="255" ry="58"/><path fill="#fff" fill-opacity=".5" d="M252.3 80.8L-2.1 63l5.8-83.8L258.1-3z"/><circle cx="183" r="85" fill="#fff" fill-opacity=".5"/><circle r="1" fill-opacity=".5" transform="matrix(-.88929 -7.0775 48.36948 -6.07764 62.4 74.6)"/><ellipse cx="19" cy="32" fill="#fff" fill-opacity=".5" rx="92" ry="38"/><path fill-opacity=".5" d="M97.3 100.5l13.5-69.7 4 .7-13.6 69.7z"/><path fill="#fff" fill-opacity=".5" d="M-40.8 59l134-28.4L98.8 57l-134 28.4z"/><circle r="1" fill="#fff" fill-opacity=".5" transform="matrix(-175.84405 -32.42757 6.46097 -35.03573 183.2 29.6)"/><path fill-opacity=".5" d="M-1.2 78.4l61.4-14.2 5 21.4L3.8 99.8z"/><ellipse cx="237" cy="89" fill-opacity=".5" rx="92" ry="8"/><circle r="1" fill="#fff" fill-opacity=".5" transform="matrix(57.13236 -41.50909 28.90588 39.78553 21.6 19.4)"/><path fill="#040c0b" fill-opacity=".5" d="M113 62l-86 9 50 34z"/><path fill="#fff" fill-opacity=".5" d="M111 54h8v30h-8z"/><ellipse cx="198" cy="49" fill="#fff" fill-opacity=".5" rx="87" ry="28"/><path fill="#5a5a4b" fill-opacity=".5" d="M171.4 84.2l-33.9-7.7-18.8-9.8 2.3 22.7z"/><path fill="#2e1c09" fill-opacity=".5" d="M116.6 30.6l-7 4.7-5.7 13.2 1.6 25.2z"/><ellipse cx="198" fill="#fff" fill-opacity=".5" rx="98" ry="75"/><path fill-opacity=".5" d="M265 75l-99 13 89 17z"/><path fill="#fff" fill-opacity=".5" d="M114.6-16L-16 75.1l88.2-9.7 30.7-1.1z"/><ellipse cx="83" cy="79" fill="#6b6b65" fill-opacity=".5" rx="19" ry="8"/><path fill-opacity=".5" d="M-9.1 76.2L14 77.4l96 12.7L3.1 101.5z"/><path fill="#7d6a57" fill-opacity=".5" d="M119 86.4l31.1.8-17.7-8.4-5.9-24.3z"/><path fill-opacity=".5" d="M74 87h182v3H74z"/><path fill="#9ba08b" fill-opacity=".5" d="M153 78h68v6h-68z"/><circle r="1" fill="#fff" fill-opacity=".5" transform="matrix(65.6499 -28.8183 14.32111 32.6244 26 34.6)"/><path fill="#fff" fill-opacity=".5" d="M181-16l-72 99 6-58z"/><path fill="#fff" fill-opacity=".5" d="M131 0h82v75h-82z"/><path fill-opacity=".5" d="M112 36l-12 34 10-8z"/><path fill-opacity=".5" d="M109.8 67.4L-16 84.7l63.2-16.6L64.7 66z"/><path fill="#44382a" fill-opacity=".5" d="M154 74h-35l8 8z"/><path fill="#848b81" fill-opacity=".5" d="M224 74h32v6h-32z"/><ellipse cx="196" cy="88" fill-opacity=".5" rx="42" ry="6"/><path fill="#fff" fill-opacity=".5" d="M0 0h104v64H0z"/><path fill="#1d140b" fill-opacity=".5" d="M87 66h22v12H87z"/><path fill="#fff" fill-opacity=".5" d="M271-6L32 0l239 80z"/><path fill="#e0ebe0" fill-opacity=".5" d="M123 85h16v2h-16z"/><path fill="#ad754f" fill-opacity=".5" d="M115.6 72.1l14.9 1.9 1.4 3.4-3.9-16.8z"/><path fill="#fff" fill-opacity=".5" d="M116.1 84.9l-6-24.3 5.8-1.5 6 24.3z"/><path fill="#a5a7a2" fill-opacity=".5" d="M87 80h7v7h-7z"/><path fill-opacity=".5" d="M0 77h54v13H0z"/><path fill="#4c4a45" fill-opacity=".5" d="M65 74h43v9H65z"/><path fill-opacity=".5" d="M220 80h36v10h-36z"/><circle cx="122" cy="69" r="5" fill="#b97c51" fill-opacity=".5"/><path fill="#d8d6c4" fill-opacity=".5" d="M163 83l16-4-33-2z"/><path fill="#50524d" fill-opacity=".5" d="M156.3 81l-1 7-35.6-5 1-7z"/><path fill-opacity=".5" d="M98 105l11-21 38 5z"/><path fill="#fff" fill-opacity=".5" d="M0 0h32v72H0zm112 40h68v22h-68z"/><path fill="#fff" fill-opacity=".5" d="M131 0h88v75h-88z"/><path fill="#9f9d8b" fill-opacity=".5" d="M183 79h30v4h-30z"/><path fill="#3a1e05" fill-opacity=".5" d="M112 31l-1 14-2-9z"/><path fill="#f5a96f" fill-opacity=".5" d="M107 44l4-12-5 5z"/><circle r="1" fill="#f1f7ed" fill-opacity=".5" transform="matrix(1.42133 6.76688 -5.1391 1.07943 114 78)"/><path fill-opacity=".5" d="M44 105l-60-22 73-17z"/><path fill="#fff" fill-opacity=".5" d="M73 37h2v31h-2z"/><circle r="1" fill="#999a8b" fill-opacity=".5" transform="matrix(.26491 -1.30439 20.06197 4.0744 246 76.3)"/><path fill-opacity=".5" d="M168 84h88v5h-88z"/><path fill="#383a3a" fill-opacity=".5" d="M55 72h5v16h-5z"/><path fill="#2e180d" fill-opacity=".5" d="M130.6 71l-6.3 12.5-1-.5 6.4-12.5z"/><path fill="#fff" fill-opacity=".5" d="M-10.8 80.1l109-29.6L148.1-16-16-11.1z"/><path fill="#fff" fill-opacity=".5" d="M39.8 64l23.3 3.3L113.9-16l-13 78.2z"/><path fill="#6b6d66" fill-opacity=".5" d="M123 83h86v1h-86z"/><path fill="#030401" fill-opacity=".5" d="M87 65h22v6H87z"/><path fill="#4b3e34" fill-opacity=".5" d="M66 69l16 11 25-11z"/><path fill="#fff" fill-opacity=".5" d="M266.8 82.7l-21-12.7-42.7 8.4 48-94.4zM75.7 31.1L93.4 38l-11 29-17.9-7z"/><circle cx="92" cy="83" r="2" fill="#e7e9e5" fill-opacity=".5"/><path fill="#fff" fill-opacity=".5" d="M128.5 83l1.6 1.2-.6.8-1.6-1.2zM116 18l26 38-32 11z"/><circle r="1" fill="#0d100f" fill-opacity=".5" transform="matrix(6.0204 -24.88537 .97196 .23514 107.7 54.9)"/><circle cx="109" cy="82" r="3" fill="#9aa495" fill-opacity=".5"/><path fill="#fff" fill-opacity=".5" d="M256-16l-37 95-79-8z"/><path fill-opacity=".5" d="M0 88h169v2H0z"/><path fill="#aaaa98" fill-opacity=".5" d="M233.9 80.9l-96.2-2.5 10.2-3.5 37.5 2.2z"/><path fill="none" stroke="#e4e5e0" stroke-opacity=".5" stroke-width=".5" d="M111.1 63.4q12.3 17.3 10.6 24.2"/><ellipse cx="89" cy="89" fill="#211f1b" fill-opacity=".5" rx="2" ry="10"/><circle r="1" fill="#575852" fill-opacity=".5" transform="matrix(-.56429 2.9878 -13.40569 -2.53186 148.8 83.2)"/><circle cx="98" cy="81" r="6" fill="#525148" fill-opacity=".5"/><ellipse cx="107" cy="71" fill-opacity=".5" rx="1" ry="9"/><path fill="#291d15" fill-opacity=".5" d="M122 78h2v8h-2z"/><path fill="#9a9f9e" fill-opacity=".5" d="M80 83h2v5h-2z"/><path fill="#5b5448" fill-opacity=".5" d="M154 74.9v1L136 77v-1z"/><path fill="none" stroke="#fbfbfb" stroke-opacity=".5" stroke-width=".5" d="M256.2 1.6Q167 25 107 55.3"/><path fill="#fff" fill-opacity=".5" d="M110 66h8v10h-8z"/><ellipse cx="109" cy="53" fill="#0d0903" fill-opacity=".5" rx="1" ry="14"/><path fill="#c89369" fill-opacity=".5" d="M104.2 53.7l2.4-14.2 2.9-4.6.7 5.2z"/><path fill="#fff" fill-opacity=".5" d="M109.1-15.7L-16 70.5 90.6 64l14.1-10.9z"/><ellipse cx="241" cy="86" fill-opacity=".5" rx="27" ry="7"/><path fill="#000202" fill-opacity=".5" d="M83.6 105l-2.1-24.2-.4 8.4-84.3-12.5z"/><path fill="#b6b7b0" fill-opacity=".5" d="M195 78h61v1h-61z"/><path fill="#cbc9ba" fill-opacity=".5" d="M163.5 85.8l-20.7-18.3 12 10.3 18.5-2.1z"/><path fill="#181713" fill-opacity=".5" d="M71 65h-7l-3 22z"/><circle r="1" fill="#fff" fill-opacity=".5" transform="matrix(44.42634 -9.60531 13.04209 60.32203 248.2 14.5)"/><path fill="#010202" fill-opacity=".5" d="M52.4 66.9L40.2 70-16 82.6l72.4 22.1z"/><path fill="none" stroke="#81877d" stroke-opacity=".5" stroke-width=".5" d="M107.6 83.1q12.1 1.7 48.2 3.9"/><path fill="#725744" fill-opacity=".5" d="M127 63h3v12h-3z"/><path fill="#7c7b6f" fill-opacity=".5" d="M271 79.9L234.8 72l27.1 12.2-9.3 5.8z"/><path fill="#fff" fill-opacity=".5" d="M126.6 4.7L109 74.2l6.9-6.2 57.3-34.7z"/><circle r="1" fill="#fdfefd" fill-opacity=".5" transform="matrix(-5.19135 -9.93013 20.60736 -10.77327 40.8 56.9)"/><ellipse cx="124" cy="74" fill="#bf8159" fill-opacity=".5" rx="2" ry="6"/></g></g></svg>