<svg xmlns="http://www.w3.org/2000/svg" viewBox="0 0 1400 700"><defs/><filter id="a"><feGaussianBlur stdDeviation="12"/></filter><rect width="100%" height="100%" fill="#504434"/><g filter="url(#a)"><g fill-opacity=".5" transform="translate(2.7 2.7) scale(5.46875)"><circle r="1" fill="#f0edf3" transform="matrix(-6.69485 -47.96999 88.09531 -12.29487 57.2 70.3)"/><circle r="1" fill="#676466" transform="matrix(35.38203 5.87421 -12.71483 76.58499 127.1 76)"/><circle r="1" fill="#e1dad4" transform="rotate(92.5 -27.1 58.7) scale(19.39188 61.02394)"/><path fill="#fff" d="M10.2 35.2l42.6-11.6 70.8-.5 19.8 6.3z"/><path fill="#1c1312" d="M59 45h135v10H59z"/><circle r="1" fill="#fff" transform="matrix(-29.68983 -2.3129 .22954 -2.94647 235 29.6)"/><circle r="1" fill="#070910" transform="matrix(55.60022 -7.4173 2.1835 16.3675 231 7.6)"/><path fill="#fff" d="M104 43h82v2h-82z"/><circle r="1" fill="#b4b5b1" transform="rotate(88.5 19.2 117.4) scale(6.5407 30.73377)"/><ellipse cx="29" fill="#05060d" rx="33" ry="24"/><ellipse cx="218" cy="80" fill="#565d63" rx="43" ry="38"/><path fill="#e4dbd3" d="M79.4 69.9l-.7-13 54-2.8.6 13z"/><path fill="#171f23" d="M252.7 125.4l-120.9-24.3-39.6 29.1 178.2-1.4z"/><path fill="#fff" d="M31 24h104v6H31z"/><ellipse cx="171" cy="80" fill="#000003" rx="6" ry="30"/><path fill="#261e21" d="M132 42l93-5-84-23z"/><path fill="#2f3028" d="M93 63h7v56h-7z"/><ellipse cx="6" cy="117" fill="#787477" rx="96" ry="6"/><circle r="1" fill="#817c82" transform="matrix(3.71651 -8.9262 35.38952 14.73478 255 46.8)"/><circle r="1" fill="#655c58" transform="matrix(15.56075 -13.59782 7.56279 8.65452 68.2 49.4)"/><path fill="#b9b7b2" d="M102 91h17v21h-17z"/><path fill="#faf4ed" d="M202 27h42v4h-42z"/><ellipse cx="72" cy="20" fill="#443734" rx="41" ry="4"/><ellipse cx="157" cy="57" fill="#1a1514" rx="24" ry="4"/><path fill="#d0c2b5" d="M29.8 24.5L6.9 46.7l37.8-.1 8.9-12.8z"/><path fill="#717072" d="M-16 44.1l51.3-12L-16 5.2l1.6-1z"/><path fill="#fffdf3" d="M83 43h34v3H83z"/><path fill="#2d2523" d="M117 33h96v9h-96z"/><path fill="#767a7a" d="M178 60h13v50h-13z"/><path fill="#7c7f7e" d="M151 83h15v27h-15z"/><path fill="#d3cbc9" d="M85.3 93.6l5.3-25.4-17.8-2.5-31.9 36z"/><circle r="1" fill="#4b4b48" transform="matrix(-1.25482 -10.71948 59.28267 -6.93964 79.2 122.5)"/><path fill="#a39b97" d="M63.3 111.8l-69.1 16.5 1.9-27.2 34.6-2.4z"/><path fill="#1a1b19" d="M198.4 25.1l-26.2 37.1 31.9-13.4 5.3-12.3z"/><path fill="#74706b" d="M146.7 90.3L122.4 81l9-23.3 24.2 9.3z"/><path fill="#84756b" d="M66 31h55v11H66z"/><path fill="#62524a" d="M85 0h76v23H85z"/><path fill="#faeee6" d="M136 28.9l-14 .2v-6l14-.2z"/><circle r="1" fill="#3b3334" transform="matrix(-14.93535 -18.72868 22.88085 -18.24653 181.6 8.3)"/><path fill="#efe4e0" d="M145 42h35v2h-35z"/><path fill="#867e7b" d="M242 24l-18 11 47-1z"/><path fill="#fbeee4" d="M91 30l25-7 17 7z"/><ellipse cx="63" cy="10" fill="#403636" rx="27" ry="13"/><path fill="#272721" d="M120 104h32v17h-32z"/><path fill="#dbd4cd" d="M-.4 93.3l-.2-16 31-.6.2 16z"/><circle r="1" fill="#908884" transform="rotate(23.2 -120.8 165.7) scale(14.19656 15.9722)"/><ellipse cx="151" cy="50" fill="#38302c" rx="34" ry="6"/><path fill="#535856" d="M237.1 85.9l30.5 5.9-6.7 34.3-30.5-5.9z"/><path fill="#fff" d="M221.5 27v1l-21 1v-1z"/><path fill="#42362d" d="M201 30h27v1h-27z"/><circle r="1" fill="#171611" transform="matrix(11.7018 9.85383 -16.50705 19.60275 240.5 4.1)"/><path fill="#fff" d="M93.5 57.8l16.8-2.6.2 1-16.8 2.6z"/><path fill="#4f4e48" d="M88 88l12-15v51z"/><path fill="#4d4643" d="M80.6 57l-16-1 .8-15 16 1z"/><path fill="#d5c7bd" d="M26 24l-2 14 28 4z"/><ellipse cx="223" cy="58" fill="#4b4642" rx="23" ry="21"/><path fill="#50443e" d="M135 0h31v43h-31z"/><path fill="#fffbf2" d="M40 25h55v6H40z"/><path fill="#605e5a" d="M100.4 116.9l-5.4-14-32 19.4 21.1 6.8z"/><ellipse cx="110" cy="56" fill="#fff" rx="23" ry="1"/><path fill="#5f5d5b" d="M166.4 102.4l-.2-37.4-3.1-5.4-25.4.1z"/><path fill="#a39a96" d="M91 63h45v8H91z"/><path fill="#a19c97" d="M100.4 112.8l.5-29.5L126.3 95 115 107.8z"/><path fill="#afa7a1" d="M-15.5 63.7l10.2 9 79.1 5.5-1.7-11.8z"/><path fill="#050d11" d="M167 62h8v47h-8z"/><path fill="#1a1913" d="M-8 12.2L19.3-16l3.2 40 15.8 1.2z"/><path fill="#2b2621" d="M256.7-16L176 28l12.4 9 35.9-24.7z"/><path fill="#85837e" d="M165.7 99.8l-4.2 11.2-38.3-19.2 20.1-10.4z"/><path fill="#fefaf3" d="M201.7 30.5l-.1-1 32.7-4 .1 1z"/><path fill="#fff8ee" d="M83 56h45v2H83z"/><path fill="#b1aba7" d="M51 115l41-17-4-18z"/><path fill="#868687" d="M179 65h5v24h-5z"/><circle r="1" fill="#766f6a" transform="matrix(1.7026 4.4124 -25.04715 9.6649 6 35)"/><circle r="1" fill="#67574c" transform="rotate(-30.9 68.3 -215) scale(28.58772 13.20849)"/><path fill="#d5d0cc" d="M88 57L75 75l12 4z"/><circle r="1" fill="#635b5a" transform="matrix(2.76651 -5.54876 24.3377 12.13433 240 49.1)"/><path fill="#eedbd1" d="M94 43h58v2H94z"/><path fill="#716c67" d="M153 59.6l-4.7 14.2 5.2 17.7-44.1-8.6z"/><path fill="#807876" d="M55.2 41.1l22.2 15.5-8.6 12.3-22.2-15.5z"/><circle r="1" fill="#282827" transform="matrix(33.04122 7.26458 -2.42766 11.04163 212.4 126.8)"/><path fill="#151516" d="M121.6 109.8l-.2-7 17-.6.2 7z"/><path fill="#9e9b97" d="M108 111l19.3-13.4 29.8-5.6-34.2-2.9z"/><path fill="#7a6c63" d="M72 45h89v1H72z"/><ellipse cx="86" cy="40" fill="#766e6a" rx="33" ry="3"/><path fill="#3a312d" d="M176 51l-45-6 5 14z"/><path fill="#444747" d="M156 109h67v4h-67z"/><path fill="#26231f" d="M194.1 34.3l-29 33.3 54.8-32.1-18-5.8z"/><path fill="#ab9d92" d="M36 49l44-17-29-1z"/><ellipse cx="164" cy="43" fill="#fffaf2" rx="21" ry="1"/><ellipse cx="96" cy="83" fill="#3a3a33" rx="4" ry="10"/><path fill="#5c5a54" d="M186 60h7v51h-7z"/><circle cx="182" cy="42" r="1" fill="#f3f3fc"/><ellipse cx="143" cy="39" fill="#3a2f2c" rx="23" ry="3"/><ellipse cx="176" cy="95" fill="#333735" rx="2" ry="40"/><circle cx="230" cy="33" r="4" fill="#a39587"/><path fill="#837b79" d="M104 58.2l.1-1 29.9 2.6-.1 1z"/><path fill="#beb7b0" d="M101 59h7v16h-7z"/><ellipse cx="93" cy="112" fill="#6a6863" rx="20" ry="3"/><circle r="1" fill="#3e3833" transform="matrix(10.1477 2.96521 -.74038 2.53376 77.7 50.8)"/><ellipse cx="139" cy="121" fill="#3c3b35" rx="35" ry="13"/></g></g></svg>