<svg xmlns="http://www.w3.org/2000/svg" viewBox="0 0 1400 696"><defs/><filter id="a"><feGaussianBlur stdDeviation="12"/></filter><rect width="100%" height="100%" fill="#685240"/><g filter="url(#a)"><g fill-opacity=".5" transform="translate(2.7 2.7) scale(5.46875)"><circle r="1" fill="#a1c0d2" transform="matrix(6.6416 51.13743 -174.86602 22.71113 109 91.3)"/><ellipse cx="180" cy="13" fill="#000313" rx="240" ry="21"/><path fill="#f9ffff" d="M76 60h47v34H76z"/><path fill="#fff" d="M144 56h16v46h-16z"/><circle r="1" fill="#122024" transform="rotate(72.2 21.6 82.2) scale(31.83211 16.23766)"/><circle r="1" fill="#4b5559" transform="matrix(-10.15928 48.20923 -32.84796 -6.92215 213.9 81.5)"/><path fill="#171e1f" d="M75.7 99.7l32.6-5.1 4 25.7-32.6 5.1z"/><circle r="1" fill="#fff" transform="matrix(.56137 -6.29008 23.12139 2.06353 50.2 117.5)"/><path d="M151.5 50.7l-27.8 1.2 1.2 26.9 14.6-14.5zm-153 77.5l3-13.7 44 9.3-3 13.7z"/><path fill="#f8ffff" d="M110.3 45.3l86.2-9.1L124.8 53l-7.7 55.8z"/><path fill="#a8a89a" d="M76 24l1 118L31 40z"/><path fill="#acb6b9" d="M183.9 104.6L151.5 33l51.3-8.5-41.5 74.2z"/><ellipse cx="228" cy="83" fill="#c0c9cd" rx="4" ry="41"/><path fill="#f4ffff" d="M248 48h5v57h-5z"/><circle r="1" fill="#384a52" transform="rotate(-156.1 136 31.3) scale(43.79784 19.1884)"/><path fill="#f2fbff" d="M130 142l-49-25 85 10z"/><circle r="1" fill="#0a1718" transform="matrix(-8.62962 30.52401 -77.39792 -21.88162 202 0)"/><circle r="1" fill="#5e6d70" transform="matrix(-16.65354 -34.73572 11.95947 -5.7338 15.3 57)"/><path fill="#acb1b4" d="M207 63l49-25-106 14z"/><path fill="#192225" d="M134 108.2l.1-4.8 35.7 15.9-30.9-2.9z"/><ellipse cx="109" cy="78" fill="#5f6569" rx="3" ry="43"/><path fill="#090e10" d="M124 49h17v18h-17z"/><path fill="#2c3237" d="M243.4 44.9l-11.9 4.4 12.3 56.6 4.1-54.1z"/><path fill="#c5c8c3" d="M11 97l15 7-3 24z"/><path fill="#20292a" d="M188 18L64 4l18 51z"/><ellipse cx="28" cy="83" fill="#293234" rx="2" ry="125"/><path fill="#000106" d="M206 122h50v5h-50z"/><path fill="#d0d8dd" d="M177 57.5l-8.2 49.1-1.7-62.3-26.9 22.5z"/><path fill="#363d43" d="M174 64h24v18h-24z"/><path fill="#1c201e" d="M100.2 114l-20.9-6.9 19 34.9-33.9-14.7z"/><path fill="#b6c0c7" d="M166.8 117.7l39.3 10.3-43.7-3.5-44.6-9.9z"/><path fill="#62615a" d="M198 23h10v44h-10z"/><path fill="#fff" d="M32.3 117.2l20.7 7.4L68.5 142l2.6-25.9z"/><path fill="#141b1c" d="M239.1 132.3l-37-1.5-45.9-4.2-57.2-8.7z"/><ellipse cx="118" cy="70" fill="#fbffff" rx="6" ry="27"/><path fill="#949892" d="M-14.4 114.4l-6-69.7 34.8-3 6 69.6z"/><path fill="#fff" d="M145 61h15v17h-15z"/><path fill="#14110c" d="M218 90h6v37h-6z"/><path fill="#09181b" d="M69.8 10.4l4 13.4-51.6 15.8-4-13.4z"/><path fill="#b1b8bb" d="M230.4 135.1l-10.3-92.3 50.9-2-40.7 6.7z"/><path fill="#697477" d="M153 94.4l13.2 19.9 1.4-64.5-12.4 35.4z"/><path fill="#4c5255" d="M37 44L17 22l1 79z"/><path fill="#44504b" d="M19 23L91 1 34-16z"/><path fill="#c2cdd5" d="M141 70v35l21 9z"/><path fill="#0b0d0b" d="M229 47h19v7h-19z"/><path fill="#040400" d="M-6 121l24 20-1-25z"/><circle r="1" fill="#c6ccd1" transform="matrix(-8.73852 -11.29 12.24567 -9.47822 90.2 73)"/><ellipse cx="179" cy="118" fill="#151a1d" rx="16" ry="2"/><path fill="#a9a59a" d="M86.9 54l-21.5 60.7-34.9-1L44 78.5z"/><path fill="#999d9d" d="M94.6 106.8L69.8 87.2l1.2 13.6 32.2-19.9z"/><path fill="#66747c" d="M271 92l-56 29h48z"/><path fill="#101213" d="M271 26l-31.9-42-30.9 54.6 9.5 1z"/><circle r="1" fill="#252a2a" transform="rotate(-176 91.6 52.9) scale(20.18677 1)"/><path fill="#647179" d="M124 66h19v41h-19z"/><ellipse cx="152" cy="35" fill="#585a53" rx="21" ry="3"/><path fill="#101618" d="M96 103h11v16H96z"/><circle r="1" fill="#8a857a" transform="matrix(-10.76974 -11.87736 21.43005 -19.43158 54.1 49.8)"/><path fill="#bfc7c9" d="M232.6 48.5h-26.3l6.9-3.3 57.8-3.7z"/><path fill="#e4eaec" d="M176 61h17v3h-17z"/><path fill="#eaf2f6" d="M112 53h11v46h-11z"/><path fill="#262a2b" d="M124 51.9l21.8-4.1-5.1 14.9-.7 14z"/><circle r="1" fill="#f6f9fb" transform="matrix(8.7316 -.91773 .34965 3.32666 129.7 47)"/><path fill="#dae0e1" d="M193.4 92.1l-24.2-2.4 4.5-35.3.1 32.2z"/><path fill="#cbceca" d="M93 102l2 10 3-2z"/><path fill="#2f3233" d="M77 23h30v32H77z"/><circle r="1" fill="#c2cbd1" transform="matrix(24.71826 2.31239 -.1999 2.13673 142.9 119.3)"/><circle r="1" fill="#bac4c8" transform="matrix(23.92046 1.47929 -.06172 .9981 172.9 114.1)"/><path fill="#a9b1b6" d="M156.4 38.7l45.1-6.7-62.4 25.9L153.4 71z"/><path fill="#171a1c" d="M162 61h6v8h-6z"/><path fill="#f6feff" d="M145 62h5v46h-5z"/><path fill="#333737" d="M219.1 107.4l-.3-5-29.8 5.1-7.6-9.4z"/><circle r="1" fill="#fafafa" transform="rotate(-173.2 14.9 62.3) scale(1 24.17999)"/><path fill="#b2bbbf" d="M167.5 118.6l43.4 23.4h-52.2l45-18.1z"/><path fill="#f3f8f9" d="M107.4 93.1L87.5 82.7l5.7-16.2-9.4 2z"/><path fill="#3f4952" d="M254 34h2v64h-2z"/><path fill="#495057" d="M207 57h17v18h-17z"/><path fill="#000103" d="M162 103l7 4-3-7z"/><path fill="#202729" d="M77 97h8v21h-8z"/><path fill="#2c3233" d="M180.4 115.9l-28.2 1.6-17.9-19.3 1.7 18.5z"/><path fill="#f9fdfd" d="M31 119h58v2H31z"/><path fill="#16150c" d="M25 113v15l11 1z"/><path fill="#686962" d="M204 23.4l5.5 7.4L87.1 49.4 166.2 30z"/><circle cx="131" cy="110" r="4" fill="#cfdbe2"/><path fill="#90999d" d="M149.5 102.8l-51.5-.1 31-6.7 115.5-14.7z"/><path fill="#666a67" d="M0 109h23v9H0z"/><path fill="#444f55" d="M254.3 32.5l.9 6-49.5 7-.9-6z"/><path fill="#626a6b" d="M-9.8 21.2l29.4 6.2-5.8 27.4-29.4-6.2z"/><path d="M83 120l-9 2 1 3z"/><path fill="#010a09" d="M142 48h7v8h-7z"/><circle r="1" fill="#8f999d" transform="matrix(.79692 2.59255 -22.4662 6.9058 59.6 126)"/><path fill="#cedee7" d="M191.2 33.2l5.9-1.2 1.7 8.8-5.9 1.2z"/><path fill="#a9aeaf" d="M186 116h32v2h-32z"/><ellipse cx="251" cy="61" fill="#e4ecf1" rx="2" ry="22"/><path fill="#6b6f6f" d="M207.8 59.9l-22.7 17.3 19.3 64.8 6.6-43.1z"/><path fill="#bec6cb" d="M76.5 131l18.4 11 45.2-14.8-42.1-8z"/><path fill="#3b4142" d="M86.1 124l13-17.2-6.2-23.7 15.5 29.4z"/><path fill="#212423" d="M217 114h28v3h-28z"/><circle r="1" fill="#333a3b" transform="matrix(32.77185 3.70227 -.13504 1.19538 107.8 119.5)"/><path fill="#515a5f" d="M233 68h15v44h-15z"/></g></g></svg>