<svg xmlns="http://www.w3.org/2000/svg" viewBox="0 0 800 800"><defs/><filter id="a"><feGaussianBlur stdDeviation="12"/></filter><rect width="100%" height="100%" fill="#544c34"/><g filter="url(#a)"><g fill-opacity=".5" transform="translate(1.6 1.6) scale(3.125)"><circle cx="160" cy="155" r="234"/><circle r="1" fill="#c5c9c4" transform="matrix(24.56494 2.40861 -4.25296 43.37504 220.6 142)"/><circle cx="197" cy="246" r="69"/><circle r="1" transform="matrix(4.43476 -44.43052 105.13055 10.49342 53.8 229)"/><circle r="1" fill="#646167" transform="matrix(-42.04927 .36767 -.31869 -36.4471 127.9 65.6)"/><circle r="1" transform="rotate(87.4 62.2 71.8) scale(27.48907 233.90648)"/><path fill="#a9aaa1" d="M92.5 181.2l22.1-29.9 3.1 24.7-25.4 46.1z"/><ellipse cx="184" cy="184" rx="17" ry="222"/><ellipse cx="70" cy="127" rx="15" ry="255"/><path d="M228 101h7v91h-7z"/><path fill="#dbdbcd" d="M201 111h14v76h-14z"/><path fill="#bcc3bc" d="M235 85h9v98h-9z"/><path fill="#f0efe0" d="M115.1 157.5l-5.4-2.2L107 185l7.1-6.4z"/><path fill="#4f4e5a" d="M27 110h27v74H27z"/><path d="M206 109h4v113h-4z"/><path fill="#000004" d="M244 73h12v183h-12z"/><ellipse cx="113" cy="232" rx="255" ry="38"/><path d="M114 115h33v60h-33z"/><path fill="#fffff4" d="M221 97h6v84h-6z"/><ellipse cx="203" cy="144" fill="#fff" rx="2" ry="35"/><path fill="#010000" d="M215 101h6v78h-6z"/><ellipse cx="183" cy="138" rx="14" ry="255"/><path fill="#616463" d="M139.3 205.7l8-24.5 33-1.1-59.8-4.2z"/><path fill="#eff0e2" d="M95.1 210.6l-3-.3 2.8-30.9 3 .3z"/><ellipse cx="69" cy="123" rx="13" ry="255"/><path d="M173 184h83v36h-83z"/><circle r="1" fill="#010307" transform="matrix(60.09468 -139.28968 23.9181 10.31914 17.7 29)"/><path fill="#060708" d="M95.5 175l10.4-15.2 18 83.6 53.8-7.2z"/><ellipse cx="128" cy="39" fill="#3e3c3b" rx="43" ry="19"/><circle r="1" transform="matrix(-.38242 20.6644 -119.64698 -2.21424 156.4 0)"/><path fill="#fff" d="M210 109h5v70h-5z"/><path fill="#b8b7ab" d="M26 177h32v5H26z"/><path fill="#323236" d="M251 79l-51-53-5 90z"/><circle cx="97" cy="187" r="5" fill="#fffeea"/><path fill="#cac8b0" d="M134 187l7 2-7 14z"/><circle r="1" transform="matrix(5.06939 20.52962 -69.6442 17.19727 0 209.4)"/><path fill="#fff" d="M110 158h3v20h-3z"/><path d="M118 184h16v17h-16z"/><ellipse cx="15" cy="145" fill="#3e3c53" rx="5" ry="39"/><path fill="#292924" d="M117.8 218.7l-24.4 7.8-4.5-24.2 20.9-14.2z"/><circle r="1" fill="#07070d" transform="rotate(-65.8 158.4 -177) scale(34.75115 24.68064)"/><path fill="#504c48" d="M86 59h81v42H86z"/><ellipse cx="3" cy="189" fill="#000003" rx="8" ry="91"/><ellipse cx="130" cy="179" fill="#7e8081" rx="43" ry="2"/><path fill="#222224" d="M47 196L5 82l47-71z"/><ellipse cx="220" cy="181" fill="#909087" rx="25" ry="3"/><path fill="#333131" d="M149 88h23v90h-23z"/><ellipse cx="122" cy="93" fill="#191811" rx="47" ry="3"/><path fill="#3d3a35" d="M198 37h11v78h-11z"/><path fill="#8c9086" d="M235 91h9v89h-9z"/><ellipse cx="184" cy="109" rx="13" ry="255"/><circle cx="213" cy="241" r="20" fill="#1a1b1b"/><ellipse cx="69" cy="127" rx="13" ry="255"/><ellipse cx="120" rx="255" ry="17"/><ellipse cx="230" cy="183" fill="#171514" rx="4" ry="171"/><path fill="#131412" d="M159.7 183.2l-25.8 15-49-40.3 62.2 64.3z"/><path d="M200.2 182.8l65.9 3.5-2.3 42.9-65.9-3.5z"/><ellipse cx="90" cy="180" fill="#989b9d" rx="5" ry="3"/><path fill="#030404" d="M111 156l-4-41 41 11z"/><path fill="#d0cbb4" d="M108.1 189.5l-7.2 3.4-3-6.4 7.2-3.4z"/><path fill="#3f3c38" d="M197 111h4v67h-4z"/><ellipse cx="203" cy="155" fill="#fffffb" rx="2" ry="29"/><path fill="#1a191a" d="M244 63h12v120h-12z"/><path fill="#333030" d="M104.6 97l3.3 87.2-15.5-3.7-7.2-5.9z"/><path fill="#554e59" d="M40 122h5v53h-5z"/><path d="M133 182l-5 34-26-21z"/><path fill="#161119" d="M123 51h9v23h-9z"/><path d="M128 131l12 46h-20z"/><path fill="#5b5852" d="M134 55h34v32h-34z"/><ellipse cx="30" cy="145" fill="#4c4650" rx="4" ry="35"/><circle cx="30" cy="238" r="55"/><path fill="#939696" d="M158 179h9v4h-9z"/><path fill="#fffce4" d="M114.5 161.9l-7.9-.4 3.4-3.2-1.5 22z"/><circle cx="34" cy="180" r="3" fill="#e5e6da"/><ellipse cx="220" cy="182" fill="#bec0bb" rx="22" ry="1"/><ellipse cx="207" cy="133" fill="#3e3936" rx="3" ry="47"/><path fill="#20201b" d="M92 17h76v11H92z"/><path fill="#2a2827" d="M83 100h84v19H83z"/><ellipse cx="127" cy="39" fill="#776787" rx="4" ry="7"/><path fill="#262625" d="M225 23l19 58-34 26z"/><ellipse cx="44" cy="181" fill="#fffff3" rx="11" ry="1"/><path fill="#686966" d="M196 176l10 4-5 4z"/><path fill="#12120e" d="M133 181h26v8h-26z"/><path fill="#000001" d="M168 29h29v153h-29z"/><ellipse cx="170" cy="95" fill="#252321" rx="2" ry="78"/><path fill="#fffffd" d="M202 115h3v47h-3z"/><path fill="#c7c2ab" d="M134 189h12v2h-12z"/><path fill="#fffff7" d="M109 159h5v19h-5z"/><path fill="#3c3a41" d="M11 70h5v102h-5z"/><path fill="#2d2925" d="M37 173h12v8H37z"/><path fill="#828379" d="M93 201h4v13h-4z"/><path fill="#55514c" d="M174 89l-88-1 5-26z"/><path fill="#b6bfb9" d="M242 90h1v94h-1z"/><ellipse cx="84" cy="106" fill="#20221e" rx="3" ry="85"/><path fill="#171610" d="M3 28l20 68 30-80z"/><ellipse cx="64" cy="255" rx="9" ry="231"/><path fill="#a6a7aa" d="M123 180h5v3h-5z"/><path fill="#635c64" d="M50 133h3v46h-3z"/><ellipse cx="227" cy="136" fill="#74776d" rx="1" ry="40"/><path fill="#6e6e69" d="M92 178h59v3H92z"/></g></g></svg>