<svg xmlns="http://www.w3.org/2000/svg" viewBox="0 0 800 979"><defs/><filter id="a"><feGaussianBlur stdDeviation="12"/></filter><rect width="100%" height="100%" fill="#354959"/><g filter="url(#a)"><g fill-opacity=".5" transform="translate(2 2) scale(3.82422)"><circle r="1" fill="#ffffed" transform="matrix(-141.102 -135.6658 89.89989 -93.50222 42.3 78.3)"/><circle cx="12" cy="88" r="70" fill="#fff"/><path fill="#2c2306" d="M103 117L87 220l-103-1z"/><circle r="1" fill="#2d8ac2" transform="rotate(-61.3 96 -141.8) scale(47.36556 131.24662)"/><circle r="1" fill="#b6987f" transform="matrix(-71.14854 -7.60359 2.85569 -26.72134 181.7 238)"/><circle r="1" fill="#3a1900" transform="matrix(7.0652 .33093 -2.68032 57.22415 93.4 91.6)"/><ellipse cx="5" cy="37" fill="#d8effd" rx="34" ry="149"/><path fill="#e2ebe8" d="M84.2 149.7L81.3 38.5 67.1 149.9l6.9 16.5z"/><circle r="1" fill="#74b2d9" transform="matrix(1.37377 37.46478 -31.73113 1.16353 64 31.2)"/><path fill="#ced6da" d="M73 241L1 223l42-2z"/><ellipse cx="77" cy="187" fill="#3c3412" rx="30" ry="16"/><ellipse cx="156" cy="127" fill="#fbebcd" rx="9" ry="86"/><path fill="#3e3b3d" d="M136.6 217.5l10.9-6.3 15.6 23.9-71.2-11.9z"/><path fill="#8dcde8" d="M197 69h12v98h-12z"/><circle r="1" fill="#faffff" transform="matrix(-18.4056 16.98164 -15.01484 -16.27388 56.8 90)"/><circle r="1" fill="#6e675d" transform="matrix(-5.72477 -1.00359 4.59492 -26.21086 63.6 133.5)"/><circle r="1" fill="#1e150c" transform="matrix(-29.93925 3.28286 -2.8246 -25.76003 22.7 255)"/><path fill="#427c9d" d="M114.7 19.6l28.7-41 113.9 79.8-28.7 41z"/><path fill="#9d9991" d="M17 146h34v40H17z"/><path fill="#dcebf0" d="M103.1 25.3l-9.5 5.1 105.2 50.3-46.6-30.4z"/><ellipse cx="169" cy="239" fill="#aba59c" rx="68" ry="10"/><path d="M182 205h27v7h-27z"/><path fill="#d3c3a8" d="M124 103l15 116-53-2z"/><path fill="#21310e" d="M8 185h32v13H8z"/><ellipse cx="137" cy="136" fill="#9a8e72" rx="13" ry="79"/><path fill="#574c30" d="M28 161l87 37-60-48z"/><path fill="#736752" d="M164 67h7v163h-7z"/><path fill="#fff" d="M37 18.4l2.8 31-48.9 4.2-2.7-31z"/><ellipse cx="103" cy="112" fill="#cfb183" rx="6" ry="76"/><path fill="#c8cbbe" d="M20.3 199.8L-16 189.5l32 24.1 12.8-11.1z"/><path fill="#5c491a" d="M196 168h13v37h-13z"/><path fill="#434737" d="M46 228l-30-40 90-6z"/><path fill="#fffef1" d="M220.8 162.9l-19.5 4.5-6-26.3 19.4-4.5z"/><path fill="#e4d3b4" d="M182.2 133.8l13.5 70.4-23.3 3.2 9.5-22.1z"/><ellipse cx="123" cy="83" fill="#fdecc8" rx="3" ry="47"/><path fill="#cbbfb6" d="M55 214l89 18-76 5z"/><circle r="1" fill="#0e2030" transform="matrix(-20.52427 -2.37474 .37961 -3.28091 151.8 253.8)"/><path fill="#c4cfd2" d="M41.2 188.8L-16 87.2l6.1 102.1 73.7-13z"/><ellipse cx="21" cy="226" fill="#b8def6" rx="19" ry="4"/><path fill="#827766" d="M83 183.4l15.7-39 20.4 8.2-15.8 39z"/><path fill="#fff" d="M75 96L55 68l-1 66z"/><ellipse cx="76" cy="254" fill="#323738" rx="47" ry="16"/><path fill="#fffffe" d="M132 221l-22-12 22 1z"/><ellipse cx="93" cy="73" fill="#2a1d0b" rx="4" ry="28"/><path fill="#f5f0df" d="M122 136l15-13-1 16z"/><circle r="1" fill="#84aeca" transform="matrix(-3.29098 -18.85207 53.96601 -9.42079 13.4 1.7)"/><path fill="#595631" d="M111 68h7v23h-7z"/><path fill="#1f1714" d="M143.4 223.7l-57-4.5 63.7 6.7-4.2-19z"/><path fill="#171f28" d="M69.7 110.7l1 .3-10.4 30.3-1-.3z"/><ellipse cx="203" cy="94" fill="#3b83a4" rx="8" ry="23"/><path fill="#babbb6" d="M213.9 257.3l-1 4.9L112 240.7l1-4.9z"/><path fill="#51564a" d="M133.9 149.9l7.4 5.2 7.6-19.5-17 4.4z"/><path fill="#e8e0ca" d="M138 91l-1 15-31 2z"/><ellipse cx="190" cy="109" fill="#4e4b26" rx="4" ry="10"/><path fill="#000a14" d="M214.4 242.8l-.2 1-74.6-14.6.2-1z"/><path fill="#fff" d="M82 108l-1 26-14 4z"/><ellipse cx="11" cy="217" fill="#023361" rx="28" ry="5"/><path fill="#98bacb" d="M85 56L12 83l52-60z"/><circle r="1" fill="#b4d1df" transform="rotate(-131.6 41.7 58) scale(18.70778 30.76953)"/><path fill="#e9e5e2" d="M91.7 202.5l22.7-6.6-5.2 34.9 1.4-16.9z"/><path fill="#f6f1db" d="M102 38h3v86h-3z"/><path fill="#a19d8e" d="M123.2 78.7l-41.4 70.2 14-12.3-5.6 4.7z"/><path fill="#fff7e8" d="M169.6 213.3l2-13.9 8.8 1.3-2 13.9z"/><path d="M188.6 213h-9l-.2-8h9z"/><path fill="#190502" d="M105 206h2v15h-2z"/><path fill="#faf4e3" d="M150 197h13v17h-13z"/><path fill="#413a1c" d="M53 185h55v11H53z"/><path fill="#6e6448" d="M182 151l-8 21-5-27z"/><path fill="#7197b6" d="M52.9 218.4l-44.3-7.8.5-3 44.3 7.8z"/><path fill="#fff" d="M54 68h4v84h-4z"/><path fill="#8e826e" d="M192.1 193.4l19.5-4.3-2.9-6.4-20.2-45.3z"/><path fill="#efe1c1" d="M181 72h4v91h-4z"/><path fill="#bcc6cd" d="M37.6 174.5l7.7 15.1 5.4-17.6-15.4 1.7z"/><path fill="#6e787a" d="M47 112h6v16h-6z"/><path fill="#2c1e1d" d="M136 206h4v17h-4z"/><path fill="#585e61" d="M114 200h18v8h-18z"/><path fill="#b0aaa4" d="M30.6 234.7l75.8-22.9-32.3 20.4-63.2 7.1z"/><path fill="#dcd7cd" d="M145 38l10 48 15-10z"/><path fill="#c1bead" d="M133.1 168.1l-53.2 19.1 33.9-27.6 21.8-2.8z"/><path fill="#fff" d="M111 33h5v20h-5z"/><path fill="#8e6b55" d="M185 236l-22-22 61-3z"/><path fill="#bbb6af" d="M149 224l35 21-54-12z"/><ellipse cx="13" cy="231" fill="#a9bdc7" rx="2" ry="8"/><circle r="1" fill="#659cba" transform="matrix(-18.91047 -.92488 1.34133 -27.42558 89.2 8.2)"/><path fill="#353523" d="M49 197l49-42-38 11z"/><path fill="#fff" d="M112 101h5v16h-5z"/><ellipse cx="61" cy="155" fill="#938261" rx="31" ry="6"/><path fill="#3e3b15" d="M68 199l34-24-21 40z"/><path fill="#2b312c" d="M186.2 248.8l-.3 1-72-16.6.2-1z"/><ellipse cx="99" cy="146" fill="#b7803f" rx="2" ry="57"/><path fill="#182129" d="M65.9 131.4l-7.7 4.6-2-3.4 7.6-4.6z"/><circle r="1" fill="#030301" transform="matrix(.23753 2.42355 -33.25586 3.25944 24 244.6)"/><path fill="#494743" d="M96 219h44v6H96z"/><path fill="#372610" d="M83 71l13-32-2 22z"/><path fill="#859fa6" d="M85.2 96.7l-16.3-8.4 24.9-10.4-4.4 6.6z"/><path fill="#6c6950" d="M145 91l-19-37 24 20z"/><path fill="#e7e9ed" d="M137 181l9 4-8-19z"/><path fill="#bfb694" d="M160 152h8v50h-8z"/><path fill="#1b1701" d="M195 192h14v21h-14z"/><path fill="#737465" d="M108 118h11v16h-11z"/></g></g></svg>