<svg xmlns="http://www.w3.org/2000/svg" viewBox="0 0 675 900"><defs/><filter id="a"><feGaussianBlur stdDeviation="12"/></filter><rect width="100%" height="100%" fill="#493160"/><g filter="url(#a)"><g fill-opacity=".5" transform="translate(1.8 1.8) scale(3.51563)"><circle cx="163" cy="77" r="179" fill="#9d9687"/><ellipse cx="36" cy="19" fill="#d7c5c6" rx="79" ry="39"/><circle r="1" fill="#091b0c" transform="rotate(71.9 -54 213) scale(52.76211 27.65463)"/><circle r="1" fill="#072404" transform="rotate(107.1 -53.1 99.1) scale(59.98558 20.87578)"/><circle r="1" fill="#bab7c2" transform="matrix(24.47442 -2.88759 5.25291 44.52231 82 143.9)"/><circle r="1" fill="#2b0753" transform="matrix(-179.00642 19.46929 -1.79326 -16.48778 95.6 67.9)"/><circle r="1" fill="#fffdd4" transform="matrix(1.45315 7.61546 -47.22317 9.01094 19 112.7)"/><circle r="1" fill="#23373a" transform="matrix(8.38057 -1.78135 11.77866 55.41422 61.5 0)"/><path fill="#a5000d" d="M110 28L88 3l91 25z"/><path fill="#fff" d="M45 40L-16 5 8-16z"/><ellipse cx="94" cy="35" fill="#c1b2b5" rx="51" ry="16"/><path fill="#e0b5a6" d="M180 184l-8-55 30 7z"/><ellipse cx="71" cy="239" fill="#0a112e" rx="14" ry="37"/><path fill="#9aa8a8" d="M143 271l-13-81-58 6z"/><path d="M132 143l-15-1 18-26z"/><path fill="#f6f0e5" d="M81.4 110.9l3.5-11.4 33.3 12.6-21.5 4.7z"/><circle r="1" fill="#51296b" transform="matrix(-.45576 -3.8797 107.10206 -12.5816 72.8 123.7)"/><path fill="#0a1e00" d="M167.2 134.3l12.4 13.1-38.5 46.8 31.7-80.4z"/><path fill="#2a4616" d="M6 157l22 12V97z"/><ellipse cx="123" fill="#c0daf8" rx="49" ry="6"/><circle r="1" fill="#656e78" transform="rotate(87.4 -98.4 137.8) scale(63.20302 12.02808)"/><path fill="#ad0021" d="M148 180l-71 7 32 8z"/><circle r="1" fill="#2e0d47" transform="matrix(-9.61497 -1.58298 8.38942 -50.95696 191 6.7)"/><path fill="#524e5a" d="M74-16l3 76-35 62z"/><path fill="#413d5c" d="M4 18.6l12.7 15.5-6.1 68.6-14 7.2z"/><circle r="1" fill="#a87c89" transform="matrix(-67.30549 -8.04757 1.64555 -13.76249 170 95.1)"/><path fill="#451f59" d="M187 116.7L56.4 86.3l88.8 32.2 61.8 22.3z"/><path fill="#efd9c8" d="M24.1 102l1.2-6.2-41.3 27.7 36.8 3.5z"/><path fill="#990028" d="M189.1 29.6L110.5 7.3 85.4 12l91.4 26z"/><path fill="#ddcfc9" d="M28.9 91.2L40.1 137l5.6-41-16.6-1.2z"/><path fill="#b4c6bd" d="M149 246h37v10h-37z"/><path fill="#111e1f" d="M148 251l-14-41 22-37z"/><circle cx="113" cy="240" r="31" fill="#6c757e"/><path fill="#474171" d="M47-12.1L36.9 27l48.4-8.6-41.7-32.2z"/><path fill="#de1d57" d="M125.4 45.4l-1.3 3.7-59.5-20.5 1.3-3.7z"/><circle r="1" fill="#3a1259" transform="matrix(-1.36913 5.97946 -49.72218 -11.38498 45.6 181.5)"/><path fill="#d8bda2" d="M150 10h29v10h-29z"/><ellipse cx="16" cy="7" fill="#e7e7df" rx="26" ry="14"/><ellipse cx="91" cy="46" fill="#f0f1ec" rx="15" ry="6"/><ellipse cx="120" cy="198" fill="#abb3b2" rx="19" ry="9"/><path fill="#08070b" d="M103 123h5v26h-5z"/><circle cx="82" cy="5" r="8" fill="#fffffe"/><path fill="#d8dcd2" d="M172 182h3v25h-3z"/><path fill="#1c004d" d="M39.1 57l-5.8-1.4L36.9 41l5.8 1.4z"/><path fill="#ddd1c6" d="M79.2 144.1l.6-19 21 .8-.6 19z"/><path fill="#dbd1c1" d="M41 55L51 7l11 44z"/><circle r="1" fill="#f4f2e6" transform="matrix(16.11193 1.80724 -.56898 5.07253 90.5 26)"/><path fill="#d2dcdf" d="M13.1 59.5l11.2.5 11.9-17-20.1-3z"/><circle r="1" fill="#3e0000" transform="matrix(-16.59144 -.72604 .1942 -4.43768 191 178)"/><path fill="#374241" d="M67 156l12 1-3-29z"/><path fill="#d9deef" d="M91.7 186l-.3 1-73-21 .2-1z"/><path fill="#bca783" d="M131 163l-34-13 53 1z"/><path fill="#13240d" d="M48.9 100.1l3.6 75.7L36.1 160l16.8-57.3z"/><path fill="#001a39" d="M80.4 106.6l-13.9-2.2 1.1-7 13.9 2.2z"/><circle r="1" fill="#394023" transform="matrix(4.61658 -11.34224 6.80402 2.7694 113.4 169)"/><path fill="#faffd8" d="M16 253h13v3H16z"/><path fill="#b0bdbd" d="M106 157l-46 3 44 22z"/><ellipse cx="127" cy="3" fill="#5072ae" rx="19" ry="8"/><path fill="#b4b8b9" d="M161 257l-19 14 15-47z"/><ellipse cx="46" cy="21" fill="#553677" rx="20" ry="4"/><circle r="1" fill="#1a2c13" transform="matrix(-1.2062 -31.92547 16.27624 -.61495 16.9 211.4)"/><path fill="#557a98" d="M108 26h36v14h-36z"/><path fill="#e9ddbd" d="M51 152l8-22 16-3z"/><path fill="#6e728c" d="M40 191h31v37H40z"/><path fill="#8e1839" d="M83.5 17.7l9.9-12.2 110.6 25-102.4-8.7z"/><path fill="#adb28c" d="M-15 169l23 9-24 40z"/><path fill="#f6ecff" d="M139 226h4v9h-4z"/><path fill="#f8e3ca" d="M36.9 26.7l-26-13.9-16.5 1.3 67.8 35.4z"/><path fill="#b98e77" d="M179.3 40.5l-29.7 3.1-9.4-16.7 37.4 10.4z"/><path fill="#beaeb3" d="M69 119.1l-9.8-10.5-11.9 23.2L55.8 84z"/><path fill="#1b243f" d="M110 242l-10-17 1 46z"/><path fill="#00004b" d="M65.8 168.8l20.7 7.5-.3 1-20.7-7.6z"/><path fill="#61467e" d="M39.6 134.2l-3.7 16.2-6.4-25.5 73.6-8.1z"/><path fill="#fff" d="M187 96h5v7h-5z"/><path fill="#9b0f32" d="M77.4 189.7l64.7.3 3.9-13.8-41 10.6z"/><path fill="#425852" d="M200 142l5 40-43 44z"/><path fill="#010100" d="M133.8 122.9l-2.9 10.6-8.7-2.4 2.9-10.6z"/><path fill="#dacdd2" d="M44.5 26.1v-2.9l3.5 4.7L57.3-16z"/><path fill="#534ca2" d="M30.8 234l48.1-16.3 64.7-3-86.7 13.8z"/><path fill="#fffff5" d="M111-16l-2 22-71-17z"/><path fill="#242532" d="M134 158v-14l16-12z"/><path fill="#a1a0a1" d="M43 199l-4-16 34 16z"/><path fill="#2c2151" d="M156.2 219.1L140.9 271l2.2-50.9 58.8 37.1z"/><path fill="#c89f77" d="M71.5 145.5l64.5 16.6-38.6-16.2-46.1-12.7z"/><path fill="#23321a" d="M172.6 174.9l-.8-.6 35.6-47.2.8.6z"/><path fill="#0a0e28" d="M57 229h28v19H57z"/><circle r="1" fill="#6368a2" transform="matrix(5.60892 2.00068 -2.43318 6.82144 163.4 175.9)"/><path fill="#acb5b9" d="M20.5 167.2l-5.4-2.2-28-7.8-3.1 3z"/><path fill="#bcbdb5" d="M118 172h9v10h-9z"/><path fill="#472e64" d="M60 89L31 48l-1 34z"/><ellipse cx="57" cy="205" fill="#1a1556" rx="25" ry="2"/><path fill="#e6dbcc" d="M33 97l-8 30 20-23z"/><ellipse cx="187" cy="219" fill="#0a1d15" rx="13" ry="10"/><path fill="#18290c" d="M135.9 221.2l30.2-41.6 10.5 40.9-26-53.4z"/><circle r="1" fill="#7e6d56" transform="matrix(.43313 3.74124 -102.06975 11.81666 60.2 91.4)"/><path fill="#957398" d="M112 110h9v35h-9z"/><path fill="#303f23" d="M20 167l22.7 3.7-23.5-34.8 18.1-72.5z"/><path fill="#445d58" d="M77.8-4.3L66 58.4l-2.2-.2-.3-69.4z"/><path fill="#ffffe1" d="M1.5 41l-7.1 45.3L-16-1.6 2.6 27.7z"/><path fill="#778462" d="M15 253l3-18 11 16z"/></g></g></svg>