<svg xmlns="http://www.w3.org/2000/svg" viewBox="0 0 675 900"><defs/><filter id="a"><feGaussianBlur stdDeviation="12"/></filter><rect width="100%" height="100%" fill="#423931"/><g filter="url(#a)"><g fill-opacity=".5" transform="translate(1.8 1.8) scale(3.51563)"><circle r="1" fill="#fffff4" transform="matrix(70.54372 -20.64723 53.65234 183.30965 148.7 95.6)"/><circle r="1" fill="#393737" transform="matrix(25.39233 81.02703 -28.86994 9.0473 104 163.6)"/><ellipse cx="154" cy="26" fill="#fcfeec" rx="30" ry="94"/><circle r="1" fill="#e9f9fc" transform="matrix(38.09915 20.28199 -84.1103 157.99886 176.6 252.8)"/><circle r="1" fill="#00000a" transform="matrix(-38.89176 48.3374 -66.83637 -53.77583 50.2 234.9)"/><circle r="1" transform="matrix(7.0097 -52.08417 8.3433 1.12287 115 27.6)"/><path d="M178.3 42.7L171.5 81l-9.8-1.8 6.8-38.4z"/><circle r="1" fill="#816852" transform="matrix(24.23859 -7.36425 40.33684 132.76416 64.6 60.2)"/><path fill="#c8c3ab" d="M59 59l24 45L86 1z"/><ellipse cx="90" cy="46" fill="#11130a" rx="4" ry="27"/><circle r="1" fill="#0a1923" transform="matrix(-1.85946 -18.74262 46.8935 -4.65233 100.7 223.4)"/><circle r="1" fill="#eeefe5" transform="matrix(-11.27013 33.29657 -30.42199 -10.29715 163.9 6)"/><path fill="#cbd1cc" d="M125.1 207.5l-14.5-4 4.8-35.8 18.2 50z"/><path fill="#090706" d="M122 140l-33-8.3 3-11.6 33 8.2z"/><path fill="#000105" d="M83.8 140l-27.3-15.3 6.6 32.6 14.3-1.7z"/><path fill="#2d363d" d="M100.4 218.9l58.8-11.7-1.6-35.4-10.5 45.6z"/><path fill="#9d9fa8" d="M81 146h12v32H81z"/><circle r="1" fill="#37372b" transform="matrix(-14.37613 81.26745 -1.35481 -.23967 170.7 133.6)"/><circle r="1" fill="#30332e" transform="matrix(-11.087 .71696 -1.9119 -29.5653 116.5 4.2)"/><path fill="#f4ecd3" d="M129.7 74.7l-12.3 9.4 52.2 41.7-8.2-80.7z"/><path fill="#b9b199" d="M133.4 55.4l20.7 69-15.9 56.7-16.7-15.2z"/><circle r="1" fill="#644c37" transform="matrix(81.7104 -119.29592 23.41436 16.0374 34.6 13.6)"/><path fill="#00001e" d="M102 190l5-20 9 21z"/><ellipse cx="49" cy="248" fill="#030f18" rx="45" ry="87"/><circle cx="71" cy="160" r="4" fill="#fefffa"/><path fill="#bdc2c0" d="M153.3 211l-34.6 54.3 74.4-13.8-34.1-57z"/><path fill="#496b99" d="M54 197h9v19h-9z"/><path fill="#ccc6b0" d="M76 0h29v37H76z"/><path fill="#05110e" d="M65 27h11v8H65z"/><path fill="#0e1d1e" d="M165 81.2l-.5 2.6 7.6-41.8 4.8 21.1z"/><path fill="#a5afb1" d="M103.1 192.8l-14 .4-.2-8 14-.4z"/><path fill="#585947" d="M150 172.3l12.4 12.7-14.8-29.8-19.6 23.9z"/><path fill="#b59f7d" d="M152 112L69 58l24 44z"/><path fill="#2e2b22" d="M67 105l6 20 38-16z"/><circle r="1" fill="#753a1a" transform="matrix(15.8985 40.31452 -17.67413 6.97 34.7 10.5)"/><circle r="1" fill="#848886" transform="rotate(-171.1 68.7 22) scale(2.88588 30.62354)"/><path fill="#1a1c18" d="M91.4-50l2.2 130h-1L90.4-50z"/><path fill="#889299" d="M34 141h7v24h-7z"/><circle r="1" fill="#dcdbbd" transform="matrix(-12.2659 58.2059 -2.45477 -.5173 180.2 109.2)"/><path fill="#00050c" d="M130 207l-3-13 16 8z"/><path fill="#4a4a3e" d="M192.1 45.5l.7-31.1-4.2 19L153.5 206z"/><circle r="1" fill="#5f5f47" transform="matrix(-7.94175 -26.80662 3.33835 -.98902 191 102.4)"/><path fill="#271a1b" d="M96.4 177l-29.1-24.1 15.5 10.6 3.6-8.3z"/><path fill="#31262b" d="M131.5 144.8l-29.7 7.6L91 232.7l4-62.7z"/><path fill="#f5f2dd" d="M165 48l-24-17-10 67z"/><path fill="#d7c9b4" d="M69.8 26.5L51.3 25l8.3-4.6 24.2-.9z"/><ellipse cx="25" cy="151" fill="#1f2122" rx="11" ry="81"/><path fill="#5f4d37" d="M34 75h42v36H34z"/><path fill="#d0d7cf" d="M151 220v-25.6l-7.4-10.9-11.3-14.9z"/><path fill="#fff" d="M70.7 128.6l-1 .3-4.4-17.5 1-.3z"/><path fill="#5d5344" d="M125.7 114.2l-7.1-15 10.2 39.8-36.9.5z"/><path fill="#c0c2bc" d="M116.4 171.6l-28.7-12.3 21.2 13.4 16.5 33.6z"/><path fill="#000c11" d="M14 32h13v18H14z"/><path fill="#706e57" d="M202 66l-30 99 30-41z"/><path fill="#a99e8b" d="M102 104L63 74l-4-46z"/><path fill="#bdbcc7" d="M88.3 136.9L77 130.1l6.6-4.7 5.6-1z"/><circle r="1" fill="#4c504b" transform="matrix(-13.27961 2.6101 -22.23489 -113.12621 0 28.1)"/><path fill="#cae2ef" d="M116 189l15-6 2 6z"/><path fill="#e4e0ca" d="M132 79h43v24h-43z"/><path fill="#7a7382" d="M62.2 160l10.8 7.3-18.3 8.2 48.3-.5z"/><path fill="#eae3c7" d="M93 43h6v24h-6z"/><path fill="#d0d6d2" d="M143.3 225.1l46.5-82.5 10-16-20 60.3z"/><path fill="#877f7c" d="M51 132h4v37h-4z"/><path fill="#d7c4a8" d="M115 52h15v40h-15z"/><path fill="#cac0c3" d="M82.7 153.8l-2-4.6 16.6-7 2 4.6z"/><path fill="#dfe3d3" d="M176.8 7.5l18.7-20.1-6.7 40.5-6.8 39z"/><path fill="#14161a" d="M90.1 144.4l-22.2-18.6 4.9 26.2 43.6-23.3z"/><path fill="#b7c0c3" d="M99 193l7-19-5-9z"/><circle r="1" fill="#ecefeb" transform="rotate(52 -138.5 301.8) scale(18.66291 9.35852)"/><path fill="#626251" d="M210.9 253.6l-56.2-26.2.4-1 56.2 26.2z"/><path fill="#060000" d="M112 173.7l-.5 2-11.5-3.4.5-2z"/><path fill="#436972" d="M76.5-14.5v31h-19v-31z"/><path fill="#be999c" d="M97 138l22 1-3 12z"/><path fill="#ecead9" d="M170.4 117.9l9.5-48.7-11.4 15.2-3.6 52.6z"/><path fill="#81715c" d="M118.6 86.1L96.1 45.8l16.2 62.4 6.2-49.9z"/><path fill="#382d2b" d="M104 122h7v45h-7z"/><path fill="#211c11" d="M62.4 118.6l-6.8-39.7-1.2 53.2-9.2 25z"/><path fill="#1b140b" d="M41 87l9 44-15 10z"/><path fill="#dcd4c0" d="M88 35L76 59l1-62z"/><path fill="#2e3640" d="M87 214l15 30-5-68z"/><path fill="#fffff3" d="M156 144l2-11 7 13z"/><path fill="#988870" d="M150.4 111.6l-6 31.4-7-18.2.3-25.6z"/><path fill="#1c1b19" d="M123 185l4-9 14-4z"/><path fill="#37362b" d="M126 12l-18 64-2-62z"/><path fill="#001928" d="M114.5 180.5v11h-13v-11z"/><path fill="#bb9484" d="M63.2 91.5h4l-.4 21h-4z"/><path fill="#eef5e8" d="M136.1 197.5l2-3.5 7.8 4.5-2 3.5z"/><circle r="1" fill="#313738" transform="matrix(5.75396 33.37611 -19.20306 3.31056 0 177.4)"/><path fill="#f0f1e0" d="M92.6 177.4l-2.4 1.9-6.8-8.7 2.4-1.9z"/><path fill="#474339" d="M94.7 87.3L92.3 42l-8.2 14.2-1.5 1.6z"/><path fill="#282d30" d="M118 168h6v17h-6z"/><path fill="#030a0b" d="M119.4 259.2l-86-4.5 1.2-22 86 4.6z"/><circle r="1" fill="#7c7059" transform="matrix(-2.38841 .27578 -2.65442 -22.98887 82 82.5)"/><path fill="#b3b1a9" d="M111.8 197.6l29.8 24.2-26.9-31.2 17.5-26.7z"/><path fill="#cdcbc2" d="M148 154l-3-17-20 25z"/><path fill="#565552" d="M143 146.9l-63.4 3.9 51.1.4 3.6-.9z"/><ellipse cx="99" cy="34" fill="#d7d0ba" rx="5" ry="20"/><path fill="#16345b" d="M24 222h9v34h-9z"/><path fill="#191518" d="M97 143l-6-23 13 2z"/><circle cx="136" cy="30" r="3" fill="#27241e"/></g></g></svg>