<svg xmlns="http://www.w3.org/2000/svg" viewBox="0 0 817 900"><defs/><filter id="a"><feGaussianBlur stdDeviation="12"/></filter><rect width="100%" height="100%" fill="#483b36"/><g filter="url(#a)"><g fill-opacity=".5" transform="translate(1.8 1.8) scale(3.51563)"><circle r="1" fill="#fdffff" transform="matrix(-33.52806 119.60352 -152.99253 -42.88789 52.7 48.7)"/><path fill="#fff" d="M124 240h108v16H124z"/><circle r="1" fill="#fff" transform="rotate(-41.7 45.1 -23.1) scale(106.02151 39.14586)"/><path fill="#fff" d="M218.4 257.3l1.2-67 24 .4-1.2 67z"/><path fill="#7e7166" d="M224 79L-15 180l220 2z"/><ellipse cx="190" cy="249" fill="#fff" rx="62" ry="10"/><path fill="#3ea3f6" d="M128-16l84 135-13-135z"/><ellipse cx="34" cy="236" fill="#000e16" rx="98" ry="48"/><path fill="#fff" d="M-23.6 74.2l19.8-85.7L53.6 1.8 33.8 87.5z"/><circle r="1" fill="#414945" transform="matrix(10.58738 -10.6055 19.00508 18.97262 57.9 56)"/><circle r="1" fill="#f1e1c3" transform="rotate(-20.8 456.8 40.3) scale(21.49664 19.04379)"/><circle r="1" fill="#434650" transform="rotate(119.3 -9 104.9) scale(82.36736 18.10904)"/><circle r="1" fill="#fff" transform="matrix(-9.06087 .0583 -.17254 -26.81158 228.1 216.8)"/><circle r="1" fill="#46320f" transform="rotate(-19.6 172 -392.8) scale(7.20816 45.67881)"/><ellipse cx="173" cy="213" fill="#000302" rx="46" ry="27"/><path fill="#fff" d="M0 0h90v35H0z"/><circle r="1" fill="#a98d78" transform="rotate(46.7 -72.9 267.7) scale(24.92787 50.51302)"/><ellipse cx="229" cy="41" rx="10" ry="98"/><ellipse cx="182" cy="255" fill="#fff" rx="53" ry="15"/><ellipse cx="134" cy="83" fill="#eee4c5" rx="12" ry="46"/><path fill="#4e4d40" d="M104 108L35 57l65 22z"/><ellipse cx="112" cy="28" fill="#e6e6ca" rx="13" ry="39"/><ellipse cx="227" cy="220" fill="#fff" rx="9" ry="30"/><circle r="1" fill="#020000" transform="matrix(-.41085 -44.75987 21.63517 -.19859 17.8 240.3)"/><path fill="#e6e8e3" d="M178.4 77.2l-8.2 56.8-3-24-10.9-51.3z"/><circle cx="84" cy="135" r="8" fill="#fff9e2"/><path fill="#1f190f" d="M39 157h23v54H39z"/><path fill="#fff" d="M131 240h101v16H131z"/><ellipse cx="11" cy="52" fill="#fff" rx="26" ry="31"/><circle cx="112" cy="155" r="23" fill="#5a4d51"/><path fill="#8c8076" d="M182.7 146.9l-33.3 70-7.3-88.2 68-44.6z"/><path fill="#f1e4cd" d="M42 146L7 130l50-10z"/><path fill="#807052" d="M1.4 81.4l20 1.3-2.8 40-20-1.4z"/><path fill="#fff" d="M88.8 33.7l-39 .6-.6-38 39-.6z"/><path fill="#8c7d66" d="M140 21h36v44h-36z"/><path fill="#020801" d="M170 169l13 65 36-35z"/><circle r="1" fill="#5c6761" transform="matrix(-4.6101 -63.06826 6.45617 -.47193 208.8 24.8)"/><circle r="1" fill="#3262a5" transform="matrix(7.57974 5.2094 -8.7847 12.78182 48.9 224.6)"/><ellipse cx="74" cy="171" fill="#353130" rx="6" ry="43"/><path fill="#57a2e1" d="M177 0h23v97h-23z"/><path fill="#757a79" d="M38 38h43v43H38z"/><ellipse cx="112" cy="250" fill="#2f3535" rx="18" ry="83"/><path fill="#fff" d="M-16 61l54 25-3-102z"/><ellipse cx="231" cy="13" fill="#000701" rx="15" ry="89"/><path fill="#000602" d="M130.5 176.4l13.9 1.7-6.9 55.5-13.9-1.7z"/><path fill="#4d483f" d="M146.4 24.5L130.8-16v26.1l-6.7 28.3z"/><path fill="#241e30" d="M52.1 145.4l3.3-16.2 6.6 19.9-19.4-4.3z"/><path fill="#214f75" d="M90 22l-1-35 9 12z"/><circle r="1" fill="#c4b7a1" transform="rotate(-23.9 397.5 84) scale(41.818 17.22004)"/><path fill="#0d0f00" d="M151.9 140.5l-1.8-15-8.4 12.8 9.9 3.6z"/><path fill="#b1bbbc" d="M191.9 184.4l.2-13 14 .2-.2 13z"/><path fill="#464b50" d="M153 172l27-11-9 65z"/><path fill="#28302e" d="M73.7 95.5l1.7 1.2 12.9 3.7-20.1 9.7z"/><circle r="1" fill="#7d837c" transform="matrix(-1.99883 4.54932 -32.53152 -14.29333 75 177.9)"/><path fill="#010a21" d="M161 84h2v45h-2z"/><path fill="#000802" d="M166 221h53v19h-53z"/><path fill="#d3bdbe" d="M193.4 128.8l-12.9-.2L167 65.8l-3.8 65.6z"/><path fill="#e6dfcb" d="M126 81h34v22h-34z"/><ellipse cx="212" cy="136" fill="#646451" rx="15" ry="32"/><path fill="#c2b9a8" d="M20.1 191.8L11.2 168-16 117.8l51.1 50.9z"/><path fill="#fff" d="M130 240h102v16H130z"/><path fill="#dad4b8" d="M120 45l-13 69-4-42z"/><path fill="#4f91c7" d="M51 35h25v11H51z"/><path fill="#fff" d="M219 192h13v64h-13z"/><path fill="#7c7371" d="M116 60h6v154h-6z"/><path fill="#bb9b7e" d="M159.5 157.3L120.1 116l28.6 65.2 48.4-55.5z"/><path fill="#584b38" d="M140 26h11v35h-11z"/><path fill="#000d09" d="M214 197l-24 6 20-33z"/><path fill="#1b1022" d="M166.8 117.6l-67.2 25.8-.4-1 67.2-25.8z"/><path fill="#cfccb7" d="M87.7 76l1.2-34.1-7.8 21.7.9 29.7z"/><path fill="#a88f8b" d="M98 148l17.7 9.1 33.4-60.8-36.4 25.8z"/><ellipse cx="27" cy="11" fill="#fff" rx="61" ry="25"/><path fill="#000200" d="M89 174h11v10H89z"/><path fill="#d5c6bd" d="M89.3 100.3l-17.9 17.1-15.1 7.8 29.4 6.4z"/><path fill="#fff" d="M62 167h4v11h-4z"/><path fill="#c2b69f" d="M39.1 156.9l31.5 3.4L34.1 142-15 200.1z"/><path fill="#53423d" d="M11.7 178.3l28.4 34-1.5-27.9-54.6 16.8z"/><path fill="#504846" d="M99.2 142.6l1-33.9 27.7 42.2 6.2-11.1z"/><ellipse cx="200" cy="115" fill="#161c20" rx="2" ry="20"/><circle r="1" fill="#b0b1a9" transform="matrix(9.62303 -6.1794 8.86177 13.80023 165.2 38)"/><path fill="#0b0e0b" d="M88.6 197.1l6.6 6.3 18-16.9-1.2 47z"/><path fill="#14143e" d="M60.9 114.7L52 147.6l-1-.3 8.8-32.9z"/><path fill="#252421" d="M56.3 68.2l2-2.2 23.4 21.8-2 2.2z"/><path fill="#595645" d="M103 83L92 66l-1 58z"/><ellipse cx="231" cy="110" fill="#010d00" rx="5" ry="56"/><path fill="#765144" d="M159 152l4-22 28 1z"/><circle r="1" fill="#dddbcb" transform="rotate(155 57.4 43.6) scale(5.61208 43.07159)"/><path fill="#324e6a" d="M99 231h46v9H99z"/><path fill="#474732" d="M148 69h3v22h-3z"/><path fill="#d2c1a6" d="M71 145l-6-52-8 46z"/><circle r="1" fill="#b0aa97" transform="matrix(13.88373 -13.7391 19.01583 19.21602 33 105)"/><path fill="#a68d79" d="M194.6 183.3l5.9-41.2 15.2 1.8-21-21z"/><path fill="#c1c7b7" d="M81 167h17v6H81z"/><path fill="#7c705f" d="M20.6 138.2l27.6 6.9-35-.5-2.9-5.1z"/><path fill="#69645b" d="M38 36h15v30H38z"/><path fill="#677177" d="M184.1 94l-12.2 22.5 42.6-22.6-53.6 12.5z"/><path fill="#5b5850" d="M78.6 214.2l.9 1.4-13.9-55.3 28.2 37.2z"/><path fill="#191816" d="M160 40l3-13 2 9z"/><path fill="#a6a39a" d="M125.5 37.4L48 57.2l15.5 20.5L35.9 71z"/><path fill="#dbd5c3" d="M147 52l-8 27 7 21z"/></g></g></svg>