<svg xmlns="http://www.w3.org/2000/svg" viewBox="0 0 1400 788"><defs/><filter id="prefix__a"><feGaussianBlur stdDeviation="12"/></filter><rect width="100%" height="100%" fill="#5a353b"/><g filter="url(#prefix__a)"><g transform="translate(2.7 2.7) scale(5.46875)"><ellipse cx="167" cy="26" fill="#fff" fill-opacity=".5" rx="104" ry="115"/><circle r="1" fill="#fff" fill-opacity=".5" transform="matrix(58.84764 22.24218 -14.67492 38.82643 146 12.5)"/><circle r="1" fill="#6d7788" fill-opacity=".5" transform="matrix(-32.98279 34.48724 -85.57604 -81.8429 56.4 61.7)"/><ellipse cx="171" cy="106" fill="#f4e7e1" fill-opacity=".5" rx="42" ry="27"/><circle r="1" fill="#716369" fill-opacity=".5" transform="matrix(.249 -142.6707 34.52147 .06025 233.1 82.5)"/><path fill="#e6dcde" fill-opacity=".5" d="M102 119h34v25h-34z"/><circle r="1" fill="#3f4859" fill-opacity=".5" transform="matrix(-66.5283 28.10266 -9.92104 -23.48639 59.5 102.2)"/><path fill="#fdf5ff" fill-opacity=".5" d="M88 0h112v38H88z"/><path fill="#070b00" fill-opacity=".5" d="M138 120h11v24h-11z"/><ellipse cx="189" cy="118" fill="#fff" fill-opacity=".5" rx="7" ry="36"/><path fill="#8b6c6c" fill-opacity=".5" d="M153.8 82.9l24.8 8.2-77.8 7.6L114 24.5z"/><circle r="1" fill="#766e89" fill-opacity=".5" transform="matrix(-32.62685 24.5861 -15.27837 -20.27508 54 54)"/><path fill="#f2e1f3" fill-opacity=".5" d="M210.5 117.1L201.1 79l13.6 16.4 8.7 14.8z"/><path fill="#c4b1bf" fill-opacity=".5" d="M151 36h61v50h-61z"/><circle cx="74" r="18" fill="#a4afd8" fill-opacity=".5"/><path fill="#2b2203" fill-opacity=".5" d="M204 114l18 14-11 13z"/><path fill="#f5ebdb" fill-opacity=".5" d="M120 105l15-15-7 54z"/><path fill="#685149" fill-opacity=".5" d="M199.2-15.9l29 4.5-1.7 76.1-21.2-50.1z"/><path fill="#6a6067" fill-opacity=".5" d="M139 62l-2-33-30 71z"/><path fill="#fff" fill-opacity=".5" d="M161 125h6v19h-6z"/><circle cy="125" r="37" fill="#19373e" fill-opacity=".5"/><ellipse cx="241" cy="130" fill="#776866" fill-opacity=".5" rx="22" ry="57"/><circle r="1" fill="#63566c" fill-opacity=".5" transform="matrix(-17.04424 -48.29094 24.60525 -8.6844 73 82.4)"/><circle r="1" fill="#897f70" fill-opacity=".5" transform="rotate(-104.1 104.6 -32.6) scale(30.06659 3.53338)"/><path fill="#323220" fill-opacity=".5" d="M17 0h17v38H17z"/><ellipse cx="163" fill="#fff" fill-opacity=".5" rx="35" ry="23"/><path fill="#3f3d39" fill-opacity=".5" d="M178 124l-6 35 12-22z"/><path fill="#000300" fill-opacity=".5" d="M159 137v22l-11-20z"/><path fill="#5d4837" fill-opacity=".5" d="M211 79h18v19h-18z"/><path fill="#413722" fill-opacity=".5" d="M93 77h7v67h-7z"/><path fill="#fff7ff" fill-opacity=".5" d="M220.2 110.8l-43.9 16.9-2.5-6.5 43.9-16.9z"/><circle r="1" fill="#5b5c5b" fill-opacity=".5" transform="matrix(1.7074 -.14508 1.3776 16.21252 182.3 45.6)"/><path fill="#fff7ff" fill-opacity=".5" d="M141 69l16-15-18 3z"/><path fill="#cfcbf0" fill-opacity=".5" d="M89.3 22.3l.6-38.3h41.6L99.4 54.4z"/><path fill="#977881" fill-opacity=".5" d="M121 122l-24 37 9-96z"/><path fill="#e8dbd6" fill-opacity=".5" d="M115.6 77l45.8 35.1-13.7 25.2 8.7-5.6z"/><path fill="#74543f" fill-opacity=".5" d="M128 76h16v18h-16z"/><circle r="1" fill="#5a4b33" fill-opacity=".5" transform="rotate(102.4 23 90) scale(26.91333 3.48981)"/><path fill="#fff" fill-opacity=".5" d="M183.2 123.7l24.3 5.7-.7 2.9-24.3-5.7z"/><path fill="#303a43" fill-opacity=".5" d="M67.5 62L49.7 51.8l-9.5 7.1L81.7 84z"/><circle r="1" fill="#574d62" fill-opacity=".5" transform="matrix(54.2419 50.053 -8.2363 8.92559 246.3 0)"/><path fill="#301903" fill-opacity=".5" d="M116 5l12-21-13 3z"/><path fill="#cec4df" fill-opacity=".5" d="M42 7l23-23-32 9z"/><path fill="#98828a" fill-opacity=".5" d="M23.2 58.4l29.7 9-6.1 20.2-29.7-9z"/><path fill="#bda8ba" fill-opacity=".5" d="M55 46h5v21h-5z"/><path fill="#001900" fill-opacity=".5" d="M80 133h8v11h-8z"/><path fill="#9d8fa9" fill-opacity=".5" d="M227-6l24 47-19 54z"/><path fill="#66545f" fill-opacity=".5" d="M183.7 159l8.7-14.7-8-14.1 35.3 19.7z"/><path fill="#f8eff5" fill-opacity=".5" d="M178 76h8v50h-8z"/><circle r="1" fill="#debedc" fill-opacity=".5" transform="rotate(-117.3 68.9 0) scale(2.29354 13.95239)"/><path fill="#fff" fill-opacity=".5" d="M212.7 63l2.3 7.7-7.7 2.3-2.3-7.7z"/><ellipse cx="157" cy="131" fill="#3a2a27" fill-opacity=".5" rx="2" ry="6"/><path fill="#b1a1bd" fill-opacity=".5" d="M135.9 82.1l-32.2-43.4 18.2-13.3 5.5 21.8z"/><circle r="1" fill="#857062" fill-opacity=".5" transform="matrix(-2.30078 14.52658 -1.74936 -.27707 167 107)"/><path fill="#aa98a5" fill-opacity=".5" d="M54 31l-15 4 2 25z"/><path fill="#44515d" fill-opacity=".5" d="M35 141l55 15-43-78z"/><circle r="1" fill="#957e97" fill-opacity=".5" transform="matrix(-4.38894 -.60152 7.89062 -57.57344 85.2 87.2)"/><path fill="#424a8c" fill-opacity=".5" d="M80.8 40.2L90.6-16l-5.4 48.2-7.3 33.4z"/><ellipse cx="170" cy="49" fill="#dfcee1" fill-opacity=".5" rx="8" ry="32"/><circle r="1" fill="#0b234c" fill-opacity=".5" transform="matrix(-4.69636 22.6065 -4.1169 -.85526 24.5 98.8)"/><path fill="#a76670" fill-opacity=".5" d="M198.2 88.7l-41.9-.6.4-.7 60.1 7.6z"/><path fill="#8b716f" fill-opacity=".5" d="M191 50l35-14 7 35z"/><path fill="#fdf2e9" fill-opacity=".5" d="M122 82h3v44h-3z"/><path fill="#bba6b1" fill-opacity=".5" d="M57 19h15v16H57z"/><path fill="#444237" fill-opacity=".5" d="M134.6 138.2l32.7 15.6-21.7-15.6-1-29.3z"/><path fill="#958494" fill-opacity=".5" d="M62 72l14 26H57z"/><circle cx="195" cy="85" r="5" fill="#fff" fill-opacity=".5"/><path fill="#021a0b" fill-opacity=".5" d="M17 39l9-11 19 3z"/><circle r="1" fill="#b3b084" fill-opacity=".5" transform="matrix(.24869 -.96858 34.38338 8.82815 168.4 105.2)"/><circle cx="106" cy="51" r="4" fill="#242128" fill-opacity=".5"/><path fill="#5d5b61" fill-opacity=".5" d="M116.7 64.2l1.2-18-13.2 7.2L106 36z"/><path fill="#8f7d8d" fill-opacity=".5" d="M34 29L13 6l33 21z"/><path fill="#363f63" fill-opacity=".5" d="M45.5 94.4L-16 85.3l65.5 30.2 4.2-56.4z"/><path fill="#081f29" fill-opacity=".5" d="M71.8 156.7l6.1-64.8-7.9 38.4L55.6 159z"/><path fill="#795ea0" fill-opacity=".5" d="M139.1 58h-1L135 12h1z"/><path fill="#774d54" fill-opacity=".5" d="M180 69l1-12 10 11z"/><path fill="#ddd8f4" fill-opacity=".5" d="M120 33L85 43.6l3.9-33.1L106.8-16z"/><path fill="#998788" fill-opacity=".5" d="M166 132h13v12h-13z"/><path fill="#011745" fill-opacity=".5" d="M-15.9 40.7l.7-1.9L54 65.3l-.7 1.9z"/><path fill="#3e3814" fill-opacity=".5" d="M124 128l-3 17 4-8z"/><path fill="#fffcff" fill-opacity=".5" d="M135 109l15-3-16 13z"/><path fill="#091a02" fill-opacity=".5" d="M40.5 9l.4-2 18.6 4-.4 2z"/><path fill="#8d5e44" fill-opacity=".5" d="M152 93l4-11v20z"/><path fill="#25351e" fill-opacity=".5" d="M104 94.1L95.3 99 88 85.9l8.7-4.9z"/><path fill="#2b2a18" fill-opacity=".5" d="M39.2 17.8l24.9 23-9.2-5.1L27.4 7.6z"/><path fill="#635558" fill-opacity=".5" d="M2 159l3.2-32.8L21 47.3 13.7 128z"/><path fill="#001132" fill-opacity=".5" d="M24.4 109.7l-11 51.8-5.8-1.2 11-51.8z"/><path fill="#eceaf9" fill-opacity=".5" d="M195 34l-26.2-20.1 19.3 28.6 21.6.1z"/><path fill="none" stroke="#000" stroke-opacity=".5" stroke-width=".5" d="M75.9 14.4Q74 32.6 71.8 35.5"/><path fill="#9a8f7b" fill-opacity=".5" d="M170.6 97.7l-15.4 5.9-83.8 15.3 9.9-2.1z"/><path fill="#8e7b7f" fill-opacity=".5" d="M34 90l4 15-13-1z"/><path fill="#735f5f" fill-opacity=".5" d="M222.2 132.9l-13.1-40 13.8 31.4 27-28.5z"/><ellipse cx="56" cy="41" fill="#2c346d" fill-opacity=".5" rx="29" ry="2"/><path fill="#402814" fill-opacity=".5" d="M208 113l10 19-15-9z"/><path fill="#a7899d" fill-opacity=".5" d="M114 43.1l-8.5 42.3 11.1 27.8-18-30.6z"/><path fill="#3f3122" fill-opacity=".5" d="M212.4 8.8l28.8-20.4-33.7-4.4 5 33.1z"/><path fill="#001756" fill-opacity=".5" d="M-3 60.8L8 22.4l3 .8L0 61.6z"/><path fill="#5557a7" fill-opacity=".5" d="M206.2 54.5l-4.6-31.7-4.8-38.8 2.5 1.7z"/><path fill="#9f9487" fill-opacity=".5" d="M112.7 94.5l-1.5 5.6 24 9-6 10.3z"/><path fill="#8c5b44" fill-opacity=".5" d="M205.9 103.4h-1L202 50.7h1z"/></g></g></svg>