<svg xmlns="http://www.w3.org/2000/svg" viewBox="0 0 775 581"><defs/><filter id="a"><feGaussianBlur stdDeviation="12"/></filter><rect width="100%" height="100%" fill="#33533d"/><g filter="url(#a)"><g fill-opacity=".5" transform="translate(1.5 1.5) scale(3.02734)"><circle cx="77" cy="103" r="206"/><circle r="1" fill="#d8a553" transform="matrix(4.05337 46.73423 -23.8992 2.07283 99.6 91)"/><path d="M69.5-40.3l17.8 254.4-88.8 6.2-17.8-254.4z"/><ellipse cx="234" cy="90" fill="#040000" rx="117" ry="190"/><circle r="1" fill="#ffca00" transform="matrix(-50.16097 -10.30323 1.5424 -7.50912 118.3 131)"/><path fill="#887d84" d="M63 45h111v16H63z"/><circle r="1" transform="rotate(101.2 -12 127.3) scale(28.10179 100.01526)"/><ellipse cx="134" cy="21" rx="255" ry="25"/><path fill="#ff941e" d="M174.8 121.5L156.3 145l-11-8.6 18.4-23.6z"/><path fill="#c99ca5" d="M150 118l-1-40-18 18z"/><ellipse cx="219" cy="84" rx="49" ry="173"/><ellipse cx="33" cy="123" rx="40" ry="154"/><circle cx="83" cy="119" r="12" fill="#ffab00"/><path d="M93 121L78 72l26 40z"/><path fill="#7a7d78" d="M116 43l8 58-57-15z"/><path fill="#9d6b79" d="M161 58h13v23h-13z"/><path fill="#ffb500" d="M114 118l31 24-64-16z"/><circle r="1" transform="matrix(164.1411 22.23398 -5.14662 37.99462 90 172.2)"/><path fill="#dd8700" d="M79.8 81.6l-11.1 7.1 22 16.6-11.1 12.6z"/><path fill="#b50045" d="M65 43h80v4H65z"/><ellipse cx="118" cy="20" rx="140" ry="24"/><path fill="#f80072" d="M167.5 123.7l.6 4-29.6 4.6-.6-4z"/><path fill="#cc7f00" d="M118.4 93.2l2.5-7.8 5.7 12.5-25 39.6z"/><path fill="#010000" d="M133.3 103.3l-47-5.8-11-22 60.4 53z"/><ellipse cx="114" cy="51" fill="#3fa96f" rx="49" ry="4"/><ellipse cx="220" cy="122" rx="48" ry="173"/><path d="M63 27l-79 88 93 41z"/><path fill="#e2ad00" d="M81.6 119.6l14.2-34.3-14.9 19.1 24.6 26.4z"/><path fill="#877372" d="M138 78h9v41h-9z"/><path fill="#f17913" d="M161 111h9v24h-9z"/><path d="M190.2 105.7L120 123.9l41.8 2.1-18.3-64.3z"/><path fill="#e5a200" d="M115.1 123.5l5.7-32.3-19.2 39 70.6 17.7z"/><path fill="#960038" d="M138.6 76l2.1 16.4-22.8-.7 35.2-9.5z"/><circle r="1" transform="matrix(23.40556 -43.53358 19.43904 10.45128 182.6 152)"/><path fill="#ff1078" d="M102 97h5v17h-5z"/><path fill="#42c99a" d="M80 55h5v27h-5z"/><path d="M116.4 111.9l-2.8 1-6-14.8 2.8-1z"/><circle cx="75" cy="86" r="5" fill="#ffae00"/><path d="M138 100l-3 30-17-9z"/><path fill="#eca700" d="M106.1 124.4l23 13.5-23.3-37.4 2 14.4z"/><path fill="#001714" d="M99 100.6l-4.1 19.1-6.5-8.8 3.4-24.3z"/><path fill="#ab0027" d="M120 58h36v3h-36z"/><path d="M-16 27l94 32-28 103z"/><ellipse cx="119" cy="73" fill="#9c0033" rx="2" ry="19"/><path fill="#d69b00" d="M163.6 142.4l-1.6 1-29.1-2.9 39.1-15.1z"/><path fill="#41915f" d="M172 47.5l-1.7 3.4-19.5-3.1 18.3 28.9z"/><path fill="#7d938b" d="M116 69v29l-27-4z"/><path fill="#98002f" d="M128 45h47v4h-47z"/><path fill="#de003c" d="M148 82h2v37h-2z"/><ellipse cx="110" cy="177" rx="32" ry="43"/><ellipse cx="143" cy="98" fill="#44d685" rx="3" ry="17"/><path fill="#bf0054" d="M109.2 66.9L86.4 64l.4-3 22.8 2.8z"/><path fill="#78ffd8" d="M106.6 120.1l-8.3-3.5 1.1-2.7 8.3 3.5z"/><path fill="#f04" d="M94 90h16v3H94z"/><path fill="#e70049" d="M84.3 78.3l27.6 4.4-.2 1-27.6-4.4z"/><path d="M162.4 68.2l-42 22.6-.7-32.2 34.1 5zM29 93h50v19H29z"/><path fill="#d50054" d="M88 71h23v3H88z"/><path fill="#5ceca3" d="M101 105l-9-2 15-1z"/><path fill="#f8aa00" d="M80 103.6l-1-19 3-.2 1 19z"/><path fill="#4ab284" d="M85 74h33v6H85z"/><path fill="#ffb900" d="M97 128l-24-15 4 14z"/><path fill="#780033" d="M66 56h47v2H66z"/><circle r="1" transform="rotate(12.1 8.8 586.2) scale(92.71249 29.85095)"/><path fill="#a20037" d="M172 46h3v34h-3z"/><path fill="#458466" d="M97 45l-24 1 14 25z"/><path fill="#000100" d="M87 111l12 9-5-32z"/><path fill="#8a0034" d="M138 76h3v39h-3z"/><path fill="#e9a300" d="M90.8 109.4l-12.4 17.4 30.1 8.3-14.8-15.8z"/><path fill="#45aa80" d="M117.1 66.5l-.3 5-37.9-2 .3-5z"/><path d="M141 117l-19 9-5-27z"/><circle r="1" fill="#e1a700" transform="rotate(-122 87.3 14.2) scale(4.63237 4.52253)"/><path fill="#a20043" d="M77 55h2v25h-2z"/><path fill="#e6a700" d="M111 123l6-23 1 22z"/><path fill="#d6006d" d="M136 128l18 3 15-7z"/><path fill="#509167" d="M137 47l-31 7 61 4z"/><path fill="#52d896" d="M110.2 89.2l-22.8-2.4.4-4 22.8 2.4z"/><ellipse cx="110" cy="41" fill="#3d001b" rx="38" ry="3"/><path fill="#cf0073" d="M160 115l11-2-8-2z"/><path fill="#67022e" d="M164.5 78l-13.4-27.2 14.6 19.6-5.4 7.4z"/><path fill="#65b082" d="M130 90l4 8 12-1z"/><path d="M225 50L119 206l152-34z"/><path d="M198.1 15.8l66.5 42.8-130.9 69.5 21.1-1.5z"/><path fill="#4bb27a" d="M112 56h5v37h-5z"/><path d="M-16 181l106-52 115 77z"/><path fill="#64dc97" d="M90 93h15v3H90z"/><path fill="#090006" d="M63 87l18 30-2-20z"/><ellipse cx="147" cy="103" fill="#0b140f" rx="1" ry="22"/><path fill="#ce8f00" d="M169.7 129.9l-11.5 10.4 5 5.8-52-10.8z"/><path d="M102.9 97.2l-1.7 3.1-4.5 2.7-1.1-6.1z"/><path fill="#ed0058" d="M163 80h10v2h-10z"/><circle r="1" transform="matrix(-61.22847 8.92143 -15.18877 -104.24173 9 95)"/><path fill="#020000" d="M149.6 63.5l-29.5 3.2 16.9 40.2h-14z"/><path fill="#ec0062" d="M118.8 88.7l16.6 3.6-.2 1-16.6-3.6z"/><path fill="#c8b000" d="M171 126.3l-6.9-.7.8-8 7 .8z"/><path fill="#ffb500" d="M88.7 97.1l-7.5 18.5-1.9-.7 7.5-18.5z"/><path fill="#ff0089" d="M72.6 115.6l-.6-.8 5.4-4.4.6.8z"/><path fill="#030800" d="M83.4 100.3l-56.2 50.9 68-62.7-13.3-3.9z"/><path fill="#b3004d" d="M64.6 42.2l52.8 4.6v1l-52.8-4.6z"/><path d="M153 69h9v39h-9z"/></g></g></svg>