<svg xmlns="http://www.w3.org/2000/svg" viewBox="0 0 800 1067"><defs/><filter id="a"><feGaussianBlur stdDeviation="12"/></filter><rect width="100%" height="100%" fill="#59412e"/><g filter="url(#a)"><g fill-opacity=".5" transform="translate(2 2) scale(4.16797)"><circle r="1" fill="#fff" transform="matrix(6.93967 166.63893 -112.71382 4.69396 92 79.7)"/><ellipse cx="158" cy="37" fill="#fff" rx="191" ry="89"/><ellipse cx="45" cy="201" fill="#6d552f" rx="32" ry="105"/><path fill="#fbfbf5" d="M25-16v181l-41-52z"/><circle r="1" fill="#9c895f" transform="matrix(11.48443 26.99748 -71.65173 30.47987 105.6 230.2)"/><path fill="#9b8263" d="M77 210L76 83 19 95z"/><circle r="1" fill="#eef5f4" transform="rotate(-174 64.6 21.5) scale(128.74878 46.15447)"/><circle r="1" fill="#231800" transform="matrix(54.54105 5.2054 -.63841 6.68913 23.3 196.7)"/><circle r="1" fill="#000e0a" transform="matrix(16.01015 -.94208 3.45363 58.69282 191 226.2)"/><path fill="#e9dba6" d="M77 120h18v136H77z"/><path fill="#ecf0ef" d="M14 142.5l-3.5-6 51.4-31 3.6 6z"/><circle r="1" fill="#fffde1" transform="matrix(-14.85876 .85363 -1.68345 -29.30316 186.4 128)"/><path fill="#baae87" d="M117 100l60 24-85 147z"/><circle r="1" transform="matrix(16.61759 -3.74493 .77732 3.44924 61.6 123.8)"/><path fill="#cdcdcb" d="M67.9 129.3l-9 1.8-38.1 32.1 40-5.4z"/><path fill="#532e13" d="M67.6 91.1l5.3-10.5-29.1 18.3-24.9 29.2z"/><circle r="1" fill="#666628" transform="rotate(94.1 -33.6 137.7) scale(26.00894 5.29156)"/><ellipse cx="148" cy="135" fill="#fdf8ec" rx="4" ry="86"/><circle r="1" fill="#172f1c" transform="matrix(-11.85141 67.90553 -12.61697 -2.20201 6.3 241.3)"/><path fill="#23221e" d="M114.4 241.9l5.9-15.1 86.7 21-32.3 23.2z"/><path fill="#edf4f5" d="M-16 160l28 22-20 16z"/><path fill="#371000" d="M69.7 228.1l-1.6 15-29.8-3.2 1.6-15z"/><path fill="#acb0a0" d="M19.8 202.6l4.9 40.9 26.1 21-16.2-22.9z"/><path fill="#edeae4" d="M78.3 77.4L-16 133.3l52.1-42.8L-16 33.8z"/><path fill="#190000" d="M30 162h13v14H30z"/><path fill="#877f62" d="M158 156h20v73h-20z"/><path fill="#412110" d="M28 132h23v15H28z"/><ellipse cx="107" cy="226" fill="#48352b" rx="3" ry="31"/><path fill="#908465" d="M147 149l-28-43-1 100z"/><path fill="#edf5f3" d="M20 213h15l7 10z"/><path fill="#d0be9f" d="M82.6 186.6l-54.7-12.2 5.8 19.3 46.6-10.8z"/><ellipse cx="113" cy="164" fill="#f5ebcf" rx="3" ry="113"/><path fill="#63553b" d="M135 186h9v50h-9z"/><path fill="#d0d8dc" d="M50 98h17v20H50z"/><path fill="#cabea0" d="M177 206.2L166.2 194l-10.5-21.8 21-1.4z"/><path fill="#cfd4ea" d="M104.7 233.1L99.9 271l-8.1-69.8-1.5 21.7z"/><path fill="#565b3c" d="M37 94l-14-7 3 11z"/><path fill="#121507" d="M2.5 235.8L57 263.5l-5.4 10.7L-3 246.5z"/><path fill="#aaa7a6" d="M0 134h26v39H0z"/><path fill="#4b200b" d="M30 119l19-12-23-1z"/><path fill="#9e631a" d="M67 169h10v71H67z"/><path fill="#e4d5ae" d="M130 128l-14 22 9 21z"/><path fill="#c7c3ba" d="M129 160h5v87h-5z"/><ellipse cx="159" cy="192" fill="#524537" rx="3" ry="57"/><circle r="1" fill="#f1e8dc" transform="rotate(-81.9 68.1 48) scale(35.68451 12.8492)"/><circle r="1" fill="#11130c" transform="matrix(48.80378 -63.2314 18.12143 13.98663 189 240.9)"/><ellipse cx="126" cy="235" fill="#6d5a43" rx="11" ry="17"/><ellipse cx="79" cy="178" fill="#f5fcff" rx="4" ry="20"/><path fill="#4a2c17" d="M56.9 192L48 211l-10.9-5 8.9-19z"/><path fill="#d1a845" d="M77 197h13v40H77z"/><path fill="#98885a" d="M83 83h3v41h-3z"/><ellipse cx="164" cy="138" fill="#e0dcce" rx="2" ry="77"/><path fill="#605551" d="M140 113h3v65h-3z"/><path fill="#eaf4ff" d="M77 238.5h6v33h-6z"/><path fill="#f9f5e4" d="M144.8 137.9l-15-5.3 27.9.9-2.7 18.8z"/><path fill="#746d57" d="M164.8 161.9l35 1.2-.6 19-35-1.2z"/><path fill="#a39884" d="M144 209h8v39h-8z"/><path fill="#4d3829" d="M119 162h3v46h-3z"/><circle r="1" fill="#bbb9b4" transform="matrix(-4.19814 6.224 -12.1942 -8.2251 55.4 145.5)"/><path fill="#f5f3e1" d="M105.7 126.7l-5.1-50.3-10.7 52.9 45.7 5.5z"/><circle r="1" fill="#e9d9ae" transform="matrix(.41328 1.19349 -42.22915 14.62316 137 184.5)"/><ellipse cx="147" fill="#b5cbd8" rx="47" ry="15"/><ellipse cx="107" cy="151" fill="#59472a" rx="2" ry="24"/><path fill="#ccab62" d="M110.3 214.9l-7.6 21.7 18.4-27.3-11-25.1z"/><path fill="#4c4a2c" d="M0 191h33v22H0z"/><path fill="#908773" d="M104 97h7v17h-7z"/><path fill="#756d67" d="M174 126l-9 11-11-21z"/><ellipse cx="133" cy="119" fill="#f1f5f6" rx="3" ry="17"/><path fill="#e5dcd2" d="M46.9 115.2l-3.8 15.9-56.8 8.9 56.9-13.9z"/><path fill="#8a8471" d="M125.5 112.8l-12.6-14 17.5 8.5 1.8 46z"/><path fill="#c0d0da" d="M-15.5 7l58.3-45.5L67.5-7 9.2 38.5z"/><path fill="#4f5731" d="M96 166h9v27h-9z"/><ellipse cx="84" cy="194" fill="#917736" rx="1" ry="113"/><path fill="#a77f40" d="M78 158l-3-77.1-9.6 13.7 7.4 67.3z"/><path fill="#fff" d="M77 77h7v42h-7z"/><path fill="#d5d4d2" d="M32 241l14 13-22-9z"/><path fill="#ab8d6a" d="M53 219l-16-39 39 51z"/><path fill="#321c0a" d="M77 121l-34 14 11-16z"/><path fill="#e5dabf" d="M145 186l1 24 16-46z"/><path fill="#391f11" d="M48 210L9 184l43 12z"/><circle r="1" fill="#e7e2d8" transform="matrix(-57.04416 -10.1875 2.86428 -16.03829 155.5 96.2)"/><path fill="#70644d" d="M169.5 192.2l10.2 44.9-26.3-8.9-2.3-23.7z"/><path fill="#635d52" d="M97.3 270.8l-79-48.1L30.5 271l-5.1-30z"/><path fill="#b5aea0" d="M61.4 188.9l-13.9-2 3.1-21.8 13.9 2z"/><circle r="1" fill="#e0ddd6" transform="rotate(-97.3 74.7 40.5) scale(2.89133 13.43382)"/><path fill="#e4d4a5" d="M77 112l29 39-25 5z"/><circle r="1" fill="#6f724b" transform="matrix(1.23388 3.23868 -4.47785 1.70599 25.5 126.2)"/><path fill="#3d2914" d="M127 169h3v16h-3z"/><path fill="#fff" d="M128 186h4v24h-4z"/><path fill="#6c6a56" d="M18.1 157.6l-24.3 2.7 47.6-4.4-18.1-5.6z"/><ellipse cx="120" cy="128" fill="#6c5c51" rx="2" ry="26"/><path fill="#f9f3eb" d="M172 113h20v20h-20z"/><circle r="1" fill="#f5f2f0" transform="rotate(-50.9 118.9 -177.6) scale(66.87381 8.74797)"/><path fill="#6c3a09" d="M41.5 155.8l25 1.4v1l-25-1.4z"/><path fill="#331d12" d="M41.6 224l-1.6-1.4-14.8.3 26.7 27z"/><path fill="#020000" d="M45.3 191.4L68 201.9l-1.3 2.7L44 194.1z"/><ellipse cx="89" cy="253" fill="#807a73" rx="7" ry="22"/><path fill="#b6b8b4" d="M45.1 192.8l-4.2.9-26.5-8.2 18.1-.8z"/><path fill="#6d4a2e" d="M69.2 86l-5.8-.7L32.8 106l11.3 1.9z"/><path fill="#f6f6f5" d="M119 157h17v5h-17z"/></g></g></svg>