<svg xmlns="http://www.w3.org/2000/svg" viewBox="0 0 600 900"><defs/><filter id="a"><feGaussianBlur stdDeviation="12"/></filter><rect width="100%" height="100%" fill="#5f4535"/><g filter="url(#a)"><g fill-opacity=".5" transform="translate(1.8 1.8) scale(3.51563)"><circle cx="75" cy="136" r="168" fill="#fff"/><circle r="1" fill="#fff" transform="matrix(-20.9144 -58.73446 159.20771 -56.69132 64.5 30.7)"/><circle r="1" fill="#632a00" transform="rotate(-101.1 102.2 35.7) scale(56.51445 48.24622)"/><circle r="1" fill="#fff" transform="rotate(-68.2 208.7 64.4) scale(42.95521 168.36735)"/><ellipse cx="152" cy="164" fill="#f4f7f5" rx="26" ry="145"/><circle r="1" fill="#fff" transform="matrix(33.17893 8.88056 -41.3662 154.54944 21.8 57.5)"/><path fill="#5c3300" d="M153 171l-135-8 116-39z"/><path fill="#5a4739" d="M51 74h21v131H51z"/><circle r="1" fill="#f9ffff" transform="matrix(-72.39637 -103.77776 28.00696 -19.53793 11.7 215.3)"/><circle r="1" fill="#d5dce6" transform="matrix(-1.16763 38.39003 -12.058 -.36674 44.2 92.6)"/><path d="M79 148h16v34H79z"/><path fill="#d0972c" d="M72 70h28v78H72z"/><circle r="1" fill="#8d7362" transform="matrix(3.00924 12.46914 -30.59516 7.38368 95 202)"/><path fill="#090000" d="M112 72h8v26h-8z"/><ellipse cx="145" cy="79" fill="#dadcd9" rx="25" ry="60"/><circle r="1" fill="#eeecf0" transform="matrix(-43.62144 72.1435 -18.82075 -11.37993 157 199.8)"/><path fill="#412c22" d="M42 143l-4.3 24.5-13.8-2.4 4.4-24.6z"/><circle r="1" fill="#33170c" transform="matrix(6.00487 -.99002 4.40967 26.74633 118 172.6)"/><path fill="#efbd51" d="M73.4 141l-9.6 30.2 10.2 3.1L87.2 125z"/><circle r="1" fill="#f5faff" transform="matrix(-23.70468 -2.285 9.48665 -98.41474 1 129.2)"/><path fill="#331302" d="M70 144l-18 57-1-58z"/><path fill="#d2d8e2" d="M78.9-16l46 32.1-17.3 91.5-42-101.2z"/><path fill="#351d17" d="M58.1 79.3l4.3-.8 2.1 15.8-11.4 16.6z"/><ellipse cx="100" cy="173" fill="#fabf60" rx="4" ry="27"/><path fill="#fff" d="M64 65h5v29h-5z"/><path fill="#4a2317" d="M136.2 150.5l16.1 8.5-8.5 8.1-12-1.2z"/><ellipse cx="88" cy="181" fill="#5f2d00" rx="13" ry="15"/><path fill="#ecab0f" d="M43 123h5v43h-5z"/><path fill="#e7ddd8" d="M66 159h3v45h-3z"/><path d="M63 190h2v18h-2z"/><path fill="#614539" d="M123.6 200.3l-10.6.2-6-26.8-2.9 41z"/><ellipse cx="35" cy="90" fill="#d8dce5" rx="19" ry="33"/><path fill="#c87e03" d="M73 126l33 29-22-70z"/><path fill="#d1dae8" d="M80.6 98.4l5-114.4-46.3 65.2 40.5 41z"/><path fill="#563220" d="M90 71l-11-2 7-6z"/><circle r="1" fill="#e0e1e9" transform="rotate(84.2 -99.5 164.6) scale(19.24918 167.54693)"/><ellipse cx="120" cy="172" fill="#5c3215" rx="26" ry="2"/><path fill="#473836" d="M125 108l-29-5 26-9z"/><path d="M92.8 151.6l-.6 29-11-.2.6-29z"/><circle r="1" fill="#fbfdfd" transform="matrix(-15.7385 -8.4692 35.24406 -65.49488 31.2 32.1)"/><path fill="#dddadf" d="M94.3 213.4l-22-1.9 1.4-15 22 2z"/><circle r="1" fill="#d4d4d3" transform="rotate(-100.4 106.8 -29.1) scale(92.34645 36.99343)"/><path fill="#ece8f1" d="M109 162v5l-12-7z"/><path fill="#52280c" d="M81 170h3v46h-3z"/><ellipse cx="95" cy="204" fill="#4e2b1a" rx="2" ry="14"/><path fill="#e8edf8" d="M12 175h38v73H12z"/><path fill="#dcc9b8" d="M127.3 159.7l-.7 51.7-3-37.3 13-3.6z"/><ellipse cx="100" cy="215" fill="#dbd6db" rx="3" ry="34"/><ellipse cx="51" cy="123" fill="#c7b999" rx="10" ry="5"/><circle cx="116" cy="123" r="4" fill="#d7e1e9"/><path fill="#2d0000" d="M69 169h2v47h-2z"/><ellipse cx="107" cy="75" fill="#e2dfd9" rx="5" ry="28"/><ellipse cx="59" cy="201" rx="7" ry="2"/><path fill="#503a32" d="M20 157h16v11H20z"/><path fill="#5e3937" d="M74 223h28v2H74z"/><path fill="#babdd4" d="M65.5 167.5l-1.7-6.8 8.7-2.2 1.7 6.8z"/><circle r="1" fill="#b19d81" transform="matrix(-2.25628 18.11448 -3.30876 -.41213 72.3 115.1)"/><circle r="1" fill="#c1c9d8" transform="rotate(-153.2 3.1 6) scale(13.00773 57.76739)"/><path fill="#f5b73b" d="M89 124l12 22-29-3z"/><path fill="#af7005" d="M89.5 199l6.3-16.1-8.2.5-23.8-18z"/><path fill="#968b91" d="M96.5 112.3l4.9 23.8-.1-60.9-12.9-5.7z"/><path fill="#522f0f" d="M60.3 104.2l25.4 2.5 37.2-4.2-36.5-.2z"/><ellipse cx="109" cy="200" fill="#efdfd2" rx="1" ry="33"/><path fill="#815314" d="M89.1 114.1l11.6-4.4-24.5 26-46.3 28.1z"/><path fill="#f6f6f6" d="M171 154l-27-12 32 66z"/><path fill="#776f69" d="M58 118l-8-1.5L54 96l8 1.6z"/><path fill="#fff" d="M28.9 153.2L-16 181.7l10.9-23.3 26.6-14.7z"/><ellipse cx="109" cy="131" fill="#3a1c08" rx="2" ry="29"/><path fill="#c2bbb3" d="M125 112h21v22h-21z"/><circle r="1" fill="#c6c3c9" transform="matrix(32.03385 -13.50187 11.19626 26.56368 137.4 7)"/><path fill="#d5d7de" d="M60 33l-9 84-67 37z"/><path fill="#9f8151" d="M31 137l17 39-4-59z"/><path fill="#27100c" d="M24 172h35v2H24z"/><path fill="#e6e1df" d="M126 271l2-97 57-5z"/><path fill="#a77003" d="M45 122l-6 42 20-32z"/><ellipse cx="117" cy="86" fill="#3d0d00" rx="3" ry="10"/><path fill="#f99700" d="M127 137h3v26h-3z"/><path fill="#fdfdff" d="M113 204.8l.3-2 11.8 2.4-.4 2z"/><circle r="1" fill="#8d736d" transform="rotate(68.4 -106.6 192.1) scale(1 13.11843)"/><path fill="#552b02" d="M62 111h48v3H62z"/><path fill="#fff" d="M135.7 170.4l10.3-3.8.3 1-10.3 3.8z"/><path fill="#715447" d="M143 144l-11 15-3-39z"/><ellipse cx="102" cy="122" fill="#b9afa4" rx="4" ry="9"/><path fill="#3a1c13" d="M56 78h7v17h-7z"/><path fill="#240b02" d="M110 199h15v4h-15z"/><path fill="#d5d1cf" d="M100 209.5l-17.3-15.9 1.5 25.9 17.7-22.9z"/><path fill="#dcd8d6" d="M72 181h4v53h-4z"/><path fill="#5b3d26" d="M50 131h7v65h-7z"/><path fill="#412409" d="M52 106h2v52h-2z"/><path fill="#c8d2eb" d="M88.3 86.4L86 77.7l7.7-2 2.3 8.6z"/><path fill="#b5b8c5" d="M47 203h16v18H47z"/><path fill="#feffff" d="M143 148h12v6h-12z"/><path fill="#969297" d="M115 98l8 14-13 1z"/><path fill="#9d6100" d="M64.8 187.1l27.1-57.5L77 164.3l7.3 12.8z"/><path fill="#6c401c" d="M85.7 120l37.6 26.4-37.5-20.9.1-30.6z"/><path fill="#836550" d="M73 86h29v10H73z"/><path fill="#928d95" d="M74 111.9l-3.5-15.8-.7-18.5 9.6-8.1z"/><path fill="#e1dbda" d="M185 46l-66 12 4 46z"/><ellipse cx="81" cy="194" fill="#300902" rx="1" ry="23"/><path fill="#311706" d="M101 143l18 28-7-25z"/></g></g></svg>