<svg xmlns="http://www.w3.org/2000/svg" viewBox="0 0 1067 800"><defs/><filter id="a"><feGaussianBlur stdDeviation="12"/></filter><rect width="100%" height="100%" fill="#3a3462"/><g filter="url(#a)"><g fill-opacity=".5" transform="translate(2 2) scale(4.16797)"><circle r="1" fill="#fff" transform="matrix(-148.54659 -19.12464 12.88461 -100.07847 127.3 46.7)"/><circle r="1" fill="#feffe6" transform="matrix(-2.24542 85.74926 -149.27917 -3.90901 141.4 28.9)"/><path fill="#fff" d="M138.4 69.5l8.2 16-155 79-8.2-16z"/><ellipse cx="170" cy="82" fill="#180000" rx="18" ry="16"/><ellipse cx="76" cy="61" fill="#311323" rx="26" ry="14"/><circle cx="84" cy="165" r="46" fill="#3e2f00"/><ellipse cx="112" cy="186" fill="#1b1500" rx="255" ry="28"/><circle r="1" fill="#241100" transform="matrix(53.62904 -7.10058 1.47927 11.1726 18 110.9)"/><circle r="1" fill="#fff" transform="matrix(11.17728 91.50696 -35.54042 4.34115 123.8 13.7)"/><ellipse cx="169" cy="130" fill="#9fa974" rx="69" ry="28"/><circle r="1" fill="#332409" transform="matrix(10.46791 -.99012 3.83523 40.5475 232.7 142.3)"/><path fill="#fff" d="M-3.7 159.6l-6.4-12.5 83.8-42.7 6.4 12.5zM232 8h24v97h-24z"/><circle r="1" fill="#849589" transform="rotate(-44.6 123.8 -250.5) scale(35.47974 19.00495)"/><ellipse cx="84" cy="32" fill="#fff" rx="40" ry="18"/><circle r="1" fill="#91b0a4" transform="matrix(-21.80969 35.59017 -19.41486 -11.89744 8.5 65.9)"/><ellipse cx="139" cy="7" fill="#fff" rx="46" ry="20"/><path fill="#4a2f00" d="M166.7 55.8l26 36.9-47.7-1.8 35.7-20.6z"/><ellipse cx="72" cy="70" fill="#483303" rx="29" ry="4"/><path fill="#979e84" d="M219 161l1-48-113 39z"/><ellipse cx="178" cy="190" fill="#170f00" rx="59" ry="31"/><path fill="#fff" d="M69 74h51v25H69z"/><circle r="1" fill="#fff" transform="matrix(39.21241 -64.17135 10.63348 6.49767 5.4 12.5)"/><circle r="1" fill="#59484b" transform="matrix(-19.99494 -30.81342 22.65608 -14.70162 91.8 149.5)"/><ellipse cx="18" cy="111" fill="#3c3423" rx="33" ry="13"/><ellipse cx="152" cy="50" fill="#c3cdca" rx="15" ry="31"/><path fill="#02004e" d="M87 49h14v9H87z"/><ellipse cx="250" cy="134" fill="#51471e" rx="14" ry="29"/><path fill="#c2c6be" d="M30 0h25v99H30z"/><circle r="1" fill="#fff" transform="matrix(-14.62856 -3.9883 10.779 -39.53602 115 78.7)"/><path fill="#705949" d="M50.6 101.1L-16 145.7l94.9-43.1 4.6-5.3z"/><path fill="#fffefb" d="M77.2 48.5L215.5-16 45.4 34.5l50.3 34z"/><path fill="#c7d1c8" d="M271 53.8L111 23.2l68.8 34.4-1.3 23z"/><circle r="1" fill="#fff0e0" transform="matrix(-48.97248 22.2149 -3.78565 -8.34542 7.2 145.4)"/><path fill="#c6cbc7" d="M108.7 129.3l55-58.2L209.2-16 91.5 123.9z"/><path fill="#6d7b77" d="M240.5-15.5l7 16.6-34 14.4-7-16.6z"/><path fill="#7a6851" d="M42.3 138.5l55.3-31.3-65.5 53L-16 169z"/><circle cx="239" cy="87" r="14" fill="#fff"/><path fill="#593e16" d="M192.4 92l-42.2-.1 22.2-30.8-4.3-.9z"/><path fill="#6f6666" d="M221 95l41 22-33 14z"/><path fill="#101350" d="M68 50l-15-1 5 8z"/><path fill="#f1faf6" d="M227.2 23.1l3.4 23L271-10l-55.2 31z"/><circle r="1" fill="#2e281b" transform="rotate(-36.1 392 -304.6) scale(28.57164 45.24219)"/><circle r="1" fill="#36302b" transform="matrix(-1.11404 -22.77811 46.56815 -2.27756 54.5 167)"/><path fill="#79a87c" d="M223 45h7v26h-7z"/><path fill="#1d1500" d="M124 173l41-15-34-4z"/><path fill="#f9fdfe" d="M153 43l-16 23H83z"/><path fill="#94aba8" d="M-16 43.3l33.5-3.2 9.3 11.2-33.3 66.2z"/><path fill="#fff" d="M121 88l8-59-59 91z"/><circle r="1" fill="#fff" transform="matrix(8.92806 4.66748 -19.7002 37.683 0 20.9)"/><path fill="#fff" d="M80 4h85v22H80z"/><path fill="#3a332d" d="M65 100l-51-2-23 41z"/><ellipse cx="176" cy="32" fill="#aeb0a0" rx="42" ry="8"/><path fill="#e2d5cf" d="M42 34h12v50H42z"/><path fill="#afb1a5" d="M116 104h66v25h-66z"/><path fill="#babeaf" d="M18 62l47 16-81 26z"/><circle r="1" fill="#b0c1c4" transform="matrix(47.72095 -26.0183 5.88544 10.79465 52.2 10.7)"/><path fill="#dcdfde" d="M224 40l-43 37-6-34z"/><path fill="#6c2600" d="M79 66l-3 7.3-13-5.2 3-7.4z"/><path fill="#8d8880" d="M84 118.7l5.4-8.4 38.6 25-5.4 8.4z"/><path fill="#c7c3a1" d="M202.4 98.9l-46.2-3.1 9.1 12 17.2-15.9z"/><ellipse cx="76" cy="71" fill="#29290f" rx="25" ry="2"/><path fill="#fcfffb" d="M271 19.7l-36.7 88.2 30.5-4.6-22.6-7z"/><path fill="#baa8ae" d="M78.5 57.3l16.1 6.5-10 7.7L51 31.9z"/><path fill="#372000" d="M165 83h15v12h-15z"/><path fill="#f0faf0" d="M125 88h25v16h-25z"/><circle cx="87" cy="56" r="7" fill="#353271"/><path fill="#d9dfde" d="M160 32h3v47h-3z"/><ellipse cx="14" cy="95" fill="#979b7f" rx="45" ry="4"/><ellipse cx="53" cy="185" fill="#2a2621" rx="89" ry="13"/><path fill="#c7d1da" d="M210 20L179-2l-6 26z"/><path fill="#a5998c" d="M49 78h33v3H49z"/><path fill="#fffffe" d="M100 37h35v22h-35z"/><path fill="#9e5800" d="M177 83l-6-18-5 16z"/><path fill="#f3eae1" d="M73.9 99.2l31.2-27.3-67.2 16.6L98 99.2z"/><path fill="#706a5e" d="M219 97h13v6h-13z"/><path fill="#dfe4d7" d="M192.4 102.2l15.3-22.6 12.1 26.8-59.1-2.8z"/><path fill="#4c4667" d="M74 59l-21-4 1-6z"/><circle cx="202" cy="143" r="19" fill="#888e7e"/><path fill="#d4dcdc" d="M236.7 33.5L220.3 99 271 43.2V31.7z"/><path fill="#47393b" d="M229 117.8l-4.6 2.1-4.9 34.5 38.4-12.6z"/><path fill="#889382" d="M213 32l19-9-47 3z"/><path fill="#473b20" d="M80.8 68.2l19-.1.7 6.9L80 69.7z"/><circle r="1" fill="#7c9596" transform="matrix(1.41776 -11.43597 10.10734 1.25305 2.5 59.2)"/><path fill="#3a3938" d="M191 88l-4-6 1 10z"/><path fill="#c8becd" d="M60.1 55.1l3.7 6.3L53.2 59 37.5 70.9z"/><circle r="1" fill="#a5aba0" transform="matrix(.44083 6.81688 -19.0516 1.23201 62.4 0)"/><path fill="#c0c3bc" d="M193.8 85l-5.8-2.4-25.3-33.1 48.1 28.3z"/><path fill="#dacec0" d="M88.9 80.6l.5-7.2L55 74.5 24.5 64.4z"/><ellipse cx="137" cy="9" fill="#fff" rx="35" ry="17"/><path fill="#987a72" d="M54.5 114.8L87 99.1l-25.1.7 2.4 4.6z"/><path fill="#999e8d" d="M158 107h66v21h-66z"/><path fill="#483d3b" d="M68 128l41 12-114 30z"/><path fill="#b3b199" d="M157.5 89.3l-3.4 10.6 31.1-4-4.2 22.7z"/><path fill="#a9afac" d="M237 112l-7-12 22 5z"/><ellipse cx="222" cy="69" fill="#7eab8b" rx="4" ry="6"/><path fill="#b26a2d" d="M84 72.8l-4.5-10.1 5.9 1.4-16.8-4.5z"/><path fill="#746c70" d="M271 101.3l-23.9-3.7 19.7-5.9-29.4 32.5z"/><path fill="#a8a29c" d="M112 99h11v6h-11z"/><path fill="#a18882" d="M94.8 109.9l-47.9 30.9-20.1 4.7 37.8-21.2z"/></g></g></svg>