<svg xmlns="http://www.w3.org/2000/svg" viewBox="0 0 1112 800"><defs/><filter id="a"><feGaussianBlur stdDeviation="12"/></filter><rect width="100%" height="100%" fill="#6a4335"/><g filter="url(#a)"><g fill-opacity=".5" transform="translate(2.2 2.2) scale(4.34375)"><circle cx="112" cy="85" r="176" fill="#fff"/><path fill="#fff" d="M259 199l-275-23 282-77z"/><ellipse cx="127" cy="26" fill="#fff" rx="254" ry="39"/><circle r="1" fill="#774300" transform="rotate(179.9 73 44.3) scale(33.76188 66.609)"/><circle r="1" fill="#fff" transform="rotate(-50.4 204.4 16) scale(54.56533 163.73187)"/><circle r="1" fill="#a67209" transform="rotate(162.6 34 55.2) scale(67.12212 14.98387)"/><circle r="1" fill="#fff" transform="matrix(2.38218 36.5379 -254.45976 16.59012 101.3 20.2)"/><circle r="1" fill="#fff" transform="rotate(-171.8 130.6 34.3) scale(20.682 197.25447)"/><ellipse cx="146" cy="58" fill="#875f22" rx="26" ry="31"/><circle r="1" fill="#fff" transform="matrix(30.94132 -47.43798 40.98813 26.73442 204.5 175.2)"/><ellipse cx="189" cy="92" fill="#bd8b25" rx="52" ry="25"/><path fill="#fff" d="M-1.2 197.7L-7.4 127l122.6-10.7 6.2 70.7z"/><circle r="1" fill="#fff" transform="matrix(-28.5921 -75.66678 25.86077 -9.77197 246.5 40.4)"/><circle r="1" fill="#fff" transform="matrix(10.66088 24.75428 -16.39509 7.06084 14.2 89.9)"/><path fill="#9e8053" d="M32 67h85v51H32z"/><ellipse cx="83" cy="90" fill="#ffc50d" rx="33" ry="10"/><circle r="1" fill="#fff" transform="matrix(-53.652 -6.58764 4.51988 -36.81148 69.3 30.8)"/><circle cx="203" cy="24" r="41" fill="#fff"/><path fill="#6b637a" d="M170.6 104.7l51.1 2.5L236.9 76l-8.6 49z"/><path fill="#ffbd00" d="M179 81h42v20h-42z"/><path fill="#3d2d36" d="M167 145l-22 13-22-19z"/><circle r="1" fill="#fff" transform="matrix(10.21136 21.79892 -80.15441 37.54707 203.4 156)"/><ellipse cx="149" cy="90" fill="#dd9d1a" rx="23" ry="24"/><path fill="#695972" d="M33.8 123.5l67.6-11-54.3-12.9-36.3 23z"/><path fill="#342945" d="M136 28l-18 22 40-16z"/><ellipse cx="141" cy="7" fill="#fdffff" rx="255" ry="23"/><path fill="#674843" d="M24 61h21v12H24z"/><path fill="#775021" d="M114 84l43-2-29 65z"/><circle r="1" fill="#665d73" transform="matrix(-19.24144 -24.23486 4.14915 -3.29425 169.7 52.7)"/><ellipse cx="247" cy="86" fill="#fff" rx="9" ry="69"/><circle r="1" fill="#fdfffe" transform="matrix(-5.78843 -17.87343 44.5806 -14.43773 76.5 142)"/><path fill="#847986" d="M51.4 66.7l-19.6 9.2 72.2 7.5 35.7-15.5z"/><path fill="#d8e1fc" d="M196.2 81.7l-20.4-3.2 11.7-2.4 28.4 1z"/><ellipse cx="118" cy="114" fill="#614c4b" rx="94" ry="3"/><path fill="#ffffe9" d="M60 78h54v3H60z"/><ellipse cx="6" cy="80" fill="#f6f9ff" rx="7" ry="174"/><path fill="#ce8d0d" d="M148.5 143l11.8-12.1-26-56.3 6.1 60.4z"/><path fill="#6b637a" d="M157 65l15 15 50-13z"/><path fill="#d0c5bf" d="M18.5 97.1l82.6 14.3-48.6 1.8 52.4-10.3z"/><path fill="#574b62" d="M235 103l2-22-20-13z"/><path fill="#ffe171" d="M163.2 52.7l-13.4-15.9-2.5 14.7 6.3 10z"/><ellipse cx="199" cy="104" fill="#fff" rx="20" ry="2"/><path fill="#675a60" d="M135.2 158.4l-16-32.1 39.1 28.8 26.3-39.6z"/><ellipse cx="96" cy="108" fill="#4c2d2c" rx="40" ry="2"/><path fill="#fffffa" d="M255 127l-97 72 28-84z"/><ellipse cx="96" cy="51" fill="#f2f9ff" rx="25" ry="16"/><path fill="#fff" d="M181 16h32v50h-32z"/><path fill="#57352a" d="M40 74h83v3H40z"/><path fill="#fff" d="M215.3 110.3l-.8 5-9.8-1.6.8-5z"/><path fill="#c2c7e0" d="M18.4 67.2l35.2 32.2-32.1 12.9 28.8-27.2z"/><path fill="#f8f7f7" d="M210.6 171.1l-181.2-40-45.4 66.5L271 182z"/><path fill="#e0e6f6" d="M177 71h39v3h-39z"/><path fill="#6c493e" d="M15 61h24v8H15z"/><path fill="#31110e" d="M118.5 69l-57 3v-1l57-3z"/><path fill="#ffebbc" d="M152.4 129.3l8.3 3.5-5.1 12-8.3-3.6z"/><path fill="#fed25b" d="M167.8 105.3l-11.5-3.5 5.9-19.1 11.5 3.5z"/><path fill="#623a2e" d="M44 122l-34-1 11-7z"/><circle r="1" fill="#fff" transform="matrix(-13.55314 -40.50608 15.49896 -5.18588 244.6 58)"/><path fill="#5c4f4d" d="M184.7 69.6l19.1 3.2 22.5-10.6-15.9 2.8z"/><path fill="#573935" d="M141.4 28.6l3.2-3.9 20 16.7-3.2 3.9z"/><path fill="#998a8f" d="M27.7 87.8L54.2 62l-5.8 16-11.2 47z"/><path fill="#573f3a" d="M229.4 118.1l-.3 2-44.5-6.2.3-2z"/><path fill="#544f68" d="M120 45h13v20h-13z"/><path fill="#f4f7fe" d="M35.1 77.4L-16 178.2V53.6l54 23.2z"/><path fill="#795c4e" d="M161.2 122.9l17.8.2 4.4-37.3-8.2 1z"/><circle r="1" fill="#422e3a" transform="matrix(-20.36 .24876 -.01238 -1.01342 211.5 76)"/><ellipse cx="72" cy="92" fill="#eaab23" rx="8" ry="15"/><path fill="#cc8d05" d="M133 59.9L145.6 40l12.7 27-9.9-10z"/><path fill="#cecbcc" d="M132 113l-10-4 7 9z"/><path fill="#f3feff" d="M140 50l-5.4-2.7L138 40l5.3 2.6z"/><path fill="#f6f9fe" d="M38.9 107.9l-22.6 5.3L9.2 51-3.5 65.4z"/><path fill="#d1d1dc" d="M61 72h63v2H61z"/><path fill="#feecbd" d="M187.7 77.8l32.6 2.6 2.5 19.5 3.5-13.9z"/><path fill="#f9fcff" d="M234 54.3L89.6-16-16 73l131.6-55.5z"/><path fill="#d0c9c9" d="M56 104h57v3H56z"/><ellipse cx="204" cy="110" fill="#d6d8de" rx="28" ry="2"/><path fill="#604335" d="M118 114h43v10h-43z"/><path fill="#c5a980" d="M149 120.7l31.3-13.3.7 1.9-31.3 13.3z"/><path fill="#d6930b" d="M67.1 101.2l28.3-5 19.7-19.9 1 25.8z"/><path fill="#54383c" d="M37 76h17v6H37z"/><path fill="#341410" d="M217.8 111.4l-2.3-3.3 10.7-7.5 2.3 3.3z"/><ellipse cx="222" cy="65" fill="#56433d" rx="7" ry="4"/><path fill="#6a5658" d="M240 82l-3 16-17 12z"/><ellipse cx="62" cy="33" fill="#f7f9ff" rx="54" ry="31"/><path fill="#d1d4e7" d="M165 52h3v17h-3z"/><path fill="#c9c7d2" d="M59.7 86.6l11-3.7-9.3-.9-55.2 4.3z"/><path fill="#bab7b9" d="M117.7 32.1l11.9 33.2-10 14.2 12.9-9.7z"/><path fill="#9d877f" d="M58 63H20l36 14z"/><path fill="#f6f6ec" d="M46 114h7v4h-7z"/><path fill="#f1b128" d="M183 87l33-11 2 30z"/><ellipse cx="147" cy="62" fill="#715036" rx="23" ry="5"/><ellipse cx="86" cy="114" fill="#290a02" rx="27" ry="1"/><path fill="#fffffd" d="M271 97.7l-48.4 46.1 9.9-37.9L271 73z"/><path fill="#6e5c5a" d="M144 157l28-20 6-30z"/><path fill="#49373a" d="M117 60h4v25h-4z"/><circle cx="174" cy="126" r="3" fill="#fff"/><path fill="#ebeaea" d="M122.6 125.1l-6.4 31.8 3.9 11.5-54.3-52.3z"/><path fill="#ffc32b" d="M162 126l-13-2 4 12z"/><path fill="#3b2421" d="M130 133l-7 5 22 12z"/><path fill="#64423d" d="M39.5 111.1l-26 10.5-1-2.7 26-10.5z"/></g></g></svg>